<?xml version="1.0" encoding="utf-8"?>
<!-- Generator: Adobe Illustrator 16.0.4, SVG Export Plug-In . SVG Version: 6.00 Build 0)  -->
<!DOCTYPE svg PUBLIC "-//W3C//DTD SVG 1.1//EN" "http://www.w3.org/Graphics/SVG/1.1/DTD/svg11.dtd">
<svg version="1.1" id="Layer_1" xmlns="http://www.w3.org/2000/svg" xmlns:xlink="http://www.w3.org/1999/xlink" x="0px" y="0px"
	 width="512px" height="512px" viewBox="-1104.5 -1932.5 512 512" enable-background="new -1104.5 -1932.5 512 512"
	 xml:space="preserve">
<g>
	<line fill="none" stroke="#B35047" x1="-1072.484" y1="-1932.483" x2="-1072.484" y2="-1420.483"/>
	<line fill="none" stroke="#B35047" x1="-1040.484" y1="-1932.483" x2="-1040.484" y2="-1420.483"/>
	<line fill="none" stroke="#B35047" x1="-1008.484" y1="-1932.483" x2="-1008.484" y2="-1420.483"/>
	<line fill="none" stroke="#B35047" x1="-976.484" y1="-1932.483" x2="-976.484" y2="-1420.483"/>
	<line fill="none" stroke="#B35047" x1="-944.484" y1="-1932.483" x2="-944.484" y2="-1420.483"/>
	<line fill="none" stroke="#B35047" x1="-912.484" y1="-1932.483" x2="-912.484" y2="-1420.483"/>
	<line fill="none" stroke="#B35047" x1="-880.484" y1="-1932.483" x2="-880.484" y2="-1420.483"/>
	<line fill="none" stroke="#B35047" x1="-848.484" y1="-1932.483" x2="-848.484" y2="-1420.483"/>
	<line fill="none" stroke="#B35047" x1="-816.484" y1="-1932.483" x2="-816.484" y2="-1420.483"/>
	<line fill="none" stroke="#B35047" x1="-784.484" y1="-1932.483" x2="-784.484" y2="-1420.483"/>
	<line fill="none" stroke="#B35047" x1="-752.484" y1="-1932.483" x2="-752.484" y2="-1420.483"/>
	<line fill="none" stroke="#B35047" x1="-720.484" y1="-1932.483" x2="-720.484" y2="-1420.483"/>
	<line fill="none" stroke="#B35047" x1="-688.484" y1="-1932.483" x2="-688.484" y2="-1420.483"/>
	<line fill="none" stroke="#B35047" x1="-656.484" y1="-1932.483" x2="-656.484" y2="-1420.483"/>
	<line fill="none" stroke="#B35047" x1="-624.484" y1="-1932.483" x2="-624.484" y2="-1420.483"/>
	<line fill="none" stroke="#B35047" x1="-1104.484" y1="-1900.485" x2="-592.484" y2="-1900.485"/>
	<line fill="none" stroke="#B35047" x1="-1104.484" y1="-1868.485" x2="-592.484" y2="-1868.485"/>
	<line fill="none" stroke="#B35047" x1="-1104.484" y1="-1836.485" x2="-592.484" y2="-1836.485"/>
	<line fill="none" stroke="#B35047" x1="-1104.484" y1="-1804.485" x2="-592.484" y2="-1804.485"/>
	<line fill="none" stroke="#B35047" x1="-1104.484" y1="-1772.485" x2="-592.484" y2="-1772.485"/>
	<line fill="none" stroke="#B35047" x1="-1104.484" y1="-1740.485" x2="-592.484" y2="-1740.485"/>
	<line fill="none" stroke="#B35047" x1="-1104.484" y1="-1708.485" x2="-592.484" y2="-1708.485"/>
	<line fill="none" stroke="#B35047" x1="-1104.484" y1="-1676.483" x2="-592.484" y2="-1676.483"/>
	<line fill="none" stroke="#B35047" x1="-1104.484" y1="-1644.483" x2="-592.484" y2="-1644.483"/>
	<line fill="none" stroke="#B35047" x1="-1104.484" y1="-1612.483" x2="-592.484" y2="-1612.483"/>
	<line fill="none" stroke="#B35047" x1="-1104.484" y1="-1580.483" x2="-592.484" y2="-1580.483"/>
	<line fill="none" stroke="#B35047" x1="-1104.484" y1="-1548.483" x2="-592.484" y2="-1548.483"/>
	<line fill="none" stroke="#B35047" x1="-1104.484" y1="-1516.483" x2="-592.484" y2="-1516.483"/>
	<line fill="none" stroke="#B35047" x1="-1104.484" y1="-1484.483" x2="-592.484" y2="-1484.483"/>
	<line fill="none" stroke="#B35047" x1="-1104.484" y1="-1452.483" x2="-592.484" y2="-1452.483"/>
	<rect x="-1104.484" y="-1932.483" fill="none" stroke="#B35047" width="512" height="512"/>
</g>
<path d="M-848.501-1620.577c-11.045,0-20-8.953-20-20v-104c0-11.045,8.955-20,20-20l0,0c11.045,0,20.002,8.955,20.002,20v104
	C-828.499-1629.53-837.456-1620.577-848.501-1620.577L-848.501-1620.577z"/>
<path d="M-848.501-1560.577c-11.045,0-20-8.953-20-20l0,0c0-11.045,8.955-20,20-20l0,0c11.045,0,20.002,8.955,20.002,20l0,0
	C-828.499-1569.53-837.456-1560.577-848.501-1560.577L-848.501-1560.577z"/>
<path d="M-848.429-1826.596l170.037,294.514h-340.074L-848.429-1826.596 M-848.429-1886.245c-7.25,0-14.5,4.763-20,14.29
	l-199.319,345.231c-11,19.053-2,34.641,20,34.641h398.639c22,0,31-15.588,20-34.641l-199.319-345.231
	C-833.929-1881.481-841.179-1886.245-848.429-1886.245L-848.429-1886.245z"/>
</svg>
