<?xml version="1.0" encoding="utf-8"?>
<!-- Generator: Adobe Illustrator 16.0.4, SVG Export Plug-In . SVG Version: 6.00 Build 0)  -->
<!DOCTYPE svg PUBLIC "-//W3C//DTD SVG 1.1//EN" "http://www.w3.org/Graphics/SVG/1.1/DTD/svg11.dtd">
<svg version="1.1" id="Layer_1" xmlns="http://www.w3.org/2000/svg" xmlns:xlink="http://www.w3.org/1999/xlink" x="0px" y="0px"
	 width="512px" height="512px" viewBox="551.5 -276.5 512 512" enable-background="new 551.5 -276.5 512 512" xml:space="preserve">
<g>
	<line fill="none" stroke="#B35047" x1="1031.5" y1="235.501" x2="1031.5" y2="-276.5"/>
	<line fill="none" stroke="#B35047" x1="999.5" y1="235.501" x2="999.5" y2="-276.5"/>
	<line fill="none" stroke="#B35047" x1="967.5" y1="235.501" x2="967.5" y2="-276.5"/>
	<line fill="none" stroke="#B35047" x1="935.5" y1="235.501" x2="935.5" y2="-276.5"/>
	<line fill="none" stroke="#B35047" x1="903.5" y1="235.501" x2="903.5" y2="-276.5"/>
	<line fill="none" stroke="#B35047" x1="871.5" y1="235.501" x2="871.5" y2="-276.5"/>
	<line fill="none" stroke="#B35047" x1="839.5" y1="235.501" x2="839.5" y2="-276.5"/>
	<line fill="none" stroke="#B35047" x1="807.5" y1="235.501" x2="807.5" y2="-276.5"/>
	<line fill="none" stroke="#B35047" x1="775.5" y1="235.501" x2="775.5" y2="-276.5"/>
	<line fill="none" stroke="#B35047" x1="743.5" y1="235.501" x2="743.5" y2="-276.5"/>
	<line fill="none" stroke="#B35047" x1="711.5" y1="235.501" x2="711.5" y2="-276.5"/>
	<line fill="none" stroke="#B35047" x1="679.5" y1="235.501" x2="679.5" y2="-276.5"/>
	<line fill="none" stroke="#B35047" x1="647.5" y1="235.501" x2="647.5" y2="-276.5"/>
	<line fill="none" stroke="#B35047" x1="615.5" y1="235.501" x2="615.5" y2="-276.5"/>
	<line fill="none" stroke="#B35047" x1="583.5" y1="235.501" x2="583.5" y2="-276.5"/>
	<line fill="none" stroke="#B35047" x1="1063.5" y1="203.501" x2="551.5" y2="203.501"/>
	<line fill="none" stroke="#B35047" x1="1063.5" y1="171.501" x2="551.5" y2="171.501"/>
	<line fill="none" stroke="#B35047" x1="1063.5" y1="139.501" x2="551.5" y2="139.501"/>
	<line fill="none" stroke="#B35047" x1="1063.5" y1="107.501" x2="551.5" y2="107.501"/>
	<line fill="none" stroke="#B35047" x1="1063.5" y1="75.501" x2="551.5" y2="75.501"/>
	<line fill="none" stroke="#B35047" x1="1063.5" y1="43.501" x2="551.5" y2="43.501"/>
	<line fill="none" stroke="#B35047" x1="1063.5" y1="11.501" x2="551.5" y2="11.501"/>
	<line fill="none" stroke="#B35047" x1="1063.5" y1="-20.5" x2="551.5" y2="-20.5"/>
	<line fill="none" stroke="#B35047" x1="1063.5" y1="-52.5" x2="551.5" y2="-52.5"/>
	<line fill="none" stroke="#B35047" x1="1063.5" y1="-84.5" x2="551.5" y2="-84.5"/>
	<line fill="none" stroke="#B35047" x1="1063.5" y1="-116.5" x2="551.5" y2="-116.5"/>
	<line fill="none" stroke="#B35047" x1="1063.5" y1="-148.5" x2="551.5" y2="-148.5"/>
	<line fill="none" stroke="#B35047" x1="1063.5" y1="-180.5" x2="551.5" y2="-180.5"/>
	<line fill="none" stroke="#B35047" x1="1063.5" y1="-212.5" x2="551.5" y2="-212.5"/>
	<line fill="none" stroke="#B35047" x1="1063.5" y1="-244.5" x2="551.5" y2="-244.5"/>
	<rect x="551.5" y="-276.5" fill="none" stroke="#B35047" width="512" height="512.001"/>
</g>
<path d="M807.512-148.5c5.118,0,10.235,1.952,14.141,5.856L993.73,29.405c7.812,7.81,7.812,20.473,0.003,28.285
	c-7.811,7.811-20.474,7.812-28.284,0.002l-157.938-157.91L649.551,57.716c-7.812,7.809-20.476,7.809-28.284-0.002
	c-7.81-7.812-7.809-20.475,0.003-28.285l172.102-172.072C797.276-146.548,802.394-148.5,807.512-148.5z"/>
</svg>
