<?xml version="1.0" encoding="utf-8"?>
<!-- Generator: Adobe Illustrator 16.0.4, SVG Export Plug-In . SVG Version: 6.00 Build 0)  -->
<!DOCTYPE svg PUBLIC "-//W3C//DTD SVG 1.1//EN" "http://www.w3.org/Graphics/SVG/1.1/DTD/svg11.dtd">
<svg version="1.1" id="Layer_1" xmlns="http://www.w3.org/2000/svg" xmlns:xlink="http://www.w3.org/1999/xlink" x="0px" y="0px"
	 width="512px" height="512px" viewBox="-1104.5 275.5 512 512" enable-background="new -1104.5 275.5 512 512"
	 xml:space="preserve">
<g>
	<line fill="none" stroke="#B35047" x1="-1072.484" y1="275.516" x2="-1072.484" y2="787.516"/>
	<line fill="none" stroke="#B35047" x1="-1040.484" y1="275.516" x2="-1040.484" y2="787.516"/>
	<line fill="none" stroke="#B35047" x1="-1008.484" y1="275.516" x2="-1008.484" y2="787.516"/>
	<line fill="none" stroke="#B35047" x1="-976.484" y1="275.516" x2="-976.484" y2="787.516"/>
	<line fill="none" stroke="#B35047" x1="-944.484" y1="275.516" x2="-944.484" y2="787.516"/>
	<line fill="none" stroke="#B35047" x1="-912.484" y1="275.516" x2="-912.484" y2="787.516"/>
	<line fill="none" stroke="#B35047" x1="-880.484" y1="275.516" x2="-880.484" y2="787.516"/>
	<line fill="none" stroke="#B35047" x1="-848.484" y1="275.516" x2="-848.484" y2="787.516"/>
	<line fill="none" stroke="#B35047" x1="-816.484" y1="275.516" x2="-816.484" y2="787.516"/>
	<line fill="none" stroke="#B35047" x1="-784.484" y1="275.516" x2="-784.484" y2="787.516"/>
	<line fill="none" stroke="#B35047" x1="-752.484" y1="275.516" x2="-752.484" y2="787.516"/>
	<line fill="none" stroke="#B35047" x1="-720.484" y1="275.516" x2="-720.484" y2="787.516"/>
	<line fill="none" stroke="#B35047" x1="-688.484" y1="275.516" x2="-688.484" y2="787.516"/>
	<line fill="none" stroke="#B35047" x1="-656.484" y1="275.516" x2="-656.484" y2="787.516"/>
	<line fill="none" stroke="#B35047" x1="-624.484" y1="275.516" x2="-624.484" y2="787.516"/>
	<line fill="none" stroke="#B35047" x1="-1104.484" y1="307.516" x2="-592.484" y2="307.516"/>
	<line fill="none" stroke="#B35047" x1="-1104.484" y1="339.516" x2="-592.484" y2="339.516"/>
	<line fill="none" stroke="#B35047" x1="-1104.484" y1="371.516" x2="-592.484" y2="371.516"/>
	<line fill="none" stroke="#B35047" x1="-1104.484" y1="403.516" x2="-592.484" y2="403.516"/>
	<line fill="none" stroke="#B35047" x1="-1104.484" y1="435.516" x2="-592.484" y2="435.516"/>
	<line fill="none" stroke="#B35047" x1="-1104.484" y1="467.516" x2="-592.484" y2="467.516"/>
	<line fill="none" stroke="#B35047" x1="-1104.484" y1="499.516" x2="-592.484" y2="499.516"/>
	<line fill="none" stroke="#B35047" x1="-1104.484" y1="531.516" x2="-592.484" y2="531.516"/>
	<line fill="none" stroke="#B35047" x1="-1104.484" y1="563.516" x2="-592.484" y2="563.516"/>
	<line fill="none" stroke="#B35047" x1="-1104.484" y1="595.516" x2="-592.484" y2="595.516"/>
	<line fill="none" stroke="#B35047" x1="-1104.484" y1="627.516" x2="-592.484" y2="627.516"/>
	<line fill="none" stroke="#B35047" x1="-1104.484" y1="659.516" x2="-592.484" y2="659.516"/>
	<line fill="none" stroke="#B35047" x1="-1104.484" y1="691.516" x2="-592.484" y2="691.516"/>
	<line fill="none" stroke="#B35047" x1="-1104.484" y1="723.516" x2="-592.484" y2="723.516"/>
	<line fill="none" stroke="#B35047" x1="-1104.484" y1="755.516" x2="-592.484" y2="755.516"/>
	<rect x="-1104.484" y="275.516" fill="none" stroke="#B35047" width="512" height="512"/>
</g>
<path fill="#231F20" d="M-660.536,511.499h-327.641L-880.89,404.21c7.811-7.811,7.811-20.473,0-28.283s-20.475-7.811-28.285,0
	l-141.411,141.411c-0.007,0.007-0.014,0.012-0.021,0.019c-2.44,2.441-4.119,5.356-5.033,8.45c-0.018,0.058-0.027,0.117-0.043,0.176
	c-0.161,0.562-0.305,1.127-0.415,1.698c-0.056,0.29-0.083,0.584-0.126,0.877c-0.051,0.342-0.115,0.682-0.148,1.025
	c-0.029,0.312-0.029,0.627-0.045,0.94c-0.016,0.325-0.047,0.651-0.047,0.977s0.031,0.651,0.047,0.977
	c0.016,0.313,0.016,0.628,0.045,0.94c0.033,0.344,0.098,0.684,0.148,1.025c0.043,0.293,0.07,0.587,0.126,0.877
	c0.11,0.571,0.254,1.137,0.415,1.698c0.016,0.059,0.025,0.118,0.043,0.176c0.914,3.094,2.593,6.009,5.033,8.45
	c0.007,0.007,0.014,0.012,0.021,0.019l141.411,141.411c7.811,7.811,20.475,7.811,28.285,0s7.811-20.473,0-28.283l-107.287-107.289
	h327.641c11.045,0,20-8.955,20-20S-649.491,511.499-660.536,511.499z"/>
</svg>
