<?xml version="1.0" encoding="utf-8"?>
<!-- Generator: Adobe Illustrator 16.0.4, SVG Export Plug-In . SVG Version: 6.00 Build 0)  -->
<!DOCTYPE svg PUBLIC "-//W3C//DTD SVG 1.1//EN" "http://www.w3.org/Graphics/SVG/1.1/DTD/svg11.dtd">
<svg version="1.1" id="Layer_1" xmlns="http://www.w3.org/2000/svg" xmlns:xlink="http://www.w3.org/1999/xlink" x="0px" y="0px"
	 width="512px" height="512px" viewBox="-552.5 275.5 512 512" enable-background="new -552.5 275.5 512 512" xml:space="preserve">
<g>
	<line fill="none" stroke="#B35047" x1="-72.484" y1="787.516" x2="-72.484" y2="275.516"/>
	<line fill="none" stroke="#B35047" x1="-104.484" y1="787.516" x2="-104.484" y2="275.516"/>
	<line fill="none" stroke="#B35047" x1="-136.484" y1="787.516" x2="-136.484" y2="275.516"/>
	<line fill="none" stroke="#B35047" x1="-168.484" y1="787.516" x2="-168.484" y2="275.516"/>
	<line fill="none" stroke="#B35047" x1="-200.484" y1="787.516" x2="-200.484" y2="275.516"/>
	<line fill="none" stroke="#B35047" x1="-232.484" y1="787.516" x2="-232.484" y2="275.516"/>
	<line fill="none" stroke="#B35047" x1="-264.484" y1="787.516" x2="-264.484" y2="275.516"/>
	<line fill="none" stroke="#B35047" x1="-296.484" y1="787.516" x2="-296.484" y2="275.516"/>
	<line fill="none" stroke="#B35047" x1="-328.484" y1="787.516" x2="-328.484" y2="275.516"/>
	<line fill="none" stroke="#B35047" x1="-360.484" y1="787.516" x2="-360.484" y2="275.516"/>
	<line fill="none" stroke="#B35047" x1="-392.484" y1="787.516" x2="-392.484" y2="275.516"/>
	<line fill="none" stroke="#B35047" x1="-424.484" y1="787.516" x2="-424.484" y2="275.516"/>
	<line fill="none" stroke="#B35047" x1="-456.484" y1="787.516" x2="-456.484" y2="275.516"/>
	<line fill="none" stroke="#B35047" x1="-488.484" y1="787.516" x2="-488.484" y2="275.516"/>
	<line fill="none" stroke="#B35047" x1="-520.484" y1="787.516" x2="-520.484" y2="275.516"/>
	<line fill="none" stroke="#B35047" x1="-40.484" y1="755.516" x2="-552.484" y2="755.516"/>
	<line fill="none" stroke="#B35047" x1="-40.484" y1="723.516" x2="-552.484" y2="723.516"/>
	<line fill="none" stroke="#B35047" x1="-40.484" y1="691.516" x2="-552.484" y2="691.516"/>
	<line fill="none" stroke="#B35047" x1="-40.484" y1="659.516" x2="-552.484" y2="659.516"/>
	<line fill="none" stroke="#B35047" x1="-40.484" y1="627.516" x2="-552.484" y2="627.516"/>
	<line fill="none" stroke="#B35047" x1="-40.484" y1="595.516" x2="-552.484" y2="595.516"/>
	<line fill="none" stroke="#B35047" x1="-40.484" y1="563.516" x2="-552.484" y2="563.516"/>
	<line fill="none" stroke="#B35047" x1="-40.484" y1="531.516" x2="-552.484" y2="531.516"/>
	<line fill="none" stroke="#B35047" x1="-40.484" y1="499.516" x2="-552.484" y2="499.516"/>
	<line fill="none" stroke="#B35047" x1="-40.484" y1="467.516" x2="-552.484" y2="467.516"/>
	<line fill="none" stroke="#B35047" x1="-40.484" y1="435.516" x2="-552.484" y2="435.516"/>
	<line fill="none" stroke="#B35047" x1="-40.484" y1="403.516" x2="-552.484" y2="403.516"/>
	<line fill="none" stroke="#B35047" x1="-40.484" y1="371.516" x2="-552.484" y2="371.516"/>
	<line fill="none" stroke="#B35047" x1="-40.484" y1="339.516" x2="-552.484" y2="339.516"/>
	<line fill="none" stroke="#B35047" x1="-40.484" y1="307.516" x2="-552.484" y2="307.516"/>
	<rect x="-552.484" y="275.516" fill="none" stroke="#B35047" width="512" height="512"/>
</g>
<path fill="#231F20" d="M-484.433,551.532h327.641l-107.287,107.289c-7.811,7.811-7.811,20.473,0,28.283s20.475,7.811,28.285,0
	l141.411-141.411c0.007-0.007,0.014-0.012,0.021-0.019c2.44-2.441,4.119-5.356,5.033-8.45c0.018-0.058,0.027-0.117,0.043-0.176
	c0.161-0.562,0.305-1.127,0.415-1.698c0.056-0.29,0.083-0.584,0.126-0.877c0.051-0.342,0.115-0.682,0.148-1.025
	c0.029-0.312,0.029-0.627,0.045-0.94c0.016-0.325,0.047-0.651,0.047-0.977s-0.031-0.651-0.047-0.977
	c-0.016-0.313-0.016-0.628-0.045-0.94c-0.033-0.344-0.098-0.684-0.148-1.025c-0.043-0.293-0.07-0.587-0.126-0.877
	c-0.11-0.571-0.254-1.137-0.415-1.698c-0.016-0.059-0.025-0.118-0.043-0.176c-0.914-3.094-2.593-6.009-5.033-8.45
	c-0.007-0.007-0.014-0.012-0.021-0.019l-141.411-141.411c-7.811-7.811-20.475-7.811-28.285,0s-7.811,20.473,0,28.283
	l107.287,107.289h-327.641c-11.045,0-20,8.955-20,20S-495.478,551.532-484.433,551.532z"/>
</svg>
