<?xml version="1.0" encoding="utf-8"?>
<!-- Generator: Adobe Illustrator 16.0.4, SVG Export Plug-In . SVG Version: 6.00 Build 0)  -->
<!DOCTYPE svg PUBLIC "-//W3C//DTD SVG 1.1//EN" "http://www.w3.org/Graphics/SVG/1.1/DTD/svg11.dtd">
<svg version="1.1" id="Layer_1" xmlns="http://www.w3.org/2000/svg" xmlns:xlink="http://www.w3.org/1999/xlink" x="0px" y="0px"
	 width="512px" height="512px" viewBox="-1104.5 -276.5 512 512" enable-background="new -1104.5 -276.5 512 512"
	 xml:space="preserve">
<g>
	<line fill="none" stroke="#B35047" x1="-1072.5" y1="-276.5" x2="-1072.5" y2="235.501"/>
	<line fill="none" stroke="#B35047" x1="-1040.5" y1="-276.5" x2="-1040.5" y2="235.501"/>
	<line fill="none" stroke="#B35047" x1="-1008.5" y1="-276.5" x2="-1008.5" y2="235.501"/>
	<line fill="none" stroke="#B35047" x1="-976.5" y1="-276.5" x2="-976.5" y2="235.501"/>
	<line fill="none" stroke="#B35047" x1="-944.5" y1="-276.5" x2="-944.5" y2="235.501"/>
	<line fill="none" stroke="#B35047" x1="-912.5" y1="-276.5" x2="-912.5" y2="235.501"/>
	<line fill="none" stroke="#B35047" x1="-880.5" y1="-276.5" x2="-880.5" y2="235.501"/>
	<line fill="none" stroke="#B35047" x1="-848.5" y1="-276.5" x2="-848.5" y2="235.501"/>
	<line fill="none" stroke="#B35047" x1="-816.5" y1="-276.5" x2="-816.5" y2="235.501"/>
	<line fill="none" stroke="#B35047" x1="-784.5" y1="-276.5" x2="-784.5" y2="235.501"/>
	<line fill="none" stroke="#B35047" x1="-752.5" y1="-276.5" x2="-752.5" y2="235.501"/>
	<line fill="none" stroke="#B35047" x1="-720.5" y1="-276.5" x2="-720.5" y2="235.501"/>
	<line fill="none" stroke="#B35047" x1="-688.5" y1="-276.5" x2="-688.5" y2="235.501"/>
	<line fill="none" stroke="#B35047" x1="-656.5" y1="-276.5" x2="-656.5" y2="235.501"/>
	<line fill="none" stroke="#B35047" x1="-624.5" y1="-276.5" x2="-624.5" y2="235.501"/>
	<line fill="none" stroke="#B35047" x1="-1104.5" y1="-244.5" x2="-592.5" y2="-244.5"/>
	<line fill="none" stroke="#B35047" x1="-1104.5" y1="-212.5" x2="-592.5" y2="-212.5"/>
	<line fill="none" stroke="#B35047" x1="-1104.5" y1="-180.5" x2="-592.5" y2="-180.5"/>
	<line fill="none" stroke="#B35047" x1="-1104.5" y1="-148.5" x2="-592.5" y2="-148.5"/>
	<line fill="none" stroke="#B35047" x1="-1104.5" y1="-116.5" x2="-592.5" y2="-116.5"/>
	<line fill="none" stroke="#B35047" x1="-1104.5" y1="-84.5" x2="-592.5" y2="-84.5"/>
	<line fill="none" stroke="#B35047" x1="-1104.5" y1="-52.5" x2="-592.5" y2="-52.5"/>
	<line fill="none" stroke="#B35047" x1="-1104.5" y1="-20.499" x2="-592.5" y2="-20.499"/>
	<line fill="none" stroke="#B35047" x1="-1104.5" y1="11.501" x2="-592.5" y2="11.501"/>
	<line fill="none" stroke="#B35047" x1="-1104.5" y1="43.501" x2="-592.5" y2="43.501"/>
	<line fill="none" stroke="#B35047" x1="-1104.5" y1="75.501" x2="-592.5" y2="75.501"/>
	<line fill="none" stroke="#B35047" x1="-1104.5" y1="107.501" x2="-592.5" y2="107.501"/>
	<line fill="none" stroke="#B35047" x1="-1104.5" y1="139.501" x2="-592.5" y2="139.501"/>
	<line fill="none" stroke="#B35047" x1="-1104.5" y1="171.501" x2="-592.5" y2="171.501"/>
	<line fill="none" stroke="#B35047" x1="-1104.5" y1="203.501" x2="-592.5" y2="203.501"/>
	<rect x="-1104.5" y="-276.5" fill="none" stroke="#B35047" width="512" height="512.001"/>
</g>
<path d="M-848.512,107.501c-5.118,0-10.235-1.952-14.141-5.856L-1034.73-70.404c-7.812-7.81-7.812-20.473-0.003-28.285
	c7.811-7.811,20.474-7.812,28.284-0.002l157.938,157.91l157.961-157.934c7.812-7.809,20.476-7.808,28.284,0.002
	c7.81,7.812,7.809,20.475-0.003,28.285l-172.102,172.072C-838.276,105.549-843.394,107.501-848.512,107.501z"/>
</svg>
