<?xml version="1.0" encoding="utf-8"?>
<!-- Generator: Adobe Illustrator 16.0.4, SVG Export Plug-In . SVG Version: 6.00 Build 0)  -->
<!DOCTYPE svg PUBLIC "-//W3C//DTD SVG 1.1//EN" "http://www.w3.org/Graphics/SVG/1.1/DTD/svg11.dtd">
<svg version="1.1" id="Layer_1" xmlns="http://www.w3.org/2000/svg" xmlns:xlink="http://www.w3.org/1999/xlink" x="0px" y="0px"
	 width="512px" height="512px" viewBox="-1104.5 2483.5 512 512" enable-background="new -1104.5 2483.5 512 512"
	 xml:space="preserve">
<g>
	<line fill="none" stroke="#B35047" x1="-1072.5" y1="2483.5" x2="-1072.5" y2="2995.5"/>
	<line fill="none" stroke="#B35047" x1="-1040.5" y1="2483.5" x2="-1040.5" y2="2995.5"/>
	<line fill="none" stroke="#B35047" x1="-1008.5" y1="2483.5" x2="-1008.5" y2="2995.5"/>
	<line fill="none" stroke="#B35047" x1="-976.5" y1="2483.5" x2="-976.5" y2="2995.5"/>
	<line fill="none" stroke="#B35047" x1="-944.5" y1="2483.5" x2="-944.5" y2="2995.5"/>
	<line fill="none" stroke="#B35047" x1="-912.5" y1="2483.5" x2="-912.5" y2="2995.5"/>
	<line fill="none" stroke="#B35047" x1="-880.5" y1="2483.5" x2="-880.5" y2="2995.5"/>
	<line fill="none" stroke="#B35047" x1="-848.5" y1="2483.5" x2="-848.5" y2="2995.5"/>
	<line fill="none" stroke="#B35047" x1="-816.5" y1="2483.5" x2="-816.5" y2="2995.5"/>
	<line fill="none" stroke="#B35047" x1="-784.5" y1="2483.5" x2="-784.5" y2="2995.5"/>
	<line fill="none" stroke="#B35047" x1="-752.5" y1="2483.5" x2="-752.5" y2="2995.5"/>
	<line fill="none" stroke="#B35047" x1="-720.5" y1="2483.5" x2="-720.5" y2="2995.5"/>
	<line fill="none" stroke="#B35047" x1="-688.5" y1="2483.5" x2="-688.5" y2="2995.5"/>
	<line fill="none" stroke="#B35047" x1="-656.5" y1="2483.5" x2="-656.5" y2="2995.5"/>
	<line fill="none" stroke="#B35047" x1="-624.5" y1="2483.5" x2="-624.5" y2="2995.5"/>
	<line fill="none" stroke="#B35047" x1="-1104.5" y1="2515.5" x2="-592.5" y2="2515.5"/>
	<line fill="none" stroke="#B35047" x1="-1104.5" y1="2547.5" x2="-592.5" y2="2547.5"/>
	<line fill="none" stroke="#B35047" x1="-1104.5" y1="2579.5" x2="-592.5" y2="2579.5"/>
	<line fill="none" stroke="#B35047" x1="-1104.5" y1="2611.5" x2="-592.5" y2="2611.5"/>
	<line fill="none" stroke="#B35047" x1="-1104.5" y1="2643.5" x2="-592.5" y2="2643.5"/>
	<line fill="none" stroke="#B35047" x1="-1104.5" y1="2675.5" x2="-592.5" y2="2675.5"/>
	<line fill="none" stroke="#B35047" x1="-1104.5" y1="2707.5" x2="-592.5" y2="2707.5"/>
	<line fill="none" stroke="#B35047" x1="-1104.5" y1="2739.5" x2="-592.5" y2="2739.5"/>
	<line fill="none" stroke="#B35047" x1="-1104.5" y1="2771.5" x2="-592.5" y2="2771.5"/>
	<line fill="none" stroke="#B35047" x1="-1104.5" y1="2803.5" x2="-592.5" y2="2803.5"/>
	<line fill="none" stroke="#B35047" x1="-1104.5" y1="2835.5" x2="-592.5" y2="2835.5"/>
	<line fill="none" stroke="#B35047" x1="-1104.5" y1="2867.5" x2="-592.5" y2="2867.5"/>
	<line fill="none" stroke="#B35047" x1="-1104.5" y1="2899.5" x2="-592.5" y2="2899.5"/>
	<line fill="none" stroke="#B35047" x1="-1104.5" y1="2931.5" x2="-592.5" y2="2931.5"/>
	<line fill="none" stroke="#B35047" x1="-1104.5" y1="2963.5" x2="-592.5" y2="2963.5"/>
	<rect x="-1104.5" y="2483.5" fill="none" stroke="#B35047" width="512" height="512"/>
</g>
<path d="M-656.504,2563.386c-0.061-26.457-21.524-47.886-47.996-47.886h-68.002h-56h-192c-0.877,0-1.734,0.076-2.582,0.186
	c-9.822,1.27-17.418,9.646-17.418,19.814v408c0,11.047,8.955,20,20,20h192h56h49.719h17.284h0.999
	c26.322,0,47.684-21.189,47.984-47.44h0.018v-0.452v-39.563v-312.651L-656.504,2563.386z M-881.27,2691.166l-5.406-5.406
	c-3.904-3.905-9.023-5.858-14.143-5.858s-10.237,1.953-14.143,5.858l-5.456,5.456V2555.5h39.147V2691.166z M-696.498,2876.044
	v38.241l-0.016,1.316c-0.049,4.355-3.633,7.898-7.986,7.898h-0.999h-17.284h-49.719h-56h-172v-368h40.085v184
	c0,0.06,0.009,0.118,0.009,0.179c0.006,0.597,0.032,1.194,0.091,1.789c0.03,0.321,0.091,0.635,0.138,0.951
	c0.047,0.328,0.085,0.656,0.149,0.982c0.069,0.354,0.167,0.697,0.255,1.044c0.072,0.285,0.135,0.571,0.219,0.854
	c0.104,0.34,0.23,0.668,0.35,0.999c0.103,0.283,0.195,0.568,0.311,0.848c0.13,0.313,0.281,0.613,0.426,0.918
	c0.137,0.286,0.263,0.575,0.412,0.855c0.16,0.298,0.34,0.58,0.514,0.868c0.162,0.271,0.314,0.546,0.492,0.81
	c0.219,0.328,0.461,0.638,0.699,0.951c0.156,0.206,0.299,0.42,0.463,0.621c0.841,1.024,1.78,1.964,2.805,2.804
	c0.201,0.165,0.415,0.309,0.621,0.465c0.312,0.237,0.623,0.479,0.951,0.698c0.264,0.177,0.539,0.329,0.809,0.492
	c0.289,0.174,0.572,0.354,0.869,0.514c0.281,0.149,0.569,0.276,0.855,0.411c0.305,0.146,0.605,0.297,0.918,0.427
	c0.279,0.115,0.564,0.208,0.848,0.31c0.332,0.12,0.66,0.247,0.999,0.35c0.282,0.086,0.568,0.147,0.853,0.22
	c0.348,0.089,0.691,0.185,1.045,0.255c0.326,0.064,0.654,0.102,0.982,0.15c0.316,0.046,0.629,0.105,0.951,0.137
	c0.596,0.059,1.192,0.085,1.789,0.091c0.061,0,0.119,0.009,0.179,0.009s0.118-0.009,0.179-0.009
	c0.597-0.006,1.193-0.032,1.789-0.091c0.321-0.031,0.634-0.091,0.951-0.137c0.328-0.049,0.656-0.086,0.982-0.15
	c0.354-0.07,0.697-0.166,1.044-0.255c0.284-0.072,0.571-0.134,0.853-0.22c0.34-0.103,0.668-0.229,1-0.35
	c0.283-0.102,0.568-0.194,0.848-0.31c0.312-0.13,0.613-0.281,0.918-0.427c0.285-0.135,0.574-0.262,0.855-0.411
	c0.297-0.159,0.58-0.34,0.867-0.513c0.271-0.163,0.547-0.316,0.811-0.493c0.328-0.219,0.637-0.461,0.949-0.697
	c0.207-0.157,0.421-0.3,0.623-0.466c0.518-0.424,1.014-0.871,1.485-1.344l25.444-25.443l23.98,23.98
	c3.666,4.546,9.273,7.459,15.568,7.459c7.723,0,14.41-4.384,17.743-10.792c0.04-0.077,0.073-0.155,0.112-0.232
	c0.23-0.46,0.455-0.925,0.65-1.403c0.166-0.398,0.305-0.804,0.443-1.21c0.055-0.163,0.119-0.322,0.17-0.487
	c0.719-2.288,1.005-4.677,0.881-7.051V2555.5h12.768h56h68.002c4.398,0,7.986,3.579,7.996,7.979l0.006,1.762V2876.044z"/>
</svg>
