<?xml version="1.0" encoding="utf-8"?>
<!-- Generator: Adobe Illustrator 16.0.4, SVG Export Plug-In . SVG Version: 6.00 Build 0)  -->
<!DOCTYPE svg PUBLIC "-//W3C//DTD SVG 1.1//EN" "http://www.w3.org/Graphics/SVG/1.1/DTD/svg11.dtd">
<svg version="1.1" id="Layer_1" xmlns="http://www.w3.org/2000/svg" xmlns:xlink="http://www.w3.org/1999/xlink" x="0px" y="0px"
	 width="512px" height="512px" viewBox="1103.5 3587.5 512 512" enable-background="new 1103.5 3587.5 512 512"
	 xml:space="preserve">
<g>
	<line fill="none" stroke="#B35047" x1="1103.5" y1="4067.5" x2="1615.5" y2="4067.5"/>
	<line fill="none" stroke="#B35047" x1="1103.5" y1="4035.5" x2="1615.5" y2="4035.5"/>
	<line fill="none" stroke="#B35047" x1="1103.5" y1="4003.5" x2="1615.5" y2="4003.5"/>
	<line fill="none" stroke="#B35047" x1="1103.5" y1="3971.5" x2="1615.5" y2="3971.5"/>
	<line fill="none" stroke="#B35047" x1="1103.5" y1="3939.5" x2="1615.5" y2="3939.5"/>
	<line fill="none" stroke="#B35047" x1="1103.5" y1="3907.5" x2="1615.5" y2="3907.5"/>
	<line fill="none" stroke="#B35047" x1="1103.5" y1="3875.5" x2="1615.5" y2="3875.5"/>
	<line fill="none" stroke="#B35047" x1="1103.5" y1="3843.5" x2="1615.5" y2="3843.5"/>
	<line fill="none" stroke="#B35047" x1="1103.5" y1="3811.5" x2="1615.5" y2="3811.5"/>
	<line fill="none" stroke="#B35047" x1="1103.5" y1="3779.5" x2="1615.5" y2="3779.5"/>
	<line fill="none" stroke="#B35047" x1="1103.5" y1="3747.5" x2="1615.5" y2="3747.5"/>
	<line fill="none" stroke="#B35047" x1="1103.5" y1="3715.5" x2="1615.5" y2="3715.5"/>
	<line fill="none" stroke="#B35047" x1="1103.5" y1="3683.5" x2="1615.5" y2="3683.5"/>
	<line fill="none" stroke="#B35047" x1="1103.5" y1="3651.5" x2="1615.5" y2="3651.5"/>
	<line fill="none" stroke="#B35047" x1="1103.5" y1="3619.5" x2="1615.5" y2="3619.5"/>
	<line fill="none" stroke="#B35047" x1="1135.5" y1="4099.5" x2="1135.5" y2="3587.5"/>
	<line fill="none" stroke="#B35047" x1="1167.5" y1="4099.5" x2="1167.5" y2="3587.5"/>
	<line fill="none" stroke="#B35047" x1="1199.5" y1="4099.5" x2="1199.5" y2="3587.5"/>
	<line fill="none" stroke="#B35047" x1="1231.5" y1="4099.5" x2="1231.5" y2="3587.5"/>
	<line fill="none" stroke="#B35047" x1="1263.5" y1="4099.5" x2="1263.5" y2="3587.5"/>
	<line fill="none" stroke="#B35047" x1="1295.5" y1="4099.5" x2="1295.5" y2="3587.5"/>
	<line fill="none" stroke="#B35047" x1="1327.5" y1="4099.5" x2="1327.5" y2="3587.5"/>
	<line fill="none" stroke="#B35047" x1="1359.5" y1="4099.5" x2="1359.5" y2="3587.5"/>
	<line fill="none" stroke="#B35047" x1="1391.5" y1="4099.5" x2="1391.5" y2="3587.5"/>
	<line fill="none" stroke="#B35047" x1="1423.5" y1="4099.5" x2="1423.5" y2="3587.5"/>
	<line fill="none" stroke="#B35047" x1="1455.5" y1="4099.5" x2="1455.5" y2="3587.5"/>
	<line fill="none" stroke="#B35047" x1="1487.5" y1="4099.5" x2="1487.5" y2="3587.5"/>
	<line fill="none" stroke="#B35047" x1="1519.5" y1="4099.5" x2="1519.5" y2="3587.5"/>
	<line fill="none" stroke="#B35047" x1="1551.5" y1="4099.5" x2="1551.5" y2="3587.5"/>
	<line fill="none" stroke="#B35047" x1="1583.5" y1="4099.5" x2="1583.5" y2="3587.5"/>
	<rect x="1103.5" y="3587.5" fill="none" stroke="#B35047" width="512" height="512"/>
</g>
<path d="M1566.082,3691.686c-0.847-0.109-1.704-0.186-2.581-0.186h-235.984v-19.981c0-10.172-7.596-18.548-17.418-19.815
	c-0.848-0.109-1.705-0.187-2.582-0.187h-88.002c-0.877,0-1.734,0.076-2.582,0.187c-9.822,1.269-17.418,9.645-17.418,19.813v19.983
	h-44.016c-0.877,0-1.734,0.076-2.581,0.186c-9.823,1.268-17.419,9.645-17.419,19.814v264c0,11.047,8.955,20,20,20h408.002
	c6.904,0,12.99-3.498,16.584-8.818c0.051-0.074,0.092-0.154,0.141-0.23c0.306-0.461,0.6-0.93,0.861-1.418
	c0.023-0.041,0.04-0.086,0.062-0.127c1.497-2.805,2.352-6.004,2.352-9.404c0,0,0,0,0-0.002v-264
	C1583.501,3701.33,1575.905,3692.953,1566.082,3691.686z M1543.501,3955.5h-368.002v-224h368.002V3955.5z"/>
<g>
	<path d="M1359.5,3788.761c30.184,0,54.739,24.556,54.739,54.739s-24.556,54.739-54.739,54.739s-54.739-24.556-54.739-54.739
		S1329.316,3788.761,1359.5,3788.761 M1359.5,3748.761c-52.322,0-94.739,42.416-94.739,94.739c0,52.322,42.417,94.739,94.739,94.739
		c52.323,0,94.739-42.417,94.739-94.739C1454.239,3791.177,1411.823,3748.761,1359.5,3748.761L1359.5,3748.761z"/>
</g>
</svg>
