<?xml version="1.0" encoding="utf-8"?>
<!-- Generator: Adobe Illustrator 16.0.4, SVG Export Plug-In . SVG Version: 6.00 Build 0)  -->
<!DOCTYPE svg PUBLIC "-//W3C//DTD SVG 1.1//EN" "http://www.w3.org/Graphics/SVG/1.1/DTD/svg11.dtd">
<svg version="1.1" id="Layer_1" xmlns="http://www.w3.org/2000/svg" xmlns:xlink="http://www.w3.org/1999/xlink" x="0px" y="0px"
	 width="512px" height="512px" viewBox="-552.5 -2484.5 512 512" enable-background="new -552.5 -2484.5 512 512"
	 xml:space="preserve">
<g>
	<line fill="none" stroke="#B35047" x1="-520.5" y1="-2484.501" x2="-520.5" y2="-1972.499"/>
	<line fill="none" stroke="#B35047" x1="-488.5" y1="-2484.501" x2="-488.5" y2="-1972.499"/>
	<line fill="none" stroke="#B35047" x1="-456.5" y1="-2484.501" x2="-456.5" y2="-1972.499"/>
	<line fill="none" stroke="#B35047" x1="-424.5" y1="-2484.501" x2="-424.5" y2="-1972.499"/>
	<line fill="none" stroke="#B35047" x1="-392.5" y1="-2484.501" x2="-392.5" y2="-1972.499"/>
	<line fill="none" stroke="#B35047" x1="-360.5" y1="-2484.501" x2="-360.5" y2="-1972.499"/>
	<line fill="none" stroke="#B35047" x1="-328.5" y1="-2484.501" x2="-328.5" y2="-1972.499"/>
	<line fill="none" stroke="#B35047" x1="-296.5" y1="-2484.501" x2="-296.5" y2="-1972.499"/>
	<line fill="none" stroke="#B35047" x1="-264.5" y1="-2484.501" x2="-264.5" y2="-1972.499"/>
	<line fill="none" stroke="#B35047" x1="-232.5" y1="-2484.501" x2="-232.5" y2="-1972.499"/>
	<line fill="none" stroke="#B35047" x1="-200.5" y1="-2484.501" x2="-200.5" y2="-1972.499"/>
	<line fill="none" stroke="#B35047" x1="-168.5" y1="-2484.501" x2="-168.5" y2="-1972.499"/>
	<line fill="none" stroke="#B35047" x1="-136.5" y1="-2484.501" x2="-136.5" y2="-1972.499"/>
	<line fill="none" stroke="#B35047" x1="-104.5" y1="-2484.501" x2="-104.5" y2="-1972.499"/>
	<line fill="none" stroke="#B35047" x1="-72.5" y1="-2484.501" x2="-72.5" y2="-1972.499"/>
	<line fill="none" stroke="#B35047" x1="-552.5" y1="-2452.501" x2="-40.5" y2="-2452.501"/>
	<line fill="none" stroke="#B35047" x1="-552.5" y1="-2420.499" x2="-40.5" y2="-2420.499"/>
	<line fill="none" stroke="#B35047" x1="-552.5" y1="-2388.499" x2="-40.5" y2="-2388.499"/>
	<line fill="none" stroke="#B35047" x1="-552.5" y1="-2356.499" x2="-40.5" y2="-2356.499"/>
	<line fill="none" stroke="#B35047" x1="-552.5" y1="-2324.499" x2="-40.5" y2="-2324.499"/>
	<line fill="none" stroke="#B35047" x1="-552.5" y1="-2292.499" x2="-40.5" y2="-2292.499"/>
	<line fill="none" stroke="#B35047" x1="-552.5" y1="-2260.499" x2="-40.5" y2="-2260.499"/>
	<line fill="none" stroke="#B35047" x1="-552.5" y1="-2228.499" x2="-40.5" y2="-2228.499"/>
	<line fill="none" stroke="#B35047" x1="-552.5" y1="-2196.499" x2="-40.5" y2="-2196.499"/>
	<line fill="none" stroke="#B35047" x1="-552.5" y1="-2164.499" x2="-40.5" y2="-2164.499"/>
	<line fill="none" stroke="#B35047" x1="-552.5" y1="-2132.499" x2="-40.5" y2="-2132.499"/>
	<line fill="none" stroke="#B35047" x1="-552.5" y1="-2100.499" x2="-40.5" y2="-2100.499"/>
	<line fill="none" stroke="#B35047" x1="-552.5" y1="-2068.499" x2="-40.5" y2="-2068.499"/>
	<line fill="none" stroke="#B35047" x1="-552.5" y1="-2036.499" x2="-40.5" y2="-2036.499"/>
	<line fill="none" stroke="#B35047" x1="-552.5" y1="-2004.499" x2="-40.5" y2="-2004.499"/>
	<rect x="-552.5" y="-2484.501" fill="none" stroke="#B35047" width="512" height="512.002"/>
</g>
<path fill="#231F20" d="M-78.201-2384.625c-7.811-7.809-20.475-7.809-28.285,0l-267.822,267.822l-112.03-112.031
	c-7.812-7.812-20.477-7.81-28.285,0c-7.812,7.81-7.812,20.474,0,28.284l125.787,125.787c0.126,0.133,0.236,0.275,0.367,0.406
	c3.91,3.91,9.036,5.862,14.161,5.857c5.125,0.005,10.251-1.947,14.161-5.857c0.124-0.124,0.228-0.259,0.348-0.385l281.598-281.6
	C-70.391-2364.152-70.391-2376.813-78.201-2384.625z"/>
</svg>
