<?xml version="1.0" encoding="utf-8"?>
<!-- Generator: Adobe Illustrator 16.0.4, SVG Export Plug-In . SVG Version: 6.00 Build 0)  -->
<!DOCTYPE svg PUBLIC "-//W3C//DTD SVG 1.1//EN" "http://www.w3.org/Graphics/SVG/1.1/DTD/svg11.dtd">
<svg version="1.1" id="Layer_1" xmlns="http://www.w3.org/2000/svg" xmlns:xlink="http://www.w3.org/1999/xlink" x="0px" y="0px"
	 width="512px" height="512px" viewBox="1103.5 275.5 512 512" enable-background="new 1103.5 275.5 512 512" xml:space="preserve">
<g>
	<line fill="none" stroke="#B35047" x1="1136" y1="275.999" x2="1136" y2="788"/>
	<line fill="none" stroke="#B35047" x1="1168" y1="275.999" x2="1168" y2="788"/>
	<line fill="none" stroke="#B35047" x1="1200" y1="275.999" x2="1200" y2="788"/>
	<line fill="none" stroke="#B35047" x1="1232" y1="275.999" x2="1232" y2="788"/>
	<line fill="none" stroke="#B35047" x1="1264" y1="275.999" x2="1264" y2="788"/>
	<line fill="none" stroke="#B35047" x1="1296" y1="275.999" x2="1296" y2="788"/>
	<line fill="none" stroke="#B35047" x1="1328" y1="275.999" x2="1328" y2="788"/>
	<line fill="none" stroke="#B35047" x1="1360" y1="275.999" x2="1360" y2="788"/>
	<line fill="none" stroke="#B35047" x1="1392" y1="275.999" x2="1392" y2="788"/>
	<line fill="none" stroke="#B35047" x1="1424" y1="275.999" x2="1424" y2="788"/>
	<line fill="none" stroke="#B35047" x1="1456" y1="275.999" x2="1456" y2="788"/>
	<line fill="none" stroke="#B35047" x1="1488" y1="275.999" x2="1488" y2="788"/>
	<line fill="none" stroke="#B35047" x1="1520" y1="275.999" x2="1520" y2="788"/>
	<line fill="none" stroke="#B35047" x1="1552" y1="275.999" x2="1552" y2="788"/>
	<line fill="none" stroke="#B35047" x1="1584" y1="275.999" x2="1584" y2="788"/>
	<line fill="none" stroke="#B35047" x1="1104" y1="307.999" x2="1616" y2="307.999"/>
	<line fill="none" stroke="#B35047" x1="1104" y1="339.999" x2="1616" y2="339.999"/>
	<line fill="none" stroke="#B35047" x1="1104" y1="371.999" x2="1616" y2="371.999"/>
	<line fill="none" stroke="#B35047" x1="1104" y1="403.999" x2="1616" y2="403.999"/>
	<line fill="none" stroke="#B35047" x1="1104" y1="435.999" x2="1616" y2="435.999"/>
	<line fill="none" stroke="#B35047" x1="1104" y1="467.999" x2="1616" y2="467.999"/>
	<line fill="none" stroke="#B35047" x1="1104" y1="499.999" x2="1616" y2="499.999"/>
	<line fill="none" stroke="#B35047" x1="1104" y1="532" x2="1616" y2="532"/>
	<line fill="none" stroke="#B35047" x1="1104" y1="564" x2="1616" y2="564"/>
	<line fill="none" stroke="#B35047" x1="1104" y1="596" x2="1616" y2="596"/>
	<line fill="none" stroke="#B35047" x1="1104" y1="628" x2="1616" y2="628"/>
	<line fill="none" stroke="#B35047" x1="1104" y1="660" x2="1616" y2="660"/>
	<line fill="none" stroke="#B35047" x1="1104" y1="692" x2="1616" y2="692"/>
	<line fill="none" stroke="#B35047" x1="1104" y1="724" x2="1616" y2="724"/>
	<line fill="none" stroke="#B35047" x1="1104" y1="756" x2="1616" y2="756"/>
	<rect x="1104" y="275.999" fill="none" stroke="#B35047" width="512" height="512.001"/>
</g>
<g>
	<path fill="#231F20" d="M1583.5,532c0-123.712-100.287-224-224-224c-123.711,0-224,100.288-224,224s100.289,224,224,224
		C1483.213,756,1583.5,655.712,1583.5,532z M1229.393,662.107C1194.641,627.354,1175.5,581.148,1175.5,532
		c0-49.147,19.141-95.354,53.893-130.108C1264.146,367.14,1310.352,348,1359.5,348s95.354,19.14,130.107,53.892
		c34.754,34.754,53.893,80.961,53.893,130.108c0,49.148-19.139,95.354-53.893,130.107C1454.854,696.86,1408.646,716,1359.5,716
		C1310.352,716,1264.146,696.86,1229.393,662.107z"/>
</g>
</svg>
