<?xml version="1.0" encoding="utf-8"?>
<!-- Generator: Adobe Illustrator 16.0.4, SVG Export Plug-In . SVG Version: 6.00 Build 0)  -->
<!DOCTYPE svg PUBLIC "-//W3C//DTD SVG 1.1//EN" "http://www.w3.org/Graphics/SVG/1.1/DTD/svg11.dtd">
<svg version="1.1" id="Layer_1" xmlns="http://www.w3.org/2000/svg" xmlns:xlink="http://www.w3.org/1999/xlink" x="0px" y="0px"
	 width="512px" height="512px" viewBox="551.5 -1932.5 512 512" enable-background="new 551.5 -1932.5 512 512"
	 xml:space="preserve">
<g>
	<line fill="none" stroke="#B35047" x1="583.5" y1="-1932.5" x2="583.5" y2="-1420.5"/>
	<line fill="none" stroke="#B35047" x1="615.5" y1="-1932.5" x2="615.5" y2="-1420.5"/>
	<line fill="none" stroke="#B35047" x1="647.5" y1="-1932.5" x2="647.5" y2="-1420.5"/>
	<line fill="none" stroke="#B35047" x1="679.5" y1="-1932.5" x2="679.5" y2="-1420.5"/>
	<line fill="none" stroke="#B35047" x1="711.5" y1="-1932.5" x2="711.5" y2="-1420.5"/>
	<line fill="none" stroke="#B35047" x1="743.5" y1="-1932.5" x2="743.5" y2="-1420.5"/>
	<line fill="none" stroke="#B35047" x1="775.5" y1="-1932.5" x2="775.5" y2="-1420.5"/>
	<line fill="none" stroke="#B35047" x1="807.5" y1="-1932.5" x2="807.5" y2="-1420.5"/>
	<line fill="none" stroke="#B35047" x1="839.5" y1="-1932.5" x2="839.5" y2="-1420.5"/>
	<line fill="none" stroke="#B35047" x1="871.5" y1="-1932.5" x2="871.5" y2="-1420.5"/>
	<line fill="none" stroke="#B35047" x1="903.5" y1="-1932.5" x2="903.5" y2="-1420.5"/>
	<line fill="none" stroke="#B35047" x1="935.5" y1="-1932.5" x2="935.5" y2="-1420.5"/>
	<line fill="none" stroke="#B35047" x1="967.5" y1="-1932.5" x2="967.5" y2="-1420.5"/>
	<line fill="none" stroke="#B35047" x1="999.5" y1="-1932.5" x2="999.5" y2="-1420.5"/>
	<line fill="none" stroke="#B35047" x1="1031.5" y1="-1932.5" x2="1031.5" y2="-1420.5"/>
	<line fill="none" stroke="#B35047" x1="551.5" y1="-1900.5" x2="1063.5" y2="-1900.5"/>
	<line fill="none" stroke="#B35047" x1="551.5" y1="-1868.5" x2="1063.5" y2="-1868.5"/>
	<line fill="none" stroke="#B35047" x1="551.5" y1="-1836.5" x2="1063.5" y2="-1836.5"/>
	<line fill="none" stroke="#B35047" x1="551.5" y1="-1804.5" x2="1063.5" y2="-1804.5"/>
	<line fill="none" stroke="#B35047" x1="551.5" y1="-1772.5" x2="1063.5" y2="-1772.5"/>
	<line fill="none" stroke="#B35047" x1="551.5" y1="-1740.5" x2="1063.5" y2="-1740.5"/>
	<line fill="none" stroke="#B35047" x1="551.5" y1="-1708.5" x2="1063.5" y2="-1708.5"/>
	<line fill="none" stroke="#B35047" x1="551.5" y1="-1676.5" x2="1063.5" y2="-1676.5"/>
	<line fill="none" stroke="#B35047" x1="551.5" y1="-1644.5" x2="1063.5" y2="-1644.5"/>
	<line fill="none" stroke="#B35047" x1="551.5" y1="-1612.5" x2="1063.5" y2="-1612.5"/>
	<line fill="none" stroke="#B35047" x1="551.5" y1="-1580.5" x2="1063.5" y2="-1580.5"/>
	<line fill="none" stroke="#B35047" x1="551.5" y1="-1548.5" x2="1063.5" y2="-1548.5"/>
	<line fill="none" stroke="#B35047" x1="551.5" y1="-1516.5" x2="1063.5" y2="-1516.5"/>
	<line fill="none" stroke="#B35047" x1="551.5" y1="-1484.5" x2="1063.5" y2="-1484.5"/>
	<line fill="none" stroke="#B35047" x1="551.5" y1="-1452.5" x2="1063.5" y2="-1452.5"/>
	<rect x="551.5" y="-1932.5" fill="none" stroke="#B35047" width="512" height="512"/>
</g>
<g>
	<path fill="#231F20" d="M675.5-1723.166c0,11.045,8.955,20,20,20h224c11.047,0,20-8.955,20-20c0-11.047-8.953-20-20-20h-224
		C684.455-1743.166,675.5-1734.21,675.5-1723.166z"/>
	<path fill="#231F20" d="M919.5-1649.833h-224c-11.045,0-20,8.955-20,20c0,11.047,8.955,20,20,20h224c11.047,0,20-8.953,20-20
		C939.5-1640.878,930.547-1649.833,919.5-1649.833z"/>
	<path fill="#231F20" d="M1014.082-1836.316c-0.848-0.107-1.705-0.184-2.582-0.184h-192h-24h-192c-0.877,0-1.734,0.076-2.58,0.184
		c-9.824,1.27-17.42,9.646-17.42,19.816v280l0,0c0,11.047,8.955,20,20,20h55.943v43.002c0,11.045,8.955,20,20,20
		c0.146,0,0.291-0.02,0.438-0.023c5.268,0.119,10.572-1.812,14.59-5.836l57.146-57.143H795.5h24h192
		c6.904,0,12.99-3.498,16.584-8.818c0.051-0.072,0.092-0.152,0.141-0.229c0.307-0.461,0.6-0.93,0.861-1.418
		c0.023-0.041,0.041-0.086,0.062-0.127c1.494-2.809,2.352-6.004,2.352-9.406l0,0v-280
		C1031.5-1826.669,1023.904-1835.046,1014.082-1836.316z M991.5-1556.5h-172h-24h-172v-240h172h24h172V-1556.5z"/>
</g>
</svg>
