<?xml version="1.0" encoding="utf-8"?>
<!-- Generator: Adobe Illustrator 16.0.4, SVG Export Plug-In . SVG Version: 6.00 Build 0)  -->
<!DOCTYPE svg PUBLIC "-//W3C//DTD SVG 1.1//EN" "http://www.w3.org/Graphics/SVG/1.1/DTD/svg11.dtd">
<svg version="1.1" id="Layer_1" xmlns="http://www.w3.org/2000/svg" xmlns:xlink="http://www.w3.org/1999/xlink" x="0px" y="0px"
	 width="512px" height="512px" viewBox="1103.5 -3588.5 512 512" enable-background="new 1103.5 -3588.5 512 512"
	 xml:space="preserve">
<g>
	<line fill="none" stroke="#B35047" x1="1135.5" y1="-3588.5" x2="1135.5" y2="-3076.5"/>
	<line fill="none" stroke="#B35047" x1="1167.5" y1="-3588.5" x2="1167.5" y2="-3076.5"/>
	<line fill="none" stroke="#B35047" x1="1199.5" y1="-3588.5" x2="1199.5" y2="-3076.5"/>
	<line fill="none" stroke="#B35047" x1="1231.5" y1="-3588.5" x2="1231.5" y2="-3076.5"/>
	<line fill="none" stroke="#B35047" x1="1263.5" y1="-3588.5" x2="1263.5" y2="-3076.5"/>
	<line fill="none" stroke="#B35047" x1="1295.5" y1="-3588.5" x2="1295.5" y2="-3076.5"/>
	<line fill="none" stroke="#B35047" x1="1327.5" y1="-3588.5" x2="1327.5" y2="-3076.5"/>
	<line fill="none" stroke="#B35047" x1="1359.5" y1="-3588.5" x2="1359.5" y2="-3076.5"/>
	<line fill="none" stroke="#B35047" x1="1391.5" y1="-3588.5" x2="1391.5" y2="-3076.5"/>
	<line fill="none" stroke="#B35047" x1="1423.5" y1="-3588.5" x2="1423.5" y2="-3076.5"/>
	<line fill="none" stroke="#B35047" x1="1455.5" y1="-3588.5" x2="1455.5" y2="-3076.5"/>
	<line fill="none" stroke="#B35047" x1="1487.5" y1="-3588.5" x2="1487.5" y2="-3076.5"/>
	<line fill="none" stroke="#B35047" x1="1519.5" y1="-3588.5" x2="1519.5" y2="-3076.5"/>
	<line fill="none" stroke="#B35047" x1="1551.5" y1="-3588.5" x2="1551.5" y2="-3076.5"/>
	<line fill="none" stroke="#B35047" x1="1583.5" y1="-3588.5" x2="1583.5" y2="-3076.5"/>
	<line fill="none" stroke="#B35047" x1="1103.5" y1="-3556.5" x2="1615.5" y2="-3556.5"/>
	<line fill="none" stroke="#B35047" x1="1103.5" y1="-3524.5" x2="1615.5" y2="-3524.5"/>
	<line fill="none" stroke="#B35047" x1="1103.5" y1="-3492.5" x2="1615.5" y2="-3492.5"/>
	<line fill="none" stroke="#B35047" x1="1103.5" y1="-3460.5" x2="1615.5" y2="-3460.5"/>
	<line fill="none" stroke="#B35047" x1="1103.5" y1="-3428.5" x2="1615.5" y2="-3428.5"/>
	<line fill="none" stroke="#B35047" x1="1103.5" y1="-3396.5" x2="1615.5" y2="-3396.5"/>
	<line fill="none" stroke="#B35047" x1="1103.5" y1="-3364.5" x2="1615.5" y2="-3364.5"/>
	<line fill="none" stroke="#B35047" x1="1103.5" y1="-3332.5" x2="1615.5" y2="-3332.5"/>
	<line fill="none" stroke="#B35047" x1="1103.5" y1="-3300.5" x2="1615.5" y2="-3300.5"/>
	<line fill="none" stroke="#B35047" x1="1103.5" y1="-3268.5" x2="1615.5" y2="-3268.5"/>
	<line fill="none" stroke="#B35047" x1="1103.5" y1="-3236.5" x2="1615.5" y2="-3236.5"/>
	<line fill="none" stroke="#B35047" x1="1103.5" y1="-3204.5" x2="1615.5" y2="-3204.5"/>
	<line fill="none" stroke="#B35047" x1="1103.5" y1="-3172.5" x2="1615.5" y2="-3172.5"/>
	<line fill="none" stroke="#B35047" x1="1103.5" y1="-3140.5" x2="1615.5" y2="-3140.5"/>
	<line fill="none" stroke="#B35047" x1="1103.5" y1="-3108.5" x2="1615.5" y2="-3108.5"/>
	<rect x="1103.5" y="-3588.5" fill="none" stroke="#B35047" width="512" height="512"/>
</g>
<path fill="#231F20" d="M1583.566-3483.407c0-0.222-0.025-0.437-0.033-0.656c-0.012-0.342-0.022-0.683-0.052-1.023
	c-0.03-0.37-0.079-0.734-0.13-1.099c-0.04-0.282-0.078-0.564-0.129-0.846c-0.073-0.396-0.164-0.783-0.259-1.17
	c-0.062-0.254-0.122-0.507-0.195-0.759c-0.112-0.392-0.244-0.774-0.38-1.156c-0.088-0.245-0.172-0.49-0.269-0.733
	c-0.151-0.377-0.321-0.743-0.494-1.108c-0.112-0.236-0.218-0.473-0.34-0.705c-0.199-0.381-0.419-0.748-0.642-1.114
	c-0.121-0.198-0.233-0.399-0.361-0.595c-0.304-0.462-0.631-0.905-0.971-1.339c-0.066-0.084-0.124-0.173-0.191-0.256
	c-0.49-0.606-1.014-1.182-1.57-1.727l-52.01-52.45c-1.857-1.857-3.994-3.259-6.271-4.232c-0.044-0.02-0.087-0.042-0.131-0.061
	c-0.497-0.209-1.003-0.387-1.512-0.554c-0.121-0.04-0.237-0.088-0.36-0.126c-0.471-0.144-0.947-0.258-1.427-0.366
	c-0.167-0.038-0.329-0.088-0.498-0.122c-0.499-0.1-1.002-0.168-1.505-0.229c-0.153-0.019-0.303-0.05-0.456-0.065
	c-0.661-0.065-1.325-0.102-1.988-0.102H1315.5c-0.877,0-1.734,0.076-2.581,0.186c-9.823,1.269-17.419,9.645-17.419,19.814v72.758
	h-139.937c-0.877,0-1.734,0.076-2.581,0.186c-9.823,1.269-17.419,9.645-17.419,19.814v314.14c0,11.047,8.955,20,20,20h248.059
	c6.904,0,12.99-3.498,16.584-8.818c0.051-0.074,1.042-1.733,1.064-1.774c1.496-2.806,2.352-6.005,2.352-9.404c0,0,0,0,0-0.002
	v-72.759h139.937c6.904,0,12.99-3.498,16.584-8.818c0.051-0.074,1.042-1.733,1.064-1.774c1.496-2.806,2.352-6.005,2.352-9.404
	c0,0,0,0,0-0.002v-260.914c0.004-0.115-0.008-0.229-0.007-0.344C1583.553-3483.216,1583.566-3483.31,1583.566-3483.407z
	 M1175.562-3149.104v-274.139h155.876v32.593c0,11.045,8.955,20,20,20h32.183v221.546H1175.562z M1423.622-3241.861v-148.155
	c0.003-0.115-0.009-0.229-0.007-0.344c0.002-0.098,0.015-0.191,0.015-0.289c0-0.222-0.026-0.437-0.033-0.656
	c-0.012-0.342-0.022-0.683-0.052-1.023c-0.031-0.37-0.08-0.734-0.131-1.099c-0.039-0.282-0.076-0.564-0.129-0.846
	c-0.072-0.396-0.162-0.783-0.258-1.17c-0.062-0.254-0.123-0.507-0.195-0.759c-0.113-0.392-0.244-0.774-0.38-1.156
	c-0.087-0.245-0.171-0.49-0.269-0.733c-0.151-0.377-0.32-0.743-0.494-1.108c-0.111-0.236-0.219-0.473-0.34-0.705
	c-0.199-0.381-0.419-0.748-0.642-1.114c-0.121-0.198-0.233-0.399-0.362-0.595c-0.303-0.462-0.631-0.905-0.971-1.339
	c-0.065-0.084-0.123-0.173-0.191-0.256c-0.489-0.606-1.014-1.182-1.569-1.727l-52.01-52.45c-1.857-1.857-3.994-3.259-6.271-4.232
	c-0.044-0.02-0.086-0.042-0.131-0.061c-0.497-0.209-1.002-0.387-1.512-0.554c-0.121-0.04-0.238-0.088-0.36-0.126
	c-0.471-0.144-0.948-0.258-1.427-0.366c-0.167-0.038-0.329-0.088-0.498-0.122c-0.499-0.1-1.002-0.168-1.506-0.229
	c-0.152-0.019-0.301-0.05-0.455-0.065c-0.661-0.065-1.324-0.102-1.988-0.102h-15.958V-3516h155.876v32.593c0,11.045,8.955,20,20,20
	h32.183v221.546H1423.622z"/>
</svg>
