<?xml version="1.0" encoding="utf-8"?>
<!-- Generator: Adobe Illustrator 16.0.4, SVG Export Plug-In . SVG Version: 6.00 Build 0)  -->
<!DOCTYPE svg PUBLIC "-//W3C//DTD SVG 1.1//EN" "http://www.w3.org/Graphics/SVG/1.1/DTD/svg11.dtd">
<svg version="1.1" id="Layer_1" xmlns="http://www.w3.org/2000/svg" xmlns:xlink="http://www.w3.org/1999/xlink" x="0px" y="0px"
	 width="512px" height="512px" viewBox="551.5 1931.5 512 512" enable-background="new 551.5 1931.5 512 512" xml:space="preserve">
<g>
	<line fill="none" stroke="#B35047" x1="583.5" y1="1931.499" x2="583.5" y2="2443.501"/>
	<line fill="none" stroke="#B35047" x1="615.5" y1="1931.499" x2="615.5" y2="2443.501"/>
	<line fill="none" stroke="#B35047" x1="647.5" y1="1931.499" x2="647.5" y2="2443.501"/>
	<line fill="none" stroke="#B35047" x1="679.5" y1="1931.499" x2="679.5" y2="2443.501"/>
	<line fill="none" stroke="#B35047" x1="711.5" y1="1931.499" x2="711.5" y2="2443.501"/>
	<line fill="none" stroke="#B35047" x1="743.5" y1="1931.499" x2="743.5" y2="2443.501"/>
	<line fill="none" stroke="#B35047" x1="775.5" y1="1931.499" x2="775.5" y2="2443.501"/>
	<line fill="none" stroke="#B35047" x1="807.5" y1="1931.499" x2="807.5" y2="2443.501"/>
	<line fill="none" stroke="#B35047" x1="839.5" y1="1931.499" x2="839.5" y2="2443.501"/>
	<line fill="none" stroke="#B35047" x1="871.5" y1="1931.499" x2="871.5" y2="2443.501"/>
	<line fill="none" stroke="#B35047" x1="903.5" y1="1931.499" x2="903.5" y2="2443.501"/>
	<line fill="none" stroke="#B35047" x1="935.5" y1="1931.499" x2="935.5" y2="2443.501"/>
	<line fill="none" stroke="#B35047" x1="967.5" y1="1931.499" x2="967.5" y2="2443.501"/>
	<line fill="none" stroke="#B35047" x1="999.5" y1="1931.499" x2="999.5" y2="2443.501"/>
	<line fill="none" stroke="#B35047" x1="1031.5" y1="1931.499" x2="1031.5" y2="2443.501"/>
	<line fill="none" stroke="#B35047" x1="551.5" y1="1963.499" x2="1063.5" y2="1963.499"/>
	<line fill="none" stroke="#B35047" x1="551.5" y1="1995.501" x2="1063.5" y2="1995.501"/>
	<line fill="none" stroke="#B35047" x1="551.5" y1="2027.501" x2="1063.5" y2="2027.501"/>
	<line fill="none" stroke="#B35047" x1="551.5" y1="2059.501" x2="1063.5" y2="2059.501"/>
	<line fill="none" stroke="#B35047" x1="551.5" y1="2091.501" x2="1063.5" y2="2091.501"/>
	<line fill="none" stroke="#B35047" x1="551.5" y1="2123.501" x2="1063.5" y2="2123.501"/>
	<line fill="none" stroke="#B35047" x1="551.5" y1="2155.501" x2="1063.5" y2="2155.501"/>
	<line fill="none" stroke="#B35047" x1="551.5" y1="2187.501" x2="1063.5" y2="2187.501"/>
	<line fill="none" stroke="#B35047" x1="551.5" y1="2219.501" x2="1063.5" y2="2219.501"/>
	<line fill="none" stroke="#B35047" x1="551.5" y1="2251.501" x2="1063.5" y2="2251.501"/>
	<line fill="none" stroke="#B35047" x1="551.5" y1="2283.501" x2="1063.5" y2="2283.501"/>
	<line fill="none" stroke="#B35047" x1="551.5" y1="2315.501" x2="1063.5" y2="2315.501"/>
	<line fill="none" stroke="#B35047" x1="551.5" y1="2347.501" x2="1063.5" y2="2347.501"/>
	<line fill="none" stroke="#B35047" x1="551.5" y1="2379.501" x2="1063.5" y2="2379.501"/>
	<line fill="none" stroke="#B35047" x1="551.5" y1="2411.501" x2="1063.5" y2="2411.501"/>
	<rect x="551.5" y="1931.499" fill="none" stroke="#B35047" width="512" height="512.002"/>
</g>
<path d="M835.297,2268.978c-8.837,15.305-28.408,20.549-43.713,11.713c-15.305-8.838-20.55-28.408-11.713-43.713
	c5.067-8.777,13.665-14.236,22.964-15.639l73.487-127.285c5.521-9.566,17.753-12.844,27.32-7.32
	c9.565,5.523,12.844,17.754,7.32,27.32l-73.542,127.375C840.788,2250.146,840.333,2260.253,835.297,2268.978z"/>
<g>
	<path d="M807.5,2036.13c49.148,0,95.354,19.14,130.107,53.893c34.754,34.753,53.893,80.96,53.893,130.107
		c0,40.778-13.164,79.504-37.488,111.36c-44.299-15.335-94.432-23.358-146.762-23.358c-52.163,0-102.164,7.979-146.366,23.224
		c-24.257-31.833-37.384-70.512-37.384-111.226c0-49.147,19.139-95.354,53.893-130.107
		C712.146,2055.27,758.352,2036.13,807.5,2036.13 M807.5,1996.13c-123.712,0-224,100.289-224,224
		c0,61.988,25.183,118.094,65.871,158.65c43.493-19.197,98.306-30.648,157.879-30.648c59.73,0,114.675,11.512,158.223,30.799
		c40.78-40.566,66.027-96.734,66.027-158.801C1031.5,2096.419,931.212,1996.13,807.5,1996.13L807.5,1996.13z"/>
</g>
</svg>
