<?xml version="1.0" encoding="utf-8"?>
<!-- Generator: Adobe Illustrator 16.0.4, SVG Export Plug-In . SVG Version: 6.00 Build 0)  -->
<!DOCTYPE svg PUBLIC "-//W3C//DTD SVG 1.1//EN" "http://www.w3.org/Graphics/SVG/1.1/DTD/svg11.dtd">
<svg version="1.1" id="Layer_1" xmlns="http://www.w3.org/2000/svg" xmlns:xlink="http://www.w3.org/1999/xlink" x="0px" y="0px"
	 width="512px" height="512px" viewBox="1103.5 827.5 512 512" enable-background="new 1103.5 827.5 512 512" xml:space="preserve">
<g>
	<line fill="none" stroke="#B35047" x1="1135.5" y1="827.5" x2="1135.5" y2="1339.5"/>
	<line fill="none" stroke="#B35047" x1="1167.5" y1="827.5" x2="1167.5" y2="1339.5"/>
	<line fill="none" stroke="#B35047" x1="1199.5" y1="827.5" x2="1199.5" y2="1339.5"/>
	<line fill="none" stroke="#B35047" x1="1231.5" y1="827.5" x2="1231.5" y2="1339.5"/>
	<line fill="none" stroke="#B35047" x1="1263.5" y1="827.5" x2="1263.5" y2="1339.5"/>
	<line fill="none" stroke="#B35047" x1="1295.5" y1="827.5" x2="1295.5" y2="1339.5"/>
	<line fill="none" stroke="#B35047" x1="1327.5" y1="827.5" x2="1327.5" y2="1339.5"/>
	<line fill="none" stroke="#B35047" x1="1359.5" y1="827.5" x2="1359.5" y2="1339.5"/>
	<line fill="none" stroke="#B35047" x1="1391.5" y1="827.5" x2="1391.5" y2="1339.5"/>
	<line fill="none" stroke="#B35047" x1="1423.5" y1="827.5" x2="1423.5" y2="1339.5"/>
	<line fill="none" stroke="#B35047" x1="1455.5" y1="827.5" x2="1455.5" y2="1339.5"/>
	<line fill="none" stroke="#B35047" x1="1487.5" y1="827.5" x2="1487.5" y2="1339.5"/>
	<line fill="none" stroke="#B35047" x1="1519.5" y1="827.5" x2="1519.5" y2="1339.5"/>
	<line fill="none" stroke="#B35047" x1="1551.5" y1="827.5" x2="1551.5" y2="1339.5"/>
	<line fill="none" stroke="#B35047" x1="1583.5" y1="827.5" x2="1583.5" y2="1339.5"/>
	<line fill="none" stroke="#B35047" x1="1103.5" y1="859.5" x2="1615.5" y2="859.5"/>
	<line fill="none" stroke="#B35047" x1="1103.5" y1="891.5" x2="1615.5" y2="891.5"/>
	<line fill="none" stroke="#B35047" x1="1103.5" y1="923.5" x2="1615.5" y2="923.5"/>
	<line fill="none" stroke="#B35047" x1="1103.5" y1="955.5" x2="1615.5" y2="955.5"/>
	<line fill="none" stroke="#B35047" x1="1103.5" y1="987.5" x2="1615.5" y2="987.5"/>
	<line fill="none" stroke="#B35047" x1="1103.5" y1="1019.5" x2="1615.5" y2="1019.5"/>
	<line fill="none" stroke="#B35047" x1="1103.5" y1="1051.5" x2="1615.5" y2="1051.5"/>
	<line fill="none" stroke="#B35047" x1="1103.5" y1="1083.5" x2="1615.5" y2="1083.5"/>
	<line fill="none" stroke="#B35047" x1="1103.5" y1="1115.5" x2="1615.5" y2="1115.5"/>
	<line fill="none" stroke="#B35047" x1="1103.5" y1="1147.5" x2="1615.5" y2="1147.5"/>
	<line fill="none" stroke="#B35047" x1="1103.5" y1="1179.5" x2="1615.5" y2="1179.5"/>
	<line fill="none" stroke="#B35047" x1="1103.5" y1="1211.5" x2="1615.5" y2="1211.5"/>
	<line fill="none" stroke="#B35047" x1="1103.5" y1="1243.5" x2="1615.5" y2="1243.5"/>
	<line fill="none" stroke="#B35047" x1="1103.5" y1="1275.5" x2="1615.5" y2="1275.5"/>
	<line fill="none" stroke="#B35047" x1="1103.5" y1="1307.5" x2="1615.5" y2="1307.5"/>
	<rect x="1103.5" y="827.5" fill="none" stroke="#B35047" width="512" height="512"/>
</g>
<path fill="#231F20" d="M1563.469,891.5h-408.004c-0.69,0-1.373,0.035-2.045,0.104c-10.084,1.023-17.955,9.54-17.955,19.896v344
	c0,11.045,8.955,20,20,20h408.004c11.049,0,20-8.955,20-20v-344C1583.469,900.453,1574.516,891.5,1563.469,891.5z
	 M1301.467,1062.835h116v81.332h-116V1062.835z M1281.467,1144.167h-106.002v-81.332h106.002V1144.167z M1301.467,1042.835v-71.331
	h116v71.331H1301.467z M1437.467,1062.835h106.002v81.332h-106.002V1062.835z M1437.467,1042.835v-71.331h106.002v71.331H1437.467z
	 M1281.467,971.504v71.331h-106.002v-71.331H1281.467z M1175.465,1164.167h106.002v71.331h-106.002V1164.167z M1301.467,1164.167
	h116v71.331h-116V1164.167z M1437.467,1164.167h106.002v71.331h-106.002V1164.167z"/>
</svg>
