<?xml version="1.0" encoding="utf-8"?>
<!-- Generator: Adobe Illustrator 16.0.4, SVG Export Plug-In . SVG Version: 6.00 Build 0)  -->
<!DOCTYPE svg PUBLIC "-//W3C//DTD SVG 1.1//EN" "http://www.w3.org/Graphics/SVG/1.1/DTD/svg11.dtd">
<svg version="1.1" id="Layer_1" xmlns="http://www.w3.org/2000/svg" xmlns:xlink="http://www.w3.org/1999/xlink" x="0px" y="0px"
	 width="512px" height="512px" viewBox="-1104.5 1379.5 512 512" enable-background="new -1104.5 1379.5 512 512"
	 xml:space="preserve">
<g>
	<line fill="none" stroke="#B35047" x1="-1072.5" y1="1379.5" x2="-1072.5" y2="1891.5"/>
	<line fill="none" stroke="#B35047" x1="-1040.5" y1="1379.5" x2="-1040.5" y2="1891.5"/>
	<line fill="none" stroke="#B35047" x1="-1008.5" y1="1379.5" x2="-1008.5" y2="1891.5"/>
	<line fill="none" stroke="#B35047" x1="-976.5" y1="1379.5" x2="-976.5" y2="1891.5"/>
	<line fill="none" stroke="#B35047" x1="-944.5" y1="1379.5" x2="-944.5" y2="1891.5"/>
	<line fill="none" stroke="#B35047" x1="-912.5" y1="1379.5" x2="-912.5" y2="1891.5"/>
	<line fill="none" stroke="#B35047" x1="-880.5" y1="1379.5" x2="-880.5" y2="1891.5"/>
	<line fill="none" stroke="#B35047" x1="-848.5" y1="1379.5" x2="-848.5" y2="1891.5"/>
	<line fill="none" stroke="#B35047" x1="-816.5" y1="1379.5" x2="-816.5" y2="1891.5"/>
	<line fill="none" stroke="#B35047" x1="-784.5" y1="1379.5" x2="-784.5" y2="1891.5"/>
	<line fill="none" stroke="#B35047" x1="-752.5" y1="1379.5" x2="-752.5" y2="1891.5"/>
	<line fill="none" stroke="#B35047" x1="-720.5" y1="1379.5" x2="-720.5" y2="1891.5"/>
	<line fill="none" stroke="#B35047" x1="-688.5" y1="1379.5" x2="-688.5" y2="1891.5"/>
	<line fill="none" stroke="#B35047" x1="-656.5" y1="1379.5" x2="-656.5" y2="1891.5"/>
	<line fill="none" stroke="#B35047" x1="-624.5" y1="1379.5" x2="-624.5" y2="1891.5"/>
	<line fill="none" stroke="#B35047" x1="-1104.5" y1="1411.5" x2="-592.5" y2="1411.5"/>
	<line fill="none" stroke="#B35047" x1="-1104.5" y1="1443.5" x2="-592.5" y2="1443.5"/>
	<line fill="none" stroke="#B35047" x1="-1104.5" y1="1475.5" x2="-592.5" y2="1475.5"/>
	<line fill="none" stroke="#B35047" x1="-1104.5" y1="1507.5" x2="-592.5" y2="1507.5"/>
	<line fill="none" stroke="#B35047" x1="-1104.5" y1="1539.5" x2="-592.5" y2="1539.5"/>
	<line fill="none" stroke="#B35047" x1="-1104.5" y1="1571.5" x2="-592.5" y2="1571.5"/>
	<line fill="none" stroke="#B35047" x1="-1104.5" y1="1603.5" x2="-592.5" y2="1603.5"/>
	<line fill="none" stroke="#B35047" x1="-1104.5" y1="1635.5" x2="-592.5" y2="1635.5"/>
	<line fill="none" stroke="#B35047" x1="-1104.5" y1="1667.5" x2="-592.5" y2="1667.5"/>
	<line fill="none" stroke="#B35047" x1="-1104.5" y1="1699.5" x2="-592.5" y2="1699.5"/>
	<line fill="none" stroke="#B35047" x1="-1104.5" y1="1731.5" x2="-592.5" y2="1731.5"/>
	<line fill="none" stroke="#B35047" x1="-1104.5" y1="1763.5" x2="-592.5" y2="1763.5"/>
	<line fill="none" stroke="#B35047" x1="-1104.5" y1="1795.5" x2="-592.5" y2="1795.5"/>
	<line fill="none" stroke="#B35047" x1="-1104.5" y1="1827.5" x2="-592.5" y2="1827.5"/>
	<line fill="none" stroke="#B35047" x1="-1104.5" y1="1859.5" x2="-592.5" y2="1859.5"/>
	<rect x="-1104.5" y="1379.5" fill="none" stroke="#B35047" width="512" height="512"/>
</g>
<g>
	<path fill="#231F20" d="M-644.531,1443.5h-408.004c-0.69,0-1.373,0.035-2.045,0.104c-10.084,1.023-17.955,9.54-17.955,19.896v344
		c0,11.045,8.955,20,20,20h408.004c11.049,0,20-8.955,20-20v-344C-624.531,1452.453-633.484,1443.5-644.531,1443.5z
		 M-1032.535,1523.504h368.004v263.994h-368.004V1523.504z"/>
	<path fill="#231F20" d="M-960.5,1599.502h224c11.047,0,20-8.955,20-20c0-11.047-8.953-20-20-20h-224c-11.045,0-20,8.955-20,20
		S-971.545,1599.502-960.5,1599.502z"/>
	<path fill="#231F20" d="M-736.5,1635.501h-224c-11.045,0-20,8.955-20,20c0,11.047,8.955,20,20,20h224c11.047,0,20-8.953,20-20
		C-716.5,1644.456-725.453,1635.501-736.5,1635.501z"/>
	<path fill="#231F20" d="M-736.5,1711.5h-224c-11.045,0-20,8.955-20,20c0,11.047,8.955,20,20,20h224c11.047,0,20-8.953,20-20
		C-716.5,1720.455-725.453,1711.5-736.5,1711.5z"/>
</g>
</svg>
