<?xml version="1.0" encoding="utf-8"?>
<!-- Generator: Adobe Illustrator 16.0.4, SVG Export Plug-In . SVG Version: 6.00 Build 0)  -->
<!DOCTYPE svg PUBLIC "-//W3C//DTD SVG 1.1//EN" "http://www.w3.org/Graphics/SVG/1.1/DTD/svg11.dtd">
<svg version="1.1" id="Layer_1" xmlns="http://www.w3.org/2000/svg" xmlns:xlink="http://www.w3.org/1999/xlink" x="0px" y="0px"
	 width="512px" height="512px" viewBox="1103.5 -828.5 512 512" enable-background="new 1103.5 -828.5 512 512"
	 xml:space="preserve">
<g>
	<line fill="none" stroke="#B35047" x1="1135.531" y1="-827.906" x2="1135.531" y2="-315.906"/>
	<line fill="none" stroke="#B35047" x1="1167.531" y1="-827.906" x2="1167.531" y2="-315.906"/>
	<line fill="none" stroke="#B35047" x1="1199.531" y1="-827.906" x2="1199.531" y2="-315.906"/>
	<line fill="none" stroke="#B35047" x1="1231.531" y1="-827.906" x2="1231.531" y2="-315.906"/>
	<line fill="none" stroke="#B35047" x1="1263.531" y1="-827.906" x2="1263.531" y2="-315.906"/>
	<line fill="none" stroke="#B35047" x1="1295.531" y1="-827.906" x2="1295.531" y2="-315.906"/>
	<line fill="none" stroke="#B35047" x1="1327.531" y1="-827.906" x2="1327.531" y2="-315.906"/>
	<line fill="none" stroke="#B35047" x1="1359.531" y1="-827.906" x2="1359.531" y2="-315.906"/>
	<line fill="none" stroke="#B35047" x1="1391.531" y1="-827.906" x2="1391.531" y2="-315.906"/>
	<line fill="none" stroke="#B35047" x1="1423.531" y1="-827.906" x2="1423.531" y2="-315.906"/>
	<line fill="none" stroke="#B35047" x1="1455.531" y1="-827.906" x2="1455.531" y2="-315.906"/>
	<line fill="none" stroke="#B35047" x1="1487.531" y1="-827.906" x2="1487.531" y2="-315.906"/>
	<line fill="none" stroke="#B35047" x1="1519.531" y1="-827.906" x2="1519.531" y2="-315.906"/>
	<line fill="none" stroke="#B35047" x1="1551.531" y1="-827.906" x2="1551.531" y2="-315.906"/>
	<line fill="none" stroke="#B35047" x1="1583.531" y1="-827.906" x2="1583.531" y2="-315.906"/>
	<line fill="none" stroke="#B35047" x1="1103.531" y1="-795.906" x2="1615.531" y2="-795.906"/>
	<line fill="none" stroke="#B35047" x1="1103.531" y1="-763.906" x2="1615.531" y2="-763.906"/>
	<line fill="none" stroke="#B35047" x1="1103.531" y1="-731.906" x2="1615.531" y2="-731.906"/>
	<line fill="none" stroke="#B35047" x1="1103.531" y1="-699.906" x2="1615.531" y2="-699.906"/>
	<line fill="none" stroke="#B35047" x1="1103.531" y1="-667.906" x2="1615.531" y2="-667.906"/>
	<line fill="none" stroke="#B35047" x1="1103.531" y1="-635.906" x2="1615.531" y2="-635.906"/>
	<line fill="none" stroke="#B35047" x1="1103.531" y1="-603.906" x2="1615.531" y2="-603.906"/>
	<line fill="none" stroke="#B35047" x1="1103.531" y1="-571.906" x2="1615.531" y2="-571.906"/>
	<line fill="none" stroke="#B35047" x1="1103.531" y1="-539.906" x2="1615.531" y2="-539.906"/>
	<line fill="none" stroke="#B35047" x1="1103.531" y1="-507.906" x2="1615.531" y2="-507.906"/>
	<line fill="none" stroke="#B35047" x1="1103.531" y1="-475.906" x2="1615.531" y2="-475.906"/>
	<line fill="none" stroke="#B35047" x1="1103.531" y1="-443.906" x2="1615.531" y2="-443.906"/>
	<line fill="none" stroke="#B35047" x1="1103.531" y1="-411.906" x2="1615.531" y2="-411.906"/>
	<line fill="none" stroke="#B35047" x1="1103.531" y1="-379.906" x2="1615.531" y2="-379.906"/>
	<line fill="none" stroke="#B35047" x1="1103.531" y1="-347.906" x2="1615.531" y2="-347.906"/>
	<rect x="1103.531" y="-827.906" fill="none" stroke="#B35047" width="512" height="512"/>
</g>
<path fill="#231F20" d="M1359.5-796.5c-123.712,0-224,100.288-224,224s100.288,224,224,224s224-100.288,224-224
	S1483.212-796.5,1359.5-796.5z M1489.608-442.392c-34.754,34.753-80.961,53.893-130.108,53.893
	c-49.148,0-95.354-19.14-130.107-53.893c-34.753-34.754-53.893-80.959-53.893-130.107c0-49.147,19.14-95.354,53.893-130.108
	c34.754-34.752,80.959-53.892,130.107-53.892c49.147,0,95.354,19.14,130.108,53.892c34.752,34.754,53.892,80.961,53.892,130.108
	C1543.5-523.351,1524.36-477.146,1489.608-442.392z M1435.867-540.867c7.81,7.811,7.812,20.475,0.001,28.285l-62.223,62.22
	c-0.467,0.468-0.958,0.91-1.469,1.329c-0.234,0.192-0.48,0.359-0.721,0.539c-0.281,0.21-0.557,0.429-0.85,0.625
	c-0.291,0.194-0.593,0.363-0.891,0.541c-0.262,0.155-0.518,0.32-0.786,0.464c-0.305,0.163-0.618,0.302-0.93,0.448
	c-0.28,0.132-0.556,0.272-0.844,0.392c-0.303,0.125-0.612,0.227-0.919,0.336c-0.309,0.111-0.613,0.229-0.929,0.325
	c-0.308,0.093-0.619,0.161-0.93,0.239c-0.322,0.08-0.641,0.171-0.969,0.236c-0.358,0.07-0.72,0.113-1.08,0.165
	c-0.286,0.04-0.565,0.095-0.854,0.123c-0.803,0.079-1.607,0.097-2.412,0.079c-5.268,0.118-10.572-1.816-14.593-5.837l-62.226-62.226
	c-7.812-7.81-7.812-20.474,0-28.284c7.81-7.811,20.474-7.812,28.284-0.001l28.971,28.971V-680.5c0-11.045,8.954-20,20-20
	c11.045,0,20.001,8.954,20.001,20v167.715l28.082-28.082C1415.394-548.677,1428.058-548.677,1435.867-540.867z"/>
</svg>
