<?xml version="1.0" encoding="utf-8"?>
<!-- Generator: Adobe Illustrator 16.0.4, SVG Export Plug-In . SVG Version: 6.00 Build 0)  -->
<!DOCTYPE svg PUBLIC "-//W3C//DTD SVG 1.1//EN" "http://www.w3.org/Graphics/SVG/1.1/DTD/svg11.dtd">
<svg version="1.1" id="Layer_1" xmlns="http://www.w3.org/2000/svg" xmlns:xlink="http://www.w3.org/1999/xlink" x="0px" y="0px"
	 width="512px" height="512px" viewBox="551.5 3035.5 512 512" enable-background="new 551.5 3035.5 512 512" xml:space="preserve">
<g>
	<line fill="none" stroke="#B35047" x1="583.531" y1="3035.53" x2="583.531" y2="3547.53"/>
	<line fill="none" stroke="#B35047" x1="615.531" y1="3035.53" x2="615.531" y2="3547.53"/>
	<line fill="none" stroke="#B35047" x1="647.531" y1="3035.53" x2="647.531" y2="3547.53"/>
	<line fill="none" stroke="#B35047" x1="679.531" y1="3035.53" x2="679.531" y2="3547.53"/>
	<line fill="none" stroke="#B35047" x1="711.531" y1="3035.53" x2="711.531" y2="3547.53"/>
	<line fill="none" stroke="#B35047" x1="743.531" y1="3035.53" x2="743.531" y2="3547.53"/>
	<line fill="none" stroke="#B35047" x1="775.531" y1="3035.53" x2="775.531" y2="3547.53"/>
	<line fill="none" stroke="#B35047" x1="807.531" y1="3035.53" x2="807.531" y2="3547.53"/>
	<line fill="none" stroke="#B35047" x1="839.531" y1="3035.53" x2="839.531" y2="3547.53"/>
	<line fill="none" stroke="#B35047" x1="871.531" y1="3035.53" x2="871.531" y2="3547.53"/>
	<line fill="none" stroke="#B35047" x1="903.531" y1="3035.53" x2="903.531" y2="3547.53"/>
	<line fill="none" stroke="#B35047" x1="935.531" y1="3035.53" x2="935.531" y2="3547.53"/>
	<line fill="none" stroke="#B35047" x1="967.531" y1="3035.53" x2="967.531" y2="3547.53"/>
	<line fill="none" stroke="#B35047" x1="999.531" y1="3035.53" x2="999.531" y2="3547.53"/>
	<line fill="none" stroke="#B35047" x1="1031.531" y1="3035.53" x2="1031.531" y2="3547.53"/>
	<line fill="none" stroke="#B35047" x1="551.531" y1="3067.53" x2="1063.531" y2="3067.53"/>
	<line fill="none" stroke="#B35047" x1="551.531" y1="3099.53" x2="1063.531" y2="3099.53"/>
	<line fill="none" stroke="#B35047" x1="551.531" y1="3131.53" x2="1063.531" y2="3131.53"/>
	<line fill="none" stroke="#B35047" x1="551.531" y1="3163.53" x2="1063.531" y2="3163.53"/>
	<line fill="none" stroke="#B35047" x1="551.531" y1="3195.53" x2="1063.531" y2="3195.53"/>
	<line fill="none" stroke="#B35047" x1="551.531" y1="3227.53" x2="1063.531" y2="3227.53"/>
	<line fill="none" stroke="#B35047" x1="551.531" y1="3259.53" x2="1063.531" y2="3259.53"/>
	<line fill="none" stroke="#B35047" x1="551.531" y1="3291.53" x2="1063.531" y2="3291.53"/>
	<line fill="none" stroke="#B35047" x1="551.531" y1="3323.53" x2="1063.531" y2="3323.53"/>
	<line fill="none" stroke="#B35047" x1="551.531" y1="3355.53" x2="1063.531" y2="3355.53"/>
	<line fill="none" stroke="#B35047" x1="551.531" y1="3387.53" x2="1063.531" y2="3387.53"/>
	<line fill="none" stroke="#B35047" x1="551.531" y1="3419.53" x2="1063.531" y2="3419.53"/>
	<line fill="none" stroke="#B35047" x1="551.531" y1="3451.53" x2="1063.531" y2="3451.53"/>
	<line fill="none" stroke="#B35047" x1="551.531" y1="3483.53" x2="1063.531" y2="3483.53"/>
	<line fill="none" stroke="#B35047" x1="551.531" y1="3515.53" x2="1063.531" y2="3515.53"/>
	<rect x="551.531" y="3035.53" fill="none" stroke="#B35047" width="512" height="512"/>
</g>
<path d="M995.582,3311.301c0.182-0.246,0.372-0.483,0.543-0.738c0.207-0.31,0.388-0.631,0.576-0.949
	c0.145-0.243,0.298-0.48,0.432-0.729c0.169-0.316,0.313-0.642,0.465-0.965c0.126-0.27,0.262-0.534,0.376-0.811
	c0.129-0.311,0.232-0.628,0.345-0.943c0.108-0.301,0.224-0.598,0.317-0.905c0.095-0.312,0.164-0.63,0.243-0.945
	c0.079-0.318,0.169-0.632,0.232-0.955c0.072-0.361,0.115-0.727,0.167-1.091c0.04-0.282,0.094-0.559,0.122-0.845
	c0.129-1.312,0.13-2.636,0-3.949c-0.029-0.295-0.084-0.582-0.126-0.873c-0.051-0.354-0.092-0.709-0.162-1.061
	c-0.066-0.336-0.158-0.661-0.241-0.99c-0.077-0.303-0.143-0.607-0.233-0.907c-0.099-0.324-0.22-0.638-0.334-0.955
	c-0.107-0.298-0.205-0.598-0.326-0.892c-0.124-0.299-0.27-0.586-0.407-0.877c-0.142-0.3-0.274-0.602-0.432-0.896
	c-0.151-0.282-0.323-0.55-0.487-0.824c-0.171-0.286-0.332-0.575-0.519-0.854c-0.207-0.311-0.438-0.603-0.662-0.901
	c-0.168-0.223-0.322-0.451-0.5-0.668c-0.422-0.515-0.867-1.01-1.338-1.479l-91.592-91.823l91.602-91.833
	c0.066-0.066,0.121-0.14,0.187-0.206c0.393-0.404,0.775-0.818,1.133-1.254c0.212-0.258,0.396-0.528,0.594-0.793
	c0.191-0.259,0.392-0.51,0.571-0.777c0.203-0.305,0.381-0.62,0.566-0.933c0.147-0.248,0.304-0.49,0.44-0.745
	c0.168-0.314,0.311-0.637,0.461-0.958c0.128-0.271,0.264-0.538,0.379-0.816c0.129-0.31,0.232-0.627,0.345-0.942
	c0.107-0.301,0.224-0.598,0.317-0.906c0.095-0.313,0.165-0.632,0.244-0.949c0.079-0.316,0.168-0.628,0.231-0.95
	c0.072-0.363,0.116-0.73,0.168-1.097c0.039-0.28,0.093-0.556,0.121-0.839c0.129-1.313,0.13-2.637,0-3.95
	c-0.029-0.295-0.084-0.582-0.126-0.873c-0.051-0.354-0.093-0.709-0.162-1.061c-0.066-0.334-0.158-0.657-0.24-0.984
	c-0.077-0.306-0.144-0.613-0.235-0.915c-0.097-0.317-0.216-0.625-0.327-0.937c-0.109-0.305-0.21-0.611-0.334-0.912
	c-0.119-0.287-0.259-0.562-0.391-0.841c-0.146-0.313-0.286-0.628-0.45-0.935c-0.14-0.261-0.299-0.508-0.449-0.76
	c-0.183-0.309-0.357-0.62-0.559-0.921c-0.177-0.265-0.375-0.513-0.564-0.768c-0.199-0.269-0.388-0.544-0.603-0.806
	c-0.322-0.393-0.671-0.764-1.021-1.131c-0.103-0.107-0.19-0.223-0.296-0.327c-0.107-0.106-0.224-0.196-0.333-0.301
	c-0.365-0.35-0.734-0.695-1.125-1.017c-0.256-0.211-0.524-0.395-0.788-0.59c-0.262-0.193-0.516-0.396-0.787-0.578
	c-0.291-0.195-0.594-0.364-0.893-0.543c-0.263-0.156-0.52-0.321-0.789-0.466c-0.295-0.157-0.599-0.291-0.899-0.433
	c-0.292-0.139-0.579-0.284-0.879-0.408c-0.284-0.117-0.573-0.212-0.861-0.315c-0.329-0.118-0.653-0.244-0.989-0.346
	c-0.278-0.084-0.561-0.146-0.841-0.216c-0.353-0.091-0.701-0.188-1.061-0.26c-0.309-0.061-0.62-0.096-0.931-0.142
	c-0.334-0.05-0.665-0.112-1.005-0.146c-0.531-0.052-1.064-0.07-1.598-0.08c-0.122-0.002-0.241-0.019-0.364-0.019h-344
	c-9.666,0-17.729,6.856-19.594,15.97c-0.267,1.302-0.406,2.649-0.406,4.03v408.002c0,11.047,8.954,20,20,20s20-8.953,20-20v-176.053
	h323.989c0.663,0.001,1.327-0.034,1.988-0.1c0.279-0.028,0.55-0.081,0.826-0.119c0.37-0.053,0.741-0.097,1.108-0.169
	c0.321-0.064,0.633-0.153,0.949-0.232c0.317-0.079,0.636-0.149,0.95-0.244c0.308-0.094,0.604-0.209,0.906-0.317
	c0.315-0.112,0.632-0.216,0.942-0.345c0.277-0.115,0.543-0.251,0.814-0.378c0.321-0.15,0.646-0.294,0.96-0.463
	c0.253-0.136,0.493-0.29,0.739-0.437c0.315-0.187,0.633-0.365,0.94-0.571c0.257-0.173,0.499-0.366,0.748-0.55
	c0.275-0.204,0.557-0.396,0.823-0.616c0.387-0.317,0.75-0.659,1.111-1.004c0.113-0.108,0.234-0.201,0.346-0.312
	c0.109-0.108,0.2-0.228,0.307-0.339c0.347-0.363,0.69-0.729,1.01-1.117C995.182,3311.864,995.376,3311.58,995.582,3311.301z
	 M655.5,3107.499h275.801l-69.864,70.041c-0.661,0.513-1.307,1.057-1.914,1.664c-3.938,3.937-5.886,9.108-5.853,14.27
	c-0.033,5.161,1.914,10.333,5.853,14.271c0.609,0.609,1.257,1.155,1.921,1.669l69.857,70.034H655.5V3107.499z"/>
</svg>
