<?xml version="1.0" encoding="utf-8"?>
<!-- Generator: Adobe Illustrator 16.0.4, SVG Export Plug-In . SVG Version: 6.00 Build 0)  -->
<!DOCTYPE svg PUBLIC "-//W3C//DTD SVG 1.1//EN" "http://www.w3.org/Graphics/SVG/1.1/DTD/svg11.dtd">
<svg version="1.1" id="Layer_1" xmlns="http://www.w3.org/2000/svg" xmlns:xlink="http://www.w3.org/1999/xlink" x="0px" y="0px"
	 width="512px" height="512px" viewBox="551.5 4139.5 512 512" enable-background="new 551.5 4139.5 512 512" xml:space="preserve">
<g>
	<line fill="none" stroke="#B35047" x1="583.516" y1="4139.516" x2="583.516" y2="4651.516"/>
	<line fill="none" stroke="#B35047" x1="615.516" y1="4139.516" x2="615.516" y2="4651.516"/>
	<line fill="none" stroke="#B35047" x1="647.516" y1="4139.516" x2="647.516" y2="4651.516"/>
	<line fill="none" stroke="#B35047" x1="679.516" y1="4139.516" x2="679.516" y2="4651.516"/>
	<line fill="none" stroke="#B35047" x1="711.516" y1="4139.516" x2="711.516" y2="4651.516"/>
	<line fill="none" stroke="#B35047" x1="743.516" y1="4139.516" x2="743.516" y2="4651.516"/>
	<line fill="none" stroke="#B35047" x1="775.516" y1="4139.516" x2="775.516" y2="4651.516"/>
	<line fill="none" stroke="#B35047" x1="807.516" y1="4139.516" x2="807.516" y2="4651.516"/>
	<line fill="none" stroke="#B35047" x1="839.516" y1="4139.516" x2="839.516" y2="4651.516"/>
	<line fill="none" stroke="#B35047" x1="871.516" y1="4139.516" x2="871.516" y2="4651.516"/>
	<line fill="none" stroke="#B35047" x1="903.516" y1="4139.516" x2="903.516" y2="4651.516"/>
	<line fill="none" stroke="#B35047" x1="935.516" y1="4139.516" x2="935.516" y2="4651.516"/>
	<line fill="none" stroke="#B35047" x1="967.516" y1="4139.516" x2="967.516" y2="4651.516"/>
	<line fill="none" stroke="#B35047" x1="999.516" y1="4139.516" x2="999.516" y2="4651.516"/>
	<line fill="none" stroke="#B35047" x1="1031.516" y1="4139.516" x2="1031.516" y2="4651.516"/>
	<line fill="none" stroke="#B35047" x1="551.516" y1="4171.516" x2="1063.516" y2="4171.516"/>
	<line fill="none" stroke="#B35047" x1="551.516" y1="4203.516" x2="1063.516" y2="4203.516"/>
	<line fill="none" stroke="#B35047" x1="551.516" y1="4235.516" x2="1063.516" y2="4235.516"/>
	<line fill="none" stroke="#B35047" x1="551.516" y1="4267.516" x2="1063.516" y2="4267.516"/>
	<line fill="none" stroke="#B35047" x1="551.516" y1="4299.516" x2="1063.516" y2="4299.516"/>
	<line fill="none" stroke="#B35047" x1="551.516" y1="4331.516" x2="1063.516" y2="4331.516"/>
	<line fill="none" stroke="#B35047" x1="551.516" y1="4363.516" x2="1063.516" y2="4363.516"/>
	<line fill="none" stroke="#B35047" x1="551.516" y1="4395.516" x2="1063.516" y2="4395.516"/>
	<line fill="none" stroke="#B35047" x1="551.516" y1="4427.516" x2="1063.516" y2="4427.516"/>
	<line fill="none" stroke="#B35047" x1="551.516" y1="4459.516" x2="1063.516" y2="4459.516"/>
	<line fill="none" stroke="#B35047" x1="551.516" y1="4491.516" x2="1063.516" y2="4491.516"/>
	<line fill="none" stroke="#B35047" x1="551.516" y1="4523.516" x2="1063.516" y2="4523.516"/>
	<line fill="none" stroke="#B35047" x1="551.516" y1="4555.516" x2="1063.516" y2="4555.516"/>
	<line fill="none" stroke="#B35047" x1="551.516" y1="4587.516" x2="1063.516" y2="4587.516"/>
	<line fill="none" stroke="#B35047" x1="551.516" y1="4619.516" x2="1063.516" y2="4619.516"/>
	<rect x="551.516" y="4139.516" fill="none" stroke="#B35047" width="512" height="512"/>
</g>
<path d="M784.463,4460.178l-74.664,129.354h247.037l74.664-129.354H784.463z M1010.352,4423.494L882.187,4201.47H732.844
	l128.178,222.024H1010.352z M711.618,4238.221L583.5,4460.178l74.68,129.354l128.115-221.957L711.618,4238.221z"/>
</svg>
