<?xml version="1.0" encoding="utf-8"?>
<!-- Generator: Adobe Illustrator 16.0.4, SVG Export Plug-In . SVG Version: 6.00 Build 0)  -->
<!DOCTYPE svg PUBLIC "-//W3C//DTD SVG 1.1//EN" "http://www.w3.org/Graphics/SVG/1.1/DTD/svg11.dtd">
<svg version="1.1" id="Layer_1" xmlns="http://www.w3.org/2000/svg" xmlns:xlink="http://www.w3.org/1999/xlink" x="0px" y="0px"
	 width="512px" height="512px" viewBox="-0.5 4139.5 512 512" enable-background="new -0.5 4139.5 512 512" xml:space="preserve">
<g>
	<line fill="none" stroke="#B35047" x1="31.516" y1="4139.516" x2="31.516" y2="4651.516"/>
	<line fill="none" stroke="#B35047" x1="63.516" y1="4139.516" x2="63.516" y2="4651.516"/>
	<line fill="none" stroke="#B35047" x1="95.516" y1="4139.516" x2="95.516" y2="4651.516"/>
	<line fill="none" stroke="#B35047" x1="127.516" y1="4139.516" x2="127.516" y2="4651.516"/>
	<line fill="none" stroke="#B35047" x1="159.516" y1="4139.516" x2="159.516" y2="4651.516"/>
	<line fill="none" stroke="#B35047" x1="191.516" y1="4139.516" x2="191.516" y2="4651.516"/>
	<line fill="none" stroke="#B35047" x1="223.516" y1="4139.516" x2="223.516" y2="4651.516"/>
	<line fill="none" stroke="#B35047" x1="255.516" y1="4139.516" x2="255.516" y2="4651.516"/>
	<line fill="none" stroke="#B35047" x1="287.516" y1="4139.516" x2="287.516" y2="4651.516"/>
	<line fill="none" stroke="#B35047" x1="319.516" y1="4139.516" x2="319.516" y2="4651.516"/>
	<line fill="none" stroke="#B35047" x1="351.516" y1="4139.516" x2="351.516" y2="4651.516"/>
	<line fill="none" stroke="#B35047" x1="383.516" y1="4139.516" x2="383.516" y2="4651.516"/>
	<line fill="none" stroke="#B35047" x1="415.516" y1="4139.516" x2="415.516" y2="4651.516"/>
	<line fill="none" stroke="#B35047" x1="447.516" y1="4139.516" x2="447.516" y2="4651.516"/>
	<line fill="none" stroke="#B35047" x1="479.516" y1="4139.516" x2="479.516" y2="4651.516"/>
	<line fill="none" stroke="#B35047" x1="-0.484" y1="4171.516" x2="511.516" y2="4171.516"/>
	<line fill="none" stroke="#B35047" x1="-0.484" y1="4203.516" x2="511.516" y2="4203.516"/>
	<line fill="none" stroke="#B35047" x1="-0.484" y1="4235.516" x2="511.516" y2="4235.516"/>
	<line fill="none" stroke="#B35047" x1="-0.484" y1="4267.516" x2="511.516" y2="4267.516"/>
	<line fill="none" stroke="#B35047" x1="-0.484" y1="4299.516" x2="511.516" y2="4299.516"/>
	<line fill="none" stroke="#B35047" x1="-0.484" y1="4331.516" x2="511.516" y2="4331.516"/>
	<line fill="none" stroke="#B35047" x1="-0.484" y1="4363.516" x2="511.516" y2="4363.516"/>
	<line fill="none" stroke="#B35047" x1="-0.484" y1="4395.516" x2="511.516" y2="4395.516"/>
	<line fill="none" stroke="#B35047" x1="-0.484" y1="4427.516" x2="511.516" y2="4427.516"/>
	<line fill="none" stroke="#B35047" x1="-0.484" y1="4459.516" x2="511.516" y2="4459.516"/>
	<line fill="none" stroke="#B35047" x1="-0.484" y1="4491.516" x2="511.516" y2="4491.516"/>
	<line fill="none" stroke="#B35047" x1="-0.484" y1="4523.516" x2="511.516" y2="4523.516"/>
	<line fill="none" stroke="#B35047" x1="-0.484" y1="4555.516" x2="511.516" y2="4555.516"/>
	<line fill="none" stroke="#B35047" x1="-0.484" y1="4587.516" x2="511.516" y2="4587.516"/>
	<line fill="none" stroke="#B35047" x1="-0.484" y1="4619.516" x2="511.516" y2="4619.516"/>
	<rect x="-0.484" y="4139.516" fill="none" stroke="#B35047" width="512" height="512"/>
</g>
<path d="M255.531,4171.516c-123.713,0-224,100.288-224,224s100.287,224,224,224c123.711,0,224-100.288,224-224
	S379.242,4171.516,255.531,4171.516z M125.423,4525.623c-34.753-34.754-53.892-80.959-53.892-130.107
	c0-49.147,19.139-95.354,53.892-130.108c34.754-34.752,80.96-53.892,130.108-53.892s95.354,19.14,130.107,53.892
	c34.752,34.754,53.893,80.961,53.893,130.108c0,49.148-19.141,95.354-53.893,130.107c-21.426,21.424-47.205,36.903-75.342,45.635
	v-32.552c0-17.292-5.93-30.011-17.789-38.155c7.432-0.715,14.256-1.715,20.471-3.001c6.217-1.286,12.789-3.146,19.721-5.573
	c6.932-2.427,13.146-5.322,18.65-8.682c5.5-3.356,10.787-7.717,15.859-13.075s9.324-11.433,12.754-18.222
	c3.432-6.785,6.146-14.933,8.146-24.437c2.002-9.503,3-19.972,3-31.401c0-22.15-7.217-41.016-21.648-56.591
	c6.57-17.147,5.857-35.797-2.145-55.947l-5.359-0.643c-3.715-0.429-10.395,1.143-20.041,4.717
	c-9.645,3.572-20.471,9.432-32.475,17.576c-17.008-4.716-34.654-7.074-52.947-7.074c-18.435,0-36.012,2.358-52.73,7.074
	c-7.572-5.145-14.755-9.395-21.543-12.754s-12.218-5.645-16.291-6.859c-4.072-1.215-7.859-1.965-11.361-2.25
	c-3.5-0.287-5.75-0.357-6.752-0.215c-1,0.143-1.715,0.286-2.144,0.43c-8.002,20.291-8.718,38.94-2.144,55.947
	c-14.434,15.576-21.65,34.439-21.65,56.589c0,11.433,1,21.899,3.001,31.402c2,9.505,4.716,17.648,8.146,24.438
	s7.682,12.861,12.754,18.221c5.073,5.359,10.36,9.719,15.862,13.076s11.718,6.252,18.649,8.681
	c6.931,2.429,13.504,4.287,19.721,5.573c6.217,1.285,13.04,2.287,20.471,3.001c-11.719,8.002-17.576,20.722-17.576,38.155v33.202
	C173.938,4563.31,147.391,4547.59,125.423,4525.623z"/>
</svg>
