<?xml version="1.0" encoding="utf-8"?>
<!-- Generator: Adobe Illustrator 16.0.4, SVG Export Plug-In . SVG Version: 6.00 Build 0)  -->
<!DOCTYPE svg PUBLIC "-//W3C//DTD SVG 1.1//EN" "http://www.w3.org/Graphics/SVG/1.1/DTD/svg11.dtd">
<svg version="1.1" id="Layer_1" xmlns="http://www.w3.org/2000/svg" xmlns:xlink="http://www.w3.org/1999/xlink" x="0px" y="0px"
	 width="512px" height="512px" viewBox="-0.5 1379.5 512 512" enable-background="new -0.5 1379.5 512 512" xml:space="preserve">
<g>
	<line fill="none" stroke="#B35047" x1="31.5" y1="1379.5" x2="31.5" y2="1891.5"/>
	<line fill="none" stroke="#B35047" x1="63.5" y1="1379.5" x2="63.5" y2="1891.5"/>
	<line fill="none" stroke="#B35047" x1="95.5" y1="1379.5" x2="95.5" y2="1891.5"/>
	<line fill="none" stroke="#B35047" x1="127.5" y1="1379.5" x2="127.5" y2="1891.5"/>
	<line fill="none" stroke="#B35047" x1="159.5" y1="1379.5" x2="159.5" y2="1891.5"/>
	<line fill="none" stroke="#B35047" x1="191.5" y1="1379.5" x2="191.5" y2="1891.5"/>
	<line fill="none" stroke="#B35047" x1="223.5" y1="1379.5" x2="223.5" y2="1891.5"/>
	<line fill="none" stroke="#B35047" x1="255.5" y1="1379.5" x2="255.5" y2="1891.5"/>
	<line fill="none" stroke="#B35047" x1="287.5" y1="1379.5" x2="287.5" y2="1891.5"/>
	<line fill="none" stroke="#B35047" x1="319.5" y1="1379.5" x2="319.5" y2="1891.5"/>
	<line fill="none" stroke="#B35047" x1="351.5" y1="1379.5" x2="351.5" y2="1891.5"/>
	<line fill="none" stroke="#B35047" x1="383.5" y1="1379.5" x2="383.5" y2="1891.5"/>
	<line fill="none" stroke="#B35047" x1="415.5" y1="1379.5" x2="415.5" y2="1891.5"/>
	<line fill="none" stroke="#B35047" x1="447.5" y1="1379.5" x2="447.5" y2="1891.5"/>
	<line fill="none" stroke="#B35047" x1="479.5" y1="1379.5" x2="479.5" y2="1891.5"/>
	<line fill="none" stroke="#B35047" x1="-0.5" y1="1411.5" x2="511.5" y2="1411.5"/>
	<line fill="none" stroke="#B35047" x1="-0.5" y1="1443.5" x2="511.5" y2="1443.5"/>
	<line fill="none" stroke="#B35047" x1="-0.5" y1="1475.5" x2="511.5" y2="1475.5"/>
	<line fill="none" stroke="#B35047" x1="-0.5" y1="1507.5" x2="511.5" y2="1507.5"/>
	<line fill="none" stroke="#B35047" x1="-0.5" y1="1539.5" x2="511.5" y2="1539.5"/>
	<line fill="none" stroke="#B35047" x1="-0.5" y1="1571.5" x2="511.5" y2="1571.5"/>
	<line fill="none" stroke="#B35047" x1="-0.5" y1="1603.5" x2="511.5" y2="1603.5"/>
	<line fill="none" stroke="#B35047" x1="-0.5" y1="1635.5" x2="511.5" y2="1635.5"/>
	<line fill="none" stroke="#B35047" x1="-0.5" y1="1667.5" x2="511.5" y2="1667.5"/>
	<line fill="none" stroke="#B35047" x1="-0.5" y1="1699.5" x2="511.5" y2="1699.5"/>
	<line fill="none" stroke="#B35047" x1="-0.5" y1="1731.5" x2="511.5" y2="1731.5"/>
	<line fill="none" stroke="#B35047" x1="-0.5" y1="1763.5" x2="511.5" y2="1763.5"/>
	<line fill="none" stroke="#B35047" x1="-0.5" y1="1795.5" x2="511.5" y2="1795.5"/>
	<line fill="none" stroke="#B35047" x1="-0.5" y1="1827.5" x2="511.5" y2="1827.5"/>
	<line fill="none" stroke="#B35047" x1="-0.5" y1="1859.5" x2="511.5" y2="1859.5"/>
	<rect x="-0.5" y="1379.5" fill="none" stroke="#B35047" width="512" height="512"/>
</g>
<path d="M409.768,1595.832l-34.633-34.633c-0.166-0.177-0.313-0.364-0.486-0.537c-3.912-3.911-9.04-5.863-14.166-5.857
	c-5.128-0.007-10.258,1.944-14.17,5.856c-0.173,0.173-0.321,0.36-0.486,0.538l-84.455,84.455l-48.102-48.102
	c-3.906-3.906-9.025-5.859-14.144-5.858c-5.122-0.002-10.244,1.95-14.151,5.858l-84.473,84.473c-7.812,7.811-7.812,20.475,0,28.283
	c7.809,7.811,20.473,7.812,28.285,0.002l70.335-70.337l48.089,48.091c3.909,3.909,9.033,5.86,14.157,5.856
	c5.125,0.005,10.252-1.946,14.163-5.856l84.949-84.95l21.002,21.001c7.809,7.809,20.473,7.809,28.285,0
	C417.576,1616.303,417.578,1603.641,409.768,1595.832z"/>
<g>
	<path d="M439.5,1451.5v368h-368v-368H439.5 M459.5,1411.5h-408c-11.046,0-20,8.954-20,20v408c0,11.046,8.954,20,20,20h408
		c11.046,0,20-8.954,20-20v-408C479.5,1420.454,470.546,1411.5,459.5,1411.5L459.5,1411.5z"/>
</g>
</svg>
