<?xml version="1.0" encoding="utf-8"?>
<!-- Generator: Adobe Illustrator 16.0.4, SVG Export Plug-In . SVG Version: 6.00 Build 0)  -->
<!DOCTYPE svg PUBLIC "-//W3C//DTD SVG 1.1//EN" "http://www.w3.org/Graphics/SVG/1.1/DTD/svg11.dtd">
<svg version="1.1" id="Layer_1" xmlns="http://www.w3.org/2000/svg" xmlns:xlink="http://www.w3.org/1999/xlink" x="0px" y="0px"
	 width="512px" height="512px" viewBox="551.5 -2484.5 512 512" enable-background="new 551.5 -2484.5 512 512"
	 xml:space="preserve">
<g>
	<line fill="none" stroke="#B35047" x1="583.516" y1="-2484.484" x2="583.516" y2="-1972.484"/>
	<line fill="none" stroke="#B35047" x1="615.516" y1="-2484.484" x2="615.516" y2="-1972.484"/>
	<line fill="none" stroke="#B35047" x1="647.516" y1="-2484.484" x2="647.516" y2="-1972.484"/>
	<line fill="none" stroke="#B35047" x1="679.516" y1="-2484.484" x2="679.516" y2="-1972.484"/>
	<line fill="none" stroke="#B35047" x1="711.516" y1="-2484.484" x2="711.516" y2="-1972.484"/>
	<line fill="none" stroke="#B35047" x1="743.516" y1="-2484.484" x2="743.516" y2="-1972.484"/>
	<line fill="none" stroke="#B35047" x1="775.516" y1="-2484.484" x2="775.516" y2="-1972.484"/>
	<line fill="none" stroke="#B35047" x1="807.516" y1="-2484.484" x2="807.516" y2="-1972.484"/>
	<line fill="none" stroke="#B35047" x1="839.516" y1="-2484.484" x2="839.516" y2="-1972.484"/>
	<line fill="none" stroke="#B35047" x1="871.516" y1="-2484.484" x2="871.516" y2="-1972.484"/>
	<line fill="none" stroke="#B35047" x1="903.516" y1="-2484.484" x2="903.516" y2="-1972.484"/>
	<line fill="none" stroke="#B35047" x1="935.516" y1="-2484.484" x2="935.516" y2="-1972.484"/>
	<line fill="none" stroke="#B35047" x1="967.516" y1="-2484.484" x2="967.516" y2="-1972.484"/>
	<line fill="none" stroke="#B35047" x1="999.516" y1="-2484.484" x2="999.516" y2="-1972.484"/>
	<line fill="none" stroke="#B35047" x1="1031.516" y1="-2484.484" x2="1031.516" y2="-1972.484"/>
	<line fill="none" stroke="#B35047" x1="551.516" y1="-2452.484" x2="1063.516" y2="-2452.484"/>
	<line fill="none" stroke="#B35047" x1="551.516" y1="-2420.484" x2="1063.516" y2="-2420.484"/>
	<line fill="none" stroke="#B35047" x1="551.516" y1="-2388.484" x2="1063.516" y2="-2388.484"/>
	<line fill="none" stroke="#B35047" x1="551.516" y1="-2356.484" x2="1063.516" y2="-2356.484"/>
	<line fill="none" stroke="#B35047" x1="551.516" y1="-2324.484" x2="1063.516" y2="-2324.484"/>
	<line fill="none" stroke="#B35047" x1="551.516" y1="-2292.484" x2="1063.516" y2="-2292.484"/>
	<line fill="none" stroke="#B35047" x1="551.516" y1="-2260.484" x2="1063.516" y2="-2260.484"/>
	<line fill="none" stroke="#B35047" x1="551.516" y1="-2228.484" x2="1063.516" y2="-2228.484"/>
	<line fill="none" stroke="#B35047" x1="551.516" y1="-2196.484" x2="1063.516" y2="-2196.484"/>
	<line fill="none" stroke="#B35047" x1="551.516" y1="-2164.484" x2="1063.516" y2="-2164.484"/>
	<line fill="none" stroke="#B35047" x1="551.516" y1="-2132.484" x2="1063.516" y2="-2132.484"/>
	<line fill="none" stroke="#B35047" x1="551.516" y1="-2100.484" x2="1063.516" y2="-2100.484"/>
	<line fill="none" stroke="#B35047" x1="551.516" y1="-2068.484" x2="1063.516" y2="-2068.484"/>
	<line fill="none" stroke="#B35047" x1="551.516" y1="-2036.484" x2="1063.516" y2="-2036.484"/>
	<line fill="none" stroke="#B35047" x1="551.516" y1="-2004.484" x2="1063.516" y2="-2004.484"/>
	<rect x="551.516" y="-2484.484" fill="none" stroke="#B35047" width="512" height="512"/>
</g>
<g>
	<circle cx="903.516" cy="-2324.484" r="32"/>
	<path d="M887.512-2451.957c-79.53,0-144.003,64.473-144.003,144.003c0,17.665,3.188,34.583,9.01,50.22l-162.728,162.729
		c-2.98,2.818-5.098,6.533-5.904,10.723c-0.013,0.064-0.018,0.129-0.029,0.193c-0.103,0.561-0.191,1.125-0.246,1.699
		c-0.029,0.309-0.03,0.617-0.046,0.926c-0.017,0.328-0.05,0.65-0.05,0.982v56c0,4.168,1.277,8.035,3.458,11.238
		c3.599,5.287,9.663,8.762,16.543,8.762h87.998c0.011,0,0.021,0,0.032,0c0.01,0,0.021,0,0.031,0c11.046,0,20-8.953,20-20
		l0.001-31.342h35.998c0.69,0,1.372-0.035,2.045-0.104c4.706-0.477,8.931-2.586,12.098-5.754c3.619-3.619,5.858-8.619,5.858-14.143
		c0,0-0.001-0.014-0.001-0.02l0.001-35.98h35.874c0.69,0,1.372-0.035,2.045-0.104c4.706-0.479,8.931-2.588,12.098-5.754
		c3.619-3.621,5.858-8.621,5.858-14.145c0-0.006-0.001-0.012-0.001-0.02l0.001-27.232l13.868-13.869
		c15.629,5.814,32.537,8.998,50.19,8.998c79.531,0,144.004-64.474,144.004-144.005
		C1031.516-2387.484,967.043-2451.957,887.512-2451.957z M887.512-2203.949c-21.315,0-41.151-6.451-57.666-17.496l-9.34,9.342
		c-1.128,0.738-2.199,1.602-3.19,2.594l-27.995,27.994c-3.901,3.902-5.854,9.014-5.857,14.127c-0.001,0.074-0.011,0.145-0.011,0.219
		v15.346h-35.999c-11.046,0-20,8.953-20,20c0,0.738,0.046,1.463,0.124,2.18v33.82h-35.999c-0.69,0-1.373,0.035-2.045,0.104
		c-8.068,0.82-14.719,6.436-17.057,13.951c-0.006,0.02-0.009,0.039-0.015,0.059c-0.188,0.607-0.349,1.227-0.478,1.857
		c-0.003,0.016-0.004,0.031-0.007,0.045c-0.129,0.637-0.229,1.283-0.296,1.941c-0.033,0.328-0.033,0.664-0.051,0.996
		c-0.018,0.35-0.053,0.693-0.053,1.047v0.002l0,0v31.34h-48.062l0.001-27.678l149.051-149.053c0.069,0.09,0.136,0.182,0.204,0.273
		l28.68-28.681c-11.319-16.646-17.942-36.73-17.942-58.334c0-57.348,46.655-104.003,104.003-104.003s104.004,46.655,104.004,104.003
		S944.859-2203.949,887.512-2203.949z"/>
</g>
</svg>
