<?xml version="1.0" encoding="utf-8"?>
<!-- Generator: Adobe Illustrator 16.0.4, SVG Export Plug-In . SVG Version: 6.00 Build 0)  -->
<!DOCTYPE svg PUBLIC "-//W3C//DTD SVG 1.1//EN" "http://www.w3.org/Graphics/SVG/1.1/DTD/svg11.dtd">
<svg version="1.1" id="Layer_1" xmlns="http://www.w3.org/2000/svg" xmlns:xlink="http://www.w3.org/1999/xlink" x="0px" y="0px"
	 width="512px" height="512px" viewBox="-0.5 3587.5 512 512" enable-background="new -0.5 3587.5 512 512" xml:space="preserve">
<g>
	<line fill="none" stroke="#B35047" x1="31.5" y1="3587.5" x2="31.5" y2="4099.5"/>
	<line fill="none" stroke="#B35047" x1="63.5" y1="3587.5" x2="63.5" y2="4099.5"/>
	<line fill="none" stroke="#B35047" x1="95.5" y1="3587.5" x2="95.5" y2="4099.5"/>
	<line fill="none" stroke="#B35047" x1="127.5" y1="3587.5" x2="127.5" y2="4099.5"/>
	<line fill="none" stroke="#B35047" x1="159.5" y1="3587.5" x2="159.5" y2="4099.5"/>
	<line fill="none" stroke="#B35047" x1="191.5" y1="3587.5" x2="191.5" y2="4099.5"/>
	<line fill="none" stroke="#B35047" x1="223.5" y1="3587.5" x2="223.5" y2="4099.5"/>
	<line fill="none" stroke="#B35047" x1="255.5" y1="3587.5" x2="255.5" y2="4099.5"/>
	<line fill="none" stroke="#B35047" x1="287.5" y1="3587.5" x2="287.5" y2="4099.5"/>
	<line fill="none" stroke="#B35047" x1="319.5" y1="3587.5" x2="319.5" y2="4099.5"/>
	<line fill="none" stroke="#B35047" x1="351.5" y1="3587.5" x2="351.5" y2="4099.5"/>
	<line fill="none" stroke="#B35047" x1="383.499" y1="3587.5" x2="383.499" y2="4099.5"/>
	<line fill="none" stroke="#B35047" x1="415.499" y1="3587.5" x2="415.499" y2="4099.5"/>
	<line fill="none" stroke="#B35047" x1="447.499" y1="3587.5" x2="447.499" y2="4099.5"/>
	<line fill="none" stroke="#B35047" x1="479.499" y1="3587.5" x2="479.499" y2="4099.5"/>
	<line fill="none" stroke="#B35047" x1="-0.5" y1="3619.5" x2="511.499" y2="3619.5"/>
	<line fill="none" stroke="#B35047" x1="-0.5" y1="3651.5" x2="511.499" y2="3651.5"/>
	<line fill="none" stroke="#B35047" x1="-0.5" y1="3683.5" x2="511.499" y2="3683.5"/>
	<line fill="none" stroke="#B35047" x1="-0.5" y1="3715.5" x2="511.499" y2="3715.5"/>
	<line fill="none" stroke="#B35047" x1="-0.5" y1="3747.5" x2="511.499" y2="3747.5"/>
	<line fill="none" stroke="#B35047" x1="-0.5" y1="3779.5" x2="511.499" y2="3779.5"/>
	<line fill="none" stroke="#B35047" x1="-0.5" y1="3811.5" x2="511.499" y2="3811.5"/>
	<line fill="none" stroke="#B35047" x1="-0.5" y1="3843.5" x2="511.499" y2="3843.5"/>
	<line fill="none" stroke="#B35047" x1="-0.5" y1="3875.5" x2="511.499" y2="3875.5"/>
	<line fill="none" stroke="#B35047" x1="-0.5" y1="3907.5" x2="511.499" y2="3907.5"/>
	<line fill="none" stroke="#B35047" x1="-0.5" y1="3939.5" x2="511.499" y2="3939.5"/>
	<line fill="none" stroke="#B35047" x1="-0.5" y1="3971.5" x2="511.499" y2="3971.5"/>
	<line fill="none" stroke="#B35047" x1="-0.5" y1="4003.5" x2="511.499" y2="4003.5"/>
	<line fill="none" stroke="#B35047" x1="-0.5" y1="4035.5" x2="511.499" y2="4035.5"/>
	<line fill="none" stroke="#B35047" x1="-0.5" y1="4067.5" x2="511.499" y2="4067.5"/>
	<rect x="-0.5" y="3587.5" fill="none" stroke="#B35047" width="511.999" height="512"/>
</g>
<path d="M351.478,3619.491c-34.153,0-65.181,13.365-88.132,35.157c-0.135,0.127-52.938,52.93-53.064,53.063
	c-1.062,1.118-2.098,2.261-3.119,3.416c-0.153,0.174-0.309,0.346-0.461,0.521c-0.992,1.136-1.964,2.291-2.917,3.462
	c-0.128,0.156-0.254,0.313-0.38,0.471c-17.691,21.948-28.29,49.859-28.29,80.272c0,18.664,3.995,36.384,11.166,52.364
	c-0.002,0-0.003,0.001-0.005,0.002c0.129,0.288,0.269,0.57,0.4,0.857c0.343,0.749,0.688,1.497,1.044,2.238
	c0.198,0.411,0.403,0.817,0.604,1.227c0.334,0.672,0.668,1.344,1.013,2.011c0.224,0.433,0.452,0.861,0.681,1.291
	c0.339,0.638,0.681,1.273,1.03,1.904c0.239,0.433,0.482,0.861,0.727,1.291c0.355,0.625,0.715,1.247,1.081,1.866
	c0.248,0.419,0.498,0.837,0.75,1.253c0.381,0.627,0.767,1.249,1.157,1.868c0.249,0.396,0.498,0.79,0.751,1.182
	c0.417,0.645,0.841,1.284,1.27,1.921c0.238,0.355,0.475,0.712,0.717,1.064c0.473,0.688,0.955,1.369,1.44,2.048
	c0.208,0.291,0.414,0.585,0.625,0.875c0.573,0.787,1.158,1.565,1.749,2.339c0.132,0.174,0.261,0.35,0.394,0.522
	c2.257,2.925,4.638,5.748,7.134,8.464c0.004,0.005,0.009,0.009,0.013,0.014c0.814,0.887,1.644,1.76,2.482,2.623
	c0.093,0.096,0.188,0.189,0.282,0.285c0.755,0.771,1.519,1.534,2.292,2.286c0.136,0.131,0.272,0.26,0.407,0.391
	c0.742,0.715,1.492,1.422,2.252,2.119c0.152,0.14,0.307,0.278,0.46,0.418c0.752,0.684,1.512,1.358,2.28,2.024
	c0.159,0.138,0.318,0.275,0.479,0.412c0.367,0.315,0.729,0.637,1.099,0.947v-0.026c0.503,0.422,1,0.85,1.509,1.264
	c0.272,0.237,0.552,0.465,0.838,0.688c0.273,0.218,0.538,0.414,0.795,0.595c3.249,2.28,7.198,3.63,11.469,3.63
	c11.045,0,20.002-8.953,20.002-20c0-6.485-3.103-12.233-7.889-15.888c-0.026-0.04-0.047-0.076-0.074-0.116
	c-2.301-1.88-4.523-3.882-6.652-6.011c-1.813-1.812-3.515-3.706-5.146-5.645c-13.336-15.825-20.624-35.64-20.624-56.598
	c0-22.519,8.472-43.905,23.867-60.274c0.964-0.965,3.878-3.881,7.869-7.872c0.982-0.983,2.037-2.037,3.138-3.138
	c0.13-0.131,0.26-0.261,0.392-0.392c0.421-0.422,0.849-0.85,1.284-1.285c0.793-0.793,1.605-1.605,2.438-2.438
	c0.033-0.033,0.064-0.064,0.098-0.097c2.398-2.4,4.943-4.944,7.531-7.532c1.454-1.454,2.92-2.921,4.384-4.384
	c0.091-0.092,0.183-0.183,0.273-0.273c0.489-0.49,0.979-0.979,1.468-1.468c0.556-0.556,1.109-1.11,1.661-1.661
	c0.051-0.051,0.102-0.102,0.152-0.152c10.3-10.299,19.647-19.645,21.541-21.536c16.371-15.391,37.756-23.86,60.268-23.86
	c23.514,0,45.614,9.147,62.229,25.758c16.618,16.612,25.771,38.718,25.771,62.242c0,22.577-8.514,44.007-23.985,60.396
	c-2.707,2.707-20.406,20.406-34.479,34.479c-3.588,3.588-6.944,6.943-9.752,9.751v0.001c-0.182,0.182-0.371,0.371-0.548,0.548h0.671
	c2.905,12.356,4.459,25.229,4.459,38.459c0,3.449-0.116,6.882-0.322,10.3c3.483-2.394,6.826-4.973,10.05-7.689v0.024
	c0.367-0.31,0.724-0.63,1.087-0.943c0.484-0.417,0.971-0.833,1.449-1.257c1.118-0.99,2.223-1.994,3.304-3.024
	c0.08-0.077,52.669-52.665,52.741-52.739c21.885-22.961,35.326-54.047,35.326-88.305
	C479.477,3676.741,422.169,3619.491,351.478,3619.491z"/>
<path d="M159.499,4067.5c34.153,0,65.181-13.365,88.132-35.157c0.135-0.127,52.938-52.93,53.064-53.063
	c1.062-1.118,2.098-2.261,3.119-3.416c0.153-0.174,0.309-0.346,0.461-0.521c0.992-1.136,1.964-2.291,2.917-3.462
	c0.128-0.156,0.254-0.313,0.38-0.471c17.691-21.948,28.29-49.859,28.29-80.272c0-18.664-3.995-36.384-11.166-52.364
	c0.002,0,0.003-0.001,0.005-0.002c-0.129-0.288-0.269-0.57-0.4-0.857c-0.343-0.749-0.688-1.497-1.044-2.238
	c-0.198-0.411-0.403-0.817-0.604-1.227c-0.334-0.672-0.668-1.344-1.013-2.011c-0.224-0.433-0.452-0.861-0.681-1.291
	c-0.339-0.638-0.681-1.273-1.03-1.904c-0.239-0.433-0.482-0.861-0.727-1.291c-0.355-0.625-0.715-1.247-1.081-1.866
	c-0.248-0.419-0.498-0.837-0.75-1.253c-0.381-0.627-0.767-1.249-1.157-1.868c-0.249-0.396-0.498-0.79-0.751-1.182
	c-0.417-0.645-0.841-1.284-1.27-1.921c-0.238-0.355-0.475-0.712-0.717-1.064c-0.473-0.688-0.955-1.369-1.44-2.048
	c-0.208-0.291-0.414-0.585-0.625-0.875c-0.573-0.787-1.158-1.565-1.749-2.339c-0.132-0.174-0.261-0.35-0.394-0.522
	c-2.257-2.925-4.638-5.748-7.134-8.464c-0.004-0.005-0.009-0.009-0.013-0.014c-0.814-0.887-1.644-1.76-2.482-2.623
	c-0.093-0.096-0.188-0.189-0.282-0.285c-0.755-0.771-1.519-1.534-2.292-2.286c-0.136-0.131-0.272-0.26-0.407-0.391
	c-0.742-0.715-1.492-1.422-2.252-2.119c-0.152-0.14-0.307-0.278-0.46-0.418c-0.752-0.684-1.512-1.358-2.28-2.024
	c-0.159-0.138-0.318-0.275-0.479-0.412c-0.367-0.315-0.729-0.637-1.099-0.947v0.026c-0.503-0.422-1-0.85-1.509-1.264
	c-0.272-0.237-0.552-0.465-0.838-0.688c-0.273-0.218-0.538-0.414-0.795-0.595c-3.249-2.28-7.198-3.63-11.469-3.63
	c-11.045,0-20.002,8.953-20.002,20c0,6.485,3.103,12.233,7.889,15.888c0.026,0.04,0.047,0.076,0.074,0.116
	c2.301,1.88,4.523,3.882,6.652,6.011c1.813,1.812,3.515,3.706,5.146,5.645c13.336,15.825,20.624,35.64,20.624,56.598
	c0,22.519-8.472,43.905-23.867,60.274c-0.964,0.965-3.878,3.881-7.869,7.872c-0.982,0.983-2.037,2.037-3.138,3.138
	c-0.13,0.131-0.26,0.261-0.392,0.392c-0.421,0.422-0.849,0.85-1.284,1.285c-0.793,0.793-1.605,1.605-2.438,2.438
	c-0.033,0.033-0.064,0.064-0.098,0.097c-2.398,2.4-4.943,4.944-7.531,7.532c-1.454,1.454-2.92,2.921-4.384,4.384
	c-0.091,0.092-0.183,0.183-0.273,0.273c-0.489,0.49-0.979,0.979-1.468,1.468c-0.556,0.556-1.109,1.11-1.661,1.661
	c-0.051,0.051-0.102,0.102-0.152,0.152c-10.3,10.299-19.647,19.645-21.541,21.536c-16.371,15.391-37.756,23.86-60.268,23.86
	c-23.514,0-45.614-9.147-62.229-25.758C80.652,3985.13,71.5,3963.024,71.5,3939.5c0-22.577,8.514-44.007,23.985-60.396
	c2.707-2.707,20.406-20.406,34.479-34.479c3.588-3.588,6.944-6.943,9.752-9.751v-0.001c0.182-0.182,0.371-0.371,0.548-0.548h-0.671
	c-2.905-12.356-4.459-25.229-4.459-38.459c0-3.449,0.116-6.882,0.322-10.3c-3.483,2.394-6.826,4.973-10.05,7.689v-0.024
	c-0.367,0.31-0.724,0.63-1.087,0.943c-0.484,0.417-0.971,0.833-1.449,1.257c-1.118,0.99-2.223,1.994-3.304,3.024
	c-0.08,0.077-52.669,52.665-52.741,52.739C44.941,3874.156,31.5,3905.242,31.5,3939.5C31.5,4010.25,88.808,4067.5,159.499,4067.5z"
	/>
</svg>
