<?xml version="1.0" encoding="utf-8"?>
<!-- Generator: Adobe Illustrator 16.0.4, SVG Export Plug-In . SVG Version: 6.00 Build 0)  -->
<!DOCTYPE svg PUBLIC "-//W3C//DTD SVG 1.1//EN" "http://www.w3.org/Graphics/SVG/1.1/DTD/svg11.dtd">
<svg version="1.1" id="Layer_1" xmlns="http://www.w3.org/2000/svg" xmlns:xlink="http://www.w3.org/1999/xlink" x="0px" y="0px"
	 width="512px" height="512px" viewBox="551.5 1379.5 512 512" enable-background="new 551.5 1379.5 512 512" xml:space="preserve">
<g>
	<line fill="none" stroke="#B35047" x1="583.5" y1="1379.5" x2="583.5" y2="1891.5"/>
	<line fill="none" stroke="#B35047" x1="615.5" y1="1379.5" x2="615.5" y2="1891.5"/>
	<line fill="none" stroke="#B35047" x1="647.5" y1="1379.5" x2="647.5" y2="1891.5"/>
	<line fill="none" stroke="#B35047" x1="679.5" y1="1379.5" x2="679.5" y2="1891.5"/>
	<line fill="none" stroke="#B35047" x1="711.5" y1="1379.5" x2="711.5" y2="1891.5"/>
	<line fill="none" stroke="#B35047" x1="743.5" y1="1379.5" x2="743.5" y2="1891.5"/>
	<line fill="none" stroke="#B35047" x1="775.5" y1="1379.5" x2="775.5" y2="1891.5"/>
	<line fill="none" stroke="#B35047" x1="807.5" y1="1379.5" x2="807.5" y2="1891.5"/>
	<line fill="none" stroke="#B35047" x1="839.5" y1="1379.5" x2="839.5" y2="1891.5"/>
	<line fill="none" stroke="#B35047" x1="871.5" y1="1379.5" x2="871.5" y2="1891.5"/>
	<line fill="none" stroke="#B35047" x1="903.5" y1="1379.5" x2="903.5" y2="1891.5"/>
	<line fill="none" stroke="#B35047" x1="935.5" y1="1379.5" x2="935.5" y2="1891.5"/>
	<line fill="none" stroke="#B35047" x1="967.5" y1="1379.5" x2="967.5" y2="1891.5"/>
	<line fill="none" stroke="#B35047" x1="999.5" y1="1379.5" x2="999.5" y2="1891.5"/>
	<line fill="none" stroke="#B35047" x1="1031.5" y1="1379.5" x2="1031.5" y2="1891.5"/>
	<line fill="none" stroke="#B35047" x1="551.5" y1="1411.5" x2="1063.5" y2="1411.5"/>
	<line fill="none" stroke="#B35047" x1="551.5" y1="1443.5" x2="1063.5" y2="1443.5"/>
	<line fill="none" stroke="#B35047" x1="551.5" y1="1475.5" x2="1063.5" y2="1475.5"/>
	<line fill="none" stroke="#B35047" x1="551.5" y1="1507.5" x2="1063.5" y2="1507.5"/>
	<line fill="none" stroke="#B35047" x1="551.5" y1="1539.5" x2="1063.5" y2="1539.5"/>
	<line fill="none" stroke="#B35047" x1="551.5" y1="1571.5" x2="1063.5" y2="1571.5"/>
	<line fill="none" stroke="#B35047" x1="551.5" y1="1603.5" x2="1063.5" y2="1603.5"/>
	<line fill="none" stroke="#B35047" x1="551.5" y1="1635.5" x2="1063.5" y2="1635.5"/>
	<line fill="none" stroke="#B35047" x1="551.5" y1="1667.5" x2="1063.5" y2="1667.5"/>
	<line fill="none" stroke="#B35047" x1="551.5" y1="1699.5" x2="1063.5" y2="1699.5"/>
	<line fill="none" stroke="#B35047" x1="551.5" y1="1731.5" x2="1063.5" y2="1731.5"/>
	<line fill="none" stroke="#B35047" x1="551.5" y1="1763.5" x2="1063.5" y2="1763.5"/>
	<line fill="none" stroke="#B35047" x1="551.5" y1="1795.5" x2="1063.5" y2="1795.5"/>
	<line fill="none" stroke="#B35047" x1="551.5" y1="1827.5" x2="1063.5" y2="1827.5"/>
	<line fill="none" stroke="#B35047" x1="551.5" y1="1859.5" x2="1063.5" y2="1859.5"/>
	<rect x="551.5" y="1379.5" fill="none" stroke="#B35047" width="512" height="512"/>
</g>
<path fill="#231F20" d="M1032,1496c0,11.045-8.954,20-20,20H708.002c-11.045,0-20-8.954-20-20l0,0c0-11.045,8.954-20.001,20-20.001
	H1012C1023.046,1475.999,1032,1484.955,1032,1496L1032,1496z"/>
<path fill="#231F20" d="M1032,1776c0,11.045-8.954,20-20,20H708.002c-11.045,0-20-8.954-20-20l0,0c0-11.045,8.954-20.001,20-20.001
	H1012C1023.046,1755.999,1032,1764.955,1032,1776L1032,1776z"/>
<path fill="#231F20" d="M1032,1682.666c0,11.045-8.954,20-20,20H708.002c-11.045,0-20-8.953-20-20l0,0c0-11.045,8.954-20,20-20H1012
	C1023.046,1662.666,1032,1671.621,1032,1682.666L1032,1682.666z"/>
<path fill="#231F20" d="M1032,1589.334c0,11.045-8.954,20-20,20H708.002c-11.045,0-20-8.955-20-20l0,0
	c0-11.045,8.954-20.002,20-20.002H1012C1023.046,1569.332,1032,1578.289,1032,1589.334L1032,1589.334z"/>
<circle cx="616" cy="1495.999" r="32"/>
<circle cx="616" cy="1775.999" r="32"/>
<circle cx="616" cy="1682.666" r="32"/>
<circle cx="616" cy="1589.332" r="32"/>
</svg>
