<?xml version="1.0" encoding="utf-8"?>
<!-- Generator: Adobe Illustrator 16.0.4, SVG Export Plug-In . SVG Version: 6.00 Build 0)  -->
<!DOCTYPE svg PUBLIC "-//W3C//DTD SVG 1.1//EN" "http://www.w3.org/Graphics/SVG/1.1/DTD/svg11.dtd">
<svg version="1.1" id="Layer_1" xmlns="http://www.w3.org/2000/svg" xmlns:xlink="http://www.w3.org/1999/xlink" x="0px" y="0px"
	 width="512px" height="512px" viewBox="-1104.5 -828.5 512 512" enable-background="new -1104.5 -828.5 512 512"
	 xml:space="preserve">
<g>
	<line fill="none" stroke="#B35047" x1="-1072" y1="-828" x2="-1072" y2="-316"/>
	<line fill="none" stroke="#B35047" x1="-1040" y1="-828" x2="-1040" y2="-316"/>
	<line fill="none" stroke="#B35047" x1="-1008" y1="-828" x2="-1008" y2="-316"/>
	<line fill="none" stroke="#B35047" x1="-976" y1="-828" x2="-976" y2="-316"/>
	<line fill="none" stroke="#B35047" x1="-944" y1="-828" x2="-944" y2="-316"/>
	<line fill="none" stroke="#B35047" x1="-912" y1="-828" x2="-912" y2="-316"/>
	<line fill="none" stroke="#B35047" x1="-880" y1="-828" x2="-880" y2="-316"/>
	<line fill="none" stroke="#B35047" x1="-848" y1="-828" x2="-848" y2="-316"/>
	<line fill="none" stroke="#B35047" x1="-816" y1="-828" x2="-816" y2="-316"/>
	<line fill="none" stroke="#B35047" x1="-784" y1="-828" x2="-784" y2="-316"/>
	<line fill="none" stroke="#B35047" x1="-752" y1="-828" x2="-752" y2="-316"/>
	<line fill="none" stroke="#B35047" x1="-720" y1="-828" x2="-720" y2="-316"/>
	<line fill="none" stroke="#B35047" x1="-688" y1="-828" x2="-688" y2="-316"/>
	<line fill="none" stroke="#B35047" x1="-656" y1="-828" x2="-656" y2="-316"/>
	<line fill="none" stroke="#B35047" x1="-624" y1="-828" x2="-624" y2="-316"/>
	<line fill="none" stroke="#B35047" x1="-1104" y1="-796" x2="-592" y2="-796"/>
	<line fill="none" stroke="#B35047" x1="-1104" y1="-764" x2="-592" y2="-764"/>
	<line fill="none" stroke="#B35047" x1="-1104" y1="-732" x2="-592" y2="-732"/>
	<line fill="none" stroke="#B35047" x1="-1104" y1="-700" x2="-592" y2="-700"/>
	<line fill="none" stroke="#B35047" x1="-1104" y1="-668" x2="-592" y2="-668"/>
	<line fill="none" stroke="#B35047" x1="-1104" y1="-636" x2="-592" y2="-636"/>
	<line fill="none" stroke="#B35047" x1="-1104" y1="-604" x2="-592" y2="-604"/>
	<line fill="none" stroke="#B35047" x1="-1104" y1="-572" x2="-592" y2="-572"/>
	<line fill="none" stroke="#B35047" x1="-1104" y1="-540" x2="-592" y2="-540"/>
	<line fill="none" stroke="#B35047" x1="-1104" y1="-508" x2="-592" y2="-508"/>
	<line fill="none" stroke="#B35047" x1="-1104" y1="-476" x2="-592" y2="-476"/>
	<line fill="none" stroke="#B35047" x1="-1104" y1="-444" x2="-592" y2="-444"/>
	<line fill="none" stroke="#B35047" x1="-1104" y1="-412" x2="-592" y2="-412"/>
	<line fill="none" stroke="#B35047" x1="-1104" y1="-380" x2="-592" y2="-380"/>
	<line fill="none" stroke="#B35047" x1="-1104" y1="-348" x2="-592" y2="-348"/>
	<rect x="-1104" y="-828" fill="none" stroke="#B35047" width="512" height="512.001"/>
</g>
<path fill="#231F20" d="M-624.5-712.5c0,11.046-8.954,20-20.001,20h-407.998c-11.046,0-20-8.954-20-20l0,0c0-11.045,8.954-20,20-20
	H-644.5C-633.454-732.5-624.5-723.545-624.5-712.5L-624.5-712.5z M-720.5-620.5c0,11.045-8.954,20-20,20h-312
	c-11.045,0-20-8.954-20-20l0,0c0-11.045,8.954-20.001,20-20.001h312C-729.454-640.5-720.5-631.544-720.5-620.5L-720.5-620.5z
	 M-688.5-524.5c0,11.046-8.953,20.001-20,20.001h-344c-11.045,0-20-8.955-20-20.001l0,0c0-11.045,8.954-20,20-20h344
	C-697.453-544.5-688.5-535.544-688.5-524.5L-688.5-524.5z M-816.5-432.5c0,11.047-8.955,20-20.001,20H-1052.5
	c-11.045,0-20-8.953-20-20l0,0c0-11.047,8.954-20.001,20-20.001h216C-825.453-452.5-816.5-443.545-816.5-432.5L-816.5-432.5z"/>
</svg>
