<?xml version="1.0" encoding="utf-8"?>
<!-- Generator: Adobe Illustrator 16.0.4, SVG Export Plug-In . SVG Version: 6.00 Build 0)  -->
<!DOCTYPE svg PUBLIC "-//W3C//DTD SVG 1.1//EN" "http://www.w3.org/Graphics/SVG/1.1/DTD/svg11.dtd">
<svg version="1.1" id="Layer_1" xmlns="http://www.w3.org/2000/svg" xmlns:xlink="http://www.w3.org/1999/xlink" x="0px" y="0px"
	 width="512px" height="512px" viewBox="-0.5 -1932.5 512 512" enable-background="new -0.5 -1932.5 512 512" xml:space="preserve">
<g>
	<line fill="none" stroke="#B35047" x1="31.5" y1="-1932.5" x2="31.5" y2="-1420.5"/>
	<line fill="none" stroke="#B35047" x1="63.5" y1="-1932.5" x2="63.5" y2="-1420.5"/>
	<line fill="none" stroke="#B35047" x1="95.5" y1="-1932.5" x2="95.5" y2="-1420.5"/>
	<line fill="none" stroke="#B35047" x1="127.5" y1="-1932.5" x2="127.5" y2="-1420.5"/>
	<line fill="none" stroke="#B35047" x1="159.5" y1="-1932.5" x2="159.5" y2="-1420.5"/>
	<line fill="none" stroke="#B35047" x1="191.5" y1="-1932.5" x2="191.5" y2="-1420.5"/>
	<line fill="none" stroke="#B35047" x1="223.5" y1="-1932.5" x2="223.5" y2="-1420.5"/>
	<line fill="none" stroke="#B35047" x1="255.5" y1="-1932.5" x2="255.5" y2="-1420.5"/>
	<line fill="none" stroke="#B35047" x1="287.5" y1="-1932.5" x2="287.5" y2="-1420.5"/>
	<line fill="none" stroke="#B35047" x1="319.5" y1="-1932.5" x2="319.5" y2="-1420.5"/>
	<line fill="none" stroke="#B35047" x1="351.5" y1="-1932.5" x2="351.5" y2="-1420.5"/>
	<line fill="none" stroke="#B35047" x1="383.499" y1="-1932.5" x2="383.499" y2="-1420.5"/>
	<line fill="none" stroke="#B35047" x1="415.499" y1="-1932.5" x2="415.499" y2="-1420.5"/>
	<line fill="none" stroke="#B35047" x1="447.499" y1="-1932.5" x2="447.499" y2="-1420.5"/>
	<line fill="none" stroke="#B35047" x1="479.499" y1="-1932.5" x2="479.499" y2="-1420.5"/>
	<line fill="none" stroke="#B35047" x1="-0.5" y1="-1900.5" x2="511.499" y2="-1900.5"/>
	<line fill="none" stroke="#B35047" x1="-0.5" y1="-1868.5" x2="511.499" y2="-1868.5"/>
	<line fill="none" stroke="#B35047" x1="-0.5" y1="-1836.5" x2="511.499" y2="-1836.5"/>
	<line fill="none" stroke="#B35047" x1="-0.5" y1="-1804.5" x2="511.499" y2="-1804.5"/>
	<line fill="none" stroke="#B35047" x1="-0.5" y1="-1772.5" x2="511.499" y2="-1772.5"/>
	<line fill="none" stroke="#B35047" x1="-0.5" y1="-1740.5" x2="511.499" y2="-1740.5"/>
	<line fill="none" stroke="#B35047" x1="-0.5" y1="-1708.5" x2="511.499" y2="-1708.5"/>
	<line fill="none" stroke="#B35047" x1="-0.5" y1="-1676.5" x2="511.499" y2="-1676.5"/>
	<line fill="none" stroke="#B35047" x1="-0.5" y1="-1644.5" x2="511.499" y2="-1644.5"/>
	<line fill="none" stroke="#B35047" x1="-0.5" y1="-1612.5" x2="511.499" y2="-1612.5"/>
	<line fill="none" stroke="#B35047" x1="-0.5" y1="-1580.5" x2="511.499" y2="-1580.5"/>
	<line fill="none" stroke="#B35047" x1="-0.5" y1="-1548.5" x2="511.499" y2="-1548.5"/>
	<line fill="none" stroke="#B35047" x1="-0.5" y1="-1516.5" x2="511.499" y2="-1516.5"/>
	<line fill="none" stroke="#B35047" x1="-0.5" y1="-1484.5" x2="511.499" y2="-1484.5"/>
	<line fill="none" stroke="#B35047" x1="-0.5" y1="-1452.5" x2="511.499" y2="-1452.5"/>
	<rect x="-0.5" y="-1932.5" fill="none" stroke="#B35047" width="511.999" height="512"/>
</g>
<path d="M411.625-1747.823c34.073-35.226,33.739-91.392-1.047-126.178c-35.148-35.147-92.133-35.147-127.279,0
	c-0.007,0.007-0.014,0.014-0.021,0.021c-0.002,0.001-0.003,0.002-0.005,0.004L66.701-1657.404c-0.018,0.018-0.037,0.034-0.055,0.053
	c-0.027,0.026-0.053,0.055-0.08,0.081l-1.334,1.335c-0.143,0.143-0.264,0.298-0.4,0.443c-21.514,22.44-33.332,51.808-33.332,82.993
	c0,32.054,12.481,62.188,35.146,84.853c22.664,22.665,52.799,35.146,84.853,35.146c25.306,0,49.411-7.785,69.593-22.214
	c2.466-0.976,4.778-2.453,6.772-4.447l8.401-8.401c0.028-0.028,0.058-0.056,0.086-0.084c0.019-0.019,0.037-0.038,0.056-0.058
	l144.505-144.507c7.811-7.809,7.81-20.471,0-28.28s-20.474-7.811-28.283,0L208.068-1515.93h-0.001
	c-31.241,31.242-81.896,31.242-113.137,0c-31.242-31.241-31.242-81.896,0-113.137H94.93l216.563-216.563l0.004,0.004
	c0.029-0.029,0.056-0.061,0.086-0.09c19.495-19.495,51.215-19.495,70.71,0c19.496,19.495,19.495,51.216,0,70.711
	c-0.029,0.029-0.061,0.057-0.09,0.085l0.003,0.003l-140.268,140.267c-0.001-0.001-0.001-0.002-0.002-0.003l-39.989,39.99
	c-0.005,0.005-0.008,0.01-0.014,0.014c-0.004,0.006-0.009,0.009-0.014,0.014l-0.032,0.031c-7.811,7.812-20.472,7.812-28.281,0
	c-7.812-7.81-7.812-20.472-0.001-28.283l0.031-0.031c0.005-0.005,0.009-0.01,0.014-0.014c0.004-0.006,0.01-0.009,0.014-0.014
	l39.99-39.989c-0.001-0.001-0.002-0.001-0.003-0.002l68.254-68.256c7.811-7.81,7.81-20.472-0.001-28.281
	c-7.809-7.81-20.473-7.81-28.282,0l-109.671,109.672c-0.642,0.642-1.21,1.326-1.747,2.026c-20.2,23.574-19.158,59.092,3.161,81.412
	c22.32,22.319,57.837,23.361,81.41,3.162c0.701-0.536,1.386-1.105,2.027-1.747l1.415-1.415c0.001,0,0.001,0,0.001,0s0,0,0-0.001
	l180.27-180.27c0.029-0.028,0.06-0.057,0.09-0.086c0.025-0.025,0.049-0.053,0.075-0.079l0.497-0.497
	C411.319-1747.466,411.464-1747.649,411.625-1747.823z"/>
</svg>
