<?xml version="1.0" encoding="utf-8"?>
<!-- Generator: Adobe Illustrator 16.0.4, SVG Export Plug-In . SVG Version: 6.00 Build 0)  -->
<!DOCTYPE svg PUBLIC "-//W3C//DTD SVG 1.1//EN" "http://www.w3.org/Graphics/SVG/1.1/DTD/svg11.dtd">
<svg version="1.1" id="Layer_1" xmlns="http://www.w3.org/2000/svg" xmlns:xlink="http://www.w3.org/1999/xlink" x="0px" y="0px"
	 width="512px" height="512px" viewBox="-1104.5 -4140.5 512 512" enable-background="new -1104.5 -4140.5 512 512"
	 xml:space="preserve">
<g>
	<line fill="none" stroke="#B35047" x1="-1072.484" y1="-4140.484" x2="-1072.484" y2="-3628.484"/>
	<line fill="none" stroke="#B35047" x1="-1040.484" y1="-4140.484" x2="-1040.484" y2="-3628.484"/>
	<line fill="none" stroke="#B35047" x1="-1008.484" y1="-4140.484" x2="-1008.484" y2="-3628.484"/>
	<line fill="none" stroke="#B35047" x1="-976.484" y1="-4140.484" x2="-976.484" y2="-3628.484"/>
	<line fill="none" stroke="#B35047" x1="-944.484" y1="-4140.484" x2="-944.484" y2="-3628.484"/>
	<line fill="none" stroke="#B35047" x1="-912.484" y1="-4140.484" x2="-912.484" y2="-3628.484"/>
	<line fill="none" stroke="#B35047" x1="-880.484" y1="-4140.484" x2="-880.484" y2="-3628.484"/>
	<line fill="none" stroke="#B35047" x1="-848.484" y1="-4140.484" x2="-848.484" y2="-3628.484"/>
	<line fill="none" stroke="#B35047" x1="-816.484" y1="-4140.484" x2="-816.484" y2="-3628.484"/>
	<line fill="none" stroke="#B35047" x1="-784.484" y1="-4140.484" x2="-784.484" y2="-3628.484"/>
	<line fill="none" stroke="#B35047" x1="-752.484" y1="-4140.484" x2="-752.484" y2="-3628.484"/>
	<line fill="none" stroke="#B35047" x1="-720.484" y1="-4140.484" x2="-720.484" y2="-3628.484"/>
	<line fill="none" stroke="#B35047" x1="-688.484" y1="-4140.484" x2="-688.484" y2="-3628.484"/>
	<line fill="none" stroke="#B35047" x1="-656.484" y1="-4140.484" x2="-656.484" y2="-3628.484"/>
	<line fill="none" stroke="#B35047" x1="-624.484" y1="-4140.484" x2="-624.484" y2="-3628.484"/>
	<line fill="none" stroke="#B35047" x1="-1104.484" y1="-4108.484" x2="-592.484" y2="-4108.484"/>
	<line fill="none" stroke="#B35047" x1="-1104.484" y1="-4076.484" x2="-592.484" y2="-4076.484"/>
	<line fill="none" stroke="#B35047" x1="-1104.484" y1="-4044.484" x2="-592.484" y2="-4044.484"/>
	<line fill="none" stroke="#B35047" x1="-1104.484" y1="-4012.484" x2="-592.484" y2="-4012.484"/>
	<line fill="none" stroke="#B35047" x1="-1104.484" y1="-3980.484" x2="-592.484" y2="-3980.484"/>
	<line fill="none" stroke="#B35047" x1="-1104.484" y1="-3948.484" x2="-592.484" y2="-3948.484"/>
	<line fill="none" stroke="#B35047" x1="-1104.484" y1="-3916.484" x2="-592.484" y2="-3916.484"/>
	<line fill="none" stroke="#B35047" x1="-1104.484" y1="-3884.484" x2="-592.484" y2="-3884.484"/>
	<line fill="none" stroke="#B35047" x1="-1104.484" y1="-3852.484" x2="-592.484" y2="-3852.484"/>
	<line fill="none" stroke="#B35047" x1="-1104.484" y1="-3820.484" x2="-592.484" y2="-3820.484"/>
	<line fill="none" stroke="#B35047" x1="-1104.484" y1="-3788.484" x2="-592.484" y2="-3788.484"/>
	<line fill="none" stroke="#B35047" x1="-1104.484" y1="-3756.484" x2="-592.484" y2="-3756.484"/>
	<line fill="none" stroke="#B35047" x1="-1104.484" y1="-3724.484" x2="-592.484" y2="-3724.484"/>
	<line fill="none" stroke="#B35047" x1="-1104.484" y1="-3692.484" x2="-592.484" y2="-3692.484"/>
	<line fill="none" stroke="#B35047" x1="-1104.484" y1="-3660.484" x2="-592.484" y2="-3660.484"/>
	<rect x="-1104.484" y="-4140.484" fill="none" stroke="#B35047" width="512" height="512"/>
</g>
<path fill="#231F20" d="M-848.484-4107.984c-123.712,0-224,100.288-224,224c0,88.46,51.283,164.934,125.735,201.339l29.663-116.239
	l138.238,0.062l29,115.994c74.25-36.48,125.363-112.844,125.363-201.156C-624.484-4007.696-724.772-4107.984-848.484-4107.984z
	 M-869.457-3998.625v-0.337h0.013c0.332-9.107,7.581-15.522,16.498-15.522h8.642c9.133,0,16.97,7.632,16.97,17.039
	c0,0.333-0.035,0.659-0.05,0.987v16.766h-42.069v-18.313c0-0.104-0.017-0.204-0.017-0.309
	C-869.472-3998.421-869.457-3998.519-869.457-3998.625z M-916.217-3965.749h3.467h126.462h3.479l20.784,20.652h-45.041h-84.896
	h-45.033L-916.217-3965.749z M-716.043-3827.18c0,9.407-4.799,7.703-13.928,7.703c-9.13,0-14.143,1.704-14.143-7.703v-62.195
	h-25.271l-9.767,76.621h-137.689l-7.085-33.683l-56.975-63.843l56.119-0.35l-14.617-20.384h47.425h84.906h49.837l-7.86,13.646
	h32.495h0.014c9.129,0,16.533,4.802,16.533,14.209v75.978H-716.043L-716.043-3827.18z"/>
</svg>
