<?xml version="1.0" encoding="utf-8"?>
<!-- Generator: Adobe Illustrator 16.0.4, SVG Export Plug-In . SVG Version: 6.00 Build 0)  -->
<!DOCTYPE svg PUBLIC "-//W3C//DTD SVG 1.1//EN" "http://www.w3.org/Graphics/SVG/1.1/DTD/svg11.dtd">
<svg version="1.1" id="Layer_1" xmlns="http://www.w3.org/2000/svg" xmlns:xlink="http://www.w3.org/1999/xlink" x="0px" y="0px"
	 width="512px" height="512px" viewBox="-0.5 3035.5 512 512" enable-background="new -0.5 3035.5 512 512" xml:space="preserve">
<g>
	<line fill="none" stroke="#B35047" x1="31.531" y1="3035.53" x2="31.531" y2="3547.53"/>
	<line fill="none" stroke="#B35047" x1="63.531" y1="3035.53" x2="63.531" y2="3547.53"/>
	<line fill="none" stroke="#B35047" x1="95.531" y1="3035.53" x2="95.531" y2="3547.53"/>
	<line fill="none" stroke="#B35047" x1="127.531" y1="3035.53" x2="127.531" y2="3547.53"/>
	<line fill="none" stroke="#B35047" x1="159.531" y1="3035.53" x2="159.531" y2="3547.53"/>
	<line fill="none" stroke="#B35047" x1="191.531" y1="3035.53" x2="191.531" y2="3547.53"/>
	<line fill="none" stroke="#B35047" x1="223.531" y1="3035.53" x2="223.531" y2="3547.53"/>
	<line fill="none" stroke="#B35047" x1="255.531" y1="3035.53" x2="255.531" y2="3547.53"/>
	<line fill="none" stroke="#B35047" x1="287.531" y1="3035.53" x2="287.531" y2="3547.53"/>
	<line fill="none" stroke="#B35047" x1="319.531" y1="3035.53" x2="319.531" y2="3547.53"/>
	<line fill="none" stroke="#B35047" x1="351.531" y1="3035.53" x2="351.531" y2="3547.53"/>
	<line fill="none" stroke="#B35047" x1="383.531" y1="3035.53" x2="383.531" y2="3547.53"/>
	<line fill="none" stroke="#B35047" x1="415.531" y1="3035.53" x2="415.531" y2="3547.53"/>
	<line fill="none" stroke="#B35047" x1="447.531" y1="3035.53" x2="447.531" y2="3547.53"/>
	<line fill="none" stroke="#B35047" x1="479.531" y1="3035.53" x2="479.531" y2="3547.53"/>
	<line fill="none" stroke="#B35047" x1="-0.469" y1="3067.53" x2="511.531" y2="3067.53"/>
	<line fill="none" stroke="#B35047" x1="-0.469" y1="3099.53" x2="511.531" y2="3099.53"/>
	<line fill="none" stroke="#B35047" x1="-0.469" y1="3131.53" x2="511.531" y2="3131.53"/>
	<line fill="none" stroke="#B35047" x1="-0.469" y1="3163.53" x2="511.531" y2="3163.53"/>
	<line fill="none" stroke="#B35047" x1="-0.469" y1="3195.53" x2="511.531" y2="3195.53"/>
	<line fill="none" stroke="#B35047" x1="-0.469" y1="3227.53" x2="511.531" y2="3227.53"/>
	<line fill="none" stroke="#B35047" x1="-0.469" y1="3259.53" x2="511.531" y2="3259.53"/>
	<line fill="none" stroke="#B35047" x1="-0.469" y1="3291.53" x2="511.531" y2="3291.53"/>
	<line fill="none" stroke="#B35047" x1="-0.469" y1="3323.53" x2="511.531" y2="3323.53"/>
	<line fill="none" stroke="#B35047" x1="-0.469" y1="3355.53" x2="511.531" y2="3355.53"/>
	<line fill="none" stroke="#B35047" x1="-0.469" y1="3387.53" x2="511.531" y2="3387.53"/>
	<line fill="none" stroke="#B35047" x1="-0.469" y1="3419.53" x2="511.531" y2="3419.53"/>
	<line fill="none" stroke="#B35047" x1="-0.469" y1="3451.53" x2="511.531" y2="3451.53"/>
	<line fill="none" stroke="#B35047" x1="-0.469" y1="3483.53" x2="511.531" y2="3483.53"/>
	<line fill="none" stroke="#B35047" x1="-0.469" y1="3515.53" x2="511.531" y2="3515.53"/>
	<rect x="-0.469" y="3035.53" fill="none" stroke="#B35047" width="512" height="512"/>
</g>
<path fill="#231F20" d="M255.5,3515.458c-6.68,0-12.92-3.336-16.631-8.891l-121.04-181.162c-0.06-0.088-0.118-0.178-0.177-0.268
	c-18.197-27.25-27.815-59.021-27.815-91.902c0-91.348,74.316-165.662,165.663-165.662c91.348,0,165.664,74.314,165.664,165.662
	c0,30.355-8.277,59.99-23.953,85.826c-0.379,0.764-0.809,1.508-1.289,2.225l-2.893,4.332c-0.027,0.041-0.056,0.082-0.084,0.123
	c-0.021,0.035-0.052,0.08-0.074,0.115l-120.742,180.713C268.418,3512.122,262.18,3515.458,255.5,3515.458z M151.229,3303.392
	l0.013,0.02c0.019,0.027,0.079,0.119,0.097,0.146L255.5,3459.456l104.27-156.059l0,0l1.917-2.871
	c0.188-0.348,0.389-0.691,0.599-1.031c12.35-19.854,18.879-42.766,18.879-66.26c0-69.291-56.373-125.662-125.664-125.662
	s-125.663,56.371-125.663,125.662c0,25.027,7.337,49.195,21.216,69.891C151.112,3303.214,151.171,3303.304,151.229,3303.392z"/>
<path fill="#231F20" d="M255.5,3187.7c24.99,0,45.32,20.33,45.32,45.32c0,24.988-20.33,45.318-45.32,45.318
	s-45.32-20.33-45.32-45.318C210.18,3208.03,230.51,3187.7,255.5,3187.7 M255.5,3147.7c-47.121,0-85.32,38.199-85.32,85.32
	s38.199,85.318,85.32,85.318s85.32-38.197,85.32-85.318S302.621,3147.7,255.5,3147.7L255.5,3147.7z"/>
</svg>
