<?xml version="1.0" encoding="utf-8"?>
<!-- Generator: Adobe Illustrator 16.0.4, SVG Export Plug-In . SVG Version: 6.00 Build 0)  -->
<!DOCTYPE svg PUBLIC "-//W3C//DTD SVG 1.1//EN" "http://www.w3.org/Graphics/SVG/1.1/DTD/svg11.dtd">
<svg version="1.1" id="Layer_1" xmlns="http://www.w3.org/2000/svg" xmlns:xlink="http://www.w3.org/1999/xlink" x="0px" y="0px"
	 width="512px" height="512px" viewBox="1103.5 -2484.5 512 512" enable-background="new 1103.5 -2484.5 512 512"
	 xml:space="preserve">
<g>
	<line fill="none" stroke="#B35047" x1="1135.531" y1="-2483.906" x2="1135.531" y2="-1971.906"/>
	<line fill="none" stroke="#B35047" x1="1167.531" y1="-2483.906" x2="1167.531" y2="-1971.906"/>
	<line fill="none" stroke="#B35047" x1="1199.531" y1="-2483.906" x2="1199.531" y2="-1971.906"/>
	<line fill="none" stroke="#B35047" x1="1231.531" y1="-2483.906" x2="1231.531" y2="-1971.906"/>
	<line fill="none" stroke="#B35047" x1="1263.531" y1="-2483.906" x2="1263.531" y2="-1971.906"/>
	<line fill="none" stroke="#B35047" x1="1295.531" y1="-2483.906" x2="1295.531" y2="-1971.906"/>
	<line fill="none" stroke="#B35047" x1="1327.531" y1="-2483.906" x2="1327.531" y2="-1971.906"/>
	<line fill="none" stroke="#B35047" x1="1359.531" y1="-2483.906" x2="1359.531" y2="-1971.906"/>
	<line fill="none" stroke="#B35047" x1="1391.531" y1="-2483.906" x2="1391.531" y2="-1971.906"/>
	<line fill="none" stroke="#B35047" x1="1423.531" y1="-2483.906" x2="1423.531" y2="-1971.906"/>
	<line fill="none" stroke="#B35047" x1="1455.531" y1="-2483.906" x2="1455.531" y2="-1971.906"/>
	<line fill="none" stroke="#B35047" x1="1487.531" y1="-2483.906" x2="1487.531" y2="-1971.906"/>
	<line fill="none" stroke="#B35047" x1="1519.531" y1="-2483.906" x2="1519.531" y2="-1971.906"/>
	<line fill="none" stroke="#B35047" x1="1551.531" y1="-2483.906" x2="1551.531" y2="-1971.906"/>
	<line fill="none" stroke="#B35047" x1="1583.531" y1="-2483.906" x2="1583.531" y2="-1971.906"/>
	<line fill="none" stroke="#B35047" x1="1103.531" y1="-2451.906" x2="1615.531" y2="-2451.906"/>
	<line fill="none" stroke="#B35047" x1="1103.531" y1="-2419.906" x2="1615.531" y2="-2419.906"/>
	<line fill="none" stroke="#B35047" x1="1103.531" y1="-2387.906" x2="1615.531" y2="-2387.906"/>
	<line fill="none" stroke="#B35047" x1="1103.531" y1="-2355.906" x2="1615.531" y2="-2355.906"/>
	<line fill="none" stroke="#B35047" x1="1103.531" y1="-2323.906" x2="1615.531" y2="-2323.906"/>
	<line fill="none" stroke="#B35047" x1="1103.531" y1="-2291.906" x2="1615.531" y2="-2291.906"/>
	<line fill="none" stroke="#B35047" x1="1103.531" y1="-2259.906" x2="1615.531" y2="-2259.906"/>
	<line fill="none" stroke="#B35047" x1="1103.531" y1="-2227.906" x2="1615.531" y2="-2227.906"/>
	<line fill="none" stroke="#B35047" x1="1103.531" y1="-2195.906" x2="1615.531" y2="-2195.906"/>
	<line fill="none" stroke="#B35047" x1="1103.531" y1="-2163.906" x2="1615.531" y2="-2163.906"/>
	<line fill="none" stroke="#B35047" x1="1103.531" y1="-2131.906" x2="1615.531" y2="-2131.906"/>
	<line fill="none" stroke="#B35047" x1="1103.531" y1="-2099.906" x2="1615.531" y2="-2099.906"/>
	<line fill="none" stroke="#B35047" x1="1103.531" y1="-2067.906" x2="1615.531" y2="-2067.906"/>
	<line fill="none" stroke="#B35047" x1="1103.531" y1="-2035.906" x2="1615.531" y2="-2035.906"/>
	<line fill="none" stroke="#B35047" x1="1103.531" y1="-2003.906" x2="1615.531" y2="-2003.906"/>
	<rect x="1103.531" y="-2483.906" fill="none" stroke="#B35047" width="512" height="512"/>
</g>
<path fill="#231F20" d="M1359.5-2227.906c11.045-0.001,20-8.955,19.998-19.999l0.002-184.001c0-11.047-8.955-20-20-20
	c-11.047-0.001-20.002,8.954-20,20v184C1339.498-2236.859,1348.453-2227.905,1359.5-2227.906z"/>
<path d="M1476.902-2383.637v0.094c-6.569-4.502-13.404-8.646-20.489-12.384c-0.997-0.525-1.746-0.92-2.334-1.229
	c-0.875-0.446-1.759-0.878-2.64-1.312c-0.002-0.001-0.004-0.002-0.006-0.003c-0.04-0.016-0.079-0.037-0.117-0.054
	c-0.016-0.006-0.028-0.012-0.045-0.021l-0.003,0.004c-2.362-1.011-4.962-1.584-7.693-1.606c-11.045-0.089-20.07,8.794-20.16,19.839
	c-0.061,7.556,4.083,14.149,10.235,17.604c15.95,7.855,30.709,18.308,43.746,31.146c1.398,1.377,2.76,2.781,4.104,4.197v-0.073
	c29.718,31.332,46.031,72.176,46.031,115.528c0,44.874-17.475,87.062-49.206,118.794s-73.92,49.206-118.794,49.206
	s-87.062-17.475-118.794-49.206s-49.206-73.92-49.206-118.794c0-40.826,14.481-79.417,40.986-109.944
	c2.907-3.344,5.951-6.596,9.144-9.737c13.032-12.826,27.782-23.269,43.723-31.119c6.171-3.446,10.33-10.053,10.271-17.619
	c-0.085-11.044-9.109-19.93-20.153-19.845c-2.734,0.022-5.332,0.593-7.696,1.604l-0.002-0.004c-0.018,0.008-0.029,0.014-0.044,0.021
	c-0.021,0.009-0.042,0.019-0.063,0.028c-0.931,0.459-1.864,0.914-2.787,1.387c-0.229,0.119-0.474,0.248-0.756,0.396
	c-0.548,0.283-1.09,0.574-1.635,0.861c-7.852,4.147-15.402,8.786-22.616,13.868v-0.062c-53.448,37.644-88.371,99.823-88.371,170.165
	c0,114.875,93.125,208,208,208s208-93.125,208-208C1567.531-2283.233,1531.622-2346.166,1476.902-2383.637z"/>
</svg>
