<?xml version="1.0" encoding="utf-8"?>
<!-- Generator: Adobe Illustrator 16.0.4, SVG Export Plug-In . SVG Version: 6.00 Build 0)  -->
<!DOCTYPE svg PUBLIC "-//W3C//DTD SVG 1.1//EN" "http://www.w3.org/Graphics/SVG/1.1/DTD/svg11.dtd">
<svg version="1.1" id="Layer_1" xmlns="http://www.w3.org/2000/svg" xmlns:xlink="http://www.w3.org/1999/xlink" x="0px" y="0px"
	 width="512px" height="512px" viewBox="1103.5 1931.5 512 512" enable-background="new 1103.5 1931.5 512 512"
	 xml:space="preserve">
<g>
	<line fill="none" stroke="#B35047" x1="1135.5" y1="1931.5" x2="1135.5" y2="2443.5"/>
	<line fill="none" stroke="#B35047" x1="1167.5" y1="1931.5" x2="1167.5" y2="2443.5"/>
	<line fill="none" stroke="#B35047" x1="1199.5" y1="1931.5" x2="1199.5" y2="2443.5"/>
	<line fill="none" stroke="#B35047" x1="1231.5" y1="1931.5" x2="1231.5" y2="2443.5"/>
	<line fill="none" stroke="#B35047" x1="1263.5" y1="1931.5" x2="1263.5" y2="2443.5"/>
	<line fill="none" stroke="#B35047" x1="1295.5" y1="1931.5" x2="1295.5" y2="2443.5"/>
	<line fill="none" stroke="#B35047" x1="1327.5" y1="1931.5" x2="1327.5" y2="2443.5"/>
	<line fill="none" stroke="#B35047" x1="1359.5" y1="1931.5" x2="1359.5" y2="2443.5"/>
	<line fill="none" stroke="#B35047" x1="1391.5" y1="1931.5" x2="1391.5" y2="2443.5"/>
	<line fill="none" stroke="#B35047" x1="1423.5" y1="1931.5" x2="1423.5" y2="2443.5"/>
	<line fill="none" stroke="#B35047" x1="1455.5" y1="1931.5" x2="1455.5" y2="2443.5"/>
	<line fill="none" stroke="#B35047" x1="1487.5" y1="1931.5" x2="1487.5" y2="2443.5"/>
	<line fill="none" stroke="#B35047" x1="1519.5" y1="1931.5" x2="1519.5" y2="2443.5"/>
	<line fill="none" stroke="#B35047" x1="1551.5" y1="1931.5" x2="1551.5" y2="2443.5"/>
	<line fill="none" stroke="#B35047" x1="1583.5" y1="1931.5" x2="1583.5" y2="2443.5"/>
	<line fill="none" stroke="#B35047" x1="1103.5" y1="1963.5" x2="1615.5" y2="1963.5"/>
	<line fill="none" stroke="#B35047" x1="1103.5" y1="1995.5" x2="1615.5" y2="1995.5"/>
	<line fill="none" stroke="#B35047" x1="1103.5" y1="2027.5" x2="1615.5" y2="2027.5"/>
	<line fill="none" stroke="#B35047" x1="1103.5" y1="2059.5" x2="1615.5" y2="2059.5"/>
	<line fill="none" stroke="#B35047" x1="1103.5" y1="2091.5" x2="1615.5" y2="2091.5"/>
	<line fill="none" stroke="#B35047" x1="1103.5" y1="2123.5" x2="1615.5" y2="2123.5"/>
	<line fill="none" stroke="#B35047" x1="1103.5" y1="2155.5" x2="1615.5" y2="2155.5"/>
	<line fill="none" stroke="#B35047" x1="1103.5" y1="2187.5" x2="1615.5" y2="2187.5"/>
	<line fill="none" stroke="#B35047" x1="1103.5" y1="2219.5" x2="1615.5" y2="2219.5"/>
	<line fill="none" stroke="#B35047" x1="1103.5" y1="2251.5" x2="1615.5" y2="2251.5"/>
	<line fill="none" stroke="#B35047" x1="1103.5" y1="2283.5" x2="1615.5" y2="2283.5"/>
	<line fill="none" stroke="#B35047" x1="1103.5" y1="2315.5" x2="1615.5" y2="2315.5"/>
	<line fill="none" stroke="#B35047" x1="1103.5" y1="2347.5" x2="1615.5" y2="2347.5"/>
	<line fill="none" stroke="#B35047" x1="1103.5" y1="2379.5" x2="1615.5" y2="2379.5"/>
	<line fill="none" stroke="#B35047" x1="1103.5" y1="2411.5" x2="1615.5" y2="2411.5"/>
	<rect x="1103.5" y="1931.5" fill="none" stroke="#B35047" width="512" height="512"/>
</g>
<g>
	<path d="M1363.313,2208.987c21.278,0,41.91-4.162,61.323-12.373c3.336-1.41,6.607-2.935,9.82-4.561v-3.447
		c0-21.525-44.505-41.154-56.423-43.051c-3.7-0.589-3.784-10.763-3.784-10.763s10.872-10.762,13.241-25.235
		c6.374,0,10.311-15.385,3.936-20.798c0.267-5.699,8.193-44.734-31.938-44.734c-40.132,0-32.205,39.035-31.939,44.734
		c-6.374,5.413-2.438,20.798,3.937,20.798c2.369,14.474,13.24,25.235,13.24,25.235s-0.083,10.174-3.784,10.763
		c-11.79,1.876-55.477,21.112-56.399,42.368c5.611,3.242,11.43,6.146,17.449,8.69
		C1321.405,2204.825,1342.037,2208.987,1363.313,2208.987z"/>
</g>
<path d="M1503.5,2004c4.398,0,7.986,3.579,7.996,7.979l0.006,1.762v310.804v38.241l-0.016,1.316
	c-0.049,4.355-3.633,7.898-7.986,7.898h-0.999h-17.284h-49.719h-56h-172v-368h172h56H1503.5 M1503.5,1964h-68.002h-56h-192
	c-0.877,0-1.734,0.076-2.582,0.186c-9.822,1.27-17.418,9.646-17.418,19.814v408c0,11.047,8.955,20,20,20h192h56h49.719h17.284h0.999
	c26.322,0,47.684-21.189,47.984-47.44h0.018v-0.452v-39.563v-312.651l-0.006-0.007C1551.436,1985.429,1529.972,1964,1503.5,1964
	L1503.5,1964z"/>
<path d="M1461.641,2337.999H1257.5c-5.522,0-10-4.478-10-10s4.478-10,10-10h204.141c5.522,0,10,4.478,10,10
	S1467.163,2337.999,1461.641,2337.999z"/>
<path d="M1461.641,2293.999H1257.5c-5.522,0-10-4.478-10-10s4.478-10,10-10h204.141c5.522,0,10,4.478,10,10
	S1467.163,2293.999,1461.641,2293.999z"/>
<path d="M1461.641,2249.999H1257.5c-5.522,0-10-4.478-10-10s4.478-10,10-10h204.141c5.522,0,10,4.478,10,10
	S1467.163,2249.999,1461.641,2249.999z"/>
</svg>
