<?xml version="1.0" encoding="utf-8"?>
<!-- Generator: Adobe Illustrator 16.0.4, SVG Export Plug-In . SVG Version: 6.00 Build 0)  -->
<!DOCTYPE svg PUBLIC "-//W3C//DTD SVG 1.1//EN" "http://www.w3.org/Graphics/SVG/1.1/DTD/svg11.dtd">
<svg version="1.1" id="Layer_1" xmlns="http://www.w3.org/2000/svg" xmlns:xlink="http://www.w3.org/1999/xlink" x="0px" y="0px"
	 width="512px" height="512px" viewBox="-552.5 -1932.5 512 512" enable-background="new -552.5 -1932.5 512 512"
	 xml:space="preserve">
<g>
	<line fill="none" stroke="#B35047" x1="-520" y1="-1932" x2="-520" y2="-1420"/>
	<line fill="none" stroke="#B35047" x1="-488" y1="-1932" x2="-488" y2="-1420"/>
	<line fill="none" stroke="#B35047" x1="-456" y1="-1932" x2="-456" y2="-1420"/>
	<line fill="none" stroke="#B35047" x1="-424" y1="-1932" x2="-424" y2="-1420"/>
	<line fill="none" stroke="#B35047" x1="-392" y1="-1932" x2="-392" y2="-1420"/>
	<line fill="none" stroke="#B35047" x1="-360" y1="-1932" x2="-360" y2="-1420"/>
	<line fill="none" stroke="#B35047" x1="-328" y1="-1932" x2="-328" y2="-1420"/>
	<line fill="none" stroke="#B35047" x1="-296" y1="-1932" x2="-296" y2="-1420"/>
	<line fill="none" stroke="#B35047" x1="-264" y1="-1932" x2="-264" y2="-1420"/>
	<line fill="none" stroke="#B35047" x1="-232" y1="-1932" x2="-232" y2="-1420"/>
	<line fill="none" stroke="#B35047" x1="-200" y1="-1932" x2="-200" y2="-1420"/>
	<line fill="none" stroke="#B35047" x1="-168" y1="-1932" x2="-168" y2="-1420"/>
	<line fill="none" stroke="#B35047" x1="-136" y1="-1932" x2="-136" y2="-1420"/>
	<line fill="none" stroke="#B35047" x1="-104" y1="-1932" x2="-104" y2="-1420"/>
	<line fill="none" stroke="#B35047" x1="-72" y1="-1932" x2="-72" y2="-1420"/>
	<line fill="none" stroke="#B35047" x1="-552" y1="-1900" x2="-40" y2="-1900"/>
	<line fill="none" stroke="#B35047" x1="-552" y1="-1868" x2="-40" y2="-1868"/>
	<line fill="none" stroke="#B35047" x1="-552" y1="-1836" x2="-40" y2="-1836"/>
	<line fill="none" stroke="#B35047" x1="-552" y1="-1804" x2="-40" y2="-1804"/>
	<line fill="none" stroke="#B35047" x1="-552" y1="-1772" x2="-40" y2="-1772"/>
	<line fill="none" stroke="#B35047" x1="-552" y1="-1740" x2="-40" y2="-1740"/>
	<line fill="none" stroke="#B35047" x1="-552" y1="-1708" x2="-40" y2="-1708"/>
	<line fill="none" stroke="#B35047" x1="-552" y1="-1676" x2="-40" y2="-1676"/>
	<line fill="none" stroke="#B35047" x1="-552" y1="-1644" x2="-40" y2="-1644"/>
	<line fill="none" stroke="#B35047" x1="-552" y1="-1612" x2="-40" y2="-1612"/>
	<line fill="none" stroke="#B35047" x1="-552" y1="-1580" x2="-40" y2="-1580"/>
	<line fill="none" stroke="#B35047" x1="-552" y1="-1548" x2="-40" y2="-1548"/>
	<line fill="none" stroke="#B35047" x1="-552" y1="-1516" x2="-40" y2="-1516"/>
	<line fill="none" stroke="#B35047" x1="-552" y1="-1484" x2="-40" y2="-1484"/>
	<line fill="none" stroke="#B35047" x1="-552" y1="-1452" x2="-40" y2="-1452"/>
	<rect x="-552" y="-1932" fill="none" stroke="#B35047" width="512" height="512.001"/>
</g>
<path fill="#231F20" d="M-138.108-1834.891c-87.478-87.479-229.307-87.479-316.783,0c-87.479,87.477-87.479,229.306,0,316.783
	c87.477,87.478,229.306,87.478,316.783,0C-50.631-1605.584-50.631-1747.415-138.108-1834.891z M-166.393-1546.392
	c-34.753,34.753-80.959,53.892-130.107,53.892c-49.149,0-95.354-19.139-130.108-53.892c-34.752-34.753-53.892-80.96-53.893-130.108
	c0.002-49.148,19.14-95.354,53.893-130.107c34.753-34.752,80.96-53.892,130.108-53.893c49.147,0.001,95.354,19.141,130.107,53.894
	s53.892,80.958,53.893,130.106C-112.501-1627.352-131.64-1581.145-166.393-1546.392z"/>
<path d="M-296.001-1540.108c-11.045,0-20-8.953-20-20l0,0c0-11.045,8.955-20,20-20l0,0c11.045,0,20.002,8.955,20.002,20l0,0
	C-275.999-1549.061-284.956-1540.108-296.001-1540.108L-296.001-1540.108z"/>
<path d="M-208.336-1732.129c0-48.691-39.473-88.164-88.165-88.164c-48.691,0-88.164,39.473-88.164,88.164c0,11.047,8.955,20,20,20
	s20.002-8.953,20.002-20c0-0.009-0.001-0.017-0.001-0.026c0.014-26.546,21.615-48.138,48.164-48.138
	c26.559,0,48.165,21.606,48.165,48.164c0,26.559-21.606,48.165-48.165,48.165v0.073c-10.813,0.267-19.501,9.098-19.499,19.975v44
	c-0.002,11.047,8.953,20.001,20,20c11.045-0.001,20-8.955,19.998-19.999l0.001-26.45
	C-237.196-1655.607-208.336-1690.496-208.336-1732.129z"/>
</svg>
