<?xml version="1.0" encoding="utf-8"?>
<!-- Generator: Adobe Illustrator 16.0.4, SVG Export Plug-In . SVG Version: 6.00 Build 0)  -->
<!DOCTYPE svg PUBLIC "-//W3C//DTD SVG 1.1//EN" "http://www.w3.org/Graphics/SVG/1.1/DTD/svg11.dtd">
<svg version="1.1" id="Layer_1" xmlns="http://www.w3.org/2000/svg" xmlns:xlink="http://www.w3.org/1999/xlink" x="0px" y="0px"
	 width="512px" height="512px" viewBox="-1104.5 -2484.5 512 512" enable-background="new -1104.5 -2484.5 512 512"
	 xml:space="preserve">
<g>
	<line fill="none" stroke="#B35047" x1="-1072.5" y1="-2484.5" x2="-1072.5" y2="-1972.5"/>
	<line fill="none" stroke="#B35047" x1="-1040.5" y1="-2484.5" x2="-1040.5" y2="-1972.5"/>
	<line fill="none" stroke="#B35047" x1="-1008.5" y1="-2484.5" x2="-1008.5" y2="-1972.5"/>
	<line fill="none" stroke="#B35047" x1="-976.5" y1="-2484.5" x2="-976.5" y2="-1972.5"/>
	<line fill="none" stroke="#B35047" x1="-944.5" y1="-2484.5" x2="-944.5" y2="-1972.5"/>
	<line fill="none" stroke="#B35047" x1="-912.5" y1="-2484.5" x2="-912.5" y2="-1972.5"/>
	<line fill="none" stroke="#B35047" x1="-880.5" y1="-2484.5" x2="-880.5" y2="-1972.5"/>
	<line fill="none" stroke="#B35047" x1="-848.5" y1="-2484.5" x2="-848.5" y2="-1972.5"/>
	<line fill="none" stroke="#B35047" x1="-816.5" y1="-2484.5" x2="-816.5" y2="-1972.5"/>
	<line fill="none" stroke="#B35047" x1="-784.5" y1="-2484.5" x2="-784.5" y2="-1972.5"/>
	<line fill="none" stroke="#B35047" x1="-752.5" y1="-2484.5" x2="-752.5" y2="-1972.5"/>
	<line fill="none" stroke="#B35047" x1="-720.5" y1="-2484.5" x2="-720.5" y2="-1972.5"/>
	<line fill="none" stroke="#B35047" x1="-688.5" y1="-2484.5" x2="-688.5" y2="-1972.5"/>
	<line fill="none" stroke="#B35047" x1="-656.5" y1="-2484.5" x2="-656.5" y2="-1972.5"/>
	<line fill="none" stroke="#B35047" x1="-624.5" y1="-2484.5" x2="-624.5" y2="-1972.5"/>
	<line fill="none" stroke="#B35047" x1="-1104.5" y1="-2452.5" x2="-592.5" y2="-2452.5"/>
	<line fill="none" stroke="#B35047" x1="-1104.5" y1="-2420.5" x2="-592.5" y2="-2420.5"/>
	<line fill="none" stroke="#B35047" x1="-1104.5" y1="-2388.5" x2="-592.5" y2="-2388.5"/>
	<line fill="none" stroke="#B35047" x1="-1104.5" y1="-2356.5" x2="-592.5" y2="-2356.5"/>
	<line fill="none" stroke="#B35047" x1="-1104.5" y1="-2324.5" x2="-592.5" y2="-2324.5"/>
	<line fill="none" stroke="#B35047" x1="-1104.5" y1="-2292.5" x2="-592.5" y2="-2292.5"/>
	<line fill="none" stroke="#B35047" x1="-1104.5" y1="-2260.5" x2="-592.5" y2="-2260.5"/>
	<line fill="none" stroke="#B35047" x1="-1104.5" y1="-2228.5" x2="-592.5" y2="-2228.5"/>
	<line fill="none" stroke="#B35047" x1="-1104.5" y1="-2196.5" x2="-592.5" y2="-2196.5"/>
	<line fill="none" stroke="#B35047" x1="-1104.5" y1="-2164.5" x2="-592.5" y2="-2164.5"/>
	<line fill="none" stroke="#B35047" x1="-1104.5" y1="-2132.5" x2="-592.5" y2="-2132.5"/>
	<line fill="none" stroke="#B35047" x1="-1104.5" y1="-2100.5" x2="-592.5" y2="-2100.5"/>
	<line fill="none" stroke="#B35047" x1="-1104.5" y1="-2068.5" x2="-592.5" y2="-2068.5"/>
	<line fill="none" stroke="#B35047" x1="-1104.5" y1="-2036.5" x2="-592.5" y2="-2036.5"/>
	<line fill="none" stroke="#B35047" x1="-1104.5" y1="-2004.5" x2="-592.5" y2="-2004.5"/>
	<rect x="-1104.5" y="-2484.5" fill="none" stroke="#B35047" width="512" height="512.001"/>
</g>
<path fill="#231F20" d="M-629.856-2038.142l-100.976-100.977c26.78-33.005,42.836-75.065,42.836-120.88
	c0-106.04-85.963-192.002-192.002-192.002S-1072-2366.039-1072-2259.999s85.963,192.003,192.002,192.003
	c45.815,0,87.875-16.057,120.881-42.837l100.975,100.976c7.812,7.811,20.476,7.81,28.285,0
	C-622.048-2017.667-622.046-2030.332-629.856-2038.142z M-987.479-2152.516c-28.71-28.71-44.521-66.881-44.521-107.482
	c0-40.601,15.811-78.772,44.521-107.481S-920.6-2412-879.998-2412s78.771,15.812,107.481,44.521s44.521,66.881,44.521,107.481
	c0,40.602-15.811,78.772-44.521,107.482c-28.71,28.709-66.88,44.521-107.481,44.521S-958.77-2123.807-987.479-2152.516z"/>
</svg>
