<?xml version="1.0" encoding="utf-8"?>
<!-- Generator: Adobe Illustrator 16.0.4, SVG Export Plug-In . SVG Version: 6.00 Build 0)  -->
<!DOCTYPE svg PUBLIC "-//W3C//DTD SVG 1.1//EN" "http://www.w3.org/Graphics/SVG/1.1/DTD/svg11.dtd">
<svg version="1.1" id="Layer_1" xmlns="http://www.w3.org/2000/svg" xmlns:xlink="http://www.w3.org/1999/xlink" x="0px" y="0px"
	 width="512px" height="512px" viewBox="-1104.5 827.5 512 512" enable-background="new -1104.5 827.5 512 512"
	 xml:space="preserve">
<g>
	<line fill="none" stroke="#B35047" x1="-1072.499" y1="827.5" x2="-1072.499" y2="1339.5"/>
	<line fill="none" stroke="#B35047" x1="-1040.499" y1="827.5" x2="-1040.499" y2="1339.5"/>
	<line fill="none" stroke="#B35047" x1="-1008.499" y1="827.5" x2="-1008.499" y2="1339.5"/>
	<line fill="none" stroke="#B35047" x1="-976.499" y1="827.5" x2="-976.499" y2="1339.5"/>
	<line fill="none" stroke="#B35047" x1="-944.499" y1="827.5" x2="-944.499" y2="1339.5"/>
	<line fill="none" stroke="#B35047" x1="-912.499" y1="827.5" x2="-912.499" y2="1339.5"/>
	<line fill="none" stroke="#B35047" x1="-880.499" y1="827.5" x2="-880.499" y2="1339.5"/>
	<line fill="none" stroke="#B35047" x1="-848.499" y1="827.5" x2="-848.499" y2="1339.5"/>
	<line fill="none" stroke="#B35047" x1="-816.499" y1="827.5" x2="-816.499" y2="1339.5"/>
	<line fill="none" stroke="#B35047" x1="-784.499" y1="827.5" x2="-784.499" y2="1339.5"/>
	<line fill="none" stroke="#B35047" x1="-752.499" y1="827.5" x2="-752.499" y2="1339.5"/>
	<line fill="none" stroke="#B35047" x1="-720.499" y1="827.5" x2="-720.499" y2="1339.5"/>
	<line fill="none" stroke="#B35047" x1="-688.499" y1="827.5" x2="-688.499" y2="1339.5"/>
	<line fill="none" stroke="#B35047" x1="-656.499" y1="827.5" x2="-656.499" y2="1339.5"/>
	<line fill="none" stroke="#B35047" x1="-624.499" y1="827.5" x2="-624.499" y2="1339.5"/>
	<line fill="none" stroke="#B35047" x1="-1104.499" y1="859.5" x2="-592.499" y2="859.5"/>
	<line fill="none" stroke="#B35047" x1="-1104.499" y1="891.5" x2="-592.499" y2="891.5"/>
	<line fill="none" stroke="#B35047" x1="-1104.499" y1="923.5" x2="-592.499" y2="923.5"/>
	<line fill="none" stroke="#B35047" x1="-1104.499" y1="955.5" x2="-592.499" y2="955.5"/>
	<line fill="none" stroke="#B35047" x1="-1104.499" y1="987.5" x2="-592.499" y2="987.5"/>
	<line fill="none" stroke="#B35047" x1="-1104.499" y1="1019.5" x2="-592.499" y2="1019.5"/>
	<line fill="none" stroke="#B35047" x1="-1104.499" y1="1051.5" x2="-592.499" y2="1051.5"/>
	<line fill="none" stroke="#B35047" x1="-1104.499" y1="1083.5" x2="-592.499" y2="1083.5"/>
	<line fill="none" stroke="#B35047" x1="-1104.499" y1="1115.5" x2="-592.499" y2="1115.5"/>
	<line fill="none" stroke="#B35047" x1="-1104.499" y1="1147.5" x2="-592.499" y2="1147.5"/>
	<line fill="none" stroke="#B35047" x1="-1104.499" y1="1179.5" x2="-592.499" y2="1179.5"/>
	<line fill="none" stroke="#B35047" x1="-1104.499" y1="1211.5" x2="-592.499" y2="1211.5"/>
	<line fill="none" stroke="#B35047" x1="-1104.499" y1="1243.5" x2="-592.499" y2="1243.5"/>
	<line fill="none" stroke="#B35047" x1="-1104.499" y1="1275.5" x2="-592.499" y2="1275.5"/>
	<line fill="none" stroke="#B35047" x1="-1104.499" y1="1307.5" x2="-592.499" y2="1307.5"/>
	<rect x="-1104.499" y="827.5" fill="none" stroke="#B35047" width="512" height="512"/>
</g>
<path d="M-722.514,1287.25c-3.184,0-6.379-0.759-9.305-2.298l-116.679-61.344l-116.685,61.344
	c-6.738,3.545-14.904,2.952-21.062-1.521c-6.159-4.475-9.243-12.059-7.956-19.562l22.285-129.928l-94.396-92.014
	c-5.452-5.313-7.414-13.262-5.062-20.502s8.611-12.517,16.146-13.611l130.453-18.956l58.343-118.21
	c3.369-6.826,10.322-11.148,17.935-11.148l0,0c7.613,0,14.565,4.322,17.935,11.149l58.337,118.209l130.453,18.956
	c7.534,1.095,13.793,6.371,16.146,13.611s0.391,15.188-5.062,20.502l-94.396,92.014l22.12,128.965
	c0.31,1.398,0.473,2.852,0.473,4.344c0,11.027-8.924,19.971-19.944,20C-722.462,1287.25-722.488,1287.25-722.514,1287.25z
	 M-1009.372,1041.571l72.906,71.065c4.714,4.596,6.865,11.216,5.752,17.703l-17.212,100.35l90.122-47.379
	c5.827-3.065,12.788-3.063,18.613,0l90.116,47.378l-17.212-100.349c-1.113-6.487,1.038-13.107,5.752-17.703l72.906-71.065
	l-100.755-14.641c-6.515-0.946-12.146-5.038-15.059-10.941l-45.057-91.298l-45.061,91.299c-2.913,5.902-8.545,9.994-15.059,10.94
	L-1009.372,1041.571z"/>
</svg>
