<?xml version="1.0" encoding="utf-8"?>
<!-- Generator: Adobe Illustrator 16.0.4, SVG Export Plug-In . SVG Version: 6.00 Build 0)  -->
<!DOCTYPE svg PUBLIC "-//W3C//DTD SVG 1.1//EN" "http://www.w3.org/Graphics/SVG/1.1/DTD/svg11.dtd">
<svg version="1.1" id="Layer_1" xmlns="http://www.w3.org/2000/svg" xmlns:xlink="http://www.w3.org/1999/xlink" x="0px" y="0px"
	 width="512px" height="512px" viewBox="1103.5 -3036.5 512 512" enable-background="new 1103.5 -3036.5 512 512"
	 xml:space="preserve">
<g>
	<line fill="none" stroke="#B35047" x1="1135.531" y1="-3035.906" x2="1135.531" y2="-2523.906"/>
	<line fill="none" stroke="#B35047" x1="1167.531" y1="-3035.906" x2="1167.531" y2="-2523.906"/>
	<line fill="none" stroke="#B35047" x1="1199.531" y1="-3035.906" x2="1199.531" y2="-2523.906"/>
	<line fill="none" stroke="#B35047" x1="1231.531" y1="-3035.906" x2="1231.531" y2="-2523.906"/>
	<line fill="none" stroke="#B35047" x1="1263.531" y1="-3035.906" x2="1263.531" y2="-2523.906"/>
	<line fill="none" stroke="#B35047" x1="1295.531" y1="-3035.906" x2="1295.531" y2="-2523.906"/>
	<line fill="none" stroke="#B35047" x1="1327.531" y1="-3035.906" x2="1327.531" y2="-2523.906"/>
	<line fill="none" stroke="#B35047" x1="1359.531" y1="-3035.906" x2="1359.531" y2="-2523.906"/>
	<line fill="none" stroke="#B35047" x1="1391.531" y1="-3035.906" x2="1391.531" y2="-2523.906"/>
	<line fill="none" stroke="#B35047" x1="1423.531" y1="-3035.906" x2="1423.531" y2="-2523.906"/>
	<line fill="none" stroke="#B35047" x1="1455.531" y1="-3035.906" x2="1455.531" y2="-2523.906"/>
	<line fill="none" stroke="#B35047" x1="1487.531" y1="-3035.906" x2="1487.531" y2="-2523.906"/>
	<line fill="none" stroke="#B35047" x1="1519.531" y1="-3035.906" x2="1519.531" y2="-2523.906"/>
	<line fill="none" stroke="#B35047" x1="1551.531" y1="-3035.906" x2="1551.531" y2="-2523.906"/>
	<line fill="none" stroke="#B35047" x1="1583.531" y1="-3035.906" x2="1583.531" y2="-2523.906"/>
	<line fill="none" stroke="#B35047" x1="1103.531" y1="-3003.906" x2="1615.531" y2="-3003.906"/>
	<line fill="none" stroke="#B35047" x1="1103.531" y1="-2971.906" x2="1615.531" y2="-2971.906"/>
	<line fill="none" stroke="#B35047" x1="1103.531" y1="-2939.906" x2="1615.531" y2="-2939.906"/>
	<line fill="none" stroke="#B35047" x1="1103.531" y1="-2907.906" x2="1615.531" y2="-2907.906"/>
	<line fill="none" stroke="#B35047" x1="1103.531" y1="-2875.906" x2="1615.531" y2="-2875.906"/>
	<line fill="none" stroke="#B35047" x1="1103.531" y1="-2843.906" x2="1615.531" y2="-2843.906"/>
	<line fill="none" stroke="#B35047" x1="1103.531" y1="-2811.906" x2="1615.531" y2="-2811.906"/>
	<line fill="none" stroke="#B35047" x1="1103.531" y1="-2779.906" x2="1615.531" y2="-2779.906"/>
	<line fill="none" stroke="#B35047" x1="1103.531" y1="-2747.906" x2="1615.531" y2="-2747.906"/>
	<line fill="none" stroke="#B35047" x1="1103.531" y1="-2715.906" x2="1615.531" y2="-2715.906"/>
	<line fill="none" stroke="#B35047" x1="1103.531" y1="-2683.906" x2="1615.531" y2="-2683.906"/>
	<line fill="none" stroke="#B35047" x1="1103.531" y1="-2651.906" x2="1615.531" y2="-2651.906"/>
	<line fill="none" stroke="#B35047" x1="1103.531" y1="-2619.906" x2="1615.531" y2="-2619.906"/>
	<line fill="none" stroke="#B35047" x1="1103.531" y1="-2587.906" x2="1615.531" y2="-2587.906"/>
	<line fill="none" stroke="#B35047" x1="1103.531" y1="-2555.906" x2="1615.531" y2="-2555.906"/>
	<rect x="1103.531" y="-3035.906" fill="none" stroke="#B35047" width="512" height="512"/>
</g>
<g>
	<path fill="#231F20" d="M1602.891-2827.527c-7.811-7.811-20.475-7.811-28.283,0l-10.712,10.712
		c-18.178-96.329-102.752-169.196-204.364-169.196c-80.473,0-150.266,45.701-184.855,112.564c-2.398,4.639-2.137,4.182-2.502,4.998
		c-0.018,0.039-0.035,0.078-0.053,0.117c-0.008,0.016-0.012,0.029-0.02,0.045l0.002,0.002c-0.992,2.373-1.543,4.975-1.543,7.707
		c0,11.047,8.955,20,20,20c7.656,0,14.299-4.305,17.66-10.621l0.004,0.002c8.094-16.695,19.006-32.102,32.512-45.607
		c31.73-31.732,73.92-49.207,118.795-49.207c44.873,0,87.062,17.475,118.793,49.207c22.796,22.794,38.222,50.988,45.108,81.697
		l-13.073-13.074c-7.811-7.812-20.475-7.811-28.285,0c-7.812,7.811-7.812,20.475,0,28.285l46.15,46.148
		c4.02,4.021,9.324,5.955,14.592,5.838c5.264,0.113,10.562-1.82,14.576-5.838l45.5-45.494
		C1610.703-2807.053,1610.701-2819.717,1602.891-2827.527z"/>
	<path fill="#231F20" d="M1528.496-2715.445c-7.656,0-14.299,4.305-17.662,10.621l-0.004-0.002
		c-8.092,16.697-19.004,32.104-32.51,45.609c-31.732,31.73-73.92,49.205-118.795,49.205c-44.873,0-87.062-17.475-118.793-49.205
		c-24.116-24.116-39.99-54.273-46.224-87.058l14.646,14.646c7.811,7.811,20.475,7.809,28.283-0.002
		c7.812-7.811,7.812-20.475,0-28.283l-46.148-46.15c-4.021-4.02-9.326-5.955-14.594-5.836c-5.262-0.115-10.561,1.82-14.576,5.836
		l-45.498,45.496c-7.811,7.811-7.809,20.475,0,28.285c7.811,7.811,20.475,7.811,28.285,0l9.739-9.739
		c17.046,97.722,102.28,172.011,204.88,172.011c80.473,0,150.266-45.701,184.854-112.562c2.4-4.641,2.139-4.182,2.504-5
		c0.016-0.039,0.035-0.078,0.053-0.117c0.006-0.016,0.012-0.027,0.02-0.045l-0.004-0.002c0.992-2.371,1.545-4.975,1.545-7.707
		C1548.496-2706.49,1539.541-2715.445,1528.496-2715.445z M1176.703-2764.08l0.412,0.412l-0.7-0.124L1176.703-2764.08z"/>
</g>
</svg>
