<?xml version="1.0" encoding="utf-8"?>
<!-- Generator: Adobe Illustrator 16.0.4, SVG Export Plug-In . SVG Version: 6.00 Build 0)  -->
<!DOCTYPE svg PUBLIC "-//W3C//DTD SVG 1.1//EN" "http://www.w3.org/Graphics/SVG/1.1/DTD/svg11.dtd">
<svg version="1.1" id="Layer_1" xmlns="http://www.w3.org/2000/svg" xmlns:xlink="http://www.w3.org/1999/xlink" x="0px" y="0px"
	 width="512px" height="512px" viewBox="-1104.5 3035.5 512 512" enable-background="new -1104.5 3035.5 512 512"
	 xml:space="preserve">
<g>
	<line fill="none" stroke="#B35047" x1="-1072" y1="3035.999" x2="-1072" y2="3548"/>
	<line fill="none" stroke="#B35047" x1="-1040" y1="3035.999" x2="-1040" y2="3548"/>
	<line fill="none" stroke="#B35047" x1="-1008" y1="3035.999" x2="-1008" y2="3548"/>
	<line fill="none" stroke="#B35047" x1="-976" y1="3035.999" x2="-976" y2="3548"/>
	<line fill="none" stroke="#B35047" x1="-944" y1="3035.999" x2="-944" y2="3548"/>
	<line fill="none" stroke="#B35047" x1="-912" y1="3035.999" x2="-912" y2="3548"/>
	<line fill="none" stroke="#B35047" x1="-880" y1="3035.999" x2="-880" y2="3548"/>
	<line fill="none" stroke="#B35047" x1="-848" y1="3035.999" x2="-848" y2="3548"/>
	<line fill="none" stroke="#B35047" x1="-816" y1="3035.999" x2="-816" y2="3548"/>
	<line fill="none" stroke="#B35047" x1="-784" y1="3035.999" x2="-784" y2="3548"/>
	<line fill="none" stroke="#B35047" x1="-752" y1="3035.999" x2="-752" y2="3548"/>
	<line fill="none" stroke="#B35047" x1="-720" y1="3035.999" x2="-720" y2="3548"/>
	<line fill="none" stroke="#B35047" x1="-688" y1="3035.999" x2="-688" y2="3548"/>
	<line fill="none" stroke="#B35047" x1="-656" y1="3035.999" x2="-656" y2="3548"/>
	<line fill="none" stroke="#B35047" x1="-624" y1="3035.999" x2="-624" y2="3548"/>
	<line fill="none" stroke="#B35047" x1="-1104" y1="3067.999" x2="-592" y2="3067.999"/>
	<line fill="none" stroke="#B35047" x1="-1104" y1="3099.999" x2="-592" y2="3099.999"/>
	<line fill="none" stroke="#B35047" x1="-1104" y1="3131.999" x2="-592" y2="3131.999"/>
	<line fill="none" stroke="#B35047" x1="-1104" y1="3163.999" x2="-592" y2="3163.999"/>
	<line fill="none" stroke="#B35047" x1="-1104" y1="3195.999" x2="-592" y2="3195.999"/>
	<line fill="none" stroke="#B35047" x1="-1104" y1="3227.999" x2="-592" y2="3227.999"/>
	<line fill="none" stroke="#B35047" x1="-1104" y1="3259.999" x2="-592" y2="3259.999"/>
	<line fill="none" stroke="#B35047" x1="-1104" y1="3292" x2="-592" y2="3292"/>
	<line fill="none" stroke="#B35047" x1="-1104" y1="3324" x2="-592" y2="3324"/>
	<line fill="none" stroke="#B35047" x1="-1104" y1="3356" x2="-592" y2="3356"/>
	<line fill="none" stroke="#B35047" x1="-1104" y1="3388" x2="-592" y2="3388"/>
	<line fill="none" stroke="#B35047" x1="-1104" y1="3420" x2="-592" y2="3420"/>
	<line fill="none" stroke="#B35047" x1="-1104" y1="3452" x2="-592" y2="3452"/>
	<line fill="none" stroke="#B35047" x1="-1104" y1="3484" x2="-592" y2="3484"/>
	<line fill="none" stroke="#B35047" x1="-1104" y1="3516" x2="-592" y2="3516"/>
	<rect x="-1104" y="3035.999" fill="none" stroke="#B35047" width="512" height="512.001"/>
</g>
<path d="M-976.014,3419.502c0-4.335-1.578-8.079-4.742-11.267c-3.166-3.17-6.918-4.742-11.252-4.729
	c-4.341,0-8.094,1.586-11.258,4.729c-3.165,3.172-4.744,6.92-4.744,11.267c0,4.346,1.579,8.093,4.744,11.266
	c3.164,3.143,6.917,4.729,11.258,4.729c4.334,0.014,8.086-1.559,11.252-4.729C-977.592,3427.58-976.014,3423.834-976.014,3419.502z
	 M-688.026,3275.505c0-8.502-3.239-15.954-9.734-22.367c-6.507-6.41-13.917-9.625-22.256-9.638h-87.985
	c0-9.664,3.99-22.952,12.002-39.862c7.984-16.913,11.989-30.284,11.989-40.128c0-16.323-2.666-28.404-7.997-36.24
	c-5.332-7.832-15.994-11.742-31.99-11.742c-4.348,4.32-7.506,11.414-9.516,21.243c-2.01,9.845-4.551,20.303-7.627,31.376
	c-3.084,11.086-8.04,20.191-14.881,27.369c-3.672,3.84-10.084,11.416-19.25,22.748c-0.663,0.835-2.582,3.325-5.756,7.505
	c-3.171,4.171-5.797,7.589-7.881,10.254c-2.078,2.654-4.955,6.193-8.626,10.609c-3.664,4.431-7,8.093-9.994,11.019
	c-2.993,2.897-6.206,5.865-9.63,8.872c-3.426,2.992-6.754,5.25-9.995,6.74c-3.239,1.505-6.2,2.242-8.878,2.256h-7.991v160.005h7.991
	c2.166,0,4.798,0.246,7.887,0.752c3.084,0.506,5.838,1.04,8.244,1.629c2.406,0.572,5.577,1.49,9.501,2.733
	c3.931,1.256,6.851,2.212,8.751,2.87c1.906,0.655,4.866,1.711,8.878,3.119c4.013,1.421,6.433,2.293,7.253,2.636
	c35.162,12.167,63.652,18.252,85.498,18.252h30.241c32.003,0,48.012-13.918,48.012-41.739c0-4.332-0.424-9.008-1.257-13.998
	c5.002-2.667,8.968-7.042,11.879-13.138c2.912-6.086,4.362-12.208,4.389-18.373c0-6.183-1.504-11.922-4.512-17.255
	c8.832-8.341,13.262-18.248,13.262-29.748c0-4.154-0.848-8.777-2.516-13.86c-1.668-5.101-3.746-9.052-6.234-11.881
	c5.318-0.164,9.775-4.075,13.357-11.743c3.596-7.67,5.372-14.41,5.372-20.248V3275.505z M-656.008,3275.258
	c0,14.819-4.102,28.408-12.25,40.753c1.49,5.497,2.242,11.238,2.242,17.241c0,12.837-3.172,24.84-9.502,35.995
	c0.506,3.5,0.753,7.082,0.753,10.744c0,16.844-5.004,31.677-14.984,44.513c0.163,23.16-6.917,41.452-21.259,54.878
	c-14.341,13.424-33.261,20.123-56.748,20.123h-32.264c-15.995,0-31.771-1.873-47.371-5.634
	c-15.584-3.746-33.623-9.201-54.115-16.379c-19.331-6.656-30.828-9.978-34.492-9.978h-71.998c-8.832,0-16.371-3.146-22.626-9.392
	c-6.254-6.25-9.378-13.794-9.378-22.627v-159.991c0-8.833,3.124-16.364,9.378-22.613c6.255-6.26,13.794-9.392,22.626-9.392h68.499
	c6.001-4.005,17.409-16.911,34.239-38.742c9.665-12.495,18.584-23.172,26.754-32.004c3.998-4.157,6.959-11.293,8.872-21.383
	c1.914-10.089,4.456-20.616,7.628-31.62c3.18-10.992,8.34-20.001,15.497-26.999c6.501-6.181,14.006-9.257,22.509-9.257
	c13.999,0,26.576,2.707,37.732,8.121c11.155,5.414,19.658,13.874,25.482,25.385c5.852,11.501,8.75,26.989,8.75,46.481
	c0,15.504-3.992,31.5-11.99,48.014h44.007c17.335,0,32.317,6.314,44.978,18.99c12.673,12.673,19.004,27.572,19.004,44.745
	L-656.008,3275.258z"/>
</svg>
