<?xml version="1.0" encoding="utf-8"?>
<!-- Generator: Adobe Illustrator 16.0.4, SVG Export Plug-In . SVG Version: 6.00 Build 0)  -->
<!DOCTYPE svg PUBLIC "-//W3C//DTD SVG 1.1//EN" "http://www.w3.org/Graphics/SVG/1.1/DTD/svg11.dtd">
<svg version="1.1" id="Layer_1" xmlns="http://www.w3.org/2000/svg" xmlns:xlink="http://www.w3.org/1999/xlink" x="0px" y="0px"
	 width="512px" height="512px" viewBox="551.5 -3588.5 512 512" enable-background="new 551.5 -3588.5 512 512"
	 xml:space="preserve">
<g>
	<line fill="none" stroke="#B35047" x1="583.5" y1="-3588.5" x2="583.5" y2="-3076.5"/>
	<line fill="none" stroke="#B35047" x1="615.5" y1="-3588.5" x2="615.5" y2="-3076.5"/>
	<line fill="none" stroke="#B35047" x1="647.5" y1="-3588.5" x2="647.5" y2="-3076.5"/>
	<line fill="none" stroke="#B35047" x1="679.5" y1="-3588.5" x2="679.5" y2="-3076.5"/>
	<line fill="none" stroke="#B35047" x1="711.5" y1="-3588.5" x2="711.5" y2="-3076.5"/>
	<line fill="none" stroke="#B35047" x1="743.5" y1="-3588.5" x2="743.5" y2="-3076.5"/>
	<line fill="none" stroke="#B35047" x1="775.5" y1="-3588.5" x2="775.5" y2="-3076.5"/>
	<line fill="none" stroke="#B35047" x1="807.5" y1="-3588.5" x2="807.5" y2="-3076.5"/>
	<line fill="none" stroke="#B35047" x1="839.5" y1="-3588.5" x2="839.5" y2="-3076.5"/>
	<line fill="none" stroke="#B35047" x1="871.5" y1="-3588.5" x2="871.5" y2="-3076.5"/>
	<line fill="none" stroke="#B35047" x1="903.5" y1="-3588.5" x2="903.5" y2="-3076.5"/>
	<line fill="none" stroke="#B35047" x1="935.5" y1="-3588.5" x2="935.5" y2="-3076.5"/>
	<line fill="none" stroke="#B35047" x1="967.5" y1="-3588.5" x2="967.5" y2="-3076.5"/>
	<line fill="none" stroke="#B35047" x1="999.5" y1="-3588.5" x2="999.5" y2="-3076.5"/>
	<line fill="none" stroke="#B35047" x1="1031.5" y1="-3588.5" x2="1031.5" y2="-3076.5"/>
	<line fill="none" stroke="#B35047" x1="551.5" y1="-3556.5" x2="1063.5" y2="-3556.5"/>
	<line fill="none" stroke="#B35047" x1="551.5" y1="-3524.5" x2="1063.5" y2="-3524.5"/>
	<line fill="none" stroke="#B35047" x1="551.5" y1="-3492.5" x2="1063.5" y2="-3492.5"/>
	<line fill="none" stroke="#B35047" x1="551.5" y1="-3460.5" x2="1063.5" y2="-3460.5"/>
	<line fill="none" stroke="#B35047" x1="551.5" y1="-3428.5" x2="1063.5" y2="-3428.5"/>
	<line fill="none" stroke="#B35047" x1="551.5" y1="-3396.5" x2="1063.5" y2="-3396.5"/>
	<line fill="none" stroke="#B35047" x1="551.5" y1="-3364.5" x2="1063.5" y2="-3364.5"/>
	<line fill="none" stroke="#B35047" x1="551.5" y1="-3332.5" x2="1063.5" y2="-3332.5"/>
	<line fill="none" stroke="#B35047" x1="551.5" y1="-3300.5" x2="1063.5" y2="-3300.5"/>
	<line fill="none" stroke="#B35047" x1="551.5" y1="-3268.5" x2="1063.5" y2="-3268.5"/>
	<line fill="none" stroke="#B35047" x1="551.5" y1="-3236.5" x2="1063.5" y2="-3236.5"/>
	<line fill="none" stroke="#B35047" x1="551.5" y1="-3204.5" x2="1063.5" y2="-3204.5"/>
	<line fill="none" stroke="#B35047" x1="551.5" y1="-3172.5" x2="1063.5" y2="-3172.5"/>
	<line fill="none" stroke="#B35047" x1="551.5" y1="-3140.5" x2="1063.5" y2="-3140.5"/>
	<line fill="none" stroke="#B35047" x1="551.5" y1="-3108.5" x2="1063.5" y2="-3108.5"/>
	<rect x="551.5" y="-3588.5" fill="none" stroke="#B35047" width="512" height="512"/>
</g>
<path fill="#231F20" d="M807.5-3219.938c-11.047,0.001-20.002-8.953-20-20v-120c-0.002-11.046,8.953-20.001,20-20.001l0,0
	c11.045,0.001,20,8.954,20,20.001l-0.002,120.001C827.5-3228.893,818.545-3219.938,807.5-3219.938L807.5-3219.938z"/>
<g>
	<path fill="#231F20" d="M1011.25-3475.896H903.5v-60.04c0-10.172-7.596-18.548-17.418-19.816c-0.848-0.108-1.705-0.186-2.582-0.186
		H731.498c-0.877,0-1.734,0.076-2.582,0.186c-9.822,1.27-17.418,9.646-17.418,19.814v60.042H603.5c-11.045,0-20,8.956-20,20.001
		c0,11.046,8.955,20,20,20h13.608l26.958,307.957h0.107c0,11.046,8.955,20,20,20h286.686c11.047,0,20-8.955,20-20h0.074
		l26.958-307.957h13.358c11.045,0,20-8.955,20-20S1022.295-3475.896,1011.25-3475.896z M751.498-3515.937H863.5v40.041H751.498
		V-3515.937z M932.531-3147.938H682.469l-25.207-287.956h300.477L932.531-3147.938z"/>
	<path fill="#231F20" d="M887.502-3219.938c11.045-0.001,20-8.955,19.998-19.999l0.002-120.001c0-11.047-8.955-20-20-20.001
		c-11.047,0-20.002,8.955-20,20.001v120C867.5-3228.891,876.455-3219.937,887.502-3219.938z"/>
	<path fill="#231F20" d="M727.498-3219.938c11.045-0.001,20-8.955,19.998-19.999l0.002-120.001c0-11.047-8.955-20-20-20.001
		c-11.047,0-20.002,8.955-20,20.001v120C707.496-3228.891,716.451-3219.937,727.498-3219.938z"/>
	<path fill="#231F20" d="M807.5-3219.938c11.045-0.001,20-8.955,19.998-19.999l0.002-120.001c0-11.047-8.955-20-20-20.001
		c-11.047,0-20.002,8.955-20,20.001v120C787.498-3228.891,796.453-3219.937,807.5-3219.938z"/>
</g>
</svg>
