<?xml version="1.0" encoding="utf-8"?>
<!-- Generator: Adobe Illustrator 16.0.4, SVG Export Plug-In . SVG Version: 6.00 Build 0)  -->
<!DOCTYPE svg PUBLIC "-//W3C//DTD SVG 1.1//EN" "http://www.w3.org/Graphics/SVG/1.1/DTD/svg11.dtd">
<svg version="1.1" id="Layer_1" xmlns="http://www.w3.org/2000/svg" xmlns:xlink="http://www.w3.org/1999/xlink" x="0px" y="0px"
	 width="512px" height="512px" viewBox="-1104.5 4139.5 512 512" enable-background="new -1104.5 4139.5 512 512"
	 xml:space="preserve">
<g>
	<line fill="none" stroke="#B35047" x1="-1072.5" y1="4139" x2="-1072.5" y2="4651"/>
	<line fill="none" stroke="#B35047" x1="-1040.5" y1="4139" x2="-1040.5" y2="4651"/>
	<line fill="none" stroke="#B35047" x1="-1008.5" y1="4139" x2="-1008.5" y2="4651"/>
	<line fill="none" stroke="#B35047" x1="-976.5" y1="4139" x2="-976.5" y2="4651"/>
	<line fill="none" stroke="#B35047" x1="-944.5" y1="4139" x2="-944.5" y2="4651"/>
	<line fill="none" stroke="#B35047" x1="-912.5" y1="4139" x2="-912.5" y2="4651"/>
	<line fill="none" stroke="#B35047" x1="-880.5" y1="4139" x2="-880.5" y2="4651"/>
	<line fill="none" stroke="#B35047" x1="-848.5" y1="4139" x2="-848.5" y2="4651"/>
	<line fill="none" stroke="#B35047" x1="-816.5" y1="4139" x2="-816.5" y2="4651"/>
	<line fill="none" stroke="#B35047" x1="-784.5" y1="4139" x2="-784.5" y2="4651"/>
	<line fill="none" stroke="#B35047" x1="-752.5" y1="4139" x2="-752.5" y2="4651"/>
	<line fill="none" stroke="#B35047" x1="-720.5" y1="4139" x2="-720.5" y2="4651"/>
	<line fill="none" stroke="#B35047" x1="-688.5" y1="4139" x2="-688.5" y2="4651"/>
	<line fill="none" stroke="#B35047" x1="-656.5" y1="4139" x2="-656.5" y2="4651"/>
	<line fill="none" stroke="#B35047" x1="-624.5" y1="4139" x2="-624.5" y2="4651"/>
	<line fill="none" stroke="#B35047" x1="-1104.5" y1="4171" x2="-592.5" y2="4171"/>
	<line fill="none" stroke="#B35047" x1="-1104.5" y1="4203" x2="-592.5" y2="4203"/>
	<line fill="none" stroke="#B35047" x1="-1104.5" y1="4235" x2="-592.5" y2="4235"/>
	<line fill="none" stroke="#B35047" x1="-1104.5" y1="4267" x2="-592.5" y2="4267"/>
	<line fill="none" stroke="#B35047" x1="-1104.5" y1="4299" x2="-592.5" y2="4299"/>
	<line fill="none" stroke="#B35047" x1="-1104.5" y1="4331" x2="-592.5" y2="4331"/>
	<line fill="none" stroke="#B35047" x1="-1104.5" y1="4363" x2="-592.5" y2="4363"/>
	<line fill="none" stroke="#B35047" x1="-1104.5" y1="4395" x2="-592.5" y2="4395"/>
	<line fill="none" stroke="#B35047" x1="-1104.5" y1="4427" x2="-592.5" y2="4427"/>
	<line fill="none" stroke="#B35047" x1="-1104.5" y1="4459" x2="-592.5" y2="4459"/>
	<line fill="none" stroke="#B35047" x1="-1104.5" y1="4491" x2="-592.5" y2="4491"/>
	<line fill="none" stroke="#B35047" x1="-1104.5" y1="4523" x2="-592.5" y2="4523"/>
	<line fill="none" stroke="#B35047" x1="-1104.5" y1="4555" x2="-592.5" y2="4555"/>
	<line fill="none" stroke="#B35047" x1="-1104.5" y1="4587" x2="-592.5" y2="4587"/>
	<line fill="none" stroke="#B35047" x1="-1104.5" y1="4619" x2="-592.5" y2="4619"/>
	<rect x="-1104.5" y="4139" fill="none" stroke="#B35047" width="512" height="512"/>
</g>
<g>
	<path d="M-624.5,4256.057c-16.473,7.308-34.205,12.25-52.799,14.471c18.977-11.381,33.549-29.387,40.428-50.844
		c-17.76,10.527-37.447,18.184-58.363,22.299c-16.771-17.862-40.658-29.019-67.102-29.019c-50.748,0-91.898,41.146-91.898,91.907
		c0,7.212,0.814,14.225,2.379,20.945c-76.375-3.834-144.11-40.436-189.438-96.036c-7.911,13.575-12.449,29.353-12.449,46.21
		c0,31.888,16.229,60.017,40.891,76.505c-15.058-0.472-29.229-4.606-41.631-11.491c-0.014,0.375-0.014,0.773-0.014,1.162
		c0,44.535,31.678,81.667,73.719,90.128c-7.713,2.093-15.832,3.213-24.221,3.213c-5.918,0-11.675-0.573-17.287-1.64
		c11.703,36.503,45.643,63.08,85.863,63.816c-31.457,24.662-71.09,39.348-114.157,39.348c-7.414,0-14.724-0.438-21.921-1.284
		c40.665,26.069,88.98,41.287,140.893,41.287c169.055,0,261.5-140.052,261.5-261.507c0-3.993-0.082-7.957-0.271-11.889
		C-652.402,4290.658-636.816,4274.479-624.5,4256.057z"/>
</g>
</svg>
