<?xml version="1.0" encoding="utf-8"?>
<!-- Generator: Adobe Illustrator 16.0.4, SVG Export Plug-In . SVG Version: 6.00 Build 0)  -->
<!DOCTYPE svg PUBLIC "-//W3C//DTD SVG 1.1//EN" "http://www.w3.org/Graphics/SVG/1.1/DTD/svg11.dtd">
<svg version="1.1" id="Layer_1" xmlns="http://www.w3.org/2000/svg" xmlns:xlink="http://www.w3.org/1999/xlink" x="0px" y="0px"
	 width="512px" height="512px" viewBox="551.5 -4140.5 512 512" enable-background="new 551.5 -4140.5 512 512"
	 xml:space="preserve">
<g>
	<line fill="none" stroke="#B35047" x1="583.531" y1="-4140.469" x2="583.531" y2="-3628.469"/>
	<line fill="none" stroke="#B35047" x1="615.531" y1="-4140.469" x2="615.531" y2="-3628.469"/>
	<line fill="none" stroke="#B35047" x1="647.531" y1="-4140.469" x2="647.531" y2="-3628.469"/>
	<line fill="none" stroke="#B35047" x1="679.531" y1="-4140.469" x2="679.531" y2="-3628.469"/>
	<line fill="none" stroke="#B35047" x1="711.531" y1="-4140.469" x2="711.531" y2="-3628.469"/>
	<line fill="none" stroke="#B35047" x1="743.531" y1="-4140.469" x2="743.531" y2="-3628.469"/>
	<line fill="none" stroke="#B35047" x1="775.531" y1="-4140.469" x2="775.531" y2="-3628.469"/>
	<line fill="none" stroke="#B35047" x1="807.531" y1="-4140.469" x2="807.531" y2="-3628.469"/>
	<line fill="none" stroke="#B35047" x1="839.531" y1="-4140.469" x2="839.531" y2="-3628.469"/>
	<line fill="none" stroke="#B35047" x1="871.531" y1="-4140.469" x2="871.531" y2="-3628.469"/>
	<line fill="none" stroke="#B35047" x1="903.531" y1="-4140.469" x2="903.531" y2="-3628.469"/>
	<line fill="none" stroke="#B35047" x1="935.531" y1="-4140.469" x2="935.531" y2="-3628.469"/>
	<line fill="none" stroke="#B35047" x1="967.531" y1="-4140.469" x2="967.531" y2="-3628.469"/>
	<line fill="none" stroke="#B35047" x1="999.531" y1="-4140.469" x2="999.531" y2="-3628.469"/>
	<line fill="none" stroke="#B35047" x1="1031.531" y1="-4140.469" x2="1031.531" y2="-3628.469"/>
	<line fill="none" stroke="#B35047" x1="551.531" y1="-4108.469" x2="1063.531" y2="-4108.469"/>
	<line fill="none" stroke="#B35047" x1="551.531" y1="-4076.469" x2="1063.531" y2="-4076.469"/>
	<line fill="none" stroke="#B35047" x1="551.531" y1="-4044.469" x2="1063.531" y2="-4044.469"/>
	<line fill="none" stroke="#B35047" x1="551.531" y1="-4012.469" x2="1063.531" y2="-4012.469"/>
	<line fill="none" stroke="#B35047" x1="551.531" y1="-3980.469" x2="1063.531" y2="-3980.469"/>
	<line fill="none" stroke="#B35047" x1="551.531" y1="-3948.469" x2="1063.531" y2="-3948.469"/>
	<line fill="none" stroke="#B35047" x1="551.531" y1="-3916.469" x2="1063.531" y2="-3916.469"/>
	<line fill="none" stroke="#B35047" x1="551.531" y1="-3884.469" x2="1063.531" y2="-3884.469"/>
	<line fill="none" stroke="#B35047" x1="551.531" y1="-3852.469" x2="1063.531" y2="-3852.469"/>
	<line fill="none" stroke="#B35047" x1="551.531" y1="-3820.469" x2="1063.531" y2="-3820.469"/>
	<line fill="none" stroke="#B35047" x1="551.531" y1="-3788.469" x2="1063.531" y2="-3788.469"/>
	<line fill="none" stroke="#B35047" x1="551.531" y1="-3756.469" x2="1063.531" y2="-3756.469"/>
	<line fill="none" stroke="#B35047" x1="551.531" y1="-3724.469" x2="1063.531" y2="-3724.469"/>
	<line fill="none" stroke="#B35047" x1="551.531" y1="-3692.469" x2="1063.531" y2="-3692.469"/>
	<line fill="none" stroke="#B35047" x1="551.531" y1="-3660.469" x2="1063.531" y2="-3660.469"/>
	<rect x="551.531" y="-4140.469" fill="none" stroke="#B35047" width="512" height="512"/>
</g>
<g>
	<path d="M747.038-3702.383c46.458,0,91.505-9.09,133.89-27.016c7.282-3.08,14.427-6.408,21.44-9.959v-7.527
		c0-46.996-97.17-89.854-123.19-93.994c-8.079-1.285-8.264-23.498-8.264-23.498s23.738-23.497,28.911-55.097
		c13.916,0,22.513-33.593,8.594-45.412c0.582-12.441,17.889-97.67-69.732-97.67c-87.622,0-70.313,85.229-69.734,97.67
		c-13.917,11.819-5.323,45.412,8.595,45.412c5.171,31.6,28.909,55.097,28.909,55.097s-0.184,22.213-8.263,23.498
		c-25.743,4.096-121.126,46.097-123.14,92.506c12.25,7.078,24.956,13.416,38.098,18.975
		C655.535-3711.473,700.581-3702.383,747.038-3702.383z"/>
</g>
<g>
	<path d="M1040.009-3814.388c0-32.306-66.796-61.766-84.682-64.611c-5.553-0.884-5.68-16.153-5.68-16.153
		s16.317-16.152,19.872-37.873c9.566,0,15.477-23.094,5.909-31.218c0.399-8.553,12.296-67.139-47.937-67.139
		c-60.231,0-48.333,58.586-47.935,67.139c-9.567,8.124-3.66,31.218,5.908,31.218c3.555,21.721,19.871,37.873,19.871,37.873
		s-0.125,15.27-5.679,16.153c-11.577,1.842-43.641,14.836-64.822,32.533c10.511,5.02,21.036,10.696,30.533,16.594
		c7.139,4.433,13.696,8.933,19.669,13.493c17.848,13.631,30.478,27.818,37.823,42.467c1.392,0.016,2.781,0.051,4.176,0.051
		c38.894,0,76.79-6.396,112.972-18.988V-3814.388z"/>
</g>
</svg>
