<?xml version="1.0" encoding="utf-8"?>
<!-- Generator: Adobe Illustrator 16.0.4, SVG Export Plug-In . SVG Version: 6.00 Build 0)  -->
<!DOCTYPE svg PUBLIC "-//W3C//DTD SVG 1.1//EN" "http://www.w3.org/Graphics/SVG/1.1/DTD/svg11.dtd">
<svg version="1.1" id="Layer_1" xmlns="http://www.w3.org/2000/svg" xmlns:xlink="http://www.w3.org/1999/xlink" x="0px" y="0px"
	 width="512px" height="512px" viewBox="1103.5 -4140.5 512 512" enable-background="new 1103.5 -4140.5 512 512"
	 xml:space="preserve">
<g>
	<line fill="none" stroke="#B35047" x1="1135.531" y1="-4140.469" x2="1135.531" y2="-3628.469"/>
	<line fill="none" stroke="#B35047" x1="1167.531" y1="-4140.469" x2="1167.531" y2="-3628.469"/>
	<line fill="none" stroke="#B35047" x1="1199.531" y1="-4140.469" x2="1199.531" y2="-3628.469"/>
	<line fill="none" stroke="#B35047" x1="1231.531" y1="-4140.469" x2="1231.531" y2="-3628.469"/>
	<line fill="none" stroke="#B35047" x1="1263.531" y1="-4140.469" x2="1263.531" y2="-3628.469"/>
	<line fill="none" stroke="#B35047" x1="1295.531" y1="-4140.469" x2="1295.531" y2="-3628.469"/>
	<line fill="none" stroke="#B35047" x1="1327.531" y1="-4140.469" x2="1327.531" y2="-3628.469"/>
	<line fill="none" stroke="#B35047" x1="1359.531" y1="-4140.469" x2="1359.531" y2="-3628.469"/>
	<line fill="none" stroke="#B35047" x1="1391.531" y1="-4140.469" x2="1391.531" y2="-3628.469"/>
	<line fill="none" stroke="#B35047" x1="1423.531" y1="-4140.469" x2="1423.531" y2="-3628.469"/>
	<line fill="none" stroke="#B35047" x1="1455.531" y1="-4140.469" x2="1455.531" y2="-3628.469"/>
	<line fill="none" stroke="#B35047" x1="1487.531" y1="-4140.469" x2="1487.531" y2="-3628.469"/>
	<line fill="none" stroke="#B35047" x1="1519.531" y1="-4140.469" x2="1519.531" y2="-3628.469"/>
	<line fill="none" stroke="#B35047" x1="1551.531" y1="-4140.469" x2="1551.531" y2="-3628.469"/>
	<line fill="none" stroke="#B35047" x1="1583.531" y1="-4140.469" x2="1583.531" y2="-3628.469"/>
	<line fill="none" stroke="#B35047" x1="1103.531" y1="-4108.469" x2="1615.531" y2="-4108.469"/>
	<line fill="none" stroke="#B35047" x1="1103.531" y1="-4076.469" x2="1615.531" y2="-4076.469"/>
	<line fill="none" stroke="#B35047" x1="1103.531" y1="-4044.469" x2="1615.531" y2="-4044.469"/>
	<line fill="none" stroke="#B35047" x1="1103.531" y1="-4012.469" x2="1615.531" y2="-4012.469"/>
	<line fill="none" stroke="#B35047" x1="1103.531" y1="-3980.469" x2="1615.531" y2="-3980.469"/>
	<line fill="none" stroke="#B35047" x1="1103.531" y1="-3948.469" x2="1615.531" y2="-3948.469"/>
	<line fill="none" stroke="#B35047" x1="1103.531" y1="-3916.469" x2="1615.531" y2="-3916.469"/>
	<line fill="none" stroke="#B35047" x1="1103.531" y1="-3884.469" x2="1615.531" y2="-3884.469"/>
	<line fill="none" stroke="#B35047" x1="1103.531" y1="-3852.469" x2="1615.531" y2="-3852.469"/>
	<line fill="none" stroke="#B35047" x1="1103.531" y1="-3820.469" x2="1615.531" y2="-3820.469"/>
	<line fill="none" stroke="#B35047" x1="1103.531" y1="-3788.469" x2="1615.531" y2="-3788.469"/>
	<line fill="none" stroke="#B35047" x1="1103.531" y1="-3756.469" x2="1615.531" y2="-3756.469"/>
	<line fill="none" stroke="#B35047" x1="1103.531" y1="-3724.469" x2="1615.531" y2="-3724.469"/>
	<line fill="none" stroke="#B35047" x1="1103.531" y1="-3692.469" x2="1615.531" y2="-3692.469"/>
	<line fill="none" stroke="#B35047" x1="1103.531" y1="-3660.469" x2="1615.531" y2="-3660.469"/>
	<rect x="1103.531" y="-4140.469" fill="none" stroke="#B35047" width="512" height="512"/>
</g>
<g>
	<path d="M1299.038-3696.914c46.458,0,91.505-9.09,133.89-27.016c7.282-3.08,14.427-6.408,21.44-9.959v-7.527
		c0-46.996-97.17-89.854-123.19-93.994c-8.079-1.285-8.264-23.498-8.264-23.498s23.738-23.497,28.911-55.097
		c13.916,0,22.513-33.593,8.594-45.412c0.582-12.441,17.889-97.67-69.732-97.67c-87.622,0-70.313,85.229-69.734,97.67
		c-13.917,11.819-5.323,45.412,8.595,45.412c5.171,31.6,28.909,55.097,28.909,55.097s-0.184,22.213-8.263,23.498
		c-25.743,4.096-121.126,46.097-123.14,92.506c12.25,7.078,24.956,13.416,38.098,18.975
		C1207.535-3706.004,1252.581-3696.914,1299.038-3696.914z"/>
</g>
<path d="M1558.532-3973h-40.004v-40.005c0.001-11.045-8.953-19.996-19.998-19.996c-11.044,0-19.999,8.953-19.999,19.998V-3973
	h-40.001c-11.047,0-20,8.954-19.999,20c-0.001,11.045,8.952,19.998,19.998,19.998l40.002,0v40.001c0,11.047,8.954,20,20,20
	c11.045,0,19.998-8.953,19.998-19.998v-40.003l40.005,0c11.045,0.001,19.997-8.953,19.997-19.998
	C1578.531-3964.045,1569.577-3973,1558.532-3973z"/>
</svg>
