<?xml version="1.0" encoding="utf-8"?>
<!-- Generator: Adobe Illustrator 16.0.4, SVG Export Plug-In . SVG Version: 6.00 Build 0)  -->
<!DOCTYPE svg PUBLIC "-//W3C//DTD SVG 1.1//EN" "http://www.w3.org/Graphics/SVG/1.1/DTD/svg11.dtd">
<svg version="1.1" id="Layer_1" xmlns="http://www.w3.org/2000/svg" xmlns:xlink="http://www.w3.org/1999/xlink" x="0px" y="0px"
	 width="512px" height="512px" viewBox="-0.5 -4140.5 512 512" enable-background="new -0.5 -4140.5 512 512" xml:space="preserve">
<g>
	<line fill="none" stroke="#B35047" x1="31.531" y1="-4140.469" x2="31.531" y2="-3628.469"/>
	<line fill="none" stroke="#B35047" x1="63.531" y1="-4140.469" x2="63.531" y2="-3628.469"/>
	<line fill="none" stroke="#B35047" x1="95.531" y1="-4140.469" x2="95.531" y2="-3628.469"/>
	<line fill="none" stroke="#B35047" x1="127.531" y1="-4140.469" x2="127.531" y2="-3628.469"/>
	<line fill="none" stroke="#B35047" x1="159.531" y1="-4140.469" x2="159.531" y2="-3628.469"/>
	<line fill="none" stroke="#B35047" x1="191.531" y1="-4140.469" x2="191.531" y2="-3628.469"/>
	<line fill="none" stroke="#B35047" x1="223.531" y1="-4140.469" x2="223.531" y2="-3628.469"/>
	<line fill="none" stroke="#B35047" x1="255.531" y1="-4140.469" x2="255.531" y2="-3628.469"/>
	<line fill="none" stroke="#B35047" x1="287.531" y1="-4140.469" x2="287.531" y2="-3628.469"/>
	<line fill="none" stroke="#B35047" x1="319.531" y1="-4140.469" x2="319.531" y2="-3628.469"/>
	<line fill="none" stroke="#B35047" x1="351.531" y1="-4140.469" x2="351.531" y2="-3628.469"/>
	<line fill="none" stroke="#B35047" x1="383.531" y1="-4140.469" x2="383.531" y2="-3628.469"/>
	<line fill="none" stroke="#B35047" x1="415.531" y1="-4140.469" x2="415.531" y2="-3628.469"/>
	<line fill="none" stroke="#B35047" x1="447.531" y1="-4140.469" x2="447.531" y2="-3628.469"/>
	<line fill="none" stroke="#B35047" x1="479.531" y1="-4140.469" x2="479.531" y2="-3628.469"/>
	<line fill="none" stroke="#B35047" x1="-0.469" y1="-4108.469" x2="511.531" y2="-4108.469"/>
	<line fill="none" stroke="#B35047" x1="-0.469" y1="-4076.469" x2="511.531" y2="-4076.469"/>
	<line fill="none" stroke="#B35047" x1="-0.469" y1="-4044.469" x2="511.531" y2="-4044.469"/>
	<line fill="none" stroke="#B35047" x1="-0.469" y1="-4012.469" x2="511.531" y2="-4012.469"/>
	<line fill="none" stroke="#B35047" x1="-0.469" y1="-3980.469" x2="511.531" y2="-3980.469"/>
	<line fill="none" stroke="#B35047" x1="-0.469" y1="-3948.469" x2="511.531" y2="-3948.469"/>
	<line fill="none" stroke="#B35047" x1="-0.469" y1="-3916.469" x2="511.531" y2="-3916.469"/>
	<line fill="none" stroke="#B35047" x1="-0.469" y1="-3884.469" x2="511.531" y2="-3884.469"/>
	<line fill="none" stroke="#B35047" x1="-0.469" y1="-3852.469" x2="511.531" y2="-3852.469"/>
	<line fill="none" stroke="#B35047" x1="-0.469" y1="-3820.469" x2="511.531" y2="-3820.469"/>
	<line fill="none" stroke="#B35047" x1="-0.469" y1="-3788.469" x2="511.531" y2="-3788.469"/>
	<line fill="none" stroke="#B35047" x1="-0.469" y1="-3756.469" x2="511.531" y2="-3756.469"/>
	<line fill="none" stroke="#B35047" x1="-0.469" y1="-3724.469" x2="511.531" y2="-3724.469"/>
	<line fill="none" stroke="#B35047" x1="-0.469" y1="-3692.469" x2="511.531" y2="-3692.469"/>
	<line fill="none" stroke="#B35047" x1="-0.469" y1="-3660.469" x2="511.531" y2="-3660.469"/>
	<rect x="-0.469" y="-4140.469" fill="none" stroke="#B35047" width="512" height="512"/>
</g>
<g>
	<path d="M265.858-3660.5c57.786,0,113.817-11.306,166.538-33.604c9.058-3.831,17.944-7.97,26.668-12.387v-9.363
		c0-58.456-120.864-111.764-153.229-116.915c-10.05-1.598-10.278-29.229-10.278-29.229s29.525-29.227,35.961-68.531
		c17.309,0,28.002-41.784,10.689-56.486c0.724-15.475,22.25-121.486-86.737-121.486c-108.988,0-87.458,106.011-86.738,121.486
		c-17.311,14.702-6.622,56.486,10.69,56.486c6.432,39.305,35.958,68.531,35.958,68.531s-0.229,27.63-10.277,29.229
		c-32.021,5.094-150.663,57.337-153.167,115.063c15.237,8.805,31.042,16.688,47.388,23.602
		C152.042-3671.806,208.073-3660.5,265.858-3660.5z"/>
</g>
</svg>
