<?xml version="1.0" encoding="utf-8"?>
<!-- Generator: Adobe Illustrator 16.0.4, SVG Export Plug-In . SVG Version: 6.00 Build 0)  -->
<!DOCTYPE svg PUBLIC "-//W3C//DTD SVG 1.1//EN" "http://www.w3.org/Graphics/SVG/1.1/DTD/svg11.dtd">
<svg version="1.1" id="Layer_1" xmlns="http://www.w3.org/2000/svg" xmlns:xlink="http://www.w3.org/1999/xlink" x="0px" y="0px"
	 width="512px" height="512px" viewBox="-552.5 -4140.5 512 512" enable-background="new -552.5 -4140.5 512 512"
	 xml:space="preserve">
<g>
	<line fill="none" stroke="#B35047" x1="-520.469" y1="-4140.469" x2="-520.469" y2="-3628.469"/>
	<line fill="none" stroke="#B35047" x1="-488.469" y1="-4140.469" x2="-488.469" y2="-3628.469"/>
	<line fill="none" stroke="#B35047" x1="-456.469" y1="-4140.469" x2="-456.469" y2="-3628.469"/>
	<line fill="none" stroke="#B35047" x1="-424.469" y1="-4140.469" x2="-424.469" y2="-3628.469"/>
	<line fill="none" stroke="#B35047" x1="-392.469" y1="-4140.469" x2="-392.469" y2="-3628.469"/>
	<line fill="none" stroke="#B35047" x1="-360.469" y1="-4140.469" x2="-360.469" y2="-3628.469"/>
	<line fill="none" stroke="#B35047" x1="-328.469" y1="-4140.469" x2="-328.469" y2="-3628.469"/>
	<line fill="none" stroke="#B35047" x1="-296.469" y1="-4140.469" x2="-296.469" y2="-3628.469"/>
	<line fill="none" stroke="#B35047" x1="-264.469" y1="-4140.469" x2="-264.469" y2="-3628.469"/>
	<line fill="none" stroke="#B35047" x1="-232.469" y1="-4140.469" x2="-232.469" y2="-3628.469"/>
	<line fill="none" stroke="#B35047" x1="-200.469" y1="-4140.469" x2="-200.469" y2="-3628.469"/>
	<line fill="none" stroke="#B35047" x1="-168.469" y1="-4140.469" x2="-168.469" y2="-3628.469"/>
	<line fill="none" stroke="#B35047" x1="-136.469" y1="-4140.469" x2="-136.469" y2="-3628.469"/>
	<line fill="none" stroke="#B35047" x1="-104.469" y1="-4140.469" x2="-104.469" y2="-3628.469"/>
	<line fill="none" stroke="#B35047" x1="-72.469" y1="-4140.469" x2="-72.469" y2="-3628.469"/>
	<line fill="none" stroke="#B35047" x1="-552.469" y1="-4108.469" x2="-40.469" y2="-4108.469"/>
	<line fill="none" stroke="#B35047" x1="-552.469" y1="-4076.469" x2="-40.469" y2="-4076.469"/>
	<line fill="none" stroke="#B35047" x1="-552.469" y1="-4044.469" x2="-40.469" y2="-4044.469"/>
	<line fill="none" stroke="#B35047" x1="-552.469" y1="-4012.469" x2="-40.469" y2="-4012.469"/>
	<line fill="none" stroke="#B35047" x1="-552.469" y1="-3980.469" x2="-40.469" y2="-3980.469"/>
	<line fill="none" stroke="#B35047" x1="-552.469" y1="-3948.469" x2="-40.469" y2="-3948.469"/>
	<line fill="none" stroke="#B35047" x1="-552.469" y1="-3916.469" x2="-40.469" y2="-3916.469"/>
	<line fill="none" stroke="#B35047" x1="-552.469" y1="-3884.469" x2="-40.469" y2="-3884.469"/>
	<line fill="none" stroke="#B35047" x1="-552.469" y1="-3852.469" x2="-40.469" y2="-3852.469"/>
	<line fill="none" stroke="#B35047" x1="-552.469" y1="-3820.469" x2="-40.469" y2="-3820.469"/>
	<line fill="none" stroke="#B35047" x1="-552.469" y1="-3788.469" x2="-40.469" y2="-3788.469"/>
	<line fill="none" stroke="#B35047" x1="-552.469" y1="-3756.469" x2="-40.469" y2="-3756.469"/>
	<line fill="none" stroke="#B35047" x1="-552.469" y1="-3724.469" x2="-40.469" y2="-3724.469"/>
	<line fill="none" stroke="#B35047" x1="-552.469" y1="-3692.469" x2="-40.469" y2="-3692.469"/>
	<line fill="none" stroke="#B35047" x1="-552.469" y1="-3660.469" x2="-40.469" y2="-3660.469"/>
	<rect x="-552.469" y="-4140.469" fill="none" stroke="#B35047" width="512" height="512"/>
</g>
<path fill="#231F20" d="M-296.469-4107.969c-123.712,0-224,100.288-224,224s100.288,224,224,224s224-100.288,224-224
	S-172.757-4107.969-296.469-4107.969z M-164.338-3755.935c-27.693-27.259-77.718-47.931-94.746-50.64
	c-7.459-1.188-7.629-21.695-7.629-21.695s21.916-21.695,26.692-50.869c12.849,0,20.784-31.016,7.935-41.928
	c0.536-11.487,16.519-90.176-64.383-90.176s-64.918,78.688-64.384,90.176c-12.853,10.912-4.915,41.928,7.935,41.928
	c4.776,29.174,26.691,50.869,26.691,50.869s-0.17,20.51-7.628,21.695c-17.028,2.709-67.052,23.381-94.745,50.64
	c-33.466-34.509-51.869-79.853-51.869-128.034c0-49.148,19.139-95.354,53.893-130.107c34.755-34.752,80.959-53.893,130.107-53.893
	s95.354,19.139,130.107,53.893c34.753,34.754,53.893,80.959,53.893,130.107C-112.469-3835.787-130.873-3790.443-164.338-3755.935z"
	/>
</svg>
