<?xml version="1.0" encoding="utf-8"?>
<!-- Generator: Adobe Illustrator 16.0.4, SVG Export Plug-In . SVG Version: 6.00 Build 0)  -->
<!DOCTYPE svg PUBLIC "-//W3C//DTD SVG 1.1//EN" "http://www.w3.org/Graphics/SVG/1.1/DTD/svg11.dtd">
<svg version="1.1" id="Layer_1" xmlns="http://www.w3.org/2000/svg" xmlns:xlink="http://www.w3.org/1999/xlink" x="0px" y="0px"
	 width="512px" height="512px" viewBox="551.5 3587.5 512 512" enable-background="new 551.5 3587.5 512 512" xml:space="preserve">
<g>
	<line fill="none" stroke="#B35047" x1="1063.516" y1="3619.517" x2="551.516" y2="3619.517"/>
	<line fill="none" stroke="#B35047" x1="1063.516" y1="3651.517" x2="551.516" y2="3651.517"/>
	<line fill="none" stroke="#B35047" x1="1063.516" y1="3683.517" x2="551.516" y2="3683.517"/>
	<line fill="none" stroke="#B35047" x1="1063.516" y1="3715.517" x2="551.516" y2="3715.517"/>
	<line fill="none" stroke="#B35047" x1="1063.516" y1="3747.517" x2="551.516" y2="3747.517"/>
	<line fill="none" stroke="#B35047" x1="1063.516" y1="3779.517" x2="551.516" y2="3779.517"/>
	<line fill="none" stroke="#B35047" x1="1063.516" y1="3811.517" x2="551.516" y2="3811.517"/>
	<line fill="none" stroke="#B35047" x1="1063.516" y1="3843.517" x2="551.516" y2="3843.517"/>
	<line fill="none" stroke="#B35047" x1="1063.516" y1="3875.517" x2="551.516" y2="3875.517"/>
	<line fill="none" stroke="#B35047" x1="1063.516" y1="3907.517" x2="551.516" y2="3907.517"/>
	<line fill="none" stroke="#B35047" x1="1063.516" y1="3939.517" x2="551.516" y2="3939.517"/>
	<line fill="none" stroke="#B35047" x1="1063.516" y1="3971.517" x2="551.516" y2="3971.517"/>
	<line fill="none" stroke="#B35047" x1="1063.516" y1="4003.517" x2="551.516" y2="4003.517"/>
	<line fill="none" stroke="#B35047" x1="1063.516" y1="4035.517" x2="551.516" y2="4035.517"/>
	<line fill="none" stroke="#B35047" x1="1063.516" y1="4067.517" x2="551.516" y2="4067.517"/>
	<line fill="none" stroke="#B35047" x1="1031.518" y1="3587.517" x2="1031.518" y2="4099.517"/>
	<line fill="none" stroke="#B35047" x1="999.518" y1="3587.517" x2="999.518" y2="4099.517"/>
	<line fill="none" stroke="#B35047" x1="967.518" y1="3587.517" x2="967.518" y2="4099.517"/>
	<line fill="none" stroke="#B35047" x1="935.518" y1="3587.517" x2="935.518" y2="4099.517"/>
	<line fill="none" stroke="#B35047" x1="903.518" y1="3587.517" x2="903.518" y2="4099.517"/>
	<line fill="none" stroke="#B35047" x1="871.518" y1="3587.517" x2="871.518" y2="4099.517"/>
	<line fill="none" stroke="#B35047" x1="839.518" y1="3587.517" x2="839.518" y2="4099.517"/>
	<line fill="none" stroke="#B35047" x1="807.516" y1="3587.517" x2="807.516" y2="4099.517"/>
	<line fill="none" stroke="#B35047" x1="775.516" y1="3587.517" x2="775.516" y2="4099.517"/>
	<line fill="none" stroke="#B35047" x1="743.516" y1="3587.517" x2="743.516" y2="4099.517"/>
	<line fill="none" stroke="#B35047" x1="711.516" y1="3587.517" x2="711.516" y2="4099.517"/>
	<line fill="none" stroke="#B35047" x1="679.516" y1="3587.517" x2="679.516" y2="4099.517"/>
	<line fill="none" stroke="#B35047" x1="647.516" y1="3587.517" x2="647.516" y2="4099.517"/>
	<line fill="none" stroke="#B35047" x1="615.516" y1="3587.517" x2="615.516" y2="4099.517"/>
	<line fill="none" stroke="#B35047" x1="583.516" y1="3587.517" x2="583.516" y2="4099.517"/>
	<rect x="551.516" y="3587.517" fill="none" stroke="#B35047" width="512" height="512"/>
</g>
<path d="M1014.525,3724.182c-4.778,0-10.287,1.9-16.139,5.906l-94.869,64.947v-75.534c0-10.171-7.596-18.547-17.419-19.815
	c-0.847-0.109-1.704-0.186-2.581-0.186H603.516c-0.877,0-1.734,0.076-2.581,0.186c-9.823,1.269-17.419,9.645-17.419,19.814v248
	c0,0.001,0,0.001,0,0.001c0,11.046,8.955,20,20,20h280.002c6.904,0,12.99-3.499,16.584-8.819c0.051-0.074,0.092-0.154,0.141-0.229
	c0.306-0.461,0.6-0.931,0.861-1.418c0.023-0.041,0.04-0.086,0.062-0.127c1.497-2.806,2.352-6.005,2.352-9.405c0,0,0,0,0-0.001
	v-75.532l94.869,64.943c5.853,4.006,11.359,5.906,16.139,5.906c10.046,0,16.868-8.403,16.868-23.311v-192.016
	C1031.394,3732.584,1024.572,3724.182,1014.525,3724.182z M863.518,3947.5H623.516v-207.999h240.002V3947.5z M991.394,3903.65
	l-87.864-60.148l87.864-60.151V3903.65z"/>
<path d="M671.844,3919.267c-11.045,0-20-8.953-20-20l0,0c0-11.045,8.955-20,20-20l0,0c11.045,0,20.002,8.955,20.002,20l0,0
	C691.846,3910.313,682.889,3919.267,671.844,3919.267L671.844,3919.267z"/>
</svg>
