<?xml version="1.0" encoding="utf-8"?>
<!-- Generator: Adobe Illustrator 16.0.4, SVG Export Plug-In . SVG Version: 6.00 Build 0)  -->
<!DOCTYPE svg PUBLIC "-//W3C//DTD SVG 1.1//EN" "http://www.w3.org/Graphics/SVG/1.1/DTD/svg11.dtd">
<svg version="1.1" id="Layer_1" xmlns="http://www.w3.org/2000/svg" xmlns:xlink="http://www.w3.org/1999/xlink" x="0px" y="0px"
	 width="512px" height="512px" viewBox="1103.5 4139.5 512 512" enable-background="new 1103.5 4139.5 512 512"
	 xml:space="preserve">
<g>
	<line fill="none" stroke="#B35047" x1="1135.516" y1="4139.516" x2="1135.516" y2="4651.516"/>
	<line fill="none" stroke="#B35047" x1="1167.516" y1="4139.516" x2="1167.516" y2="4651.516"/>
	<line fill="none" stroke="#B35047" x1="1199.516" y1="4139.516" x2="1199.516" y2="4651.516"/>
	<line fill="none" stroke="#B35047" x1="1231.516" y1="4139.516" x2="1231.516" y2="4651.516"/>
	<line fill="none" stroke="#B35047" x1="1263.516" y1="4139.516" x2="1263.516" y2="4651.516"/>
	<line fill="none" stroke="#B35047" x1="1295.516" y1="4139.516" x2="1295.516" y2="4651.516"/>
	<line fill="none" stroke="#B35047" x1="1327.516" y1="4139.516" x2="1327.516" y2="4651.516"/>
	<line fill="none" stroke="#B35047" x1="1359.516" y1="4139.516" x2="1359.516" y2="4651.516"/>
	<line fill="none" stroke="#B35047" x1="1391.516" y1="4139.516" x2="1391.516" y2="4651.516"/>
	<line fill="none" stroke="#B35047" x1="1423.516" y1="4139.516" x2="1423.516" y2="4651.516"/>
	<line fill="none" stroke="#B35047" x1="1455.516" y1="4139.516" x2="1455.516" y2="4651.516"/>
	<line fill="none" stroke="#B35047" x1="1487.516" y1="4139.516" x2="1487.516" y2="4651.516"/>
	<line fill="none" stroke="#B35047" x1="1519.516" y1="4139.516" x2="1519.516" y2="4651.516"/>
	<line fill="none" stroke="#B35047" x1="1551.516" y1="4139.516" x2="1551.516" y2="4651.516"/>
	<line fill="none" stroke="#B35047" x1="1583.516" y1="4139.516" x2="1583.516" y2="4651.516"/>
	<line fill="none" stroke="#B35047" x1="1103.516" y1="4171.516" x2="1615.516" y2="4171.516"/>
	<line fill="none" stroke="#B35047" x1="1103.516" y1="4203.516" x2="1615.516" y2="4203.516"/>
	<line fill="none" stroke="#B35047" x1="1103.516" y1="4235.516" x2="1615.516" y2="4235.516"/>
	<line fill="none" stroke="#B35047" x1="1103.516" y1="4267.516" x2="1615.516" y2="4267.516"/>
	<line fill="none" stroke="#B35047" x1="1103.516" y1="4299.516" x2="1615.516" y2="4299.516"/>
	<line fill="none" stroke="#B35047" x1="1103.516" y1="4331.516" x2="1615.516" y2="4331.516"/>
	<line fill="none" stroke="#B35047" x1="1103.516" y1="4363.516" x2="1615.516" y2="4363.516"/>
	<line fill="none" stroke="#B35047" x1="1103.516" y1="4395.516" x2="1615.516" y2="4395.516"/>
	<line fill="none" stroke="#B35047" x1="1103.516" y1="4427.516" x2="1615.516" y2="4427.516"/>
	<line fill="none" stroke="#B35047" x1="1103.516" y1="4459.516" x2="1615.516" y2="4459.516"/>
	<line fill="none" stroke="#B35047" x1="1103.516" y1="4491.516" x2="1615.516" y2="4491.516"/>
	<line fill="none" stroke="#B35047" x1="1103.516" y1="4523.516" x2="1615.516" y2="4523.516"/>
	<line fill="none" stroke="#B35047" x1="1103.516" y1="4555.516" x2="1615.516" y2="4555.516"/>
	<line fill="none" stroke="#B35047" x1="1103.516" y1="4587.516" x2="1615.516" y2="4587.516"/>
	<line fill="none" stroke="#B35047" x1="1103.516" y1="4619.516" x2="1615.516" y2="4619.516"/>
	<rect x="1103.516" y="4139.516" fill="none" stroke="#B35047" width="512" height="512"/>
</g>
<path d="M1455.505,4395.494c0-6.166-2.519-10.679-7.521-13.496l-127.991-79.995c-5.172-3.333-10.589-3.499-16.255-0.504
	c-5.494,2.992-8.246,7.656-8.246,14.001v160c0,6.345,2.752,11.009,8.246,14.001c2.666,1.339,5.258,1.998,7.753,1.998
	c3.334,0,6.167-0.822,8.502-2.49l127.991-80.007c5.002-2.845,7.521-7.342,7.521-13.496V4395.494z M1583.5,4395.494
	c0,15.995-0.082,28.49-0.244,37.516c-0.167,8.995-0.877,20.369-2.135,34.125c-1.258,13.752-3.131,26.029-5.635,36.871
	c-2.666,12.169-8.42,22.425-17.252,30.748c-8.82,8.315-19.153,13.154-30.98,14.494c-36.996,4.171-92.912,6.263-167.754,6.263
	c-74.834,0-130.75-2.092-167.75-6.263c-11.831-1.328-22.207-6.151-31.121-14.494c-8.917-8.339-14.706-18.591-17.372-30.748
	c-2.336-10.842-4.129-23.119-5.378-36.871c-1.254-13.756-1.964-25.13-2.127-34.125c-0.171-9.025-0.252-21.521-0.252-37.516
	c0-15.999,0.081-28.505,0.252-37.504c0.163-9.011,0.873-20.384,2.127-34.14c1.249-13.737,3.131-26.041,5.626-36.872
	c2.67-12.168,8.421-22.421,17.252-30.748c8.824-8.327,19.162-13.166,30.993-14.505c37-4.156,92.916-6.236,167.75-6.236
	c74.842,0,130.758,2.08,167.754,6.236c11.827,1.339,22.203,6.178,31.116,14.505c8.913,8.339,14.711,18.58,17.365,30.748
	c2.351,10.831,4.128,23.135,5.386,36.872c1.258,13.756,1.968,25.129,2.135,34.14C1583.418,4366.989,1583.5,4379.495,1583.5,4395.494
	z"/>
</svg>
