<?xml version="1.0" encoding="utf-8"?>
<!-- Generator: Adobe Illustrator 16.0.4, SVG Export Plug-In . SVG Version: 6.00 Build 0)  -->
<!DOCTYPE svg PUBLIC "-//W3C//DTD SVG 1.1//EN" "http://www.w3.org/Graphics/SVG/1.1/DTD/svg11.dtd">
<svg version="1.1" id="Layer_1" xmlns="http://www.w3.org/2000/svg" xmlns:xlink="http://www.w3.org/1999/xlink" x="0px" y="0px"
	 width="512px" height="512px" viewBox="-1104.5 -3036.5 512 512" enable-background="new -1104.5 -3036.5 512 512"
	 xml:space="preserve">
<g>
	<line fill="none" stroke="#B35047" x1="-1072.5" y1="-3036.501" x2="-1072.5" y2="-2524.5"/>
	<line fill="none" stroke="#B35047" x1="-1040.5" y1="-3036.501" x2="-1040.5" y2="-2524.5"/>
	<line fill="none" stroke="#B35047" x1="-1008.5" y1="-3036.501" x2="-1008.5" y2="-2524.5"/>
	<line fill="none" stroke="#B35047" x1="-976.5" y1="-3036.501" x2="-976.5" y2="-2524.5"/>
	<line fill="none" stroke="#B35047" x1="-944.5" y1="-3036.501" x2="-944.5" y2="-2524.5"/>
	<line fill="none" stroke="#B35047" x1="-912.5" y1="-3036.501" x2="-912.5" y2="-2524.5"/>
	<line fill="none" stroke="#B35047" x1="-880.5" y1="-3036.501" x2="-880.5" y2="-2524.5"/>
	<line fill="none" stroke="#B35047" x1="-848.5" y1="-3036.501" x2="-848.5" y2="-2524.5"/>
	<line fill="none" stroke="#B35047" x1="-816.5" y1="-3036.501" x2="-816.5" y2="-2524.5"/>
	<line fill="none" stroke="#B35047" x1="-784.5" y1="-3036.501" x2="-784.5" y2="-2524.5"/>
	<line fill="none" stroke="#B35047" x1="-752.5" y1="-3036.501" x2="-752.5" y2="-2524.5"/>
	<line fill="none" stroke="#B35047" x1="-720.5" y1="-3036.501" x2="-720.5" y2="-2524.5"/>
	<line fill="none" stroke="#B35047" x1="-688.5" y1="-3036.501" x2="-688.5" y2="-2524.5"/>
	<line fill="none" stroke="#B35047" x1="-656.5" y1="-3036.501" x2="-656.5" y2="-2524.5"/>
	<line fill="none" stroke="#B35047" x1="-624.5" y1="-3036.501" x2="-624.5" y2="-2524.5"/>
	<line fill="none" stroke="#B35047" x1="-1104.5" y1="-3004.501" x2="-592.5" y2="-3004.501"/>
	<line fill="none" stroke="#B35047" x1="-1104.5" y1="-2972.501" x2="-592.5" y2="-2972.501"/>
	<line fill="none" stroke="#B35047" x1="-1104.5" y1="-2940.501" x2="-592.5" y2="-2940.501"/>
	<line fill="none" stroke="#B35047" x1="-1104.5" y1="-2908.501" x2="-592.5" y2="-2908.501"/>
	<line fill="none" stroke="#B35047" x1="-1104.5" y1="-2876.501" x2="-592.5" y2="-2876.501"/>
	<line fill="none" stroke="#B35047" x1="-1104.5" y1="-2844.501" x2="-592.5" y2="-2844.501"/>
	<line fill="none" stroke="#B35047" x1="-1104.5" y1="-2812.501" x2="-592.5" y2="-2812.501"/>
	<line fill="none" stroke="#B35047" x1="-1104.5" y1="-2780.5" x2="-592.5" y2="-2780.5"/>
	<line fill="none" stroke="#B35047" x1="-1104.5" y1="-2748.5" x2="-592.5" y2="-2748.5"/>
	<line fill="none" stroke="#B35047" x1="-1104.5" y1="-2716.5" x2="-592.5" y2="-2716.5"/>
	<line fill="none" stroke="#B35047" x1="-1104.5" y1="-2684.5" x2="-592.5" y2="-2684.5"/>
	<line fill="none" stroke="#B35047" x1="-1104.5" y1="-2652.5" x2="-592.5" y2="-2652.5"/>
	<line fill="none" stroke="#B35047" x1="-1104.5" y1="-2620.5" x2="-592.5" y2="-2620.5"/>
	<line fill="none" stroke="#B35047" x1="-1104.5" y1="-2588.5" x2="-592.5" y2="-2588.5"/>
	<line fill="none" stroke="#B35047" x1="-1104.5" y1="-2556.5" x2="-592.5" y2="-2556.5"/>
	<rect x="-1104.5" y="-3036.501" fill="none" stroke="#B35047" width="512" height="512.001"/>
</g>
<g>
	<path d="M-848.5-2964.5c49.148,0,95.354,19.14,130.107,53.892c34.753,34.754,53.893,80.961,53.893,130.108
		c0,49.148-19.14,95.354-53.893,130.107c-34.754,34.753-80.959,53.893-130.107,53.893c-49.147,0-95.354-19.14-130.108-53.893
		c-34.752-34.754-53.892-80.959-53.892-130.107c0-49.147,19.14-95.354,53.892-130.108C-943.854-2945.36-897.647-2964.5-848.5-2964.5
		 M-848.5-3004.5c-123.712,0-224,100.288-224,224s100.288,224,224,224s224-100.288,224-224S-724.788-3004.5-848.5-3004.5
		L-848.5-3004.5z"/>
</g>
<path d="M-739.999-2800h-88.004l0-88.004c0.001-11.045-8.953-19.997-19.998-19.997c-11.044,0-19.999,8.954-19.999,19.999V-2800h-88
	c-11.047,0-20,8.954-19.999,20c-0.001,11.045,8.952,19.998,19.998,19.998h88.001V-2672c0,11.047,8.954,20,20,19.999
	c11.045,0.001,19.998-8.952,19.998-19.998l0-88.003l88.006-0.001c11.045,0.001,19.997-8.953,19.997-19.998
	C-720-2791.045-728.954-2800-739.999-2800z"/>
</svg>
