<?xml version="1.0" encoding="utf-8"?>
<!-- Generator: Adobe Illustrator 16.0.4, SVG Export Plug-In . SVG Version: 6.00 Build 0)  -->
<!DOCTYPE svg PUBLIC "-//W3C//DTD SVG 1.1//EN" "http://www.w3.org/Graphics/SVG/1.1/DTD/svg11.dtd">
<svg version="1.1" id="Layer_1" xmlns="http://www.w3.org/2000/svg" xmlns:xlink="http://www.w3.org/1999/xlink" x="0px" y="0px"
	 width="512px" height="512px" viewBox="551.5 4711.822 512 512" enable-background="new 551.5 4711.822 512 512"
	 xml:space="preserve">
<g>
	<line fill="none" stroke="#B35047" x1="583.516" y1="4711.838" x2="583.516" y2="5223.838"/>
	<line fill="none" stroke="#B35047" x1="615.516" y1="4711.838" x2="615.516" y2="5223.838"/>
	<line fill="none" stroke="#B35047" x1="647.516" y1="4711.838" x2="647.516" y2="5223.838"/>
	<line fill="none" stroke="#B35047" x1="679.516" y1="4711.838" x2="679.516" y2="5223.838"/>
	<line fill="none" stroke="#B35047" x1="711.516" y1="4711.838" x2="711.516" y2="5223.838"/>
	<line fill="none" stroke="#B35047" x1="743.516" y1="4711.838" x2="743.516" y2="5223.838"/>
	<line fill="none" stroke="#B35047" x1="775.516" y1="4711.838" x2="775.516" y2="5223.838"/>
	<line fill="none" stroke="#B35047" x1="807.516" y1="4711.838" x2="807.516" y2="5223.838"/>
	<line fill="none" stroke="#B35047" x1="839.516" y1="4711.838" x2="839.516" y2="5223.838"/>
	<line fill="none" stroke="#B35047" x1="871.516" y1="4711.838" x2="871.516" y2="5223.838"/>
	<line fill="none" stroke="#B35047" x1="903.516" y1="4711.838" x2="903.516" y2="5223.838"/>
	<line fill="none" stroke="#B35047" x1="935.516" y1="4711.838" x2="935.516" y2="5223.838"/>
	<line fill="none" stroke="#B35047" x1="967.516" y1="4711.838" x2="967.516" y2="5223.838"/>
	<line fill="none" stroke="#B35047" x1="999.516" y1="4711.838" x2="999.516" y2="5223.838"/>
	<line fill="none" stroke="#B35047" x1="1031.516" y1="4711.838" x2="1031.516" y2="5223.838"/>
	<line fill="none" stroke="#B35047" x1="551.516" y1="4743.838" x2="1063.516" y2="4743.838"/>
	<line fill="none" stroke="#B35047" x1="551.516" y1="4775.838" x2="1063.516" y2="4775.838"/>
	<line fill="none" stroke="#B35047" x1="551.516" y1="4807.838" x2="1063.516" y2="4807.838"/>
	<line fill="none" stroke="#B35047" x1="551.516" y1="4839.838" x2="1063.516" y2="4839.838"/>
	<line fill="none" stroke="#B35047" x1="551.516" y1="4871.838" x2="1063.516" y2="4871.838"/>
	<line fill="none" stroke="#B35047" x1="551.516" y1="4903.838" x2="1063.516" y2="4903.838"/>
	<line fill="none" stroke="#B35047" x1="551.516" y1="4935.838" x2="1063.516" y2="4935.838"/>
	<line fill="none" stroke="#B35047" x1="551.516" y1="4967.838" x2="1063.516" y2="4967.838"/>
	<line fill="none" stroke="#B35047" x1="551.516" y1="4999.838" x2="1063.516" y2="4999.838"/>
	<line fill="none" stroke="#B35047" x1="551.516" y1="5031.838" x2="1063.516" y2="5031.838"/>
	<line fill="none" stroke="#B35047" x1="551.516" y1="5063.838" x2="1063.516" y2="5063.838"/>
	<line fill="none" stroke="#B35047" x1="551.516" y1="5095.838" x2="1063.516" y2="5095.838"/>
	<line fill="none" stroke="#B35047" x1="551.516" y1="5127.838" x2="1063.516" y2="5127.838"/>
	<line fill="none" stroke="#B35047" x1="551.516" y1="5159.838" x2="1063.516" y2="5159.838"/>
	<line fill="none" stroke="#B35047" x1="551.516" y1="5191.838" x2="1063.516" y2="5191.838"/>
	<rect x="551.516" y="4711.838" fill="none" stroke="#B35047" width="512" height="512"/>
</g>
<path d="M1011.298,5135.589h-44.207V4901.73h44.375v-0.022c6.844-0.066,13.479-3.625,17.147-9.98
	c5.522-9.565,2.245-21.798-7.321-27.32L817.34,4746.571c-0.22-0.127-0.447-0.225-0.67-0.342c-0.271-0.145-0.542-0.289-0.819-0.42
	c-0.348-0.164-0.7-0.31-1.054-0.452c-0.239-0.097-0.477-0.194-0.72-0.28c-0.39-0.141-0.782-0.262-1.176-0.377
	c-0.221-0.063-0.439-0.128-0.662-0.185c-0.404-0.103-0.809-0.188-1.215-0.264c-0.234-0.044-0.467-0.087-0.702-0.123
	c-0.384-0.058-0.767-0.102-1.151-0.137c-0.277-0.026-0.554-0.048-0.832-0.062c-0.336-0.017-0.67-0.022-1.006-0.022
	c-0.335,0-0.669,0.006-1.005,0.022c-0.278,0.015-0.555,0.036-0.832,0.062c-0.385,0.035-0.768,0.079-1.151,0.137
	c-0.234,0.036-0.469,0.079-0.701,0.123c-0.407,0.076-0.812,0.161-1.216,0.264c-0.222,0.057-0.441,0.121-0.661,0.185
	c-0.395,0.115-0.787,0.236-1.178,0.377c-0.242,0.086-0.479,0.184-0.719,0.28c-0.354,0.143-0.705,0.288-1.055,0.452
	c-0.277,0.131-0.547,0.275-0.818,0.42c-0.223,0.117-0.45,0.215-0.67,0.342l-203.953,117.836c-9.564,5.522-12.843,17.755-7.32,27.32
	c3.67,6.355,10.303,9.914,17.146,9.98v0.022h44.921v233.858h-44.737c-11.045,0-20,8.955-20,20s8.955,20,20,20h64.138
	c0.201,0.006,0.397,0.03,0.6,0.03s0.398-0.024,0.6-0.03h91.801c0.201,0.006,0.397,0.03,0.6,0.03s0.398-0.024,0.6-0.03h91.801
	c0.201,0.006,0.397,0.03,0.6,0.03s0.398-0.024,0.6-0.03h156.577c11.049,0,20-8.955,20-20
	C1031.298,5144.542,1022.344,5135.589,1011.298,5135.589z M927.091,5135.589h-52.97V4901.73h52.97V5135.589z M677.965,4861.73
	l129.368-74.743l129.369,74.743H677.965z M834.121,4901.73v233.858h-53V4901.73H834.121z M688.121,4901.73h53v233.858h-53V4901.73z"
	/>
</svg>
