<?xml version="1.0" encoding="utf-8"?>
<!-- Generator: Adobe Illustrator 16.0.4, SVG Export Plug-In . SVG Version: 6.00 Build 0)  -->
<!DOCTYPE svg PUBLIC "-//W3C//DTD SVG 1.1//EN" "http://www.w3.org/Graphics/SVG/1.1/DTD/svg11.dtd">
<svg version="1.1" id="Layer_1" xmlns="http://www.w3.org/2000/svg" xmlns:xlink="http://www.w3.org/1999/xlink" x="0px" y="0px"
	 width="512px" height="512px" viewBox="-0.5 -276.5 512 512" enable-background="new -0.5 -276.5 512 512" xml:space="preserve">
<g>
	<line fill="none" stroke="#B35047" x1="512" y1="-244" x2="0" y2="-244"/>
	<line fill="none" stroke="#B35047" x1="512" y1="-212" x2="0" y2="-212"/>
	<line fill="none" stroke="#B35047" x1="512" y1="-180" x2="0" y2="-180"/>
	<line fill="none" stroke="#B35047" x1="512" y1="-148" x2="0" y2="-148"/>
	<line fill="none" stroke="#B35047" x1="512" y1="-116" x2="0" y2="-116"/>
	<line fill="none" stroke="#B35047" x1="512" y1="-84" x2="0" y2="-84"/>
	<line fill="none" stroke="#B35047" x1="512" y1="-52" x2="0" y2="-52"/>
	<line fill="none" stroke="#B35047" x1="512" y1="-20" x2="0" y2="-20"/>
	<line fill="none" stroke="#B35047" x1="512" y1="12" x2="0" y2="12"/>
	<line fill="none" stroke="#B35047" x1="512" y1="44" x2="0" y2="44"/>
	<line fill="none" stroke="#B35047" x1="512" y1="76" x2="0" y2="76"/>
	<line fill="none" stroke="#B35047" x1="512" y1="108" x2="0" y2="108"/>
	<line fill="none" stroke="#B35047" x1="512" y1="140" x2="0" y2="140"/>
	<line fill="none" stroke="#B35047" x1="512" y1="172" x2="0" y2="172"/>
	<line fill="none" stroke="#B35047" x1="512" y1="204" x2="0" y2="204"/>
	<line fill="none" stroke="#B35047" x1="480" y1="-276" x2="480" y2="236"/>
	<line fill="none" stroke="#B35047" x1="448" y1="-276" x2="448" y2="236"/>
	<line fill="none" stroke="#B35047" x1="416" y1="-276" x2="416" y2="236"/>
	<line fill="none" stroke="#B35047" x1="384" y1="-276" x2="384" y2="236"/>
	<line fill="none" stroke="#B35047" x1="352" y1="-276" x2="352" y2="236"/>
	<line fill="none" stroke="#B35047" x1="320" y1="-276" x2="320" y2="236"/>
	<line fill="none" stroke="#B35047" x1="288" y1="-276" x2="288" y2="236"/>
	<line fill="none" stroke="#B35047" x1="256" y1="-276" x2="256" y2="236"/>
	<line fill="none" stroke="#B35047" x1="224" y1="-276" x2="224" y2="236"/>
	<line fill="none" stroke="#B35047" x1="192" y1="-276" x2="192" y2="236"/>
	<line fill="none" stroke="#B35047" x1="160" y1="-276" x2="160" y2="236"/>
	<line fill="none" stroke="#B35047" x1="128" y1="-276" x2="128" y2="236"/>
	<line fill="none" stroke="#B35047" x1="96" y1="-276" x2="96" y2="236"/>
	<line fill="none" stroke="#B35047" x1="64" y1="-276" x2="64" y2="236"/>
	<line fill="none" stroke="#B35047" x1="32" y1="-276" x2="32" y2="236"/>
	<rect y="-276" fill="none" stroke="#B35047" width="512" height="512"/>
</g>
<path d="M128.465-20.512c0-5.118,1.951-10.235,5.855-14.141l172.049-172.079c7.811-7.812,20.473-7.812,28.285-0.003
	c7.811,7.811,7.812,20.474,0.002,28.284L176.746-20.512L334.68,137.449c7.809,7.812,7.809,20.476-0.002,28.284
	c-7.811,7.81-20.475,7.809-28.285-0.003L134.32-6.372C130.416-10.277,128.465-15.394,128.465-20.512z"/>
</svg>
