<?xml version="1.0" encoding="utf-8"?>
<!-- Generator: Adobe Illustrator 16.0.4, SVG Export Plug-In . SVG Version: 6.00 Build 0)  -->
<!DOCTYPE svg PUBLIC "-//W3C//DTD SVG 1.1//EN" "http://www.w3.org/Graphics/SVG/1.1/DTD/svg11.dtd">
<svg version="1.1" id="Layer_1" xmlns="http://www.w3.org/2000/svg" xmlns:xlink="http://www.w3.org/1999/xlink" x="0px" y="0px"
	 width="512px" height="512px" viewBox="-552.5 -276.5 512 512" enable-background="new -552.5 -276.5 512 512"
	 xml:space="preserve">
<g>
	<line fill="none" stroke="#B35047" x1="-552" y1="204" x2="-40" y2="204"/>
	<line fill="none" stroke="#B35047" x1="-552" y1="172" x2="-40" y2="172"/>
	<line fill="none" stroke="#B35047" x1="-552" y1="140" x2="-40" y2="140"/>
	<line fill="none" stroke="#B35047" x1="-552" y1="108" x2="-40" y2="108"/>
	<line fill="none" stroke="#B35047" x1="-552" y1="76" x2="-40" y2="76"/>
	<line fill="none" stroke="#B35047" x1="-552" y1="44" x2="-40" y2="44"/>
	<line fill="none" stroke="#B35047" x1="-552" y1="12" x2="-40" y2="12"/>
	<line fill="none" stroke="#B35047" x1="-552" y1="-20" x2="-40" y2="-20"/>
	<line fill="none" stroke="#B35047" x1="-552" y1="-52" x2="-40" y2="-52"/>
	<line fill="none" stroke="#B35047" x1="-552" y1="-84" x2="-40" y2="-84"/>
	<line fill="none" stroke="#B35047" x1="-552" y1="-116" x2="-40" y2="-116"/>
	<line fill="none" stroke="#B35047" x1="-552" y1="-148" x2="-40" y2="-148"/>
	<line fill="none" stroke="#B35047" x1="-552" y1="-180" x2="-40" y2="-180"/>
	<line fill="none" stroke="#B35047" x1="-552" y1="-212" x2="-40" y2="-212"/>
	<line fill="none" stroke="#B35047" x1="-552" y1="-244" x2="-40" y2="-244"/>
	<line fill="none" stroke="#B35047" x1="-520" y1="236" x2="-520" y2="-276"/>
	<line fill="none" stroke="#B35047" x1="-488" y1="236" x2="-488" y2="-276"/>
	<line fill="none" stroke="#B35047" x1="-456" y1="236" x2="-456" y2="-276"/>
	<line fill="none" stroke="#B35047" x1="-424" y1="236" x2="-424" y2="-276"/>
	<line fill="none" stroke="#B35047" x1="-392" y1="236" x2="-392" y2="-276"/>
	<line fill="none" stroke="#B35047" x1="-360" y1="236" x2="-360" y2="-276"/>
	<line fill="none" stroke="#B35047" x1="-328" y1="236" x2="-328" y2="-276"/>
	<line fill="none" stroke="#B35047" x1="-296" y1="236" x2="-296" y2="-276"/>
	<line fill="none" stroke="#B35047" x1="-264" y1="236" x2="-264" y2="-276"/>
	<line fill="none" stroke="#B35047" x1="-232" y1="236" x2="-232" y2="-276"/>
	<line fill="none" stroke="#B35047" x1="-200" y1="236" x2="-200" y2="-276"/>
	<line fill="none" stroke="#B35047" x1="-168" y1="236" x2="-168" y2="-276"/>
	<line fill="none" stroke="#B35047" x1="-136" y1="236" x2="-136" y2="-276"/>
	<line fill="none" stroke="#B35047" x1="-104" y1="236" x2="-104" y2="-276"/>
	<line fill="none" stroke="#B35047" x1="-72" y1="236" x2="-72" y2="-276"/>
	<rect x="-552" y="-276" fill="none" stroke="#B35047" width="512" height="512"/>
</g>
<path d="M-168.464-19.489c0,5.118-1.952,10.235-5.856,14.141L-346.369,166.73c-7.81,7.812-20.473,7.812-28.284,0.003
	c-7.811-7.811-7.812-20.474-0.003-28.284l157.91-157.938L-374.68-177.45c-7.809-7.812-7.809-20.476,0.002-28.284
	c7.812-7.81,20.475-7.809,28.285,0.003L-174.32-33.629C-170.416-29.724-168.464-24.607-168.464-19.489z"/>
</svg>
