<?xml version="1.0" encoding="utf-8"?>
<!-- Generator: Adobe Illustrator 16.0.4, SVG Export Plug-In . SVG Version: 6.00 Build 0)  -->
<!DOCTYPE svg PUBLIC "-//W3C//DTD SVG 1.1//EN" "http://www.w3.org/Graphics/SVG/1.1/DTD/svg11.dtd">
<svg version="1.1" id="Layer_1" xmlns="http://www.w3.org/2000/svg" xmlns:xlink="http://www.w3.org/1999/xlink" x="0px" y="0px"
	 width="512px" height="512px" viewBox="-552.5 5856.484 512 512" enable-background="new -552.5 5856.484 512 512"
	 xml:space="preserve">
<g>
	<line fill="none" stroke="#B35047" x1="-520.5" y1="5856.484" x2="-520.5" y2="6368.484"/>
	<line fill="none" stroke="#B35047" x1="-488.5" y1="5856.484" x2="-488.5" y2="6368.484"/>
	<line fill="none" stroke="#B35047" x1="-456.5" y1="5856.484" x2="-456.5" y2="6368.484"/>
	<line fill="none" stroke="#B35047" x1="-424.5" y1="5856.484" x2="-424.5" y2="6368.484"/>
	<line fill="none" stroke="#B35047" x1="-392.5" y1="5856.484" x2="-392.5" y2="6368.484"/>
	<line fill="none" stroke="#B35047" x1="-360.5" y1="5856.484" x2="-360.5" y2="6368.484"/>
	<line fill="none" stroke="#B35047" x1="-328.5" y1="5856.484" x2="-328.5" y2="6368.484"/>
	<line fill="none" stroke="#B35047" x1="-296.5" y1="5856.484" x2="-296.5" y2="6368.484"/>
	<line fill="none" stroke="#B35047" x1="-264.5" y1="5856.484" x2="-264.5" y2="6368.484"/>
	<line fill="none" stroke="#B35047" x1="-232.5" y1="5856.484" x2="-232.5" y2="6368.484"/>
	<line fill="none" stroke="#B35047" x1="-200.5" y1="5856.484" x2="-200.5" y2="6368.484"/>
	<line fill="none" stroke="#B35047" x1="-168.5" y1="5856.484" x2="-168.5" y2="6368.484"/>
	<line fill="none" stroke="#B35047" x1="-136.5" y1="5856.484" x2="-136.5" y2="6368.484"/>
	<line fill="none" stroke="#B35047" x1="-104.5" y1="5856.484" x2="-104.5" y2="6368.484"/>
	<line fill="none" stroke="#B35047" x1="-72.5" y1="5856.484" x2="-72.5" y2="6368.484"/>
	<line fill="none" stroke="#B35047" x1="-552.5" y1="5888.484" x2="-40.5" y2="5888.484"/>
	<line fill="none" stroke="#B35047" x1="-552.5" y1="5920.484" x2="-40.5" y2="5920.484"/>
	<line fill="none" stroke="#B35047" x1="-552.5" y1="5952.484" x2="-40.5" y2="5952.484"/>
	<line fill="none" stroke="#B35047" x1="-552.5" y1="5984.484" x2="-40.5" y2="5984.484"/>
	<line fill="none" stroke="#B35047" x1="-552.5" y1="6016.484" x2="-40.5" y2="6016.484"/>
	<line fill="none" stroke="#B35047" x1="-552.5" y1="6048.484" x2="-40.5" y2="6048.484"/>
	<line fill="none" stroke="#B35047" x1="-552.5" y1="6080.484" x2="-40.5" y2="6080.484"/>
	<line fill="none" stroke="#B35047" x1="-552.5" y1="6112.484" x2="-40.5" y2="6112.484"/>
	<line fill="none" stroke="#B35047" x1="-552.5" y1="6144.484" x2="-40.5" y2="6144.484"/>
	<line fill="none" stroke="#B35047" x1="-552.5" y1="6176.484" x2="-40.5" y2="6176.484"/>
	<line fill="none" stroke="#B35047" x1="-552.5" y1="6208.484" x2="-40.5" y2="6208.484"/>
	<line fill="none" stroke="#B35047" x1="-552.5" y1="6240.484" x2="-40.5" y2="6240.484"/>
	<line fill="none" stroke="#B35047" x1="-552.5" y1="6272.484" x2="-40.5" y2="6272.484"/>
	<line fill="none" stroke="#B35047" x1="-552.5" y1="6304.484" x2="-40.5" y2="6304.484"/>
	<line fill="none" stroke="#B35047" x1="-552.5" y1="6336.484" x2="-40.5" y2="6336.484"/>
	<rect x="-552.5" y="5856.484" fill="none" stroke="#B35047" width="512" height="512"/>
</g>
<g>
	<path d="M-216.373,6224.286c11.045-0.001,20-8.955,19.998-19.999l0.002-56.009c0-11.047-8.955-20-20-20.001
		c-11.047,0-20.002,8.955-20,20.001v56.008C-236.375,6215.334-227.42,6224.287-216.373,6224.286z"/>
	<path d="M-376.377,6224.286c11.045-0.001,20-8.955,19.998-19.999l0.002-56.009c0-11.047-8.955-20-20-20.001
		c-11.047,0-20.002,8.955-20,20.001v56.008C-396.379,6215.334-387.424,6224.287-376.377,6224.286z"/>
	<path d="M-296.375,6224.286c11.045-0.001,20-8.955,19.998-19.999l0.002-56.009c0-11.047-8.955-20-20-20.001
		c-11.047,0-20.002,8.955-20,20.001v56.008C-316.377,6215.334-307.422,6224.287-296.375,6224.286z"/>
</g>
<path d="M-77.35,6055.196c-3.798-4.343-9.287-6.835-15.057-6.835h-156.642c0.435,2.598,0.673,5.262,0.673,7.983
	c0,12.304-4.635,23.522-12.247,32.017h145.342l-23.659,175.688l-314.954-0.015l-23.751-175.673h145.517
	c-7.612-8.494-12.247-19.713-12.247-32.017c0-2.722,0.238-5.386,0.673-7.983h-156.83c-5.771,0-11.262,2.493-15.06,6.839
	c-3.798,4.347-5.533,10.121-4.76,15.841l25.807,190.871l0.025,0.021c2.916,23.712,23.111,42.079,47.611,42.086l0.027,0.017
	l300.891,0.013l0.017-0.03c0.021,0,0.041,0.001,0.062,0.001c24.707,0,45.045-18.67,47.698-42.668l25.629-190.32
	C-71.815,6065.312-73.552,6059.54-77.35,6055.196z"/>
<path d="M-149.754,5909.154c-7.811-7.811-20.475-7.812-28.286,0.002l-115.342,115.342c-1.026-0.1-2.066-0.153-3.118-0.153
	c-17.673,0-32,14.327-32,32s14.327,32,32,32s32-14.327,32-32c0-1.326-0.09-2.631-0.247-3.915l114.993-114.99
	C-141.943,5929.628-141.946,5916.966-149.754,5909.154z"/>
</svg>
