<?xml version="1.0" encoding="utf-8"?>
<!-- Generator: Adobe Illustrator 16.0.4, SVG Export Plug-In . SVG Version: 6.00 Build 0)  -->
<!DOCTYPE svg PUBLIC "-//W3C//DTD SVG 1.1//EN" "http://www.w3.org/Graphics/SVG/1.1/DTD/svg11.dtd">
<svg version="1.1" id="Layer_1" xmlns="http://www.w3.org/2000/svg" xmlns:xlink="http://www.w3.org/1999/xlink" x="0px" y="0px"
	 width="512px" height="512px" viewBox="-0.5 1931.5 512 512" enable-background="new -0.5 1931.5 512 512" xml:space="preserve">
<g>
	<line fill="none" stroke="#B35047" x1="31.5" y1="1931.5" x2="31.5" y2="2443.5"/>
	<line fill="none" stroke="#B35047" x1="63.5" y1="1931.5" x2="63.5" y2="2443.5"/>
	<line fill="none" stroke="#B35047" x1="95.5" y1="1931.5" x2="95.5" y2="2443.5"/>
	<line fill="none" stroke="#B35047" x1="127.5" y1="1931.5" x2="127.5" y2="2443.5"/>
	<line fill="none" stroke="#B35047" x1="159.5" y1="1931.5" x2="159.5" y2="2443.5"/>
	<line fill="none" stroke="#B35047" x1="191.5" y1="1931.5" x2="191.5" y2="2443.5"/>
	<line fill="none" stroke="#B35047" x1="223.5" y1="1931.5" x2="223.5" y2="2443.5"/>
	<line fill="none" stroke="#B35047" x1="255.5" y1="1931.5" x2="255.5" y2="2443.5"/>
	<line fill="none" stroke="#B35047" x1="287.5" y1="1931.5" x2="287.5" y2="2443.5"/>
	<line fill="none" stroke="#B35047" x1="319.5" y1="1931.5" x2="319.5" y2="2443.5"/>
	<line fill="none" stroke="#B35047" x1="351.5" y1="1931.5" x2="351.5" y2="2443.5"/>
	<line fill="none" stroke="#B35047" x1="383.5" y1="1931.5" x2="383.5" y2="2443.5"/>
	<line fill="none" stroke="#B35047" x1="415.5" y1="1931.5" x2="415.5" y2="2443.5"/>
	<line fill="none" stroke="#B35047" x1="447.5" y1="1931.5" x2="447.5" y2="2443.5"/>
	<line fill="none" stroke="#B35047" x1="479.5" y1="1931.5" x2="479.5" y2="2443.5"/>
	<line fill="none" stroke="#B35047" x1="-0.5" y1="1963.5" x2="511.5" y2="1963.5"/>
	<line fill="none" stroke="#B35047" x1="-0.5" y1="1995.5" x2="511.5" y2="1995.5"/>
	<line fill="none" stroke="#B35047" x1="-0.5" y1="2027.5" x2="511.5" y2="2027.5"/>
	<line fill="none" stroke="#B35047" x1="-0.5" y1="2059.5" x2="511.5" y2="2059.5"/>
	<line fill="none" stroke="#B35047" x1="-0.5" y1="2091.5" x2="511.5" y2="2091.5"/>
	<line fill="none" stroke="#B35047" x1="-0.5" y1="2123.5" x2="511.5" y2="2123.5"/>
	<line fill="none" stroke="#B35047" x1="-0.5" y1="2155.5" x2="511.5" y2="2155.5"/>
	<line fill="none" stroke="#B35047" x1="-0.5" y1="2187.5" x2="511.5" y2="2187.5"/>
	<line fill="none" stroke="#B35047" x1="-0.5" y1="2219.5" x2="511.5" y2="2219.5"/>
	<line fill="none" stroke="#B35047" x1="-0.5" y1="2251.5" x2="511.5" y2="2251.5"/>
	<line fill="none" stroke="#B35047" x1="-0.5" y1="2283.5" x2="511.5" y2="2283.5"/>
	<line fill="none" stroke="#B35047" x1="-0.5" y1="2315.5" x2="511.5" y2="2315.5"/>
	<line fill="none" stroke="#B35047" x1="-0.5" y1="2347.5" x2="511.5" y2="2347.5"/>
	<line fill="none" stroke="#B35047" x1="-0.5" y1="2379.5" x2="511.5" y2="2379.5"/>
	<line fill="none" stroke="#B35047" x1="-0.5" y1="2411.5" x2="511.5" y2="2411.5"/>
	<rect x="-0.5" y="1931.5" fill="none" stroke="#B35047" width="512" height="512"/>
</g>
<path d="M423.82,2326.78l-104.319-180.687v-126.031h12c11.046,0,20-8.954,20-20s-8.954-20-20-20H179.5c-11.046,0-20,8.954-20,20
	s8.954,20,20,20h12v126.033L87.182,2326.78c-22,38.104-4,69.282,40,69.282H383.82C427.82,2396.062,445.82,2364.885,423.82,2326.78z
	 M231.5,2020.062h48.001l-0.035,136.688l31.936,55.314H199.562c17.966-31.134,31.936-55.342,31.938-55.346V2020.062z
	 M383.82,2356.062H127.182c-4.14,0-7.093-0.488-8.984-1c0.502-1.896,1.556-4.697,3.625-8.282c0,0,27.299-47.307,54.659-94.718
	l158.012-0.001l54.687,94.72c2.069,3.584,3.123,6.385,3.625,8.281C390.913,2355.574,387.96,2356.062,383.82,2356.062z"/>
</svg>
