<?xml version="1.0" encoding="utf-8"?>
<!-- Generator: Adobe Illustrator 16.0.4, SVG Export Plug-In . SVG Version: 6.00 Build 0)  -->
<!DOCTYPE svg PUBLIC "-//W3C//DTD SVG 1.1//EN" "http://www.w3.org/Graphics/SVG/1.1/DTD/svg11.dtd">
<svg version="1.1" id="Layer_1" xmlns="http://www.w3.org/2000/svg" xmlns:xlink="http://www.w3.org/1999/xlink" x="0px" y="0px"
	 width="512px" height="512px" viewBox="1103.5 5288.484 512 512" enable-background="new 1103.5 5288.484 512 512"
	 xml:space="preserve">
<g>
	<line fill="none" stroke="#B35047" x1="1135.5" y1="5288.484" x2="1135.5" y2="5800.484"/>
	<line fill="none" stroke="#B35047" x1="1167.5" y1="5288.484" x2="1167.5" y2="5800.484"/>
	<line fill="none" stroke="#B35047" x1="1199.5" y1="5288.484" x2="1199.5" y2="5800.484"/>
	<line fill="none" stroke="#B35047" x1="1231.5" y1="5288.484" x2="1231.5" y2="5800.484"/>
	<line fill="none" stroke="#B35047" x1="1263.5" y1="5288.484" x2="1263.5" y2="5800.484"/>
	<line fill="none" stroke="#B35047" x1="1295.5" y1="5288.484" x2="1295.5" y2="5800.484"/>
	<line fill="none" stroke="#B35047" x1="1327.5" y1="5288.484" x2="1327.5" y2="5800.484"/>
	<line fill="none" stroke="#B35047" x1="1359.5" y1="5288.484" x2="1359.5" y2="5800.484"/>
	<line fill="none" stroke="#B35047" x1="1391.5" y1="5288.484" x2="1391.5" y2="5800.484"/>
	<line fill="none" stroke="#B35047" x1="1423.5" y1="5288.484" x2="1423.5" y2="5800.484"/>
	<line fill="none" stroke="#B35047" x1="1455.5" y1="5288.484" x2="1455.5" y2="5800.484"/>
	<line fill="none" stroke="#B35047" x1="1487.5" y1="5288.484" x2="1487.5" y2="5800.484"/>
	<line fill="none" stroke="#B35047" x1="1519.5" y1="5288.484" x2="1519.5" y2="5800.484"/>
	<line fill="none" stroke="#B35047" x1="1551.5" y1="5288.484" x2="1551.5" y2="5800.484"/>
	<line fill="none" stroke="#B35047" x1="1583.5" y1="5288.484" x2="1583.5" y2="5800.484"/>
	<line fill="none" stroke="#B35047" x1="1103.5" y1="5320.484" x2="1615.5" y2="5320.484"/>
	<line fill="none" stroke="#B35047" x1="1103.5" y1="5352.484" x2="1615.5" y2="5352.484"/>
	<line fill="none" stroke="#B35047" x1="1103.5" y1="5384.484" x2="1615.5" y2="5384.484"/>
	<line fill="none" stroke="#B35047" x1="1103.5" y1="5416.484" x2="1615.5" y2="5416.484"/>
	<line fill="none" stroke="#B35047" x1="1103.5" y1="5448.484" x2="1615.5" y2="5448.484"/>
	<line fill="none" stroke="#B35047" x1="1103.5" y1="5480.484" x2="1615.5" y2="5480.484"/>
	<line fill="none" stroke="#B35047" x1="1103.5" y1="5512.484" x2="1615.5" y2="5512.484"/>
	<line fill="none" stroke="#B35047" x1="1103.5" y1="5544.484" x2="1615.5" y2="5544.484"/>
	<line fill="none" stroke="#B35047" x1="1103.5" y1="5576.484" x2="1615.5" y2="5576.484"/>
	<line fill="none" stroke="#B35047" x1="1103.5" y1="5608.484" x2="1615.5" y2="5608.484"/>
	<line fill="none" stroke="#B35047" x1="1103.5" y1="5640.484" x2="1615.5" y2="5640.484"/>
	<line fill="none" stroke="#B35047" x1="1103.5" y1="5672.484" x2="1615.5" y2="5672.484"/>
	<line fill="none" stroke="#B35047" x1="1103.5" y1="5704.484" x2="1615.5" y2="5704.484"/>
	<line fill="none" stroke="#B35047" x1="1103.5" y1="5736.484" x2="1615.5" y2="5736.484"/>
	<line fill="none" stroke="#B35047" x1="1103.5" y1="5768.484" x2="1615.5" y2="5768.484"/>
	<rect x="1103.5" y="5288.484" fill="none" stroke="#B35047" width="512" height="512"/>
</g>
<path d="M1483.527,5768.502c-5.19,0-10.293-2.022-14.117-5.831l-109.895-109.444l-109.895,109.444
	c-5.727,5.703-14.324,7.398-21.786,4.299c-7.463-3.101-12.327-10.388-12.327-18.47v-408.016c0-11.046,8.954-20,20-20h248.016
	c11.046,0,20,8.954,20,20V5748.5c0,8.082-4.864,15.369-12.327,18.47C1488.716,5768,1486.111,5768.502,1483.527,5768.502z
	 M1359.516,5605c5.105,0,10.211,1.943,14.113,5.829l89.895,89.526v-339.871h-208.016v339.871l89.895-89.526
	C1349.305,5606.943,1354.41,5605,1359.516,5605z"/>
</svg>
