<?xml version="1.0" encoding="utf-8"?>
<!-- Generator: Adobe Illustrator 16.0.4, SVG Export Plug-In . SVG Version: 6.00 Build 0)  -->
<!DOCTYPE svg PUBLIC "-//W3C//DTD SVG 1.1//EN" "http://www.w3.org/Graphics/SVG/1.1/DTD/svg11.dtd">
<svg version="1.1" id="Layer_1" xmlns="http://www.w3.org/2000/svg" xmlns:xlink="http://www.w3.org/1999/xlink" x="0px" y="0px"
	 width="512px" height="512px" viewBox="-1104.5 5856.484 512 512" enable-background="new -1104.5 5856.484 512 512"
	 xml:space="preserve">
<g>
	<line fill="none" stroke="#B35047" x1="-1072.5" y1="5856.484" x2="-1072.5" y2="6368.484"/>
	<line fill="none" stroke="#B35047" x1="-1040.5" y1="5856.484" x2="-1040.5" y2="6368.484"/>
	<line fill="none" stroke="#B35047" x1="-1008.5" y1="5856.484" x2="-1008.5" y2="6368.484"/>
	<line fill="none" stroke="#B35047" x1="-976.5" y1="5856.484" x2="-976.5" y2="6368.484"/>
	<line fill="none" stroke="#B35047" x1="-944.5" y1="5856.484" x2="-944.5" y2="6368.484"/>
	<line fill="none" stroke="#B35047" x1="-912.5" y1="5856.484" x2="-912.5" y2="6368.484"/>
	<line fill="none" stroke="#B35047" x1="-880.5" y1="5856.484" x2="-880.5" y2="6368.484"/>
	<line fill="none" stroke="#B35047" x1="-848.5" y1="5856.484" x2="-848.5" y2="6368.484"/>
	<line fill="none" stroke="#B35047" x1="-816.5" y1="5856.484" x2="-816.5" y2="6368.484"/>
	<line fill="none" stroke="#B35047" x1="-784.5" y1="5856.484" x2="-784.5" y2="6368.484"/>
	<line fill="none" stroke="#B35047" x1="-752.5" y1="5856.484" x2="-752.5" y2="6368.484"/>
	<line fill="none" stroke="#B35047" x1="-720.5" y1="5856.484" x2="-720.5" y2="6368.484"/>
	<line fill="none" stroke="#B35047" x1="-688.5" y1="5856.484" x2="-688.5" y2="6368.484"/>
	<line fill="none" stroke="#B35047" x1="-656.5" y1="5856.484" x2="-656.5" y2="6368.484"/>
	<line fill="none" stroke="#B35047" x1="-624.5" y1="5856.484" x2="-624.5" y2="6368.484"/>
	<line fill="none" stroke="#B35047" x1="-1104.5" y1="5888.484" x2="-592.5" y2="5888.484"/>
	<line fill="none" stroke="#B35047" x1="-1104.5" y1="5920.484" x2="-592.5" y2="5920.484"/>
	<line fill="none" stroke="#B35047" x1="-1104.5" y1="5952.484" x2="-592.5" y2="5952.484"/>
	<line fill="none" stroke="#B35047" x1="-1104.5" y1="5984.484" x2="-592.5" y2="5984.484"/>
	<line fill="none" stroke="#B35047" x1="-1104.5" y1="6016.484" x2="-592.5" y2="6016.484"/>
	<line fill="none" stroke="#B35047" x1="-1104.5" y1="6048.484" x2="-592.5" y2="6048.484"/>
	<line fill="none" stroke="#B35047" x1="-1104.5" y1="6080.484" x2="-592.5" y2="6080.484"/>
	<line fill="none" stroke="#B35047" x1="-1104.5" y1="6112.484" x2="-592.5" y2="6112.484"/>
	<line fill="none" stroke="#B35047" x1="-1104.5" y1="6144.484" x2="-592.5" y2="6144.484"/>
	<line fill="none" stroke="#B35047" x1="-1104.5" y1="6176.484" x2="-592.5" y2="6176.484"/>
	<line fill="none" stroke="#B35047" x1="-1104.5" y1="6208.484" x2="-592.5" y2="6208.484"/>
	<line fill="none" stroke="#B35047" x1="-1104.5" y1="6240.484" x2="-592.5" y2="6240.484"/>
	<line fill="none" stroke="#B35047" x1="-1104.5" y1="6272.484" x2="-592.5" y2="6272.484"/>
	<line fill="none" stroke="#B35047" x1="-1104.5" y1="6304.484" x2="-592.5" y2="6304.484"/>
	<line fill="none" stroke="#B35047" x1="-1104.5" y1="6336.484" x2="-592.5" y2="6336.484"/>
	<rect x="-1104.5" y="5856.484" fill="none" stroke="#B35047" width="512" height="512"/>
</g>
<path d="M-724.473,6336.502c-5.19,0-10.293-2.022-14.117-5.831l-109.895-109.444l-109.895,109.444
	c-5.727,5.704-14.324,7.398-21.786,4.299c-7.463-3.101-12.327-10.388-12.327-18.47v-408.016c0-11.046,8.954-20,20-20h248.016
	c11.046,0,20,8.954,20,20V6316.5c0,8.082-4.864,15.369-12.327,18.47C-719.284,6336-721.889,6336.502-724.473,6336.502z"/>
</svg>
