<?xml version="1.0" encoding="utf-8"?>
<!-- Generator: Adobe Illustrator 16.0.4, SVG Export Plug-In . SVG Version: 6.00 Build 0)  -->
<!DOCTYPE svg PUBLIC "-//W3C//DTD SVG 1.1//EN" "http://www.w3.org/Graphics/SVG/1.1/DTD/svg11.dtd">
<svg version="1.1" id="Layer_1" xmlns="http://www.w3.org/2000/svg" xmlns:xlink="http://www.w3.org/1999/xlink" x="0px" y="0px"
	 width="512px" height="512px" viewBox="-0.5 4711.822 512 512" enable-background="new -0.5 4711.822 512 512"
	 xml:space="preserve">
<g>
	<line fill="none" stroke="#B35047" x1="31.516" y1="4711.838" x2="31.516" y2="5223.838"/>
	<line fill="none" stroke="#B35047" x1="63.516" y1="4711.838" x2="63.516" y2="5223.838"/>
	<line fill="none" stroke="#B35047" x1="95.516" y1="4711.838" x2="95.516" y2="5223.838"/>
	<line fill="none" stroke="#B35047" x1="127.516" y1="4711.838" x2="127.516" y2="5223.838"/>
	<line fill="none" stroke="#B35047" x1="159.516" y1="4711.838" x2="159.516" y2="5223.838"/>
	<line fill="none" stroke="#B35047" x1="191.516" y1="4711.838" x2="191.516" y2="5223.838"/>
	<line fill="none" stroke="#B35047" x1="223.516" y1="4711.838" x2="223.516" y2="5223.838"/>
	<line fill="none" stroke="#B35047" x1="255.516" y1="4711.838" x2="255.516" y2="5223.838"/>
	<line fill="none" stroke="#B35047" x1="287.516" y1="4711.838" x2="287.516" y2="5223.838"/>
	<line fill="none" stroke="#B35047" x1="319.516" y1="4711.838" x2="319.516" y2="5223.838"/>
	<line fill="none" stroke="#B35047" x1="351.516" y1="4711.838" x2="351.516" y2="5223.838"/>
	<line fill="none" stroke="#B35047" x1="383.516" y1="4711.838" x2="383.516" y2="5223.838"/>
	<line fill="none" stroke="#B35047" x1="415.516" y1="4711.838" x2="415.516" y2="5223.838"/>
	<line fill="none" stroke="#B35047" x1="447.516" y1="4711.838" x2="447.516" y2="5223.838"/>
	<line fill="none" stroke="#B35047" x1="479.516" y1="4711.838" x2="479.516" y2="5223.838"/>
	<line fill="none" stroke="#B35047" x1="-0.484" y1="4743.838" x2="511.516" y2="4743.838"/>
	<line fill="none" stroke="#B35047" x1="-0.484" y1="4775.838" x2="511.516" y2="4775.838"/>
	<line fill="none" stroke="#B35047" x1="-0.484" y1="4807.838" x2="511.516" y2="4807.838"/>
	<line fill="none" stroke="#B35047" x1="-0.484" y1="4839.838" x2="511.516" y2="4839.838"/>
	<line fill="none" stroke="#B35047" x1="-0.484" y1="4871.838" x2="511.516" y2="4871.838"/>
	<line fill="none" stroke="#B35047" x1="-0.484" y1="4903.838" x2="511.516" y2="4903.838"/>
	<line fill="none" stroke="#B35047" x1="-0.484" y1="4935.838" x2="511.516" y2="4935.838"/>
	<line fill="none" stroke="#B35047" x1="-0.484" y1="4967.838" x2="511.516" y2="4967.838"/>
	<line fill="none" stroke="#B35047" x1="-0.484" y1="4999.838" x2="511.516" y2="4999.838"/>
	<line fill="none" stroke="#B35047" x1="-0.484" y1="5031.838" x2="511.516" y2="5031.838"/>
	<line fill="none" stroke="#B35047" x1="-0.484" y1="5063.838" x2="511.516" y2="5063.838"/>
	<line fill="none" stroke="#B35047" x1="-0.484" y1="5095.838" x2="511.516" y2="5095.838"/>
	<line fill="none" stroke="#B35047" x1="-0.484" y1="5127.838" x2="511.516" y2="5127.838"/>
	<line fill="none" stroke="#B35047" x1="-0.484" y1="5159.838" x2="511.516" y2="5159.838"/>
	<line fill="none" stroke="#B35047" x1="-0.484" y1="5191.838" x2="511.516" y2="5191.838"/>
	<rect x="-0.484" y="4711.838" fill="none" stroke="#B35047" width="512" height="512"/>
</g>
<path d="M462.112,4840.007c-0.847-0.108-1.704-0.185-2.581-0.185h-408c-0.877,0-1.734,0.076-2.581,0.185
	c-9.823,1.269-17.419,9.646-17.419,19.815v312l0,0l0,0c0,11.047,8.955,20,20,20h408c6.904,0,12.99-3.498,16.584-8.818
	c0.051-0.074,0.092-0.154,0.141-0.229c0.306-0.462,0.6-0.931,0.861-1.419c0.023-0.041,0.04-0.086,0.062-0.127
	c1.497-2.805,2.352-6.004,2.352-9.404v-0.002l0,0v-312C479.531,4849.652,471.936,4841.275,462.112,4840.007z M71.531,5151.822v-272
	h368v272H71.531z"/>
<path fill="#231F20" d="M447.555,4801.822c0,5.522-4.477,10-10,10H73.539c-5.523,0-10-4.478-10-10l0,0c0-5.523,4.477-10,10-10
	h364.016C443.078,4791.822,447.555,4796.299,447.555,4801.822L447.555,4801.822z"/>
<path fill="#231F20" d="M415.547,4753.822c0,5.522-4.477,10-10,10h-300c-5.523,0-10-4.478-10-10l0,0c0-5.523,4.477-10,10-10h300
	C411.07,4743.822,415.547,4748.299,415.547,4753.822L415.547,4753.822z"/>
</svg>
