<?xml version="1.0" encoding="utf-8"?>
<!-- Generator: Adobe Illustrator 16.0.4, SVG Export Plug-In . SVG Version: 6.00 Build 0)  -->
<!DOCTYPE svg PUBLIC "-//W3C//DTD SVG 1.1//EN" "http://www.w3.org/Graphics/SVG/1.1/DTD/svg11.dtd">
<svg version="1.1" id="Layer_1" xmlns="http://www.w3.org/2000/svg" xmlns:xlink="http://www.w3.org/1999/xlink" x="0px" y="0px"
	 width="512px" height="512px" viewBox="1103.5 -276.5 512 512" enable-background="new 1103.5 -276.5 512 512"
	 xml:space="preserve">
<g>
	<line fill="none" stroke="#B35047" x1="1135.5" y1="-276.5" x2="1135.5" y2="235.501"/>
	<line fill="none" stroke="#B35047" x1="1167.5" y1="-276.5" x2="1167.5" y2="235.501"/>
	<line fill="none" stroke="#B35047" x1="1199.5" y1="-276.5" x2="1199.5" y2="235.501"/>
	<line fill="none" stroke="#B35047" x1="1231.5" y1="-276.5" x2="1231.5" y2="235.501"/>
	<line fill="none" stroke="#B35047" x1="1263.5" y1="-276.5" x2="1263.5" y2="235.501"/>
	<line fill="none" stroke="#B35047" x1="1295.5" y1="-276.5" x2="1295.5" y2="235.501"/>
	<line fill="none" stroke="#B35047" x1="1327.5" y1="-276.5" x2="1327.5" y2="235.501"/>
	<line fill="none" stroke="#B35047" x1="1359.5" y1="-276.5" x2="1359.5" y2="235.501"/>
	<line fill="none" stroke="#B35047" x1="1391.5" y1="-276.5" x2="1391.5" y2="235.501"/>
	<line fill="none" stroke="#B35047" x1="1423.5" y1="-276.5" x2="1423.5" y2="235.501"/>
	<line fill="none" stroke="#B35047" x1="1455.5" y1="-276.5" x2="1455.5" y2="235.501"/>
	<line fill="none" stroke="#B35047" x1="1487.5" y1="-276.5" x2="1487.5" y2="235.501"/>
	<line fill="none" stroke="#B35047" x1="1519.5" y1="-276.5" x2="1519.5" y2="235.501"/>
	<line fill="none" stroke="#B35047" x1="1551.5" y1="-276.5" x2="1551.5" y2="235.501"/>
	<line fill="none" stroke="#B35047" x1="1583.5" y1="-276.5" x2="1583.5" y2="235.501"/>
	<line fill="none" stroke="#B35047" x1="1103.5" y1="-244.5" x2="1615.5" y2="-244.5"/>
	<line fill="none" stroke="#B35047" x1="1103.5" y1="-212.5" x2="1615.5" y2="-212.5"/>
	<line fill="none" stroke="#B35047" x1="1103.5" y1="-180.5" x2="1615.5" y2="-180.5"/>
	<line fill="none" stroke="#B35047" x1="1103.5" y1="-148.5" x2="1615.5" y2="-148.5"/>
	<line fill="none" stroke="#B35047" x1="1103.5" y1="-116.5" x2="1615.5" y2="-116.5"/>
	<line fill="none" stroke="#B35047" x1="1103.5" y1="-84.5" x2="1615.5" y2="-84.5"/>
	<line fill="none" stroke="#B35047" x1="1103.5" y1="-52.5" x2="1615.5" y2="-52.5"/>
	<line fill="none" stroke="#B35047" x1="1103.5" y1="-20.499" x2="1615.5" y2="-20.499"/>
	<line fill="none" stroke="#B35047" x1="1103.5" y1="11.501" x2="1615.5" y2="11.501"/>
	<line fill="none" stroke="#B35047" x1="1103.5" y1="43.501" x2="1615.5" y2="43.501"/>
	<line fill="none" stroke="#B35047" x1="1103.5" y1="75.501" x2="1615.5" y2="75.501"/>
	<line fill="none" stroke="#B35047" x1="1103.5" y1="107.501" x2="1615.5" y2="107.501"/>
	<line fill="none" stroke="#B35047" x1="1103.5" y1="139.501" x2="1615.5" y2="139.501"/>
	<line fill="none" stroke="#B35047" x1="1103.5" y1="171.501" x2="1615.5" y2="171.501"/>
	<line fill="none" stroke="#B35047" x1="1103.5" y1="203.501" x2="1615.5" y2="203.501"/>
	<rect x="1103.5" y="-276.5" fill="none" stroke="#B35047" width="512" height="512.001"/>
</g>
<path d="M1359.488,140c-5.118,0-10.235-1.952-14.141-5.856l-235.967-235.937c-7.812-7.81-7.812-20.473-0.003-28.285
	c7.811-7.811,20.474-7.812,28.284-0.002l221.826,221.799l221.805-221.778c7.812-7.809,20.476-7.808,28.284,0.002
	c7.81,7.812,7.809,20.475-0.003,28.285l-235.945,235.916C1369.724,138.048,1364.606,140,1359.488,140z"/>
</svg>
