<?xml version="1.0" encoding="utf-8"?>
<!-- Generator: Adobe Illustrator 16.0.4, SVG Export Plug-In . SVG Version: 6.00 Build 0)  -->
<!DOCTYPE svg PUBLIC "-//W3C//DTD SVG 1.1//EN" "http://www.w3.org/Graphics/SVG/1.1/DTD/svg11.dtd">
<svg version="1.1" id="Layer_1" xmlns="http://www.w3.org/2000/svg" xmlns:xlink="http://www.w3.org/1999/xlink" x="0px" y="0px"
	 width="512px" height="512px" viewBox="551.5 275.5 512 512" enable-background="new 551.5 275.5 512 512" xml:space="preserve">
<g>
	<line fill="none" stroke="#B35047" x1="583.5" y1="275.5" x2="583.5" y2="787.5"/>
	<line fill="none" stroke="#B35047" x1="615.5" y1="275.5" x2="615.5" y2="787.5"/>
	<line fill="none" stroke="#B35047" x1="647.5" y1="275.5" x2="647.5" y2="787.5"/>
	<line fill="none" stroke="#B35047" x1="679.5" y1="275.5" x2="679.5" y2="787.5"/>
	<line fill="none" stroke="#B35047" x1="711.5" y1="275.5" x2="711.5" y2="787.5"/>
	<line fill="none" stroke="#B35047" x1="743.5" y1="275.5" x2="743.5" y2="787.5"/>
	<line fill="none" stroke="#B35047" x1="775.5" y1="275.5" x2="775.5" y2="787.5"/>
	<line fill="none" stroke="#B35047" x1="807.5" y1="275.5" x2="807.5" y2="787.5"/>
	<line fill="none" stroke="#B35047" x1="839.5" y1="275.5" x2="839.5" y2="787.5"/>
	<line fill="none" stroke="#B35047" x1="871.5" y1="275.5" x2="871.5" y2="787.5"/>
	<line fill="none" stroke="#B35047" x1="903.5" y1="275.5" x2="903.5" y2="787.5"/>
	<line fill="none" stroke="#B35047" x1="935.5" y1="275.5" x2="935.5" y2="787.5"/>
	<line fill="none" stroke="#B35047" x1="967.5" y1="275.5" x2="967.5" y2="787.5"/>
	<line fill="none" stroke="#B35047" x1="999.5" y1="275.5" x2="999.5" y2="787.5"/>
	<line fill="none" stroke="#B35047" x1="1031.5" y1="275.5" x2="1031.5" y2="787.5"/>
	<line fill="none" stroke="#B35047" x1="551.5" y1="307.5" x2="1063.5" y2="307.5"/>
	<line fill="none" stroke="#B35047" x1="551.5" y1="339.5" x2="1063.5" y2="339.5"/>
	<line fill="none" stroke="#B35047" x1="551.5" y1="371.5" x2="1063.5" y2="371.5"/>
	<line fill="none" stroke="#B35047" x1="551.5" y1="403.5" x2="1063.5" y2="403.5"/>
	<line fill="none" stroke="#B35047" x1="551.5" y1="435.5" x2="1063.5" y2="435.5"/>
	<line fill="none" stroke="#B35047" x1="551.5" y1="467.5" x2="1063.5" y2="467.5"/>
	<line fill="none" stroke="#B35047" x1="551.5" y1="499.5" x2="1063.5" y2="499.5"/>
	<line fill="none" stroke="#B35047" x1="551.5" y1="531.5" x2="1063.5" y2="531.5"/>
	<line fill="none" stroke="#B35047" x1="551.5" y1="563.5" x2="1063.5" y2="563.5"/>
	<line fill="none" stroke="#B35047" x1="551.5" y1="595.5" x2="1063.5" y2="595.5"/>
	<line fill="none" stroke="#B35047" x1="551.5" y1="627.5" x2="1063.5" y2="627.5"/>
	<line fill="none" stroke="#B35047" x1="551.5" y1="659.5" x2="1063.5" y2="659.5"/>
	<line fill="none" stroke="#B35047" x1="551.5" y1="691.5" x2="1063.5" y2="691.5"/>
	<line fill="none" stroke="#B35047" x1="551.5" y1="723.5" x2="1063.5" y2="723.5"/>
	<line fill="none" stroke="#B35047" x1="551.5" y1="755.5" x2="1063.5" y2="755.5"/>
	<rect x="551.5" y="275.5" fill="none" stroke="#B35047" width="512" height="512"/>
</g>
<circle fill="#231F20" cx="807.5" cy="531.5" r="224"/>
</svg>
