<?xml version="1.0" encoding="utf-8"?>
<!-- Generator: Adobe Illustrator 16.0.4, SVG Export Plug-In . SVG Version: 6.00 Build 0)  -->
<!DOCTYPE svg PUBLIC "-//W3C//DTD SVG 1.1//EN" "http://www.w3.org/Graphics/SVG/1.1/DTD/svg11.dtd">
<svg version="1.1" id="Layer_1" xmlns="http://www.w3.org/2000/svg" xmlns:xlink="http://www.w3.org/1999/xlink" x="0px" y="0px"
	 width="512px" height="512px" viewBox="-0.5 -3036.5 512 512" enable-background="new -0.5 -3036.5 512 512" xml:space="preserve">
<g>
	<line fill="none" stroke="#B35047" x1="31.5" y1="-3036.5" x2="31.5" y2="-2524.5"/>
	<line fill="none" stroke="#B35047" x1="63.5" y1="-3036.5" x2="63.5" y2="-2524.5"/>
	<line fill="none" stroke="#B35047" x1="95.5" y1="-3036.5" x2="95.5" y2="-2524.5"/>
	<line fill="none" stroke="#B35047" x1="127.5" y1="-3036.5" x2="127.5" y2="-2524.5"/>
	<line fill="none" stroke="#B35047" x1="159.5" y1="-3036.5" x2="159.5" y2="-2524.5"/>
	<line fill="none" stroke="#B35047" x1="191.5" y1="-3036.5" x2="191.5" y2="-2524.5"/>
	<line fill="none" stroke="#B35047" x1="223.5" y1="-3036.5" x2="223.5" y2="-2524.5"/>
	<line fill="none" stroke="#B35047" x1="255.5" y1="-3036.5" x2="255.5" y2="-2524.5"/>
	<line fill="none" stroke="#B35047" x1="287.5" y1="-3036.5" x2="287.5" y2="-2524.5"/>
	<line fill="none" stroke="#B35047" x1="319.5" y1="-3036.5" x2="319.5" y2="-2524.5"/>
	<line fill="none" stroke="#B35047" x1="351.5" y1="-3036.5" x2="351.5" y2="-2524.5"/>
	<line fill="none" stroke="#B35047" x1="383.5" y1="-3036.5" x2="383.5" y2="-2524.5"/>
	<line fill="none" stroke="#B35047" x1="415.5" y1="-3036.5" x2="415.5" y2="-2524.5"/>
	<line fill="none" stroke="#B35047" x1="447.5" y1="-3036.5" x2="447.5" y2="-2524.5"/>
	<line fill="none" stroke="#B35047" x1="479.5" y1="-3036.5" x2="479.5" y2="-2524.5"/>
	<line fill="none" stroke="#B35047" x1="-0.5" y1="-3004.5" x2="511.5" y2="-3004.5"/>
	<line fill="none" stroke="#B35047" x1="-0.5" y1="-2972.5" x2="511.5" y2="-2972.5"/>
	<line fill="none" stroke="#B35047" x1="-0.5" y1="-2940.5" x2="511.5" y2="-2940.5"/>
	<line fill="none" stroke="#B35047" x1="-0.5" y1="-2908.5" x2="511.5" y2="-2908.5"/>
	<line fill="none" stroke="#B35047" x1="-0.5" y1="-2876.5" x2="511.5" y2="-2876.5"/>
	<line fill="none" stroke="#B35047" x1="-0.5" y1="-2844.5" x2="511.5" y2="-2844.5"/>
	<line fill="none" stroke="#B35047" x1="-0.5" y1="-2812.5" x2="511.5" y2="-2812.5"/>
	<line fill="none" stroke="#B35047" x1="-0.5" y1="-2780.5" x2="511.5" y2="-2780.5"/>
	<line fill="none" stroke="#B35047" x1="-0.5" y1="-2748.5" x2="511.5" y2="-2748.5"/>
	<line fill="none" stroke="#B35047" x1="-0.5" y1="-2716.5" x2="511.5" y2="-2716.5"/>
	<line fill="none" stroke="#B35047" x1="-0.5" y1="-2684.5" x2="511.5" y2="-2684.5"/>
	<line fill="none" stroke="#B35047" x1="-0.5" y1="-2652.5" x2="511.5" y2="-2652.5"/>
	<line fill="none" stroke="#B35047" x1="-0.5" y1="-2620.5" x2="511.5" y2="-2620.5"/>
	<line fill="none" stroke="#B35047" x1="-0.5" y1="-2588.5" x2="511.5" y2="-2588.5"/>
	<line fill="none" stroke="#B35047" x1="-0.5" y1="-2556.5" x2="511.5" y2="-2556.5"/>
	<rect x="-0.5" y="-3036.5" fill="none" stroke="#B35047" width="512" height="512"/>
</g>
<path fill="#231F20" d="M346.011-2717.567c7.81,7.811,7.809,20.475,0,28.283c-7.811,7.811-20.473,7.812-28.281,0.001l-62.23-62.229
	l-62.228,62.229c-7.811,7.811-20.472,7.811-28.281,0c-7.812-7.811-7.812-20.473-0.001-28.284l62.227-62.228l-62.226-62.225
	c-7.811-7.811-7.811-20.473,0-28.282c7.81-7.812,20.472-7.812,28.284-0.001l62.225,62.225l62.227-62.226
	c7.811-7.81,20.475-7.81,28.283,0c7.811,7.81,7.812,20.472,0.001,28.28l-62.228,62.229L346.011-2717.567z M413.892-2622.108
	c-87.478,87.478-229.307,87.478-316.783,0c-87.479-87.478-87.479-229.307,0-316.783c87.477-87.479,229.306-87.479,316.783,0
	C501.369-2851.415,501.369-2709.585,413.892-2622.108z M439.5-2780.501c-0.001-49.148-19.14-95.354-53.893-130.106
	s-80.96-53.893-130.107-53.894c-49.148,0.001-95.355,19.141-130.108,53.893c-34.753,34.754-53.891,80.959-53.893,130.107
	c0.001,49.148,19.141,95.355,53.893,130.108c34.754,34.753,80.959,53.892,130.108,53.892c49.148,0,95.354-19.139,130.107-53.892
	S439.499-2731.353,439.5-2780.501z"/>
</svg>
