<?xml version="1.0" encoding="utf-8"?>
<!-- Generator: Adobe Illustrator 16.0.4, SVG Export Plug-In . SVG Version: 6.00 Build 0)  -->
<!DOCTYPE svg PUBLIC "-//W3C//DTD SVG 1.1//EN" "http://www.w3.org/Graphics/SVG/1.1/DTD/svg11.dtd">
<svg version="1.1" id="Layer_1" xmlns="http://www.w3.org/2000/svg" xmlns:xlink="http://www.w3.org/1999/xlink" x="0px" y="0px"
	 width="512px" height="512px" viewBox="-552.5 -3588.5 512 512" enable-background="new -552.5 -3588.5 512 512"
	 xml:space="preserve">
<g>
	<line fill="none" stroke="#B35047" x1="-520.499" y1="-3588.5" x2="-520.499" y2="-3076.5"/>
	<line fill="none" stroke="#B35047" x1="-488.499" y1="-3588.5" x2="-488.499" y2="-3076.5"/>
	<line fill="none" stroke="#B35047" x1="-456.499" y1="-3588.5" x2="-456.499" y2="-3076.5"/>
	<line fill="none" stroke="#B35047" x1="-424.499" y1="-3588.5" x2="-424.499" y2="-3076.5"/>
	<line fill="none" stroke="#B35047" x1="-392.499" y1="-3588.5" x2="-392.499" y2="-3076.5"/>
	<line fill="none" stroke="#B35047" x1="-360.499" y1="-3588.5" x2="-360.499" y2="-3076.5"/>
	<line fill="none" stroke="#B35047" x1="-328.499" y1="-3588.5" x2="-328.499" y2="-3076.5"/>
	<line fill="none" stroke="#B35047" x1="-296.499" y1="-3588.5" x2="-296.499" y2="-3076.5"/>
	<line fill="none" stroke="#B35047" x1="-264.499" y1="-3588.5" x2="-264.499" y2="-3076.5"/>
	<line fill="none" stroke="#B35047" x1="-232.499" y1="-3588.5" x2="-232.499" y2="-3076.5"/>
	<line fill="none" stroke="#B35047" x1="-200.499" y1="-3588.5" x2="-200.499" y2="-3076.5"/>
	<line fill="none" stroke="#B35047" x1="-168.499" y1="-3588.5" x2="-168.499" y2="-3076.5"/>
	<line fill="none" stroke="#B35047" x1="-136.499" y1="-3588.5" x2="-136.499" y2="-3076.5"/>
	<line fill="none" stroke="#B35047" x1="-104.499" y1="-3588.5" x2="-104.499" y2="-3076.5"/>
	<line fill="none" stroke="#B35047" x1="-72.499" y1="-3588.5" x2="-72.499" y2="-3076.5"/>
	<line fill="none" stroke="#B35047" x1="-552.499" y1="-3556.5" x2="-40.499" y2="-3556.5"/>
	<line fill="none" stroke="#B35047" x1="-552.499" y1="-3524.5" x2="-40.499" y2="-3524.5"/>
	<line fill="none" stroke="#B35047" x1="-552.499" y1="-3492.5" x2="-40.499" y2="-3492.5"/>
	<line fill="none" stroke="#B35047" x1="-552.499" y1="-3460.5" x2="-40.499" y2="-3460.5"/>
	<line fill="none" stroke="#B35047" x1="-552.499" y1="-3428.5" x2="-40.499" y2="-3428.5"/>
	<line fill="none" stroke="#B35047" x1="-552.499" y1="-3396.5" x2="-40.499" y2="-3396.5"/>
	<line fill="none" stroke="#B35047" x1="-552.499" y1="-3364.5" x2="-40.499" y2="-3364.5"/>
	<line fill="none" stroke="#B35047" x1="-552.499" y1="-3332.5" x2="-40.499" y2="-3332.5"/>
	<line fill="none" stroke="#B35047" x1="-552.499" y1="-3300.5" x2="-40.499" y2="-3300.5"/>
	<line fill="none" stroke="#B35047" x1="-552.499" y1="-3268.5" x2="-40.499" y2="-3268.5"/>
	<line fill="none" stroke="#B35047" x1="-552.499" y1="-3236.5" x2="-40.499" y2="-3236.5"/>
	<line fill="none" stroke="#B35047" x1="-552.499" y1="-3204.5" x2="-40.499" y2="-3204.5"/>
	<line fill="none" stroke="#B35047" x1="-552.499" y1="-3172.5" x2="-40.499" y2="-3172.5"/>
	<line fill="none" stroke="#B35047" x1="-552.499" y1="-3140.5" x2="-40.499" y2="-3140.5"/>
	<line fill="none" stroke="#B35047" x1="-552.499" y1="-3108.5" x2="-40.499" y2="-3108.5"/>
	<rect x="-552.499" y="-3588.5" fill="none" stroke="#B35047" width="512" height="512"/>
</g>
<path fill="#231F20" d="M-354.271-3512.757l13.884,13.884c11.64,11.645,27.131,18.058,43.621,18.058c0.159,0,0.318,0,0.479-0.002
	c0.146,0.001,0.29,0.002,0.436,0.002c16.495,0,31.988-6.415,43.61-18.049l13.805-13.802c9.792,3.147,19.291,7.096,28.446,11.821
	v19.988c0,16.439,6.703,32.402,18.421,43.944c11.536,11.692,27.483,18.381,43.902,18.381l19.721,0.001
	c4.584,8.953,8.426,18.231,11.507,27.787l-13.838,13.838c-11.611,11.612-18.159,27.621-18.047,44.048
	c-0.124,16.442,6.422,32.467,18.047,44.095l13.964,13.964c-3.149,9.852-7.106,19.406-11.852,28.615l-19.492,0.001
	c-0.004,0-0.006,0-0.011,0c-16.42,0-32.37,6.69-43.907,18.388c-11.715,11.54-18.415,27.5-18.415,43.938v19.558
	c-9.19,4.743-18.728,8.703-28.561,11.857l-13.674-13.673c-11.639-11.65-27.132-18.065-43.627-18.065
	c-0.146,0-0.29,0.001-0.436,0.002c-0.159-0.002-0.318-0.002-0.479-0.002c-16.489,0-31.981,6.413-43.614,18.051l-13.776,13.777
	c-9.937-3.169-19.572-7.16-28.854-11.951l-0.001-19.065c0.006-16.427-6.684-32.382-18.386-43.923
	c-11.541-11.715-27.502-18.417-43.939-18.417h-19.253c-4.888-9.423-8.949-19.21-12.164-29.312l13.745-13.745
	c11.623-11.624,18.169-27.648,18.044-44.091c0.112-16.427-6.436-32.436-18.046-44.047l-13.615-13.616
	c3.145-9.806,7.091-19.314,11.818-28.483h19.471c16.439,0,32.401-6.701,43.942-18.419c11.699-11.543,18.389-27.497,18.383-43.905
	l0.001-19.514C-373.765-3505.613-364.167-3509.593-354.271-3512.757 M-341.757-3558.396c-29.966,5.973-57.829,17.758-82.376,34.134
	l-0.002,42.933c0.002,5.838-2.443,11.097-6.353,14.84c-3.743,3.915-9.006,6.364-14.851,6.364h-42.903
	c-16.312,24.473-28.066,52.242-34.044,82.102l30.195,30.197c4.128,4.128,6.117,9.575,5.999,14.984
	c0.123,5.415-1.867,10.869-5.999,15.002l-30.281,30.28c5.985,30.201,17.87,58.276,34.413,82.974h42.62
	c5.845,0,11.107,2.45,14.851,6.365c3.909,3.741,6.354,8.999,6.353,14.838l0.002,42.502c24.581,16.398,52.488,28.193,82.503,34.158
	l30.327-30.328c4.014-4.016,9.275-6.007,14.536-6.007c0.156,0,0.31,0.002,0.465,0.005c0.149-0.003,0.301-0.005,0.45-0.005
	c5.263,0,10.523,1.991,14.535,6.007l30.271,30.267c29.89-5.984,57.688-17.756,82.178-34.095v-42.978
	c0-5.845,2.45-11.107,6.365-14.851c3.743-3.909,9.001-6.354,14.839-6.353l42.938-0.002c16.334-24.516,28.091-52.337,34.052-82.252
	l-30.525-30.526c-4.133-4.133-6.122-9.587-6-15.002c-0.118-5.409,1.871-10.856,6-14.984l30.441-30.444
	c-5.955-29.572-17.579-57.089-33.685-81.379l-43.222-0.002c-0.002,0-0.004,0-0.004,0c-5.837,0-11.094-2.445-14.835-6.354
	c-3.915-3.743-6.365-9.006-6.365-14.851v-43.408c-24.456-16.316-52.209-28.079-82.053-34.07l-30.396,30.392
	c-4.012,4.016-9.273,6.007-14.535,6.007c-0.15,0-0.301-0.002-0.45-0.006c-0.154,0.004-0.309,0.006-0.465,0.006
	c-5.261,0-10.522-1.991-14.536-6.007L-341.757-3558.396L-341.757-3558.396z M-296.572-3431.264
	c-54.507,0-98.693,44.186-98.693,98.692c0,54.505,44.187,98.691,98.693,98.691v0.067c0.373,0,0.746,0.006,1.12,0.002
	c7.403-0.08,14.607-0.971,21.528-2.591c0.511-0.119,0.966-0.248,1.397-0.381c8.664-2.494,14.97-10.506,14.869-19.958
	c-0.121-11.355-9.423-20.463-20.778-20.343c-1.498,0.016-2.951,0.201-4.354,0.521c-0.045,0.008-0.089,0-0.133,0.011
	c-4.09,0.995-8.354,1.548-12.736,1.612c-0.293-0.037-0.595-0.062-0.913-0.062c-31.743,0-57.571-25.825-57.571-57.569
	c0-31.745,25.828-57.571,57.571-57.571c31.744,0,57.57,25.826,57.57,57.571c0,4.462-0.514,8.808-1.482,12.979
	c-0.01,0.045-0.004,0.089-0.01,0.134c-0.305,1.406-0.474,2.862-0.474,4.36c0,11.355,9.204,20.561,20.561,20.561
	c9.453,0,17.396-6.389,19.798-15.079c0.131-0.433,0.254-0.89,0.368-1.402c1.546-6.938,2.361-14.15,2.361-21.553
	C-197.88-3387.078-242.066-3431.264-296.572-3431.264z"/>
</svg>
