<?xml version="1.0" encoding="utf-8"?>
<!-- Generator: Adobe Illustrator 16.0.4, SVG Export Plug-In . SVG Version: 6.00 Build 0)  -->
<!DOCTYPE svg PUBLIC "-//W3C//DTD SVG 1.1//EN" "http://www.w3.org/Graphics/SVG/1.1/DTD/svg11.dtd">
<svg version="1.1" id="Layer_1" xmlns="http://www.w3.org/2000/svg" xmlns:xlink="http://www.w3.org/1999/xlink" x="0px" y="0px"
	 width="512px" height="512px" viewBox="-1104.5 5288.484 512 512" enable-background="new -1104.5 5288.484 512 512"
	 xml:space="preserve">
<g>
	<line fill="none" stroke="#B35047" x1="-1072.484" y1="5288.5" x2="-1072.484" y2="5800.5"/>
	<line fill="none" stroke="#B35047" x1="-1040.484" y1="5288.5" x2="-1040.484" y2="5800.5"/>
	<line fill="none" stroke="#B35047" x1="-1008.484" y1="5288.5" x2="-1008.484" y2="5800.5"/>
	<line fill="none" stroke="#B35047" x1="-976.484" y1="5288.5" x2="-976.484" y2="5800.5"/>
	<line fill="none" stroke="#B35047" x1="-944.484" y1="5288.5" x2="-944.484" y2="5800.5"/>
	<line fill="none" stroke="#B35047" x1="-912.484" y1="5288.5" x2="-912.484" y2="5800.5"/>
	<line fill="none" stroke="#B35047" x1="-880.484" y1="5288.5" x2="-880.484" y2="5800.5"/>
	<line fill="none" stroke="#B35047" x1="-848.484" y1="5288.5" x2="-848.484" y2="5800.5"/>
	<line fill="none" stroke="#B35047" x1="-816.484" y1="5288.5" x2="-816.484" y2="5800.5"/>
	<line fill="none" stroke="#B35047" x1="-784.484" y1="5288.5" x2="-784.484" y2="5800.5"/>
	<line fill="none" stroke="#B35047" x1="-752.484" y1="5288.5" x2="-752.484" y2="5800.5"/>
	<line fill="none" stroke="#B35047" x1="-720.484" y1="5288.5" x2="-720.484" y2="5800.5"/>
	<line fill="none" stroke="#B35047" x1="-688.484" y1="5288.5" x2="-688.484" y2="5800.5"/>
	<line fill="none" stroke="#B35047" x1="-656.484" y1="5288.5" x2="-656.484" y2="5800.5"/>
	<line fill="none" stroke="#B35047" x1="-624.484" y1="5288.5" x2="-624.484" y2="5800.5"/>
	<line fill="none" stroke="#B35047" x1="-1104.484" y1="5320.5" x2="-592.484" y2="5320.5"/>
	<line fill="none" stroke="#B35047" x1="-1104.484" y1="5352.5" x2="-592.484" y2="5352.5"/>
	<line fill="none" stroke="#B35047" x1="-1104.484" y1="5384.5" x2="-592.484" y2="5384.5"/>
	<line fill="none" stroke="#B35047" x1="-1104.484" y1="5416.5" x2="-592.484" y2="5416.5"/>
	<line fill="none" stroke="#B35047" x1="-1104.484" y1="5448.5" x2="-592.484" y2="5448.5"/>
	<line fill="none" stroke="#B35047" x1="-1104.484" y1="5480.5" x2="-592.484" y2="5480.5"/>
	<line fill="none" stroke="#B35047" x1="-1104.484" y1="5512.5" x2="-592.484" y2="5512.5"/>
	<line fill="none" stroke="#B35047" x1="-1104.484" y1="5544.5" x2="-592.484" y2="5544.5"/>
	<line fill="none" stroke="#B35047" x1="-1104.484" y1="5576.5" x2="-592.484" y2="5576.5"/>
	<line fill="none" stroke="#B35047" x1="-1104.484" y1="5608.5" x2="-592.484" y2="5608.5"/>
	<line fill="none" stroke="#B35047" x1="-1104.484" y1="5640.5" x2="-592.484" y2="5640.5"/>
	<line fill="none" stroke="#B35047" x1="-1104.484" y1="5672.5" x2="-592.484" y2="5672.5"/>
	<line fill="none" stroke="#B35047" x1="-1104.484" y1="5704.5" x2="-592.484" y2="5704.5"/>
	<line fill="none" stroke="#B35047" x1="-1104.484" y1="5736.5" x2="-592.484" y2="5736.5"/>
	<line fill="none" stroke="#B35047" x1="-1104.484" y1="5768.5" x2="-592.484" y2="5768.5"/>
	<rect x="-1104.484" y="5288.5" fill="none" stroke="#B35047" width="512" height="512"/>
</g>
<path fill="#231F20" d="M-612.484,5524.484h-93.405c-9.737-70.06-69.87-124-142.611-124s-132.874,53.94-142.611,124h-93.374
	c-11.046,0-20,8.956-20,20.001c0,11.046,8.955,20,20,20h93.374c9.737,70.061,69.87,123.999,142.611,123.999
	s132.874-53.938,142.611-123.999h93.405c11.046,0,20-8.955,20-20S-601.438,5524.484-612.484,5524.484z M-848.5,5648.484
	c-57.346,0-104-46.654-104-104s46.654-104,104-104s104,46.654,104,104S-791.154,5648.484-848.5,5648.484z"/>
</svg>
