<?xml version="1.0" encoding="utf-8"?>
<!-- Generator: Adobe Illustrator 16.0.4, SVG Export Plug-In . SVG Version: 6.00 Build 0)  -->
<!DOCTYPE svg PUBLIC "-//W3C//DTD SVG 1.1//EN" "http://www.w3.org/Graphics/SVG/1.1/DTD/svg11.dtd">
<svg version="1.1" id="Layer_1" xmlns="http://www.w3.org/2000/svg" xmlns:xlink="http://www.w3.org/1999/xlink" x="0px" y="0px"
	 width="512px" height="512px" viewBox="1103.5 4711.822 512 512" enable-background="new 1103.5 4711.822 512 512"
	 xml:space="preserve">
<g>
	<line fill="none" stroke="#B35047" x1="1135.516" y1="4711.838" x2="1135.516" y2="5223.838"/>
	<line fill="none" stroke="#B35047" x1="1167.516" y1="4711.838" x2="1167.516" y2="5223.838"/>
	<line fill="none" stroke="#B35047" x1="1199.516" y1="4711.838" x2="1199.516" y2="5223.838"/>
	<line fill="none" stroke="#B35047" x1="1231.516" y1="4711.838" x2="1231.516" y2="5223.838"/>
	<line fill="none" stroke="#B35047" x1="1263.516" y1="4711.838" x2="1263.516" y2="5223.838"/>
	<line fill="none" stroke="#B35047" x1="1295.516" y1="4711.838" x2="1295.516" y2="5223.838"/>
	<line fill="none" stroke="#B35047" x1="1327.516" y1="4711.838" x2="1327.516" y2="5223.838"/>
	<line fill="none" stroke="#B35047" x1="1359.516" y1="4711.838" x2="1359.516" y2="5223.838"/>
	<line fill="none" stroke="#B35047" x1="1391.516" y1="4711.838" x2="1391.516" y2="5223.838"/>
	<line fill="none" stroke="#B35047" x1="1423.516" y1="4711.838" x2="1423.516" y2="5223.838"/>
	<line fill="none" stroke="#B35047" x1="1455.516" y1="4711.838" x2="1455.516" y2="5223.838"/>
	<line fill="none" stroke="#B35047" x1="1487.516" y1="4711.838" x2="1487.516" y2="5223.838"/>
	<line fill="none" stroke="#B35047" x1="1519.516" y1="4711.838" x2="1519.516" y2="5223.838"/>
	<line fill="none" stroke="#B35047" x1="1551.516" y1="4711.838" x2="1551.516" y2="5223.838"/>
	<line fill="none" stroke="#B35047" x1="1583.516" y1="4711.838" x2="1583.516" y2="5223.838"/>
	<line fill="none" stroke="#B35047" x1="1103.516" y1="4743.838" x2="1615.516" y2="4743.838"/>
	<line fill="none" stroke="#B35047" x1="1103.516" y1="4775.838" x2="1615.516" y2="4775.838"/>
	<line fill="none" stroke="#B35047" x1="1103.516" y1="4807.838" x2="1615.516" y2="4807.838"/>
	<line fill="none" stroke="#B35047" x1="1103.516" y1="4839.838" x2="1615.516" y2="4839.838"/>
	<line fill="none" stroke="#B35047" x1="1103.516" y1="4871.838" x2="1615.516" y2="4871.838"/>
	<line fill="none" stroke="#B35047" x1="1103.516" y1="4903.838" x2="1615.516" y2="4903.838"/>
	<line fill="none" stroke="#B35047" x1="1103.516" y1="4935.838" x2="1615.516" y2="4935.838"/>
	<line fill="none" stroke="#B35047" x1="1103.516" y1="4967.838" x2="1615.516" y2="4967.838"/>
	<line fill="none" stroke="#B35047" x1="1103.516" y1="4999.838" x2="1615.516" y2="4999.838"/>
	<line fill="none" stroke="#B35047" x1="1103.516" y1="5031.838" x2="1615.516" y2="5031.838"/>
	<line fill="none" stroke="#B35047" x1="1103.516" y1="5063.838" x2="1615.516" y2="5063.838"/>
	<line fill="none" stroke="#B35047" x1="1103.516" y1="5095.838" x2="1615.516" y2="5095.838"/>
	<line fill="none" stroke="#B35047" x1="1103.516" y1="5127.838" x2="1615.516" y2="5127.838"/>
	<line fill="none" stroke="#B35047" x1="1103.516" y1="5159.838" x2="1615.516" y2="5159.838"/>
	<line fill="none" stroke="#B35047" x1="1103.516" y1="5191.838" x2="1615.516" y2="5191.838"/>
	<rect x="1103.516" y="4711.838" fill="none" stroke="#B35047" width="512" height="512"/>
</g>
<g>
	<path d="M1583.5,4967.822c0-123.712-100.287-224-224-224c-123.711,0-224,100.288-224,224s100.289,224,224,224
		C1483.213,5191.822,1583.5,5091.534,1583.5,4967.822z M1229.393,5097.93c-34.752-34.754-53.893-80.959-53.893-130.107
		c0-49.147,19.141-95.354,53.893-130.108c34.754-34.752,80.959-53.892,130.107-53.892s95.354,19.14,130.107,53.892
		c34.754,34.754,53.893,80.961,53.893,130.108c0,49.148-19.139,95.354-53.893,130.107c-34.754,34.753-80.961,53.893-130.107,53.893
		C1310.352,5151.822,1264.146,5132.683,1229.393,5097.93z"/>
</g>
<path d="M1386.371,4994.692c-0.465,0.465-0.975,0.884-1.525,1.249l-118.793,79.196c-3.967,2.645-9.248,2.121-12.619-1.249
	c-3.369-3.371-3.893-8.652-1.248-12.618l79.195-118.794c0.732-1.1,1.674-2.041,2.773-2.773l118.793-79.196
	c3.967-2.645,9.248-2.121,12.619,1.249c3.371,3.371,3.895,8.652,1.25,12.619l-79.197,118.793
	C1387.254,4993.718,1386.836,4994.228,1386.371,4994.692z M1296.561,5030.762l75.527-50.352l-25.176-25.176L1296.561,5030.762z"/>
</svg>
