<?xml version="1.0" encoding="utf-8"?>
<!-- Generator: Adobe Illustrator 16.0.4, SVG Export Plug-In . SVG Version: 6.00 Build 0)  -->
<!DOCTYPE svg PUBLIC "-//W3C//DTD SVG 1.1//EN" "http://www.w3.org/Graphics/SVG/1.1/DTD/svg11.dtd">
<svg version="1.1" id="Layer_1" xmlns="http://www.w3.org/2000/svg" xmlns:xlink="http://www.w3.org/1999/xlink" x="0px" y="0px"
	 width="512px" height="512px" viewBox="-552.5 2483.5 512 512" enable-background="new -552.5 2483.5 512 512"
	 xml:space="preserve">
<g>
	<line fill="none" stroke="#B35047" x1="-520.5" y1="2483.5" x2="-520.5" y2="2995.5"/>
	<line fill="none" stroke="#B35047" x1="-488.5" y1="2483.5" x2="-488.5" y2="2995.5"/>
	<line fill="none" stroke="#B35047" x1="-456.5" y1="2483.5" x2="-456.5" y2="2995.5"/>
	<line fill="none" stroke="#B35047" x1="-424.5" y1="2483.5" x2="-424.5" y2="2995.5"/>
	<line fill="none" stroke="#B35047" x1="-392.5" y1="2483.5" x2="-392.5" y2="2995.5"/>
	<line fill="none" stroke="#B35047" x1="-360.5" y1="2483.5" x2="-360.5" y2="2995.5"/>
	<line fill="none" stroke="#B35047" x1="-328.5" y1="2483.5" x2="-328.5" y2="2995.5"/>
	<line fill="none" stroke="#B35047" x1="-296.5" y1="2483.5" x2="-296.5" y2="2995.5"/>
	<line fill="none" stroke="#B35047" x1="-264.5" y1="2483.5" x2="-264.5" y2="2995.5"/>
	<line fill="none" stroke="#B35047" x1="-232.5" y1="2483.5" x2="-232.5" y2="2995.5"/>
	<line fill="none" stroke="#B35047" x1="-200.5" y1="2483.5" x2="-200.5" y2="2995.5"/>
	<line fill="none" stroke="#B35047" x1="-168.5" y1="2483.5" x2="-168.5" y2="2995.5"/>
	<line fill="none" stroke="#B35047" x1="-136.5" y1="2483.5" x2="-136.5" y2="2995.5"/>
	<line fill="none" stroke="#B35047" x1="-104.5" y1="2483.5" x2="-104.5" y2="2995.5"/>
	<line fill="none" stroke="#B35047" x1="-72.5" y1="2483.5" x2="-72.5" y2="2995.5"/>
	<line fill="none" stroke="#B35047" x1="-552.5" y1="2515.5" x2="-40.5" y2="2515.5"/>
	<line fill="none" stroke="#B35047" x1="-552.5" y1="2547.5" x2="-40.5" y2="2547.5"/>
	<line fill="none" stroke="#B35047" x1="-552.5" y1="2579.5" x2="-40.5" y2="2579.5"/>
	<line fill="none" stroke="#B35047" x1="-552.5" y1="2611.5" x2="-40.5" y2="2611.5"/>
	<line fill="none" stroke="#B35047" x1="-552.5" y1="2643.5" x2="-40.5" y2="2643.5"/>
	<line fill="none" stroke="#B35047" x1="-552.5" y1="2675.5" x2="-40.5" y2="2675.5"/>
	<line fill="none" stroke="#B35047" x1="-552.5" y1="2707.5" x2="-40.5" y2="2707.5"/>
	<line fill="none" stroke="#B35047" x1="-552.5" y1="2739.5" x2="-40.5" y2="2739.5"/>
	<line fill="none" stroke="#B35047" x1="-552.5" y1="2771.5" x2="-40.5" y2="2771.5"/>
	<line fill="none" stroke="#B35047" x1="-552.5" y1="2803.5" x2="-40.5" y2="2803.5"/>
	<line fill="none" stroke="#B35047" x1="-552.5" y1="2835.5" x2="-40.5" y2="2835.5"/>
	<line fill="none" stroke="#B35047" x1="-552.5" y1="2867.5" x2="-40.5" y2="2867.5"/>
	<line fill="none" stroke="#B35047" x1="-552.5" y1="2899.5" x2="-40.5" y2="2899.5"/>
	<line fill="none" stroke="#B35047" x1="-552.5" y1="2931.5" x2="-40.5" y2="2931.5"/>
	<line fill="none" stroke="#B35047" x1="-552.5" y1="2963.5" x2="-40.5" y2="2963.5"/>
	<rect x="-552.5" y="2483.5" fill="none" stroke="#B35047" width="512" height="512"/>
</g>
<path fill="#231F20" d="M-364.406,2819.531h-56.062c-11.046,0-20-8.954-20-20s8.954-20,20-20h56.062c11.046,0,20,8.954,20,20
	S-353.36,2819.531-364.406,2819.531z"/>
<path fill="#231F20" d="M-89.919,2579.686c-0.847-0.109-1.704-0.186-2.581-0.186h-192h-24h-192c-0.877,0-1.734,0.076-2.581,0.186
	c-9.823,1.269-17.419,9.645-17.419,19.814v279.999v0.001c0,11.046,8.955,20,20,20h192h24h192c6.904,0,12.99-3.499,16.584-8.819
	c0.051-0.074,0.092-0.154,0.141-0.229c0.306-0.461,0.6-0.931,0.861-1.418c0.023-0.041,0.04-0.086,0.062-0.127
	c1.497-2.806,2.352-6.005,2.352-9.405v-0.001v-279.999C-72.5,2589.33-80.096,2580.954-89.919,2579.686z M-308.5,2619.501h24h172
	v40.015h-368v-40.015H-308.5z M-284.5,2859.499h-24h-172v-119.983h368v119.983H-284.5z"/>
</svg>
