<?xml version="1.0" encoding="utf-8"?>
<!-- Generator: Adobe Illustrator 16.0.4, SVG Export Plug-In . SVG Version: 6.00 Build 0)  -->
<!DOCTYPE svg PUBLIC "-//W3C//DTD SVG 1.1//EN" "http://www.w3.org/Graphics/SVG/1.1/DTD/svg11.dtd">
<svg version="1.1" id="Layer_1" xmlns="http://www.w3.org/2000/svg" xmlns:xlink="http://www.w3.org/1999/xlink" x="0px" y="0px"
	 width="512px" height="512px" viewBox="551.5 -3036.5 512 512" enable-background="new 551.5 -3036.5 512 512"
	 xml:space="preserve">
<g>
	<line fill="none" stroke="#B35047" x1="583.5" y1="-3036.5" x2="583.5" y2="-2524.5"/>
	<line fill="none" stroke="#B35047" x1="615.5" y1="-3036.5" x2="615.5" y2="-2524.5"/>
	<line fill="none" stroke="#B35047" x1="647.5" y1="-3036.5" x2="647.5" y2="-2524.5"/>
	<line fill="none" stroke="#B35047" x1="679.5" y1="-3036.5" x2="679.5" y2="-2524.5"/>
	<line fill="none" stroke="#B35047" x1="711.5" y1="-3036.5" x2="711.5" y2="-2524.5"/>
	<line fill="none" stroke="#B35047" x1="743.5" y1="-3036.5" x2="743.5" y2="-2524.5"/>
	<line fill="none" stroke="#B35047" x1="775.5" y1="-3036.5" x2="775.5" y2="-2524.5"/>
	<line fill="none" stroke="#B35047" x1="807.5" y1="-3036.5" x2="807.5" y2="-2524.5"/>
	<line fill="none" stroke="#B35047" x1="839.5" y1="-3036.5" x2="839.5" y2="-2524.5"/>
	<line fill="none" stroke="#B35047" x1="871.5" y1="-3036.5" x2="871.5" y2="-2524.5"/>
	<line fill="none" stroke="#B35047" x1="903.5" y1="-3036.5" x2="903.5" y2="-2524.5"/>
	<line fill="none" stroke="#B35047" x1="935.5" y1="-3036.5" x2="935.5" y2="-2524.5"/>
	<line fill="none" stroke="#B35047" x1="967.5" y1="-3036.5" x2="967.5" y2="-2524.5"/>
	<line fill="none" stroke="#B35047" x1="999.5" y1="-3036.5" x2="999.5" y2="-2524.5"/>
	<line fill="none" stroke="#B35047" x1="1031.5" y1="-3036.5" x2="1031.5" y2="-2524.5"/>
	<line fill="none" stroke="#B35047" x1="551.5" y1="-3004.5" x2="1063.5" y2="-3004.5"/>
	<line fill="none" stroke="#B35047" x1="551.5" y1="-2972.5" x2="1063.5" y2="-2972.5"/>
	<line fill="none" stroke="#B35047" x1="551.5" y1="-2940.5" x2="1063.5" y2="-2940.5"/>
	<line fill="none" stroke="#B35047" x1="551.5" y1="-2908.5" x2="1063.5" y2="-2908.5"/>
	<line fill="none" stroke="#B35047" x1="551.5" y1="-2876.5" x2="1063.5" y2="-2876.5"/>
	<line fill="none" stroke="#B35047" x1="551.5" y1="-2844.5" x2="1063.5" y2="-2844.5"/>
	<line fill="none" stroke="#B35047" x1="551.5" y1="-2812.5" x2="1063.5" y2="-2812.5"/>
	<line fill="none" stroke="#B35047" x1="551.5" y1="-2780.5" x2="1063.5" y2="-2780.5"/>
	<line fill="none" stroke="#B35047" x1="551.5" y1="-2748.5" x2="1063.5" y2="-2748.5"/>
	<line fill="none" stroke="#B35047" x1="551.5" y1="-2716.5" x2="1063.5" y2="-2716.5"/>
	<line fill="none" stroke="#B35047" x1="551.5" y1="-2684.5" x2="1063.5" y2="-2684.5"/>
	<line fill="none" stroke="#B35047" x1="551.5" y1="-2652.5" x2="1063.5" y2="-2652.5"/>
	<line fill="none" stroke="#B35047" x1="551.5" y1="-2620.5" x2="1063.5" y2="-2620.5"/>
	<line fill="none" stroke="#B35047" x1="551.5" y1="-2588.5" x2="1063.5" y2="-2588.5"/>
	<line fill="none" stroke="#B35047" x1="551.5" y1="-2556.5" x2="1063.5" y2="-2556.5"/>
	<rect x="551.5" y="-3036.5" fill="none" stroke="#B35047" width="512" height="512"/>
</g>
<path fill="#231F20" d="M1058.143-2558.642L836.283-2780.5l221.859-221.859c7.811-7.811,7.81-20.474-0.002-28.283
	c-7.809-7.811-20.471-7.811-28.281,0l-221.858,221.859l-221.86-221.859c-7.81-7.812-20.473-7.811-28.283,0
	c-7.811,7.81-7.811,20.472,0,28.283L779.719-2780.5l-221.861,221.861c-7.811,7.809-7.81,20.471,0,28.28s20.474,7.811,28.283,0
	l221.86-221.859l221.861,221.859c7.809,7.812,20.471,7.811,28.28,0C1065.952-2538.168,1065.953-2550.831,1058.143-2558.642z"/>
</svg>
