<?xml version="1.0" encoding="utf-8"?>
<!-- Generator: Adobe Illustrator 16.0.4, SVG Export Plug-In . SVG Version: 6.00 Build 0)  -->
<!DOCTYPE svg PUBLIC "-//W3C//DTD SVG 1.1//EN" "http://www.w3.org/Graphics/SVG/1.1/DTD/svg11.dtd">
<svg version="1.1" id="Layer_1" xmlns="http://www.w3.org/2000/svg" xmlns:xlink="http://www.w3.org/1999/xlink" x="0px" y="0px"
	 width="512px" height="512px" viewBox="-552.5 4711.822 512 512" enable-background="new -552.5 4711.822 512 512"
	 xml:space="preserve">
<g>
	<line fill="none" stroke="#B35047" x1="-520.484" y1="4711.838" x2="-520.484" y2="5223.838"/>
	<line fill="none" stroke="#B35047" x1="-488.484" y1="4711.838" x2="-488.484" y2="5223.838"/>
	<line fill="none" stroke="#B35047" x1="-456.484" y1="4711.838" x2="-456.484" y2="5223.838"/>
	<line fill="none" stroke="#B35047" x1="-424.484" y1="4711.838" x2="-424.484" y2="5223.838"/>
	<line fill="none" stroke="#B35047" x1="-392.484" y1="4711.838" x2="-392.484" y2="5223.838"/>
	<line fill="none" stroke="#B35047" x1="-360.484" y1="4711.838" x2="-360.484" y2="5223.838"/>
	<line fill="none" stroke="#B35047" x1="-328.484" y1="4711.838" x2="-328.484" y2="5223.838"/>
	<line fill="none" stroke="#B35047" x1="-296.484" y1="4711.838" x2="-296.484" y2="5223.838"/>
	<line fill="none" stroke="#B35047" x1="-264.484" y1="4711.838" x2="-264.484" y2="5223.838"/>
	<line fill="none" stroke="#B35047" x1="-232.484" y1="4711.838" x2="-232.484" y2="5223.838"/>
	<line fill="none" stroke="#B35047" x1="-200.484" y1="4711.838" x2="-200.484" y2="5223.838"/>
	<line fill="none" stroke="#B35047" x1="-168.484" y1="4711.838" x2="-168.484" y2="5223.838"/>
	<line fill="none" stroke="#B35047" x1="-136.484" y1="4711.838" x2="-136.484" y2="5223.838"/>
	<line fill="none" stroke="#B35047" x1="-104.484" y1="4711.838" x2="-104.484" y2="5223.838"/>
	<line fill="none" stroke="#B35047" x1="-72.484" y1="4711.838" x2="-72.484" y2="5223.838"/>
	<line fill="none" stroke="#B35047" x1="-552.484" y1="4743.838" x2="-40.484" y2="4743.838"/>
	<line fill="none" stroke="#B35047" x1="-552.484" y1="4775.838" x2="-40.484" y2="4775.838"/>
	<line fill="none" stroke="#B35047" x1="-552.484" y1="4807.838" x2="-40.484" y2="4807.838"/>
	<line fill="none" stroke="#B35047" x1="-552.484" y1="4839.838" x2="-40.484" y2="4839.838"/>
	<line fill="none" stroke="#B35047" x1="-552.484" y1="4871.838" x2="-40.484" y2="4871.838"/>
	<line fill="none" stroke="#B35047" x1="-552.484" y1="4903.838" x2="-40.484" y2="4903.838"/>
	<line fill="none" stroke="#B35047" x1="-552.484" y1="4935.838" x2="-40.484" y2="4935.838"/>
	<line fill="none" stroke="#B35047" x1="-552.484" y1="4967.838" x2="-40.484" y2="4967.838"/>
	<line fill="none" stroke="#B35047" x1="-552.484" y1="4999.838" x2="-40.484" y2="4999.838"/>
	<line fill="none" stroke="#B35047" x1="-552.484" y1="5031.838" x2="-40.484" y2="5031.838"/>
	<line fill="none" stroke="#B35047" x1="-552.484" y1="5063.838" x2="-40.484" y2="5063.838"/>
	<line fill="none" stroke="#B35047" x1="-552.484" y1="5095.838" x2="-40.484" y2="5095.838"/>
	<line fill="none" stroke="#B35047" x1="-552.484" y1="5127.838" x2="-40.484" y2="5127.838"/>
	<line fill="none" stroke="#B35047" x1="-552.484" y1="5159.838" x2="-40.484" y2="5159.838"/>
	<line fill="none" stroke="#B35047" x1="-552.484" y1="5191.838" x2="-40.484" y2="5191.838"/>
	<rect x="-552.484" y="4711.838" fill="none" stroke="#B35047" width="512" height="512"/>
</g>
<path d="M-120.51,4833.049c0.004-0.115-0.047-1.972-0.076-2.312c-0.029-0.344-0.184-1.486-0.248-1.871
	c-0.004-0.029-0.176-0.856-0.27-1.243c-0.062-0.254-0.123-0.507-0.195-0.759c-0.113-0.392-0.553-1.646-0.648-1.89
	c-0.152-0.377-0.713-1.581-0.834-1.813c-0.199-0.381-0.875-1.514-1.004-1.709c-0.303-0.462-0.631-0.905-0.971-1.339
	c-0.066-0.084-0.123-0.173-0.191-0.256c-0.49-0.606-1.014-1.182-1.57-1.727l-52.01-52.45c-1.857-1.857-3.994-3.259-6.27-4.232
	c-0.045-0.02-1.881-0.702-2.004-0.74c-0.471-0.144-0.947-0.258-1.426-0.366c-0.168-0.038-0.33-0.088-0.498-0.122
	c-0.5-0.1-1.809-0.279-1.961-0.295c-0.662-0.065-1.326-0.102-1.988-0.102H-452.5c-0.877,0-1.734,0.076-2.582,0.186
	c-9.822,1.27-17.418,9.646-17.418,19.814v376c0,11.047,8.955,20,20,20h312c11.045,0,20-8.953,20-20L-120.51,4833.049z
	 M-160.5,5135.822h-272v-336l219.807,0.001v32.593c0,11.045,8.955,20,20,20h32.184L-160.5,5135.822z"/>
<path d="M-372.5,4879.822c-11.046,0-20,8.954-20,20s8.954,20,20,20h152c11.045,0,20-8.954,20-20s-8.955-20-20-20H-372.5z"/>
<path d="M-220.5,4955.822h-152c-11.046,0-20,8.954-20,20s8.954,20,20,20h152c11.045,0,20-8.954,20-20
	S-209.455,4955.822-220.5,4955.822z"/>
<path d="M-220.5,5031.822h-152c-11.046,0-20,8.954-20,20s8.954,20,20,20h152c11.045,0,20-8.954,20-20
	S-209.455,5031.822-220.5,5031.822z"/>
</svg>
