<?xml version="1.0" encoding="utf-8"?>
<!-- Generator: Adobe Illustrator 16.0.4, SVG Export Plug-In . SVG Version: 6.00 Build 0)  -->
<!DOCTYPE svg PUBLIC "-//W3C//DTD SVG 1.1//EN" "http://www.w3.org/Graphics/SVG/1.1/DTD/svg11.dtd">
<svg version="1.1" id="Layer_1" xmlns="http://www.w3.org/2000/svg" xmlns:xlink="http://www.w3.org/1999/xlink" x="0px" y="0px"
	 width="512px" height="512px" viewBox="-0.5 275.5 512 512" enable-background="new -0.5 275.5 512 512" xml:space="preserve">
<g>
	<line fill="none" stroke="#B35047" x1="31.5" y1="275.5" x2="31.5" y2="787.5"/>
	<line fill="none" stroke="#B35047" x1="63.5" y1="275.5" x2="63.5" y2="787.5"/>
	<line fill="none" stroke="#B35047" x1="95.5" y1="275.5" x2="95.5" y2="787.5"/>
	<line fill="none" stroke="#B35047" x1="127.5" y1="275.5" x2="127.5" y2="787.5"/>
	<line fill="none" stroke="#B35047" x1="159.5" y1="275.5" x2="159.5" y2="787.5"/>
	<line fill="none" stroke="#B35047" x1="191.5" y1="275.5" x2="191.5" y2="787.5"/>
	<line fill="none" stroke="#B35047" x1="223.5" y1="275.5" x2="223.5" y2="787.5"/>
	<line fill="none" stroke="#B35047" x1="255.5" y1="275.5" x2="255.5" y2="787.5"/>
	<line fill="none" stroke="#B35047" x1="287.5" y1="275.5" x2="287.5" y2="787.5"/>
	<line fill="none" stroke="#B35047" x1="319.5" y1="275.5" x2="319.5" y2="787.5"/>
	<line fill="none" stroke="#B35047" x1="351.5" y1="275.5" x2="351.5" y2="787.5"/>
	<line fill="none" stroke="#B35047" x1="383.5" y1="275.5" x2="383.5" y2="787.5"/>
	<line fill="none" stroke="#B35047" x1="415.5" y1="275.5" x2="415.5" y2="787.5"/>
	<line fill="none" stroke="#B35047" x1="447.5" y1="275.5" x2="447.5" y2="787.5"/>
	<line fill="none" stroke="#B35047" x1="479.5" y1="275.5" x2="479.5" y2="787.5"/>
	<line fill="none" stroke="#B35047" x1="-0.5" y1="307.5" x2="511.5" y2="307.5"/>
	<line fill="none" stroke="#B35047" x1="-0.5" y1="339.5" x2="511.5" y2="339.5"/>
	<line fill="none" stroke="#B35047" x1="-0.5" y1="371.5" x2="511.5" y2="371.5"/>
	<line fill="none" stroke="#B35047" x1="-0.5" y1="403.5" x2="511.5" y2="403.5"/>
	<line fill="none" stroke="#B35047" x1="-0.5" y1="435.5" x2="511.5" y2="435.5"/>
	<line fill="none" stroke="#B35047" x1="-0.5" y1="467.5" x2="511.5" y2="467.5"/>
	<line fill="none" stroke="#B35047" x1="-0.5" y1="499.5" x2="511.5" y2="499.5"/>
	<line fill="none" stroke="#B35047" x1="-0.5" y1="531.5" x2="511.5" y2="531.5"/>
	<line fill="none" stroke="#B35047" x1="-0.5" y1="563.5" x2="511.5" y2="563.5"/>
	<line fill="none" stroke="#B35047" x1="-0.5" y1="595.5" x2="511.5" y2="595.5"/>
	<line fill="none" stroke="#B35047" x1="-0.5" y1="627.5" x2="511.5" y2="627.5"/>
	<line fill="none" stroke="#B35047" x1="-0.5" y1="659.5" x2="511.5" y2="659.5"/>
	<line fill="none" stroke="#B35047" x1="-0.5" y1="691.5" x2="511.5" y2="691.5"/>
	<line fill="none" stroke="#B35047" x1="-0.5" y1="723.5" x2="511.5" y2="723.5"/>
	<line fill="none" stroke="#B35047" x1="-0.5" y1="755.5" x2="511.5" y2="755.5"/>
	<rect x="-0.5" y="275.5" fill="none" stroke="#B35047" width="512" height="512"/>
</g>
<path fill="#231F20" d="M91.5,472c33.137,0,60,26.865,60,60s-26.863,60-60,60c-33.143,0-60-26.865-60-60S58.357,472,91.5,472z
	 M255.5,472c33.136,0,60,26.865,60,60s-26.864,60-60,60c-33.143,0-60-26.865-60-60S222.357,472,255.5,472z M419.5,472
	c33.136,0,60,26.865,60,60s-26.864,60-60,60c-33.143,0-60-26.865-60-60S386.357,472,419.5,472z"/>
</svg>
