<?xml version="1.0" encoding="utf-8"?>
<!-- Generator: Adobe Illustrator 16.0.4, SVG Export Plug-In . SVG Version: 6.00 Build 0)  -->
<!DOCTYPE svg PUBLIC "-//W3C//DTD SVG 1.1//EN" "http://www.w3.org/Graphics/SVG/1.1/DTD/svg11.dtd">
<svg version="1.1" id="Layer_1" xmlns="http://www.w3.org/2000/svg" xmlns:xlink="http://www.w3.org/1999/xlink" x="0px" y="0px"
	 width="512px" height="512px" viewBox="-1104.5 -1380.5 512 512" enable-background="new -1104.5 -1380.5 512 512"
	 xml:space="preserve">
<g>
	<line fill="none" stroke="#B35047" x1="-1072.484" y1="-1380.483" x2="-1072.484" y2="-868.483"/>
	<line fill="none" stroke="#B35047" x1="-1040.484" y1="-1380.483" x2="-1040.484" y2="-868.483"/>
	<line fill="none" stroke="#B35047" x1="-1008.484" y1="-1380.483" x2="-1008.484" y2="-868.483"/>
	<line fill="none" stroke="#B35047" x1="-976.484" y1="-1380.483" x2="-976.484" y2="-868.483"/>
	<line fill="none" stroke="#B35047" x1="-944.484" y1="-1380.483" x2="-944.484" y2="-868.483"/>
	<line fill="none" stroke="#B35047" x1="-912.484" y1="-1380.483" x2="-912.484" y2="-868.483"/>
	<line fill="none" stroke="#B35047" x1="-880.484" y1="-1380.483" x2="-880.484" y2="-868.483"/>
	<line fill="none" stroke="#B35047" x1="-848.484" y1="-1380.483" x2="-848.484" y2="-868.483"/>
	<line fill="none" stroke="#B35047" x1="-816.484" y1="-1380.483" x2="-816.484" y2="-868.483"/>
	<line fill="none" stroke="#B35047" x1="-784.484" y1="-1380.483" x2="-784.484" y2="-868.483"/>
	<line fill="none" stroke="#B35047" x1="-752.484" y1="-1380.483" x2="-752.484" y2="-868.483"/>
	<line fill="none" stroke="#B35047" x1="-720.484" y1="-1380.483" x2="-720.484" y2="-868.483"/>
	<line fill="none" stroke="#B35047" x1="-688.484" y1="-1380.483" x2="-688.484" y2="-868.483"/>
	<line fill="none" stroke="#B35047" x1="-656.484" y1="-1380.483" x2="-656.484" y2="-868.483"/>
	<line fill="none" stroke="#B35047" x1="-624.484" y1="-1380.483" x2="-624.484" y2="-868.483"/>
	<line fill="none" stroke="#B35047" x1="-1104.484" y1="-1348.485" x2="-592.484" y2="-1348.485"/>
	<line fill="none" stroke="#B35047" x1="-1104.484" y1="-1316.485" x2="-592.484" y2="-1316.485"/>
	<line fill="none" stroke="#B35047" x1="-1104.484" y1="-1284.485" x2="-592.484" y2="-1284.485"/>
	<line fill="none" stroke="#B35047" x1="-1104.484" y1="-1252.485" x2="-592.484" y2="-1252.485"/>
	<line fill="none" stroke="#B35047" x1="-1104.484" y1="-1220.485" x2="-592.484" y2="-1220.485"/>
	<line fill="none" stroke="#B35047" x1="-1104.484" y1="-1188.485" x2="-592.484" y2="-1188.485"/>
	<line fill="none" stroke="#B35047" x1="-1104.484" y1="-1156.485" x2="-592.484" y2="-1156.485"/>
	<line fill="none" stroke="#B35047" x1="-1104.484" y1="-1124.483" x2="-592.484" y2="-1124.483"/>
	<line fill="none" stroke="#B35047" x1="-1104.484" y1="-1092.483" x2="-592.484" y2="-1092.483"/>
	<line fill="none" stroke="#B35047" x1="-1104.484" y1="-1060.483" x2="-592.484" y2="-1060.483"/>
	<line fill="none" stroke="#B35047" x1="-1104.484" y1="-1028.483" x2="-592.484" y2="-1028.483"/>
	<line fill="none" stroke="#B35047" x1="-1104.484" y1="-996.483" x2="-592.484" y2="-996.483"/>
	<line fill="none" stroke="#B35047" x1="-1104.484" y1="-964.483" x2="-592.484" y2="-964.483"/>
	<line fill="none" stroke="#B35047" x1="-1104.484" y1="-932.483" x2="-592.484" y2="-932.483"/>
	<line fill="none" stroke="#B35047" x1="-1104.484" y1="-900.483" x2="-592.484" y2="-900.483"/>
	<rect x="-1104.484" y="-1380.483" fill="none" stroke="#B35047" width="512" height="512"/>
</g>
<path fill="#231F20" d="M-624.484-1246.499c0.374-5.02-1.123-10.182-4.613-14.342c-2.992-3.566-6.969-5.811-11.197-6.697
	c-0.065-0.014-0.134-0.033-0.198-0.047c-0.541-0.109-1.086-0.188-1.636-0.25c-0.125-0.016-0.246-0.039-0.371-0.051
	c-0.514-0.049-1.026-0.068-1.545-0.078c-0.146-0.002-0.291-0.021-0.438-0.021h-408.004c-10.708,0-19.424,8.422-19.949,19
	c-0.017,0.314-0.046,0.629-0.048,0.945c0,0.018-0.003,0.037-0.003,0.057c0,0.025,0.004,0.051,0.004,0.076v247.846
	c0,0.027-0.004,0.053-0.004,0.078c0,11.045,8.955,20,20,20h408.002c6.904,0,12.99-3.498,16.585-8.818
	c0.05-0.074,0.091-0.156,0.14-0.229c0.303-0.465,0.598-0.934,0.861-1.42c0.023-0.041,0.04-0.086,0.062-0.129
	c1.496-2.803,2.352-6.004,2.352-9.402l0,0l0,0V-1246.499z M-1032.484-1205.422l169.973,140.594
	c3.284,3.217,7.459,5.084,11.782,5.561c0.08,0.012,0.16,0.025,0.24,0.033c0.419,0.041,0.838,0.057,1.259,0.07
	c0.248,0.01,0.497,0.029,0.746,0.029s0.498-0.021,0.746-0.029c0.421-0.014,0.84-0.029,1.259-0.07c0.08-0.008,0.16-0.021,0.24-0.033
	c4.323-0.479,8.498-2.344,11.782-5.561l169.973-140.604v185.447h-368V-1205.422z M-996.967-1227.985h296.955l-148.473,122.711
	L-996.967-1227.985z"/>
</svg>
