<?xml version="1.0" encoding="utf-8"?>
<!-- Generator: Adobe Illustrator 16.0.4, SVG Export Plug-In . SVG Version: 6.00 Build 0)  -->
<!DOCTYPE svg PUBLIC "-//W3C//DTD SVG 1.1//EN" "http://www.w3.org/Graphics/SVG/1.1/DTD/svg11.dtd">
<svg version="1.1" id="Layer_1" xmlns="http://www.w3.org/2000/svg" xmlns:xlink="http://www.w3.org/1999/xlink" x="0px" y="0px"
	 width="512px" height="512px" viewBox="1103.5 2483.5 512 512" enable-background="new 1103.5 2483.5 512 512"
	 xml:space="preserve">
<g>
	<line fill="none" stroke="#B35047" x1="1135.5" y1="2483.5" x2="1135.5" y2="2995.5"/>
	<line fill="none" stroke="#B35047" x1="1167.5" y1="2483.5" x2="1167.5" y2="2995.5"/>
	<line fill="none" stroke="#B35047" x1="1199.5" y1="2483.5" x2="1199.5" y2="2995.5"/>
	<line fill="none" stroke="#B35047" x1="1231.5" y1="2483.5" x2="1231.5" y2="2995.5"/>
	<line fill="none" stroke="#B35047" x1="1263.5" y1="2483.5" x2="1263.5" y2="2995.5"/>
	<line fill="none" stroke="#B35047" x1="1295.5" y1="2483.5" x2="1295.5" y2="2995.5"/>
	<line fill="none" stroke="#B35047" x1="1327.5" y1="2483.5" x2="1327.5" y2="2995.5"/>
	<line fill="none" stroke="#B35047" x1="1359.5" y1="2483.5" x2="1359.5" y2="2995.5"/>
	<line fill="none" stroke="#B35047" x1="1391.5" y1="2483.5" x2="1391.5" y2="2995.5"/>
	<line fill="none" stroke="#B35047" x1="1423.5" y1="2483.5" x2="1423.5" y2="2995.5"/>
	<line fill="none" stroke="#B35047" x1="1455.5" y1="2483.5" x2="1455.5" y2="2995.5"/>
	<line fill="none" stroke="#B35047" x1="1487.5" y1="2483.5" x2="1487.5" y2="2995.5"/>
	<line fill="none" stroke="#B35047" x1="1519.5" y1="2483.5" x2="1519.5" y2="2995.5"/>
	<line fill="none" stroke="#B35047" x1="1551.5" y1="2483.5" x2="1551.5" y2="2995.5"/>
	<line fill="none" stroke="#B35047" x1="1583.5" y1="2483.5" x2="1583.5" y2="2995.5"/>
	<line fill="none" stroke="#B35047" x1="1103.5" y1="2515.5" x2="1615.5" y2="2515.5"/>
	<line fill="none" stroke="#B35047" x1="1103.5" y1="2547.5" x2="1615.5" y2="2547.5"/>
	<line fill="none" stroke="#B35047" x1="1103.5" y1="2579.5" x2="1615.5" y2="2579.5"/>
	<line fill="none" stroke="#B35047" x1="1103.5" y1="2611.5" x2="1615.5" y2="2611.5"/>
	<line fill="none" stroke="#B35047" x1="1103.5" y1="2643.5" x2="1615.5" y2="2643.5"/>
	<line fill="none" stroke="#B35047" x1="1103.5" y1="2675.5" x2="1615.5" y2="2675.5"/>
	<line fill="none" stroke="#B35047" x1="1103.5" y1="2707.5" x2="1615.5" y2="2707.5"/>
	<line fill="none" stroke="#B35047" x1="1103.5" y1="2739.5" x2="1615.5" y2="2739.5"/>
	<line fill="none" stroke="#B35047" x1="1103.5" y1="2771.5" x2="1615.5" y2="2771.5"/>
	<line fill="none" stroke="#B35047" x1="1103.5" y1="2803.5" x2="1615.5" y2="2803.5"/>
	<line fill="none" stroke="#B35047" x1="1103.5" y1="2835.5" x2="1615.5" y2="2835.5"/>
	<line fill="none" stroke="#B35047" x1="1103.5" y1="2867.5" x2="1615.5" y2="2867.5"/>
	<line fill="none" stroke="#B35047" x1="1103.5" y1="2899.5" x2="1615.5" y2="2899.5"/>
	<line fill="none" stroke="#B35047" x1="1103.5" y1="2931.5" x2="1615.5" y2="2931.5"/>
	<line fill="none" stroke="#B35047" x1="1103.5" y1="2963.5" x2="1615.5" y2="2963.5"/>
	<rect x="1103.5" y="2483.5" fill="none" stroke="#B35047" width="512" height="512"/>
</g>
<g>
	<path fill="#231F20" d="M1587.5,2740c0-123.712-100.287-224-224-224c-123.711,0-224,100.288-224,224s100.289,224,224,224
		C1487.213,2964,1587.5,2863.712,1587.5,2740z M1233.393,2870.107c-34.752-34.754-53.893-80.959-53.893-130.107
		c0-49.147,19.141-95.354,53.893-130.108c34.754-34.752,80.959-53.892,130.107-53.892s95.354,19.14,130.107,53.892
		c34.754,34.754,53.893,80.961,53.893,130.108c0,49.148-19.139,95.354-53.893,130.107C1458.854,2904.86,1412.646,2924,1363.5,2924
		C1314.352,2924,1268.146,2904.86,1233.393,2870.107z"/>
</g>
<circle cx="1283.75" cy="2675.999" r="32"/>
<circle cx="1443.5" cy="2675.999" r="32"/>
<path fill="#231F20" d="M1472,2784h-216c-11.045,0-20,8.955-20,20c0,11.047,8.955,20,20,20h216c11.047,0,20-8.953,20-20
	C1492,2792.955,1483.047,2784,1472,2784z"/>
</svg>
