<?xml version="1.0" encoding="utf-8"?>
<!-- Generator: Adobe Illustrator 16.0.4, SVG Export Plug-In . SVG Version: 6.00 Build 0)  -->
<!DOCTYPE svg PUBLIC "-//W3C//DTD SVG 1.1//EN" "http://www.w3.org/Graphics/SVG/1.1/DTD/svg11.dtd">
<svg version="1.1" id="Layer_1" xmlns="http://www.w3.org/2000/svg" xmlns:xlink="http://www.w3.org/1999/xlink" x="0px" y="0px"
	 width="512px" height="512px" viewBox="-552.5 4139.5 512 512" enable-background="new -552.5 4139.5 512 512"
	 xml:space="preserve">
<g>
	<line fill="none" stroke="#B35047" x1="-520.5" y1="4139.5" x2="-520.5" y2="4651.5"/>
	<line fill="none" stroke="#B35047" x1="-488.5" y1="4139.5" x2="-488.5" y2="4651.5"/>
	<line fill="none" stroke="#B35047" x1="-456.5" y1="4139.5" x2="-456.5" y2="4651.5"/>
	<line fill="none" stroke="#B35047" x1="-424.5" y1="4139.5" x2="-424.5" y2="4651.5"/>
	<line fill="none" stroke="#B35047" x1="-392.5" y1="4139.5" x2="-392.5" y2="4651.5"/>
	<line fill="none" stroke="#B35047" x1="-360.5" y1="4139.5" x2="-360.5" y2="4651.5"/>
	<line fill="none" stroke="#B35047" x1="-328.5" y1="4139.5" x2="-328.5" y2="4651.5"/>
	<line fill="none" stroke="#B35047" x1="-296.5" y1="4139.5" x2="-296.5" y2="4651.5"/>
	<line fill="none" stroke="#B35047" x1="-264.5" y1="4139.5" x2="-264.5" y2="4651.5"/>
	<line fill="none" stroke="#B35047" x1="-232.5" y1="4139.5" x2="-232.5" y2="4651.5"/>
	<line fill="none" stroke="#B35047" x1="-200.5" y1="4139.5" x2="-200.5" y2="4651.5"/>
	<line fill="none" stroke="#B35047" x1="-168.5" y1="4139.5" x2="-168.5" y2="4651.5"/>
	<line fill="none" stroke="#B35047" x1="-136.5" y1="4139.5" x2="-136.5" y2="4651.5"/>
	<line fill="none" stroke="#B35047" x1="-104.5" y1="4139.5" x2="-104.5" y2="4651.5"/>
	<line fill="none" stroke="#B35047" x1="-72.5" y1="4139.5" x2="-72.5" y2="4651.5"/>
	<line fill="none" stroke="#B35047" x1="-552.5" y1="4171.5" x2="-40.5" y2="4171.5"/>
	<line fill="none" stroke="#B35047" x1="-552.5" y1="4203.5" x2="-40.5" y2="4203.5"/>
	<line fill="none" stroke="#B35047" x1="-552.5" y1="4235.5" x2="-40.5" y2="4235.5"/>
	<line fill="none" stroke="#B35047" x1="-552.5" y1="4267.5" x2="-40.5" y2="4267.5"/>
	<line fill="none" stroke="#B35047" x1="-552.5" y1="4299.5" x2="-40.5" y2="4299.5"/>
	<line fill="none" stroke="#B35047" x1="-552.5" y1="4331.5" x2="-40.5" y2="4331.5"/>
	<line fill="none" stroke="#B35047" x1="-552.5" y1="4363.5" x2="-40.5" y2="4363.5"/>
	<line fill="none" stroke="#B35047" x1="-552.5" y1="4395.5" x2="-40.5" y2="4395.5"/>
	<line fill="none" stroke="#B35047" x1="-552.5" y1="4427.5" x2="-40.5" y2="4427.5"/>
	<line fill="none" stroke="#B35047" x1="-552.5" y1="4459.5" x2="-40.5" y2="4459.5"/>
	<line fill="none" stroke="#B35047" x1="-552.5" y1="4491.5" x2="-40.5" y2="4491.5"/>
	<line fill="none" stroke="#B35047" x1="-552.5" y1="4523.5" x2="-40.5" y2="4523.5"/>
	<line fill="none" stroke="#B35047" x1="-552.5" y1="4555.5" x2="-40.5" y2="4555.5"/>
	<line fill="none" stroke="#B35047" x1="-552.5" y1="4587.5" x2="-40.5" y2="4587.5"/>
	<line fill="none" stroke="#B35047" x1="-552.5" y1="4619.5" x2="-40.5" y2="4619.5"/>
	<rect x="-552.5" y="4139.5" fill="none" stroke="#B35047" width="512" height="512"/>
</g>
<g>
	<path d="M-261.24,4619.5h-83.94v-224h-56v-77.198l56-0.026l-0.083-45.474c-0.018-62.987,17.06-101.302,91.242-101.302h61.771
		v77.212h-38.595c-28.891,0-30.283,10.78-30.283,30.925l-0.109,38.639h69.427l-8.188,77.197l-61.18,0.026L-261.24,4619.5z"/>
</g>
</svg>
