<?xml version="1.0" encoding="utf-8"?>
<!-- Generator: Adobe Illustrator 16.0.4, SVG Export Plug-In . SVG Version: 6.00 Build 0)  -->
<!DOCTYPE svg PUBLIC "-//W3C//DTD SVG 1.1//EN" "http://www.w3.org/Graphics/SVG/1.1/DTD/svg11.dtd">
<svg version="1.1" id="Layer_1" xmlns="http://www.w3.org/2000/svg" xmlns:xlink="http://www.w3.org/1999/xlink" x="0px" y="0px"
	 width="512px" height="512px" viewBox="551.5 2483.5 512 512" enable-background="new 551.5 2483.5 512 512" xml:space="preserve">
<g>
	<line fill="none" stroke="#B35047" x1="583.5" y1="2483.5" x2="583.5" y2="2995.5"/>
	<line fill="none" stroke="#B35047" x1="615.5" y1="2483.5" x2="615.5" y2="2995.5"/>
	<line fill="none" stroke="#B35047" x1="647.5" y1="2483.5" x2="647.5" y2="2995.5"/>
	<line fill="none" stroke="#B35047" x1="679.5" y1="2483.5" x2="679.5" y2="2995.5"/>
	<line fill="none" stroke="#B35047" x1="711.5" y1="2483.5" x2="711.5" y2="2995.5"/>
	<line fill="none" stroke="#B35047" x1="743.5" y1="2483.5" x2="743.5" y2="2995.5"/>
	<line fill="none" stroke="#B35047" x1="775.5" y1="2483.5" x2="775.5" y2="2995.5"/>
	<line fill="none" stroke="#B35047" x1="807.5" y1="2483.5" x2="807.5" y2="2995.5"/>
	<line fill="none" stroke="#B35047" x1="839.5" y1="2483.5" x2="839.5" y2="2995.5"/>
	<line fill="none" stroke="#B35047" x1="871.5" y1="2483.5" x2="871.5" y2="2995.5"/>
	<line fill="none" stroke="#B35047" x1="903.5" y1="2483.5" x2="903.5" y2="2995.5"/>
	<line fill="none" stroke="#B35047" x1="935.5" y1="2483.5" x2="935.5" y2="2995.5"/>
	<line fill="none" stroke="#B35047" x1="967.5" y1="2483.5" x2="967.5" y2="2995.5"/>
	<line fill="none" stroke="#B35047" x1="999.5" y1="2483.5" x2="999.5" y2="2995.5"/>
	<line fill="none" stroke="#B35047" x1="1031.5" y1="2483.5" x2="1031.5" y2="2995.5"/>
	<line fill="none" stroke="#B35047" x1="551.5" y1="2515.5" x2="1063.5" y2="2515.5"/>
	<line fill="none" stroke="#B35047" x1="551.5" y1="2547.5" x2="1063.5" y2="2547.5"/>
	<line fill="none" stroke="#B35047" x1="551.5" y1="2579.5" x2="1063.5" y2="2579.5"/>
	<line fill="none" stroke="#B35047" x1="551.5" y1="2611.5" x2="1063.5" y2="2611.5"/>
	<line fill="none" stroke="#B35047" x1="551.5" y1="2643.5" x2="1063.5" y2="2643.5"/>
	<line fill="none" stroke="#B35047" x1="551.5" y1="2675.5" x2="1063.5" y2="2675.5"/>
	<line fill="none" stroke="#B35047" x1="551.5" y1="2707.5" x2="1063.5" y2="2707.5"/>
	<line fill="none" stroke="#B35047" x1="551.5" y1="2739.5" x2="1063.5" y2="2739.5"/>
	<line fill="none" stroke="#B35047" x1="551.5" y1="2771.5" x2="1063.5" y2="2771.5"/>
	<line fill="none" stroke="#B35047" x1="551.5" y1="2803.5" x2="1063.5" y2="2803.5"/>
	<line fill="none" stroke="#B35047" x1="551.5" y1="2835.5" x2="1063.5" y2="2835.5"/>
	<line fill="none" stroke="#B35047" x1="551.5" y1="2867.5" x2="1063.5" y2="2867.5"/>
	<line fill="none" stroke="#B35047" x1="551.5" y1="2899.5" x2="1063.5" y2="2899.5"/>
	<line fill="none" stroke="#B35047" x1="551.5" y1="2931.5" x2="1063.5" y2="2931.5"/>
	<line fill="none" stroke="#B35047" x1="551.5" y1="2963.5" x2="1063.5" y2="2963.5"/>
	<rect x="551.5" y="2483.5" fill="none" stroke="#B35047" width="512" height="512"/>
</g>
<g>
	<path fill="#231F20" d="M1031.5,2740c0-123.712-100.287-224-224-224c-123.711,0-224,100.288-224,224s100.289,224,224,224
		C931.213,2964,1031.5,2863.712,1031.5,2740z M677.393,2870.107C642.641,2835.354,623.5,2789.148,623.5,2740
		c0-49.147,19.141-95.354,53.893-130.108C712.146,2575.14,758.352,2556,807.5,2556s95.354,19.14,130.107,53.892
		c34.754,34.754,53.893,80.961,53.893,130.108c0,49.148-19.139,95.354-53.893,130.107C902.854,2904.86,856.646,2924,807.5,2924
		C758.352,2924,712.146,2904.86,677.393,2870.107z"/>
</g>
<circle cx="727.75" cy="2675.999" r="32"/>
<circle cx="887.5" cy="2675.999" r="32"/>
<path d="M680,2835.5c0,3.642,0.989,7.046,2.69,9.986v0.012h0.007c3.46,5.973,9.906,10.002,17.305,10.002s13.844-4.029,17.303-10.002
	h0.045c17.881-31.611,51.812-52.998,90.65-52.998s72.767,21.387,90.646,52.998h0.049c3.46,5.973,9.906,10.002,17.305,10.002
	s13.844-4.029,17.303-10.002h0.061v-0.099c1.67-2.921,2.637-6.294,2.637-9.899s-0.967-6.979-2.637-9.9v-0.046
	C908.6,2781.934,861.743,2752.5,808,2752.5c-53.705,0-100.533,29.395-125.31,72.965v0.047C680.989,2828.453,680,2831.857,680,2835.5
	z"/>
</svg>
