<?xml version="1.0" encoding="utf-8"?>
<!-- Generator: Adobe Illustrator 16.0.4, SVG Export Plug-In . SVG Version: 6.00 Build 0)  -->
<!DOCTYPE svg PUBLIC "-//W3C//DTD SVG 1.1//EN" "http://www.w3.org/Graphics/SVG/1.1/DTD/svg11.dtd">
<svg version="1.1" id="Layer_1" xmlns="http://www.w3.org/2000/svg" xmlns:xlink="http://www.w3.org/1999/xlink" x="0px" y="0px"
	 width="512px" height="512px" viewBox="-0.5 2483.5 512 512" enable-background="new -0.5 2483.5 512 512" xml:space="preserve">
<g>
	<line fill="none" stroke="#B35047" x1="31.5" y1="2483.5" x2="31.5" y2="2995.5"/>
	<line fill="none" stroke="#B35047" x1="63.5" y1="2483.5" x2="63.5" y2="2995.5"/>
	<line fill="none" stroke="#B35047" x1="95.5" y1="2483.5" x2="95.5" y2="2995.5"/>
	<line fill="none" stroke="#B35047" x1="127.5" y1="2483.5" x2="127.5" y2="2995.5"/>
	<line fill="none" stroke="#B35047" x1="159.5" y1="2483.5" x2="159.5" y2="2995.5"/>
	<line fill="none" stroke="#B35047" x1="191.5" y1="2483.5" x2="191.5" y2="2995.5"/>
	<line fill="none" stroke="#B35047" x1="223.5" y1="2483.5" x2="223.5" y2="2995.5"/>
	<line fill="none" stroke="#B35047" x1="255.5" y1="2483.5" x2="255.5" y2="2995.5"/>
	<line fill="none" stroke="#B35047" x1="287.5" y1="2483.5" x2="287.5" y2="2995.5"/>
	<line fill="none" stroke="#B35047" x1="319.5" y1="2483.5" x2="319.5" y2="2995.5"/>
	<line fill="none" stroke="#B35047" x1="351.5" y1="2483.5" x2="351.5" y2="2995.5"/>
	<line fill="none" stroke="#B35047" x1="383.5" y1="2483.5" x2="383.5" y2="2995.5"/>
	<line fill="none" stroke="#B35047" x1="415.5" y1="2483.5" x2="415.5" y2="2995.5"/>
	<line fill="none" stroke="#B35047" x1="447.5" y1="2483.5" x2="447.5" y2="2995.5"/>
	<line fill="none" stroke="#B35047" x1="479.5" y1="2483.5" x2="479.5" y2="2995.5"/>
	<line fill="none" stroke="#B35047" x1="-0.5" y1="2515.5" x2="511.5" y2="2515.5"/>
	<line fill="none" stroke="#B35047" x1="-0.5" y1="2547.5" x2="511.5" y2="2547.5"/>
	<line fill="none" stroke="#B35047" x1="-0.5" y1="2579.5" x2="511.5" y2="2579.5"/>
	<line fill="none" stroke="#B35047" x1="-0.5" y1="2611.5" x2="511.5" y2="2611.5"/>
	<line fill="none" stroke="#B35047" x1="-0.5" y1="2643.5" x2="511.5" y2="2643.5"/>
	<line fill="none" stroke="#B35047" x1="-0.5" y1="2675.5" x2="511.5" y2="2675.5"/>
	<line fill="none" stroke="#B35047" x1="-0.5" y1="2707.5" x2="511.5" y2="2707.5"/>
	<line fill="none" stroke="#B35047" x1="-0.5" y1="2739.5" x2="511.5" y2="2739.5"/>
	<line fill="none" stroke="#B35047" x1="-0.5" y1="2771.5" x2="511.5" y2="2771.5"/>
	<line fill="none" stroke="#B35047" x1="-0.5" y1="2803.5" x2="511.5" y2="2803.5"/>
	<line fill="none" stroke="#B35047" x1="-0.5" y1="2835.5" x2="511.5" y2="2835.5"/>
	<line fill="none" stroke="#B35047" x1="-0.5" y1="2867.5" x2="511.5" y2="2867.5"/>
	<line fill="none" stroke="#B35047" x1="-0.5" y1="2899.5" x2="511.5" y2="2899.5"/>
	<line fill="none" stroke="#B35047" x1="-0.5" y1="2931.5" x2="511.5" y2="2931.5"/>
	<line fill="none" stroke="#B35047" x1="-0.5" y1="2963.5" x2="511.5" y2="2963.5"/>
	<rect x="-0.5" y="2483.5" fill="none" stroke="#B35047" width="512" height="512"/>
</g>
<g>
	<path fill="#231F20" d="M479.5,2740c0-123.712-100.287-224-224-224c-123.711,0-224,100.288-224,224s100.289,224,224,224
		C379.213,2964,479.5,2863.712,479.5,2740z M125.393,2870.107C90.641,2835.354,71.5,2789.148,71.5,2740
		c0-49.147,19.141-95.354,53.893-130.108C160.146,2575.14,206.352,2556,255.5,2556s95.354,19.14,130.107,53.892
		c34.754,34.754,53.893,80.961,53.893,130.108c0,49.148-19.139,95.354-53.893,130.107C350.854,2904.86,304.646,2924,255.5,2924
		C206.352,2924,160.146,2904.86,125.393,2870.107z"/>
</g>
<circle cx="175.75" cy="2675.999" r="32"/>
<circle cx="335.5" cy="2675.999" r="32"/>
<path d="M384,2792c0-3.642-0.989-7.046-2.69-9.986v-0.012h-0.007c-3.46-5.973-9.906-10.002-17.305-10.002
	s-13.844,4.029-17.303,10.002h-0.045C328.77,2813.613,294.838,2835,256,2835s-72.767-21.387-90.646-52.998h-0.049
	c-3.46-5.973-9.906-10.002-17.305-10.002s-13.844,4.029-17.303,10.002h-0.061v0.099c-1.67,2.921-2.637,6.294-2.637,9.899
	s0.967,6.979,2.637,9.9v0.046C155.4,2845.566,202.257,2875,256,2875c53.705,0,100.533-29.395,125.31-72.965v-0.047
	C383.011,2799.047,384,2795.643,384,2792z"/>
</svg>
