<?xml version="1.0" encoding="utf-8"?>
<!-- Generator: Adobe Illustrator 16.0.4, SVG Export Plug-In . SVG Version: 6.00 Build 0)  -->
<!DOCTYPE svg PUBLIC "-//W3C//DTD SVG 1.1//EN" "http://www.w3.org/Graphics/SVG/1.1/DTD/svg11.dtd">
<svg version="1.1" id="Layer_1" xmlns="http://www.w3.org/2000/svg" xmlns:xlink="http://www.w3.org/1999/xlink" x="0px" y="0px"
	 width="512px" height="512px" viewBox="-552.5 3035.5 512 512" enable-background="new -552.5 3035.5 512 512"
	 xml:space="preserve">
<g>
	<line fill="none" stroke="#B35047" x1="-520" y1="3035.999" x2="-520" y2="3548"/>
	<line fill="none" stroke="#B35047" x1="-488" y1="3035.999" x2="-488" y2="3548"/>
	<line fill="none" stroke="#B35047" x1="-456" y1="3035.999" x2="-456" y2="3548"/>
	<line fill="none" stroke="#B35047" x1="-424" y1="3035.999" x2="-424" y2="3548"/>
	<line fill="none" stroke="#B35047" x1="-392" y1="3035.999" x2="-392" y2="3548"/>
	<line fill="none" stroke="#B35047" x1="-360" y1="3035.999" x2="-360" y2="3548"/>
	<line fill="none" stroke="#B35047" x1="-328" y1="3035.999" x2="-328" y2="3548"/>
	<line fill="none" stroke="#B35047" x1="-296" y1="3035.999" x2="-296" y2="3548"/>
	<line fill="none" stroke="#B35047" x1="-264" y1="3035.999" x2="-264" y2="3548"/>
	<line fill="none" stroke="#B35047" x1="-232" y1="3035.999" x2="-232" y2="3548"/>
	<line fill="none" stroke="#B35047" x1="-200" y1="3035.999" x2="-200" y2="3548"/>
	<line fill="none" stroke="#B35047" x1="-168" y1="3035.999" x2="-168" y2="3548"/>
	<line fill="none" stroke="#B35047" x1="-136" y1="3035.999" x2="-136" y2="3548"/>
	<line fill="none" stroke="#B35047" x1="-104" y1="3035.999" x2="-104" y2="3548"/>
	<line fill="none" stroke="#B35047" x1="-72" y1="3035.999" x2="-72" y2="3548"/>
	<line fill="none" stroke="#B35047" x1="-552" y1="3067.999" x2="-40" y2="3067.999"/>
	<line fill="none" stroke="#B35047" x1="-552" y1="3099.999" x2="-40" y2="3099.999"/>
	<line fill="none" stroke="#B35047" x1="-552" y1="3131.999" x2="-40" y2="3131.999"/>
	<line fill="none" stroke="#B35047" x1="-552" y1="3163.999" x2="-40" y2="3163.999"/>
	<line fill="none" stroke="#B35047" x1="-552" y1="3195.999" x2="-40" y2="3195.999"/>
	<line fill="none" stroke="#B35047" x1="-552" y1="3227.999" x2="-40" y2="3227.999"/>
	<line fill="none" stroke="#B35047" x1="-552" y1="3259.999" x2="-40" y2="3259.999"/>
	<line fill="none" stroke="#B35047" x1="-552" y1="3292" x2="-40" y2="3292"/>
	<line fill="none" stroke="#B35047" x1="-552" y1="3324" x2="-40" y2="3324"/>
	<line fill="none" stroke="#B35047" x1="-552" y1="3356" x2="-40" y2="3356"/>
	<line fill="none" stroke="#B35047" x1="-552" y1="3388" x2="-40" y2="3388"/>
	<line fill="none" stroke="#B35047" x1="-552" y1="3420" x2="-40" y2="3420"/>
	<line fill="none" stroke="#B35047" x1="-552" y1="3452" x2="-40" y2="3452"/>
	<line fill="none" stroke="#B35047" x1="-552" y1="3484" x2="-40" y2="3484"/>
	<line fill="none" stroke="#B35047" x1="-552" y1="3516" x2="-40" y2="3516"/>
	<rect x="-552" y="3035.999" fill="none" stroke="#B35047" width="512" height="512.001"/>
</g>
<path fill="#231F20" d="M-287.061,3068.212c-3.374-0.507-6.545-0.712-9.439-0.712s-6.065,0.205-9.439,0.712
	C-425.271,3073.162-520.5,3171.452-520.5,3292c0,123.712,100.289,224,224,224c123.713,0,224-100.288,224-224
	C-72.5,3171.451-167.728,3073.161-287.061,3068.212z M-113.581,3271.999h-79.253c-1.581-46.271-8.766-89.633-20.632-123.747
	c-3.221-9.26-6.766-17.768-10.614-25.494c21.274,9.107,40.83,22.278,57.687,39.134
	C-136.398,3191.887-118.047,3230.415-113.581,3271.999z M-296.5,3475.5c-32.935,0-60.056-71.529-63.603-163.5h127.205
	C-236.444,3403.971-263.564,3475.5-296.5,3475.5z M-360.142,3271.999c3.213-87.681,27.844-157.005,58.575-163.926
	c1.686-0.046,3.374-0.073,5.067-0.073s3.382,0.027,5.068,0.073c30.731,6.921,55.361,76.245,58.574,163.926H-360.142z
	 M-426.607,3161.892c16.857-16.855,36.413-30.026,57.687-39.134c-3.847,7.726-7.393,16.234-10.613,25.494
	c-11.866,34.114-19.051,77.476-20.632,123.747h-79.253C-474.952,3230.415-456.601,3191.887-426.607,3161.892z M-479.419,3312h79.289
	c1.649,45.896,8.816,88.881,20.597,122.749c3.4,9.775,7.165,18.708,11.263,26.771c-21.526-9.116-41.308-22.386-58.336-39.413
	C-456.601,3392.112-474.952,3353.585-479.419,3312z M-166.393,3422.107c-17.028,17.027-36.81,30.296-58.335,39.412
	c4.098-8.063,7.863-16.995,11.263-26.771c11.78-33.868,18.947-76.852,20.596-122.749h79.289
	C-118.047,3353.585-136.397,3392.112-166.393,3422.107z"/>
</svg>
