<?xml version="1.0" encoding="utf-8"?>
<!-- Generator: Adobe Illustrator 16.0.4, SVG Export Plug-In . SVG Version: 6.00 Build 0)  -->
<!DOCTYPE svg PUBLIC "-//W3C//DTD SVG 1.1//EN" "http://www.w3.org/Graphics/SVG/1.1/DTD/svg11.dtd">
<svg version="1.1" id="Layer_1" xmlns="http://www.w3.org/2000/svg" xmlns:xlink="http://www.w3.org/1999/xlink" x="0px" y="0px"
	 width="512px" height="512px" viewBox="-552.5 1379.5 512 512" enable-background="new -552.5 1379.5 512 512"
	 xml:space="preserve">
<g>
	<line fill="none" stroke="#B35047" x1="-520.5" y1="1379.5" x2="-520.5" y2="1891.5"/>
	<line fill="none" stroke="#B35047" x1="-488.5" y1="1379.5" x2="-488.5" y2="1891.5"/>
	<line fill="none" stroke="#B35047" x1="-456.5" y1="1379.5" x2="-456.5" y2="1891.5"/>
	<line fill="none" stroke="#B35047" x1="-424.5" y1="1379.5" x2="-424.5" y2="1891.5"/>
	<line fill="none" stroke="#B35047" x1="-392.5" y1="1379.5" x2="-392.5" y2="1891.5"/>
	<line fill="none" stroke="#B35047" x1="-360.5" y1="1379.5" x2="-360.5" y2="1891.5"/>
	<line fill="none" stroke="#B35047" x1="-328.5" y1="1379.5" x2="-328.5" y2="1891.5"/>
	<line fill="none" stroke="#B35047" x1="-296.5" y1="1379.5" x2="-296.5" y2="1891.5"/>
	<line fill="none" stroke="#B35047" x1="-264.5" y1="1379.5" x2="-264.5" y2="1891.5"/>
	<line fill="none" stroke="#B35047" x1="-232.5" y1="1379.5" x2="-232.5" y2="1891.5"/>
	<line fill="none" stroke="#B35047" x1="-200.5" y1="1379.5" x2="-200.5" y2="1891.5"/>
	<line fill="none" stroke="#B35047" x1="-168.5" y1="1379.5" x2="-168.5" y2="1891.5"/>
	<line fill="none" stroke="#B35047" x1="-136.5" y1="1379.5" x2="-136.5" y2="1891.5"/>
	<line fill="none" stroke="#B35047" x1="-104.5" y1="1379.5" x2="-104.5" y2="1891.5"/>
	<line fill="none" stroke="#B35047" x1="-72.5" y1="1379.5" x2="-72.5" y2="1891.5"/>
	<line fill="none" stroke="#B35047" x1="-552.5" y1="1411.5" x2="-40.5" y2="1411.5"/>
	<line fill="none" stroke="#B35047" x1="-552.5" y1="1443.5" x2="-40.5" y2="1443.5"/>
	<line fill="none" stroke="#B35047" x1="-552.5" y1="1475.5" x2="-40.5" y2="1475.5"/>
	<line fill="none" stroke="#B35047" x1="-552.5" y1="1507.5" x2="-40.5" y2="1507.5"/>
	<line fill="none" stroke="#B35047" x1="-552.5" y1="1539.5" x2="-40.5" y2="1539.5"/>
	<line fill="none" stroke="#B35047" x1="-552.5" y1="1571.5" x2="-40.5" y2="1571.5"/>
	<line fill="none" stroke="#B35047" x1="-552.5" y1="1603.5" x2="-40.5" y2="1603.5"/>
	<line fill="none" stroke="#B35047" x1="-552.5" y1="1635.5" x2="-40.5" y2="1635.5"/>
	<line fill="none" stroke="#B35047" x1="-552.5" y1="1667.5" x2="-40.5" y2="1667.5"/>
	<line fill="none" stroke="#B35047" x1="-552.5" y1="1699.5" x2="-40.5" y2="1699.5"/>
	<line fill="none" stroke="#B35047" x1="-552.5" y1="1731.5" x2="-40.5" y2="1731.5"/>
	<line fill="none" stroke="#B35047" x1="-552.5" y1="1763.5" x2="-40.5" y2="1763.5"/>
	<line fill="none" stroke="#B35047" x1="-552.5" y1="1795.5" x2="-40.5" y2="1795.5"/>
	<line fill="none" stroke="#B35047" x1="-552.5" y1="1827.5" x2="-40.5" y2="1827.5"/>
	<line fill="none" stroke="#B35047" x1="-552.5" y1="1859.5" x2="-40.5" y2="1859.5"/>
	<rect x="-552.5" y="1379.5" fill="none" stroke="#B35047" width="512" height="512"/>
</g>
<path fill="#231F20" d="M-390.084,1636c11.045,0,20,8.955,20,20v152c0,11.045-8.953,20-20,20l0,0c-11.045,0-20-8.953-20-20v-152
	C-410.084,1644.955-401.129,1636-390.084,1636L-390.084,1636z"/>
<path fill="#231F20" d="M-110.084,1443.999c11.045,0,20,8.953,20,20V1808c0,11.045-8.953,20-20,20l0,0c-11.045,0-20-8.953-20-20
	v-344.001C-130.084,1452.952-121.129,1443.999-110.084,1443.999L-110.084,1443.999z"/>
<path fill="#231F20" d="M-203.418,1507.999c11.045,0,20,8.955,20,20V1808c0,11.045-8.953,20-20,20l0,0c-11.045,0-20-8.953-20-20
	v-280.001C-223.418,1516.954-214.463,1507.999-203.418,1507.999L-203.418,1507.999z"/>
<path fill="#231F20" d="M-296.75,1571.999c11.045,0,20,8.955,20,20V1808c0,11.045-8.955,20-20,20l0,0
	c-11.045,0-20.002-8.953-20.002-20v-216.001C-316.752,1580.954-307.795,1571.999-296.75,1571.999L-296.75,1571.999z"/>
<path fill="#231F20" d="M-482.916,1700c11.045,0,20,8.955,20,20v88c0,11.045-8.953,20-20,20l0,0c-11.045,0-20-8.953-20-20v-88
	C-502.916,1708.955-493.961,1700-482.916,1700L-482.916,1700z"/>
</svg>
