<?xml version="1.0" encoding="utf-8"?>
<!-- Generator: Adobe Illustrator 16.0.4, SVG Export Plug-In . SVG Version: 6.00 Build 0)  -->
<!DOCTYPE svg PUBLIC "-//W3C//DTD SVG 1.1//EN" "http://www.w3.org/Graphics/SVG/1.1/DTD/svg11.dtd">
<svg version="1.1" id="Layer_1" xmlns="http://www.w3.org/2000/svg" xmlns:xlink="http://www.w3.org/1999/xlink" x="0px" y="0px"
	 width="512px" height="512px" viewBox="551.5 827.5 512 512" enable-background="new 551.5 827.5 512 512" xml:space="preserve">
<g>
	<line fill="none" stroke="#B35047" x1="583.501" y1="827.5" x2="583.501" y2="1339.5"/>
	<line fill="none" stroke="#B35047" x1="615.501" y1="827.5" x2="615.501" y2="1339.5"/>
	<line fill="none" stroke="#B35047" x1="647.501" y1="827.5" x2="647.501" y2="1339.5"/>
	<line fill="none" stroke="#B35047" x1="679.501" y1="827.5" x2="679.501" y2="1339.5"/>
	<line fill="none" stroke="#B35047" x1="711.501" y1="827.5" x2="711.501" y2="1339.5"/>
	<line fill="none" stroke="#B35047" x1="743.501" y1="827.5" x2="743.501" y2="1339.5"/>
	<line fill="none" stroke="#B35047" x1="775.501" y1="827.5" x2="775.501" y2="1339.5"/>
	<line fill="none" stroke="#B35047" x1="807.501" y1="827.5" x2="807.501" y2="1339.5"/>
	<line fill="none" stroke="#B35047" x1="839.501" y1="827.5" x2="839.501" y2="1339.5"/>
	<line fill="none" stroke="#B35047" x1="871.501" y1="827.5" x2="871.501" y2="1339.5"/>
	<line fill="none" stroke="#B35047" x1="903.501" y1="827.5" x2="903.501" y2="1339.5"/>
	<line fill="none" stroke="#B35047" x1="935.501" y1="827.5" x2="935.501" y2="1339.5"/>
	<line fill="none" stroke="#B35047" x1="967.501" y1="827.5" x2="967.501" y2="1339.5"/>
	<line fill="none" stroke="#B35047" x1="999.501" y1="827.5" x2="999.501" y2="1339.5"/>
	<line fill="none" stroke="#B35047" x1="1031.501" y1="827.5" x2="1031.501" y2="1339.5"/>
	<line fill="none" stroke="#B35047" x1="551.501" y1="859.5" x2="1063.501" y2="859.5"/>
	<line fill="none" stroke="#B35047" x1="551.501" y1="891.5" x2="1063.501" y2="891.5"/>
	<line fill="none" stroke="#B35047" x1="551.501" y1="923.5" x2="1063.501" y2="923.5"/>
	<line fill="none" stroke="#B35047" x1="551.501" y1="955.5" x2="1063.501" y2="955.5"/>
	<line fill="none" stroke="#B35047" x1="551.501" y1="987.5" x2="1063.501" y2="987.5"/>
	<line fill="none" stroke="#B35047" x1="551.501" y1="1019.5" x2="1063.501" y2="1019.5"/>
	<line fill="none" stroke="#B35047" x1="551.501" y1="1051.5" x2="1063.501" y2="1051.5"/>
	<line fill="none" stroke="#B35047" x1="551.501" y1="1083.5" x2="1063.501" y2="1083.5"/>
	<line fill="none" stroke="#B35047" x1="551.501" y1="1115.5" x2="1063.501" y2="1115.5"/>
	<line fill="none" stroke="#B35047" x1="551.501" y1="1147.5" x2="1063.501" y2="1147.5"/>
	<line fill="none" stroke="#B35047" x1="551.501" y1="1179.5" x2="1063.501" y2="1179.5"/>
	<line fill="none" stroke="#B35047" x1="551.501" y1="1211.5" x2="1063.501" y2="1211.5"/>
	<line fill="none" stroke="#B35047" x1="551.501" y1="1243.5" x2="1063.501" y2="1243.5"/>
	<line fill="none" stroke="#B35047" x1="551.501" y1="1275.5" x2="1063.501" y2="1275.5"/>
	<line fill="none" stroke="#B35047" x1="551.501" y1="1307.5" x2="1063.501" y2="1307.5"/>
	<rect x="551.501" y="827.5" fill="none" stroke="#B35047" width="512" height="512"/>
</g>
<g>
	<path d="M999.016,924.664c-10.453-10.535-23.246-18.658-38.341-24.469c-15.052-5.855-31.993-8.695-50.737-8.695
		c-9.775,0-19.372,1.441-28.792,4.547c-9.236,3.031-18.292,7.121-27.036,12.123c-8.738,4.914-17.028,10.638-24.958,16.949
		c-8.019,6.4-15.228,12.786-21.673,19.332c-6.76-6.546-14.013-12.932-21.808-19.332c-7.842-6.312-16.04-12.035-24.691-16.949
		c-8.607-5.002-17.707-9.092-27.352-12.123c-9.552-3.105-19.284-4.547-29.017-4.547c-18.563,0-35.28,2.84-50.24,8.695
		c-14.866,5.811-27.664,13.934-38.164,24.469c-10.497,10.547-18.607,23.481-24.239,38.664c-5.587,15.272-8.471,32.25-8.471,50.906
		c0,10.814,1.534,21.539,4.595,32.265c3.154,10.548,7.208,20.993,12.438,30.821c5.223,9.828,11.351,19.244,18.292,28.295
		c6.94,9.062,14.194,17.258,21.672,24.79l152.883,152.556c4.233,3.779,9.055,5.722,14.102,5.722c5.363,0,9.957-1.942,13.654-5.722
		L974.1,1130.848c7.39-7.386,14.691-15.684,21.583-24.689c7.029-9.106,13.157-18.611,18.521-28.615
		c5.45-9.962,9.596-20.319,12.703-31c3.109-10.594,4.599-21.305,4.599-32.309c0-18.656-2.796-35.634-8.291-50.906
		C1017.583,948.146,1009.605,935.211,999.016,924.664z"/>
</g>
</svg>
