<?xml version="1.0" encoding="utf-8"?>
<!-- Generator: Adobe Illustrator 16.0.4, SVG Export Plug-In . SVG Version: 6.00 Build 0)  -->
<!DOCTYPE svg PUBLIC "-//W3C//DTD SVG 1.1//EN" "http://www.w3.org/Graphics/SVG/1.1/DTD/svg11.dtd">
<svg version="1.1" id="Layer_1" xmlns="http://www.w3.org/2000/svg" xmlns:xlink="http://www.w3.org/1999/xlink" x="0px" y="0px"
	 width="512px" height="512px" viewBox="-0.5 827.5 512 512" enable-background="new -0.5 827.5 512 512" xml:space="preserve">
<g>
	<line fill="none" stroke="#B35047" x1="31.501" y1="827.5" x2="31.501" y2="1339.5"/>
	<line fill="none" stroke="#B35047" x1="63.501" y1="827.5" x2="63.501" y2="1339.5"/>
	<line fill="none" stroke="#B35047" x1="95.501" y1="827.5" x2="95.501" y2="1339.5"/>
	<line fill="none" stroke="#B35047" x1="127.501" y1="827.5" x2="127.501" y2="1339.5"/>
	<line fill="none" stroke="#B35047" x1="159.501" y1="827.5" x2="159.501" y2="1339.5"/>
	<line fill="none" stroke="#B35047" x1="191.501" y1="827.5" x2="191.501" y2="1339.5"/>
	<line fill="none" stroke="#B35047" x1="223.501" y1="827.5" x2="223.501" y2="1339.5"/>
	<line fill="none" stroke="#B35047" x1="255.501" y1="827.5" x2="255.501" y2="1339.5"/>
	<line fill="none" stroke="#B35047" x1="287.501" y1="827.5" x2="287.501" y2="1339.5"/>
	<line fill="none" stroke="#B35047" x1="319.501" y1="827.5" x2="319.501" y2="1339.5"/>
	<line fill="none" stroke="#B35047" x1="351.501" y1="827.5" x2="351.501" y2="1339.5"/>
	<line fill="none" stroke="#B35047" x1="383.501" y1="827.5" x2="383.501" y2="1339.5"/>
	<line fill="none" stroke="#B35047" x1="415.501" y1="827.5" x2="415.501" y2="1339.5"/>
	<line fill="none" stroke="#B35047" x1="447.501" y1="827.5" x2="447.501" y2="1339.5"/>
	<line fill="none" stroke="#B35047" x1="479.501" y1="827.5" x2="479.501" y2="1339.5"/>
	<line fill="none" stroke="#B35047" x1="-0.499" y1="859.5" x2="511.501" y2="859.5"/>
	<line fill="none" stroke="#B35047" x1="-0.499" y1="891.5" x2="511.501" y2="891.5"/>
	<line fill="none" stroke="#B35047" x1="-0.499" y1="923.5" x2="511.501" y2="923.5"/>
	<line fill="none" stroke="#B35047" x1="-0.499" y1="955.5" x2="511.501" y2="955.5"/>
	<line fill="none" stroke="#B35047" x1="-0.499" y1="987.5" x2="511.501" y2="987.5"/>
	<line fill="none" stroke="#B35047" x1="-0.499" y1="1019.5" x2="511.501" y2="1019.5"/>
	<line fill="none" stroke="#B35047" x1="-0.499" y1="1051.5" x2="511.501" y2="1051.5"/>
	<line fill="none" stroke="#B35047" x1="-0.499" y1="1083.5" x2="511.501" y2="1083.5"/>
	<line fill="none" stroke="#B35047" x1="-0.499" y1="1115.5" x2="511.501" y2="1115.5"/>
	<line fill="none" stroke="#B35047" x1="-0.499" y1="1147.5" x2="511.501" y2="1147.5"/>
	<line fill="none" stroke="#B35047" x1="-0.499" y1="1179.5" x2="511.501" y2="1179.5"/>
	<line fill="none" stroke="#B35047" x1="-0.499" y1="1211.5" x2="511.501" y2="1211.5"/>
	<line fill="none" stroke="#B35047" x1="-0.499" y1="1243.5" x2="511.501" y2="1243.5"/>
	<line fill="none" stroke="#B35047" x1="-0.499" y1="1275.5" x2="511.501" y2="1275.5"/>
	<line fill="none" stroke="#B35047" x1="-0.499" y1="1307.5" x2="511.501" y2="1307.5"/>
	<rect x="-0.499" y="827.5" fill="none" stroke="#B35047" width="512" height="512"/>
</g>
<path d="M357.938,931.5c13.854,0,26.046,2.01,36.235,5.974l0.066,0.026l0.065,0.025c9.933,3.822,17.887,8.832,24.316,15.312
	l0.083,0.084l0.085,0.084c6.293,6.268,11.152,14.135,14.853,24.047c3.891,10.893,5.863,23.399,5.863,37.182
	c0,7.329-0.975,14.213-2.979,21.043l-0.014,0.046l-0.013,0.046c-2.433,8.36-5.503,15.876-9.388,22.976l-0.081,0.149l-0.08,0.148
	c-4.405,8.217-9.29,15.766-14.932,23.074l-0.051,0.066l-0.051,0.066c-5.658,7.393-11.74,14.354-18.077,20.689l-138.561,137.787
	l-138.473-138.178c-6.66-6.715-12.624-13.537-18.244-20.875c-5.693-7.424-10.642-15.068-14.722-22.745
	c-3.603-6.77-6.747-14.585-9.35-23.236c-2.015-7.132-2.994-14.022-2.994-21.058c0-13.68,2.021-26.157,6.008-37.088
	c3.607-9.689,8.672-17.854,15.033-24.246c6.499-6.521,14.479-11.574,24.413-15.457c10.218-4,21.882-5.943,35.66-5.943
	c5.768,0,11.369,0.871,16.649,2.587l0.187,0.061l0.188,0.06c6.558,2.061,13.033,4.937,19.247,8.547l0.17,0.1l0.172,0.098
	c6.368,3.617,12.654,7.938,19.215,13.206c7.243,5.953,13.53,11.524,19.214,17.028l28.497,27.596l27.831-28.266
	c5.162-5.242,11.09-10.52,18.121-16.132c6.691-5.323,13.108-9.69,19.614-13.349l0.128-0.072l0.127-0.072
	c6.504-3.721,13.114-6.693,19.647-8.838l0.025-0.008l0.025-0.009C346.845,932.33,352.167,931.5,357.938,931.5 M357.938,891.5
	c-9.775,0-19.372,1.441-28.792,4.547c-9.236,3.031-18.292,7.121-27.036,12.123c-8.738,4.914-17.028,10.638-24.958,16.949
	c-8.019,6.4-15.228,12.786-21.673,19.332c-6.76-6.546-14.013-12.932-21.808-19.332c-7.842-6.312-16.04-12.035-24.691-16.949
	c-8.607-5.002-17.707-9.092-27.352-12.123c-9.552-3.105-19.284-4.547-29.017-4.547c-18.563,0-35.28,2.84-50.24,8.695
	c-14.866,5.811-27.664,13.934-38.164,24.469C53.71,935.211,45.6,948.146,39.968,963.328c-5.587,15.272-8.471,32.25-8.471,50.906
	c0,10.814,1.534,21.539,4.595,32.265c3.154,10.548,7.208,20.993,12.438,30.821c5.223,9.828,11.351,19.244,18.292,28.295
	c6.94,9.062,14.194,17.258,21.672,24.79l152.883,152.556c4.233,3.779,9.055,5.722,14.102,5.722c5.363,0,9.957-1.942,13.654-5.722
	L422.1,1130.848c7.39-7.386,14.691-15.684,21.583-24.689c7.029-9.106,13.157-18.611,18.521-28.615
	c5.45-9.962,9.596-20.319,12.703-31c3.109-10.594,4.599-21.305,4.599-32.309c0-18.656-2.796-35.634-8.291-50.906
	c-5.631-15.183-13.608-28.117-24.198-38.664c-10.453-10.535-23.246-18.658-38.341-24.469
	C393.623,894.34,376.682,891.5,357.938,891.5L357.938,891.5z"/>
</svg>
