<?xml version="1.0" encoding="utf-8"?>
<!-- Generator: Adobe Illustrator 16.0.4, SVG Export Plug-In . SVG Version: 6.00 Build 0)  -->
<!DOCTYPE svg PUBLIC "-//W3C//DTD SVG 1.1//EN" "http://www.w3.org/Graphics/SVG/1.1/DTD/svg11.dtd">
<svg version="1.1" id="Layer_1" xmlns="http://www.w3.org/2000/svg" xmlns:xlink="http://www.w3.org/1999/xlink" x="0px" y="0px"
	 width="512px" height="512px" viewBox="-1104.5 -3588.5 512 512" enable-background="new -1104.5 -3588.5 512 512"
	 xml:space="preserve">
<g>
	<line fill="none" stroke="#B35047" x1="-1072.5" y1="-3588.5" x2="-1072.5" y2="-3076.5"/>
	<line fill="none" stroke="#B35047" x1="-1040.5" y1="-3588.5" x2="-1040.5" y2="-3076.5"/>
	<line fill="none" stroke="#B35047" x1="-1008.5" y1="-3588.5" x2="-1008.5" y2="-3076.5"/>
	<line fill="none" stroke="#B35047" x1="-976.5" y1="-3588.5" x2="-976.5" y2="-3076.5"/>
	<line fill="none" stroke="#B35047" x1="-944.5" y1="-3588.5" x2="-944.5" y2="-3076.5"/>
	<line fill="none" stroke="#B35047" x1="-912.5" y1="-3588.5" x2="-912.5" y2="-3076.5"/>
	<line fill="none" stroke="#B35047" x1="-880.5" y1="-3588.5" x2="-880.5" y2="-3076.5"/>
	<line fill="none" stroke="#B35047" x1="-848.5" y1="-3588.5" x2="-848.5" y2="-3076.5"/>
	<line fill="none" stroke="#B35047" x1="-816.5" y1="-3588.5" x2="-816.5" y2="-3076.5"/>
	<line fill="none" stroke="#B35047" x1="-784.5" y1="-3588.5" x2="-784.5" y2="-3076.5"/>
	<line fill="none" stroke="#B35047" x1="-752.5" y1="-3588.5" x2="-752.5" y2="-3076.5"/>
	<line fill="none" stroke="#B35047" x1="-720.501" y1="-3588.5" x2="-720.501" y2="-3076.5"/>
	<line fill="none" stroke="#B35047" x1="-688.501" y1="-3588.5" x2="-688.501" y2="-3076.5"/>
	<line fill="none" stroke="#B35047" x1="-656.501" y1="-3588.5" x2="-656.501" y2="-3076.5"/>
	<line fill="none" stroke="#B35047" x1="-624.501" y1="-3588.5" x2="-624.501" y2="-3076.5"/>
	<line fill="none" stroke="#B35047" x1="-1104.5" y1="-3556.5" x2="-592.501" y2="-3556.5"/>
	<line fill="none" stroke="#B35047" x1="-1104.5" y1="-3524.5" x2="-592.501" y2="-3524.5"/>
	<line fill="none" stroke="#B35047" x1="-1104.5" y1="-3492.5" x2="-592.501" y2="-3492.5"/>
	<line fill="none" stroke="#B35047" x1="-1104.5" y1="-3460.5" x2="-592.501" y2="-3460.5"/>
	<line fill="none" stroke="#B35047" x1="-1104.5" y1="-3428.5" x2="-592.501" y2="-3428.5"/>
	<line fill="none" stroke="#B35047" x1="-1104.5" y1="-3396.5" x2="-592.501" y2="-3396.5"/>
	<line fill="none" stroke="#B35047" x1="-1104.5" y1="-3364.5" x2="-592.501" y2="-3364.5"/>
	<line fill="none" stroke="#B35047" x1="-1104.5" y1="-3332.5" x2="-592.501" y2="-3332.5"/>
	<line fill="none" stroke="#B35047" x1="-1104.5" y1="-3300.5" x2="-592.501" y2="-3300.5"/>
	<line fill="none" stroke="#B35047" x1="-1104.5" y1="-3268.5" x2="-592.501" y2="-3268.5"/>
	<line fill="none" stroke="#B35047" x1="-1104.5" y1="-3236.5" x2="-592.501" y2="-3236.5"/>
	<line fill="none" stroke="#B35047" x1="-1104.5" y1="-3204.5" x2="-592.501" y2="-3204.5"/>
	<line fill="none" stroke="#B35047" x1="-1104.5" y1="-3172.5" x2="-592.501" y2="-3172.5"/>
	<line fill="none" stroke="#B35047" x1="-1104.5" y1="-3140.5" x2="-592.501" y2="-3140.5"/>
	<line fill="none" stroke="#B35047" x1="-1104.5" y1="-3108.5" x2="-592.501" y2="-3108.5"/>
	<rect x="-1104.5" y="-3588.5" fill="none" stroke="#B35047" width="511.999" height="512"/>
</g>
<path d="M-630.44-3346.688l-203.908-203.877c-3.905-3.904-9.022-5.856-14.141-5.856s-10.235,1.952-14.141,5.856l-203.959,203.93
	c-7.812,7.811-7.812,20.474-0.003,28.285c7.809,7.811,20.472,7.811,28.284,0.002l9.808-9.806v183.354c0,11.045,8.955,20,20,20
	h95.348c0.208,0.007,0.41,0.031,0.619,0.031c5.527,0,10.53-2.242,14.15-5.867c3.633-3.622,5.883-8.631,5.883-14.166
	c0-0.209-0.025-0.411-0.031-0.619v-131.602h88.03v131.967c0,11.045,8.955,20,20,20l95.938,0.062c1.146,0,2.261-0.118,3.354-0.304
	c0.224-0.037,0.455-0.058,0.677-0.103c0.106-0.022,0.208-0.058,0.314-0.081c8.954-1.986,15.655-9.962,15.655-19.513v-183.246
	l9.841,9.84c7.811,7.81,20.474,7.808,28.284-0.003C-622.628-3326.215-622.629-3338.878-630.44-3346.688z M-708.562-3364.364v199.355
	l-55.937-0.037v-131.938c0-0.01-0.001-0.021-0.001-0.031c0-0.003,0-0.007,0-0.011c0-11.045-8.955-20-20-20h-127.001
	c-0.279,0-0.55,0.03-0.826,0.042c-0.069-0.001-0.137-0.011-0.207-0.011c-11.045,0-20,8.955-20,20v132.191H-988.5V-3364.5
	c0-1.143-0.118-2.256-0.302-3.347l140.313-140.292l140.257,140.236C-708.437-3366.752-708.562-3365.574-708.562-3364.364z"/>
</svg>
