<?xml version="1.0" encoding="utf-8"?>
<!-- Generator: Adobe Illustrator 16.0.4, SVG Export Plug-In . SVG Version: 6.00 Build 0)  -->
<!DOCTYPE svg PUBLIC "-//W3C//DTD SVG 1.1//EN" "http://www.w3.org/Graphics/SVG/1.1/DTD/svg11.dtd">
<svg version="1.1" id="Layer_1" xmlns="http://www.w3.org/2000/svg" xmlns:xlink="http://www.w3.org/1999/xlink" x="0px" y="0px"
	 width="512px" height="512px" viewBox="-1104.5 3587.5 512 512" enable-background="new -1104.5 3587.5 512 512"
	 xml:space="preserve">
<g>
	<line fill="none" stroke="#B35047" x1="-1072.469" y1="3587.53" x2="-1072.469" y2="4099.53"/>
	<line fill="none" stroke="#B35047" x1="-1040.469" y1="3587.53" x2="-1040.469" y2="4099.53"/>
	<line fill="none" stroke="#B35047" x1="-1008.469" y1="3587.53" x2="-1008.469" y2="4099.53"/>
	<line fill="none" stroke="#B35047" x1="-976.469" y1="3587.53" x2="-976.469" y2="4099.53"/>
	<line fill="none" stroke="#B35047" x1="-944.469" y1="3587.53" x2="-944.469" y2="4099.53"/>
	<line fill="none" stroke="#B35047" x1="-912.469" y1="3587.53" x2="-912.469" y2="4099.53"/>
	<line fill="none" stroke="#B35047" x1="-880.469" y1="3587.53" x2="-880.469" y2="4099.53"/>
	<line fill="none" stroke="#B35047" x1="-848.469" y1="3587.53" x2="-848.469" y2="4099.53"/>
	<line fill="none" stroke="#B35047" x1="-816.469" y1="3587.53" x2="-816.469" y2="4099.53"/>
	<line fill="none" stroke="#B35047" x1="-784.469" y1="3587.53" x2="-784.469" y2="4099.53"/>
	<line fill="none" stroke="#B35047" x1="-752.469" y1="3587.53" x2="-752.469" y2="4099.53"/>
	<line fill="none" stroke="#B35047" x1="-720.469" y1="3587.53" x2="-720.469" y2="4099.53"/>
	<line fill="none" stroke="#B35047" x1="-688.469" y1="3587.53" x2="-688.469" y2="4099.53"/>
	<line fill="none" stroke="#B35047" x1="-656.469" y1="3587.53" x2="-656.469" y2="4099.53"/>
	<line fill="none" stroke="#B35047" x1="-624.469" y1="3587.53" x2="-624.469" y2="4099.53"/>
	<line fill="none" stroke="#B35047" x1="-1104.469" y1="3619.53" x2="-592.469" y2="3619.53"/>
	<line fill="none" stroke="#B35047" x1="-1104.469" y1="3651.53" x2="-592.469" y2="3651.53"/>
	<line fill="none" stroke="#B35047" x1="-1104.469" y1="3683.53" x2="-592.469" y2="3683.53"/>
	<line fill="none" stroke="#B35047" x1="-1104.469" y1="3715.53" x2="-592.469" y2="3715.53"/>
	<line fill="none" stroke="#B35047" x1="-1104.469" y1="3747.53" x2="-592.469" y2="3747.53"/>
	<line fill="none" stroke="#B35047" x1="-1104.469" y1="3779.53" x2="-592.469" y2="3779.53"/>
	<line fill="none" stroke="#B35047" x1="-1104.469" y1="3811.53" x2="-592.469" y2="3811.53"/>
	<line fill="none" stroke="#B35047" x1="-1104.469" y1="3843.53" x2="-592.469" y2="3843.53"/>
	<line fill="none" stroke="#B35047" x1="-1104.469" y1="3875.53" x2="-592.469" y2="3875.53"/>
	<line fill="none" stroke="#B35047" x1="-1104.469" y1="3907.53" x2="-592.469" y2="3907.53"/>
	<line fill="none" stroke="#B35047" x1="-1104.469" y1="3939.53" x2="-592.469" y2="3939.53"/>
	<line fill="none" stroke="#B35047" x1="-1104.469" y1="3971.53" x2="-592.469" y2="3971.53"/>
	<line fill="none" stroke="#B35047" x1="-1104.469" y1="4003.53" x2="-592.469" y2="4003.53"/>
	<line fill="none" stroke="#B35047" x1="-1104.469" y1="4035.53" x2="-592.469" y2="4035.53"/>
	<line fill="none" stroke="#B35047" x1="-1104.469" y1="4067.53" x2="-592.469" y2="4067.53"/>
	<rect x="-1104.469" y="3587.53" fill="none" stroke="#B35047" width="512" height="512"/>
</g>
<path d="M-848.537,3988.473c-11.045,0-20-8.953-20-20l0,0c0-11.045,8.955-20,20-20l0,0c11.045,0,20.002,8.955,20.002,20l0,0
	C-828.535,3979.52-837.492,3988.473-848.537,3988.473L-848.537,3988.473z"/>
<path d="M-715.354,3962.322c-0.055-0.086-0.112-0.174-0.17-0.258l-79.234-118.591l78.867-118.041
	c0.023-0.034,0.051-0.077,0.072-0.111c0.027-0.04,0.055-0.079,0.082-0.118l2.791-4.183c0.465-0.692,0.879-1.411,1.246-2.147
	c14.004-23.084,21.851-49.314,22.947-76.324c0.15-0.986,0.252-1.99,0.252-3.019c0-11.043-8.954-20-20-20h-280
	c-11.046,0-20,8.955-20,20c0,0.913,0.083,1.806,0.201,2.687c1.128,29.525,10.263,57.934,26.684,82.522
	c0.055,0.087,0.112,0.173,0.17,0.258l79.25,118.614l-78.852,118.018c-0.023,0.033-0.051,0.077-0.072,0.111
	c-0.027,0.04-0.055,0.079-0.082,0.119l-2.791,4.182c-0.465,0.692-0.879,1.41-1.246,2.148c-13.91,22.928-21.747,48.959-22.926,75.777
	c-0.209,1.158-0.335,2.346-0.335,3.564c0,11.043,8.954,20,20,20h280c11.046,0,20-8.955,20-20c0-0.817-0.063-1.619-0.159-2.41
	C-689.741,4015.496-698.881,3986.988-715.354,3962.322z M-745.449,3699.984c-0.202,0.328-0.395,0.66-0.577,0.995l-1.851,2.771
	l-27.247,40.779h-146.798l-27.143-40.625c-0.018-0.026-0.075-0.114-0.093-0.142l-0.012-0.019c-0.056-0.085-0.112-0.172-0.171-0.257
	c-8.985-13.396-15.108-28.306-18.177-43.958h237.995C-732.333,3673.824-737.701,3687.528-745.449,3699.984z M-878.959,3808.833
	l-16.237-24.303h93.346l-46.689,69.878l-7.213-10.796l0.016-0.023L-878.959,3808.833z M-950.942,3986.082l1.851-2.771
	l70.118-104.943l14.38,21.522c3.584,5.362,9.606,8.583,16.055,8.583c6.449,0,12.472-3.221,16.055-8.581l14.49-21.687l0.016,0.023
	l70.105,104.928c0.018,0.025,0.075,0.115,0.093,0.141l0.012,0.02c0.056,0.084,0.112,0.172,0.171,0.256
	c8.985,13.398,15.107,28.307,18.177,43.959h-238.026c2.811-14.294,8.179-27.998,15.928-40.453
	C-951.317,3986.75-951.125,3986.418-950.942,3986.082z"/>
</svg>
