<?xml version="1.0" encoding="utf-8"?>
<!-- Generator: Adobe Illustrator 16.0.4, SVG Export Plug-In . SVG Version: 6.00 Build 0)  -->
<!DOCTYPE svg PUBLIC "-//W3C//DTD SVG 1.1//EN" "http://www.w3.org/Graphics/SVG/1.1/DTD/svg11.dtd">
<svg version="1.1" id="Layer_1" xmlns="http://www.w3.org/2000/svg" xmlns:xlink="http://www.w3.org/1999/xlink" x="0px" y="0px"
	 width="512px" height="512px" viewBox="-0.5 5856.484 512 512" enable-background="new -0.5 5856.484 512 512"
	 xml:space="preserve">
<g>
	<line fill="none" stroke="#B35047" x1="32" y1="5856.983" x2="32" y2="6368.984"/>
	<line fill="none" stroke="#B35047" x1="64" y1="5856.983" x2="64" y2="6368.984"/>
	<line fill="none" stroke="#B35047" x1="96" y1="5856.983" x2="96" y2="6368.984"/>
	<line fill="none" stroke="#B35047" x1="128" y1="5856.983" x2="128" y2="6368.984"/>
	<line fill="none" stroke="#B35047" x1="160" y1="5856.983" x2="160" y2="6368.984"/>
	<line fill="none" stroke="#B35047" x1="192" y1="5856.983" x2="192" y2="6368.984"/>
	<line fill="none" stroke="#B35047" x1="224" y1="5856.983" x2="224" y2="6368.984"/>
	<line fill="none" stroke="#B35047" x1="256" y1="5856.983" x2="256" y2="6368.984"/>
	<line fill="none" stroke="#B35047" x1="288" y1="5856.983" x2="288" y2="6368.984"/>
	<line fill="none" stroke="#B35047" x1="320" y1="5856.983" x2="320" y2="6368.984"/>
	<line fill="none" stroke="#B35047" x1="352" y1="5856.983" x2="352" y2="6368.984"/>
	<line fill="none" stroke="#B35047" x1="384" y1="5856.983" x2="384" y2="6368.984"/>
	<line fill="none" stroke="#B35047" x1="416" y1="5856.983" x2="416" y2="6368.984"/>
	<line fill="none" stroke="#B35047" x1="448" y1="5856.983" x2="448" y2="6368.984"/>
	<line fill="none" stroke="#B35047" x1="480" y1="5856.983" x2="480" y2="6368.984"/>
	<line fill="none" stroke="#B35047" x1="0" y1="5888.983" x2="512" y2="5888.983"/>
	<line fill="none" stroke="#B35047" x1="0" y1="5920.983" x2="512" y2="5920.983"/>
	<line fill="none" stroke="#B35047" x1="0" y1="5952.983" x2="512" y2="5952.983"/>
	<line fill="none" stroke="#B35047" x1="0" y1="5984.983" x2="512" y2="5984.983"/>
	<line fill="none" stroke="#B35047" x1="0" y1="6016.983" x2="512" y2="6016.983"/>
	<line fill="none" stroke="#B35047" x1="0" y1="6048.983" x2="512" y2="6048.983"/>
	<line fill="none" stroke="#B35047" x1="0" y1="6080.983" x2="512" y2="6080.983"/>
	<line fill="none" stroke="#B35047" x1="0" y1="6112.984" x2="512" y2="6112.984"/>
	<line fill="none" stroke="#B35047" x1="0" y1="6144.984" x2="512" y2="6144.984"/>
	<line fill="none" stroke="#B35047" x1="0" y1="6176.984" x2="512" y2="6176.984"/>
	<line fill="none" stroke="#B35047" x1="0" y1="6208.984" x2="512" y2="6208.984"/>
	<line fill="none" stroke="#B35047" x1="0" y1="6240.984" x2="512" y2="6240.984"/>
	<line fill="none" stroke="#B35047" x1="0" y1="6272.984" x2="512" y2="6272.984"/>
	<line fill="none" stroke="#B35047" x1="0" y1="6304.984" x2="512" y2="6304.984"/>
	<line fill="none" stroke="#B35047" x1="0" y1="6336.984" x2="512" y2="6336.984"/>
	<rect y="5856.983" fill="none" stroke="#B35047" width="512" height="512.001"/>
</g>
<path fill="#231F20" d="M413.891,5954.093c-87.477-87.479-229.307-87.479-316.783,0c-87.479,87.477-87.479,229.306,0,316.783
	c87.477,87.478,229.307,87.478,316.783,0C501.369,6183.4,501.369,6041.569,413.891,5954.093z M385.607,6242.592
	c-34.754,34.753-80.959,53.892-130.107,53.892c-49.15,0-95.355-19.139-130.109-53.892c-34.752-34.753-53.891-80.96-53.893-130.107
	c0.002-49.149,19.141-95.354,53.893-130.108c34.754-34.752,80.961-53.892,130.109-53.893c49.146,0.001,95.354,19.141,130.107,53.895
	c34.752,34.752,53.891,80.957,53.893,130.106C439.498,6161.632,420.359,6207.839,385.607,6242.592z"/>
<path d="M255.998,6037.046c-11.045,0-20-8.953-20-20l0,0c0-11.045,8.955-20,20-20l0,0c11.045,0,20.002,8.955,20.002,20l0,0
	C276,6028.093,267.043,6037.046,255.998,6037.046L255.998,6037.046z"/>
<path d="M255.999,6228.031c-11.045,0-20-8.953-20-20V6088.03c0-11.045,8.955-20,20-20l0,0c11.045,0,20.002,8.955,20.002,20v120.001
	C276.001,6219.078,267.044,6228.031,255.999,6228.031L255.999,6228.031z"/>
</svg>
