<?xml version="1.0" encoding="utf-8"?>
<!-- Generator: Adobe Illustrator 16.0.4, SVG Export Plug-In . SVG Version: 6.00 Build 0)  -->
<!DOCTYPE svg PUBLIC "-//W3C//DTD SVG 1.1//EN" "http://www.w3.org/Graphics/SVG/1.1/DTD/svg11.dtd">
<svg version="1.1" id="Layer_1" xmlns="http://www.w3.org/2000/svg" xmlns:xlink="http://www.w3.org/1999/xlink" x="0px" y="0px"
	 width="512px" height="512px" viewBox="-0.5 -2484.5 512 512" enable-background="new -0.5 -2484.5 512 512" xml:space="preserve">
<g>
	<line fill="none" stroke="#B35047" x1="31.516" y1="-2484.484" x2="31.516" y2="-1972.484"/>
	<line fill="none" stroke="#B35047" x1="63.516" y1="-2484.484" x2="63.516" y2="-1972.484"/>
	<line fill="none" stroke="#B35047" x1="95.516" y1="-2484.484" x2="95.516" y2="-1972.484"/>
	<line fill="none" stroke="#B35047" x1="127.516" y1="-2484.484" x2="127.516" y2="-1972.484"/>
	<line fill="none" stroke="#B35047" x1="159.516" y1="-2484.484" x2="159.516" y2="-1972.484"/>
	<line fill="none" stroke="#B35047" x1="191.516" y1="-2484.484" x2="191.516" y2="-1972.484"/>
	<line fill="none" stroke="#B35047" x1="223.516" y1="-2484.484" x2="223.516" y2="-1972.484"/>
	<line fill="none" stroke="#B35047" x1="255.516" y1="-2484.484" x2="255.516" y2="-1972.484"/>
	<line fill="none" stroke="#B35047" x1="287.516" y1="-2484.484" x2="287.516" y2="-1972.484"/>
	<line fill="none" stroke="#B35047" x1="319.516" y1="-2484.484" x2="319.516" y2="-1972.484"/>
	<line fill="none" stroke="#B35047" x1="351.516" y1="-2484.484" x2="351.516" y2="-1972.484"/>
	<line fill="none" stroke="#B35047" x1="383.516" y1="-2484.484" x2="383.516" y2="-1972.484"/>
	<line fill="none" stroke="#B35047" x1="415.516" y1="-2484.484" x2="415.516" y2="-1972.484"/>
	<line fill="none" stroke="#B35047" x1="447.516" y1="-2484.484" x2="447.516" y2="-1972.484"/>
	<line fill="none" stroke="#B35047" x1="479.516" y1="-2484.484" x2="479.516" y2="-1972.484"/>
	<line fill="none" stroke="#B35047" x1="-0.484" y1="-2452.484" x2="511.516" y2="-2452.484"/>
	<line fill="none" stroke="#B35047" x1="-0.484" y1="-2420.484" x2="511.516" y2="-2420.484"/>
	<line fill="none" stroke="#B35047" x1="-0.484" y1="-2388.484" x2="511.516" y2="-2388.484"/>
	<line fill="none" stroke="#B35047" x1="-0.484" y1="-2356.484" x2="511.516" y2="-2356.484"/>
	<line fill="none" stroke="#B35047" x1="-0.484" y1="-2324.484" x2="511.516" y2="-2324.484"/>
	<line fill="none" stroke="#B35047" x1="-0.484" y1="-2292.484" x2="511.516" y2="-2292.484"/>
	<line fill="none" stroke="#B35047" x1="-0.484" y1="-2260.484" x2="511.516" y2="-2260.484"/>
	<line fill="none" stroke="#B35047" x1="-0.484" y1="-2228.484" x2="511.516" y2="-2228.484"/>
	<line fill="none" stroke="#B35047" x1="-0.484" y1="-2196.484" x2="511.516" y2="-2196.484"/>
	<line fill="none" stroke="#B35047" x1="-0.484" y1="-2164.484" x2="511.516" y2="-2164.484"/>
	<line fill="none" stroke="#B35047" x1="-0.484" y1="-2132.484" x2="511.516" y2="-2132.484"/>
	<line fill="none" stroke="#B35047" x1="-0.484" y1="-2100.484" x2="511.516" y2="-2100.484"/>
	<line fill="none" stroke="#B35047" x1="-0.484" y1="-2068.484" x2="511.516" y2="-2068.484"/>
	<line fill="none" stroke="#B35047" x1="-0.484" y1="-2036.484" x2="511.516" y2="-2036.484"/>
	<line fill="none" stroke="#B35047" x1="-0.484" y1="-2004.484" x2="511.516" y2="-2004.484"/>
	<rect x="-0.484" y="-2484.484" fill="none" stroke="#B35047" width="512" height="512"/>
</g>
<path d="M447.516-2026.735v-233.749c0-9.551-6.701-17.526-15.655-19.513c-0.105-0.023-0.207-0.06-0.314-0.081
	c-0.222-0.045-0.452-0.065-0.677-0.104c-1.093-0.185-2.208-0.303-3.354-0.303h-27.951l0.001-27.925h0.01
	c0-79.57-64.505-144.075-144.075-144.075c-79.564,0-144.065,64.496-144.075,144.059v0.004v27.938H84
	c-10.355,0-18.873,7.871-19.896,17.955c-0.068,0.672-0.104,1.354-0.104,2.045v231.666c-0.309,1.396-0.484,2.844-0.484,4.334
	c0,11.047,8.955,20,20,20H427.65c11.046,0,20-8.955,20-20C447.65-2025.246,447.599-2025.996,447.516-2026.735z M104-2240.484
	h303.516v196H104V-2240.484z M151.425-2308.409c0-57.388,46.688-104.075,104.075-104.075c57.295,0,103.921,46.537,104.071,103.798
	c0,0.042-0.006,0.082-0.006,0.124v28.078H151.424L151.425-2308.409z M275.582-2138.571l-0.001,29.094
	c0.002,11.044-8.953,19.998-19.998,19.999c-11.047,0.001-20.002-8.953-20-20v-28.987c-7.352-5.863-12.067-14.891-12.067-25.024
	c0-17.673,14.327-32,32-32s32,14.327,32,32C287.516-2153.418,282.857-2144.437,275.582-2138.571z"/>
</svg>
