<?xml version="1.0" encoding="utf-8"?>
<!-- Generator: Adobe Illustrator 16.0.4, SVG Export Plug-In . SVG Version: 6.00 Build 0)  -->
<!DOCTYPE svg PUBLIC "-//W3C//DTD SVG 1.1//EN" "http://www.w3.org/Graphics/SVG/1.1/DTD/svg11.dtd">
<svg version="1.1" id="Layer_1" xmlns="http://www.w3.org/2000/svg" xmlns:xlink="http://www.w3.org/1999/xlink" x="0px" y="0px"
	 width="512px" height="512px" viewBox="-0.5 -1380.5 512 512" enable-background="new -0.5 -1380.5 512 512" xml:space="preserve">
<g>
	<line fill="none" stroke="#B35047" x1="31.5" y1="-1380.5" x2="31.5" y2="-868.5"/>
	<line fill="none" stroke="#B35047" x1="63.5" y1="-1380.5" x2="63.5" y2="-868.5"/>
	<line fill="none" stroke="#B35047" x1="95.5" y1="-1380.5" x2="95.5" y2="-868.5"/>
	<line fill="none" stroke="#B35047" x1="127.5" y1="-1380.5" x2="127.5" y2="-868.5"/>
	<line fill="none" stroke="#B35047" x1="159.5" y1="-1380.5" x2="159.5" y2="-868.5"/>
	<line fill="none" stroke="#B35047" x1="191.5" y1="-1380.5" x2="191.5" y2="-868.5"/>
	<line fill="none" stroke="#B35047" x1="223.5" y1="-1380.5" x2="223.5" y2="-868.5"/>
	<line fill="none" stroke="#B35047" x1="255.5" y1="-1380.5" x2="255.5" y2="-868.5"/>
	<line fill="none" stroke="#B35047" x1="287.5" y1="-1380.5" x2="287.5" y2="-868.5"/>
	<line fill="none" stroke="#B35047" x1="319.5" y1="-1380.5" x2="319.5" y2="-868.5"/>
	<line fill="none" stroke="#B35047" x1="351.5" y1="-1380.5" x2="351.5" y2="-868.5"/>
	<line fill="none" stroke="#B35047" x1="383.499" y1="-1380.5" x2="383.499" y2="-868.5"/>
	<line fill="none" stroke="#B35047" x1="415.499" y1="-1380.5" x2="415.499" y2="-868.5"/>
	<line fill="none" stroke="#B35047" x1="447.499" y1="-1380.5" x2="447.499" y2="-868.5"/>
	<line fill="none" stroke="#B35047" x1="479.499" y1="-1380.5" x2="479.499" y2="-868.5"/>
	<line fill="none" stroke="#B35047" x1="-0.5" y1="-1348.5" x2="511.499" y2="-1348.5"/>
	<line fill="none" stroke="#B35047" x1="-0.5" y1="-1316.5" x2="511.499" y2="-1316.5"/>
	<line fill="none" stroke="#B35047" x1="-0.5" y1="-1284.5" x2="511.499" y2="-1284.5"/>
	<line fill="none" stroke="#B35047" x1="-0.5" y1="-1252.5" x2="511.499" y2="-1252.5"/>
	<line fill="none" stroke="#B35047" x1="-0.5" y1="-1220.5" x2="511.499" y2="-1220.5"/>
	<line fill="none" stroke="#B35047" x1="-0.5" y1="-1188.5" x2="511.499" y2="-1188.5"/>
	<line fill="none" stroke="#B35047" x1="-0.5" y1="-1156.5" x2="511.499" y2="-1156.5"/>
	<line fill="none" stroke="#B35047" x1="-0.5" y1="-1124.5" x2="511.499" y2="-1124.5"/>
	<line fill="none" stroke="#B35047" x1="-0.5" y1="-1092.5" x2="511.499" y2="-1092.5"/>
	<line fill="none" stroke="#B35047" x1="-0.5" y1="-1060.5" x2="511.499" y2="-1060.5"/>
	<line fill="none" stroke="#B35047" x1="-0.5" y1="-1028.5" x2="511.499" y2="-1028.5"/>
	<line fill="none" stroke="#B35047" x1="-0.5" y1="-996.5" x2="511.499" y2="-996.5"/>
	<line fill="none" stroke="#B35047" x1="-0.5" y1="-964.5" x2="511.499" y2="-964.5"/>
	<line fill="none" stroke="#B35047" x1="-0.5" y1="-932.5" x2="511.499" y2="-932.5"/>
	<line fill="none" stroke="#B35047" x1="-0.5" y1="-900.5" x2="511.499" y2="-900.5"/>
	<rect x="-0.5" y="-1380.5" fill="none" stroke="#B35047" width="511.999" height="512"/>
</g>
<path d="M479.531-1072.5v152c0,0.691-0.035,1.373-0.104,2.045c-1.023,10.086-9.54,17.955-19.896,17.955h-408
	c-11.045,0-20-8.953-20-20v-152c0-11.045,8.955-20,20-20s20,8.955,20,20v132h368v-132c0-11.045,8.955-20,20-20
	S479.531-1083.544,479.531-1072.5z M331.866-1280.416l-62.205-62.205c-0.007-0.007-0.012-0.014-0.019-0.021
	c-1.785-1.785-3.832-3.142-6.009-4.111c-2.658-1.184-5.514-1.77-8.371-1.735c-0.07-0.001-0.138-0.011-0.207-0.011
	c-6.776,0-12.756,3.379-16.374,8.536l-59.55,59.546c-7.811,7.811-7.809,20.475,0.001,28.286c7.811,7.81,20.475,7.81,28.284,0
	l27.638-27.638v231.27c0,11.047,8.956,20,20.001,20c11.046,0,20-8.955,20-20v-232.157l28.526,28.526
	c7.811,7.812,20.474,7.81,28.284,0C339.679-1259.942,339.679-1272.606,331.866-1280.416z"/>
</svg>
