<?xml version="1.0" encoding="utf-8"?>
<!-- Generator: Adobe Illustrator 16.0.4, SVG Export Plug-In . SVG Version: 6.00 Build 0)  -->
<!DOCTYPE svg PUBLIC "-//W3C//DTD SVG 1.1//EN" "http://www.w3.org/Graphics/SVG/1.1/DTD/svg11.dtd">
<svg version="1.1" id="Layer_1" xmlns="http://www.w3.org/2000/svg" xmlns:xlink="http://www.w3.org/1999/xlink" x="0px" y="0px"
	 width="512px" height="512px" viewBox="-1104.5 -4140.5 512 512" enable-background="new -1104.5 -4140.5 512 512"
	 xml:space="preserve">
<g>
	<line fill="none" stroke="#B35047" x1="-1072.484" y1="-4140.484" x2="-1072.484" y2="-3628.484"/>
	<line fill="none" stroke="#B35047" x1="-1040.484" y1="-4140.484" x2="-1040.484" y2="-3628.484"/>
	<line fill="none" stroke="#B35047" x1="-1008.484" y1="-4140.484" x2="-1008.484" y2="-3628.484"/>
	<line fill="none" stroke="#B35047" x1="-976.484" y1="-4140.484" x2="-976.484" y2="-3628.484"/>
	<line fill="none" stroke="#B35047" x1="-944.484" y1="-4140.484" x2="-944.484" y2="-3628.484"/>
	<line fill="none" stroke="#B35047" x1="-912.484" y1="-4140.484" x2="-912.484" y2="-3628.484"/>
	<line fill="none" stroke="#B35047" x1="-880.484" y1="-4140.484" x2="-880.484" y2="-3628.484"/>
	<line fill="none" stroke="#B35047" x1="-848.484" y1="-4140.484" x2="-848.484" y2="-3628.484"/>
	<line fill="none" stroke="#B35047" x1="-816.484" y1="-4140.484" x2="-816.484" y2="-3628.484"/>
	<line fill="none" stroke="#B35047" x1="-784.484" y1="-4140.484" x2="-784.484" y2="-3628.484"/>
	<line fill="none" stroke="#B35047" x1="-752.484" y1="-4140.484" x2="-752.484" y2="-3628.484"/>
	<line fill="none" stroke="#B35047" x1="-720.484" y1="-4140.484" x2="-720.484" y2="-3628.484"/>
	<line fill="none" stroke="#B35047" x1="-688.484" y1="-4140.484" x2="-688.484" y2="-3628.484"/>
	<line fill="none" stroke="#B35047" x1="-656.484" y1="-4140.484" x2="-656.484" y2="-3628.484"/>
	<line fill="none" stroke="#B35047" x1="-624.484" y1="-4140.484" x2="-624.484" y2="-3628.484"/>
	<line fill="none" stroke="#B35047" x1="-1104.484" y1="-4108.484" x2="-592.484" y2="-4108.484"/>
	<line fill="none" stroke="#B35047" x1="-1104.484" y1="-4076.484" x2="-592.484" y2="-4076.484"/>
	<line fill="none" stroke="#B35047" x1="-1104.484" y1="-4044.484" x2="-592.484" y2="-4044.484"/>
	<line fill="none" stroke="#B35047" x1="-1104.484" y1="-4012.484" x2="-592.484" y2="-4012.484"/>
	<line fill="none" stroke="#B35047" x1="-1104.484" y1="-3980.484" x2="-592.484" y2="-3980.484"/>
	<line fill="none" stroke="#B35047" x1="-1104.484" y1="-3948.484" x2="-592.484" y2="-3948.484"/>
	<line fill="none" stroke="#B35047" x1="-1104.484" y1="-3916.484" x2="-592.484" y2="-3916.484"/>
	<line fill="none" stroke="#B35047" x1="-1104.484" y1="-3884.484" x2="-592.484" y2="-3884.484"/>
	<line fill="none" stroke="#B35047" x1="-1104.484" y1="-3852.484" x2="-592.484" y2="-3852.484"/>
	<line fill="none" stroke="#B35047" x1="-1104.484" y1="-3820.484" x2="-592.484" y2="-3820.484"/>
	<line fill="none" stroke="#B35047" x1="-1104.484" y1="-3788.484" x2="-592.484" y2="-3788.484"/>
	<line fill="none" stroke="#B35047" x1="-1104.484" y1="-3756.484" x2="-592.484" y2="-3756.484"/>
	<line fill="none" stroke="#B35047" x1="-1104.484" y1="-3724.484" x2="-592.484" y2="-3724.484"/>
	<line fill="none" stroke="#B35047" x1="-1104.484" y1="-3692.484" x2="-592.484" y2="-3692.484"/>
	<line fill="none" stroke="#B35047" x1="-1104.484" y1="-3660.484" x2="-592.484" y2="-3660.484"/>
	<rect x="-1104.484" y="-4140.484" fill="none" stroke="#B35047" width="512" height="512"/>
</g>
<g>
	<path d="M-848.5-4084.5c27.011,0,53.201,5.285,77.842,15.708c23.813,10.072,45.205,24.496,63.58,42.872
		c18.375,18.376,32.799,39.768,42.872,63.581c10.422,24.642,15.707,50.832,15.707,77.842c0,27.01-5.285,53.199-15.707,77.84
		c-10.072,23.813-24.496,45.204-42.872,63.58c-18.375,18.375-39.767,32.799-63.58,42.871
		c-24.642,10.422-50.832,15.707-77.842,15.707c-27.01,0-53.2-5.285-77.842-15.707c-23.813-10.072-45.204-24.496-63.58-42.871
		c-18.375-18.375-32.799-39.767-42.872-63.58c-10.422-24.641-15.707-50.831-15.707-77.84c0-27.011,5.285-53.201,15.707-77.842
		c10.072-23.813,24.496-45.205,42.872-63.581c18.375-18.375,39.767-32.8,63.58-42.872
		C-901.701-4079.215-875.511-4084.5-848.5-4084.5 M-848.5-4108.5c-123.712,0-224,100.29-224,224.002
		c0,123.71,100.288,223.998,224,223.998c123.713,0,224.001-100.288,224.001-223.998C-624.5-4008.21-724.788-4108.5-848.5-4108.5
		L-848.5-4108.5z"/>
</g>
<g>
	<circle cx="-848.5" cy="-3992.5" r="58"/>
</g>
<g>
	<circle cx="-848.5" cy="-3776.5" r="58"/>
</g>
<g>
	<polygon points="-905,-3788.5 -917,-3776.5 -905,-3764.5 	"/>
</g>
<g>
	<circle cx="-740.5" cy="-3884.5" r="58"/>
</g>
<g>
	<circle cx="-956.5" cy="-3884.5" r="58"/>
</g>
<g>
	<polygon points="-944.5,-3941 -956.5,-3953 -968.5,-3941 	"/>
</g>
<g>
	<polygon points="-792,-3980.5 -780,-3992.5 -792,-4004.5 	"/>
</g>
<g>
	<polygon points="-752.5,-3828 -740.5,-3816 -728.5,-3828 	"/>
</g>
</svg>
