<?xml version="1.0" encoding="utf-8"?>
<!-- Generator: Adobe Illustrator 16.0.4, SVG Export Plug-In . SVG Version: 6.00 Build 0)  -->
<!DOCTYPE svg PUBLIC "-//W3C//DTD SVG 1.1//EN" "http://www.w3.org/Graphics/SVG/1.1/DTD/svg11.dtd">
<svg version="1.1" id="Layer_1" xmlns="http://www.w3.org/2000/svg" xmlns:xlink="http://www.w3.org/1999/xlink" x="0px" y="0px"
	 width="512px" height="512px" viewBox="551.5 5288.484 512 512" enable-background="new 551.5 5288.484 512 512"
	 xml:space="preserve">
<g>
	<line fill="none" stroke="#B35047" x1="583.5" y1="5288.484" x2="583.5" y2="5800.484"/>
	<line fill="none" stroke="#B35047" x1="615.5" y1="5288.484" x2="615.5" y2="5800.484"/>
	<line fill="none" stroke="#B35047" x1="647.5" y1="5288.484" x2="647.5" y2="5800.484"/>
	<line fill="none" stroke="#B35047" x1="679.5" y1="5288.484" x2="679.5" y2="5800.484"/>
	<line fill="none" stroke="#B35047" x1="711.5" y1="5288.484" x2="711.5" y2="5800.484"/>
	<line fill="none" stroke="#B35047" x1="743.5" y1="5288.484" x2="743.5" y2="5800.484"/>
	<line fill="none" stroke="#B35047" x1="775.5" y1="5288.484" x2="775.5" y2="5800.484"/>
	<line fill="none" stroke="#B35047" x1="807.5" y1="5288.484" x2="807.5" y2="5800.484"/>
	<line fill="none" stroke="#B35047" x1="839.5" y1="5288.484" x2="839.5" y2="5800.484"/>
	<line fill="none" stroke="#B35047" x1="871.5" y1="5288.484" x2="871.5" y2="5800.484"/>
	<line fill="none" stroke="#B35047" x1="903.5" y1="5288.484" x2="903.5" y2="5800.484"/>
	<line fill="none" stroke="#B35047" x1="935.5" y1="5288.484" x2="935.5" y2="5800.484"/>
	<line fill="none" stroke="#B35047" x1="967.5" y1="5288.484" x2="967.5" y2="5800.484"/>
	<line fill="none" stroke="#B35047" x1="999.5" y1="5288.484" x2="999.5" y2="5800.484"/>
	<line fill="none" stroke="#B35047" x1="1031.5" y1="5288.484" x2="1031.5" y2="5800.484"/>
	<line fill="none" stroke="#B35047" x1="551.5" y1="5320.484" x2="1063.5" y2="5320.484"/>
	<line fill="none" stroke="#B35047" x1="551.5" y1="5352.484" x2="1063.5" y2="5352.484"/>
	<line fill="none" stroke="#B35047" x1="551.5" y1="5384.484" x2="1063.5" y2="5384.484"/>
	<line fill="none" stroke="#B35047" x1="551.5" y1="5416.484" x2="1063.5" y2="5416.484"/>
	<line fill="none" stroke="#B35047" x1="551.5" y1="5448.484" x2="1063.5" y2="5448.484"/>
	<line fill="none" stroke="#B35047" x1="551.5" y1="5480.484" x2="1063.5" y2="5480.484"/>
	<line fill="none" stroke="#B35047" x1="551.5" y1="5512.484" x2="1063.5" y2="5512.484"/>
	<line fill="none" stroke="#B35047" x1="551.5" y1="5544.484" x2="1063.5" y2="5544.484"/>
	<line fill="none" stroke="#B35047" x1="551.5" y1="5576.484" x2="1063.5" y2="5576.484"/>
	<line fill="none" stroke="#B35047" x1="551.5" y1="5608.484" x2="1063.5" y2="5608.484"/>
	<line fill="none" stroke="#B35047" x1="551.5" y1="5640.484" x2="1063.5" y2="5640.484"/>
	<line fill="none" stroke="#B35047" x1="551.5" y1="5672.484" x2="1063.5" y2="5672.484"/>
	<line fill="none" stroke="#B35047" x1="551.5" y1="5704.484" x2="1063.5" y2="5704.484"/>
	<line fill="none" stroke="#B35047" x1="551.5" y1="5736.484" x2="1063.5" y2="5736.484"/>
	<line fill="none" stroke="#B35047" x1="551.5" y1="5768.484" x2="1063.5" y2="5768.484"/>
	<rect x="551.5" y="5288.484" fill="none" stroke="#B35047" width="512" height="512"/>
</g>
<g>
	<path d="M1011.5,5320.484h-408c-11.046,0-20,8.955-20,20v408c0,11.047,8.954,20,20,20h408c11.046,0,20-8.953,20-20v-408
		C1031.5,5329.439,1022.546,5320.484,1011.5,5320.484z M991.5,5360.484v224.891l-117.695-117.696
		c-3.751-3.75-8.838-5.857-14.143-5.857s-10.392,2.107-14.143,5.858l-84.902,84.902l-20.479-20.479
		c-7.811-7.811-20.475-7.811-28.285,0l-88.354,88.354v-259.973H991.5z M623.5,5728.484v-51.457l102.496-102.497l107.986,107.987
		c3.905,3.905,9.024,5.857,14.143,5.857s10.237-1.952,14.143-5.857c7.81-7.811,7.81-20.475,0-28.285l-73.366-73.365l70.761-70.762
		l131.838,131.84v86.539H623.5z"/>
	<path d="M729.587,5488.756c26.233,0,47.5-21.268,47.5-47.5s-21.267-47.5-47.5-47.5s-47.5,21.268-47.5,47.5
		S703.354,5488.756,729.587,5488.756z M729.587,5413.756c15.163,0,27.5,12.336,27.5,27.5s-12.337,27.5-27.5,27.5
		s-27.5-12.336-27.5-27.5S714.424,5413.756,729.587,5413.756z"/>
</g>
</svg>
