<?xml version="1.0" encoding="utf-8"?>
<!-- Generator: Adobe Illustrator 16.0.4, SVG Export Plug-In . SVG Version: 6.00 Build 0)  -->
<!DOCTYPE svg PUBLIC "-//W3C//DTD SVG 1.1//EN" "http://www.w3.org/Graphics/SVG/1.1/DTD/svg11.dtd">
<svg version="1.1" id="Layer_1" xmlns="http://www.w3.org/2000/svg" xmlns:xlink="http://www.w3.org/1999/xlink" x="0px" y="0px"
	 width="512px" height="512px" viewBox="-552.5 3587.5 512 512" enable-background="new -552.5 3587.5 512 512"
	 xml:space="preserve">
<g>
	<line fill="none" stroke="#B35047" x1="-40.484" y1="3619.517" x2="-552.484" y2="3619.517"/>
	<line fill="none" stroke="#B35047" x1="-40.484" y1="3651.517" x2="-552.484" y2="3651.517"/>
	<line fill="none" stroke="#B35047" x1="-40.484" y1="3683.517" x2="-552.484" y2="3683.517"/>
	<line fill="none" stroke="#B35047" x1="-40.484" y1="3715.517" x2="-552.484" y2="3715.517"/>
	<line fill="none" stroke="#B35047" x1="-40.484" y1="3747.517" x2="-552.484" y2="3747.517"/>
	<line fill="none" stroke="#B35047" x1="-40.484" y1="3779.517" x2="-552.484" y2="3779.517"/>
	<line fill="none" stroke="#B35047" x1="-40.484" y1="3811.517" x2="-552.484" y2="3811.517"/>
	<line fill="none" stroke="#B35047" x1="-40.484" y1="3843.517" x2="-552.484" y2="3843.517"/>
	<line fill="none" stroke="#B35047" x1="-40.484" y1="3875.517" x2="-552.484" y2="3875.517"/>
	<line fill="none" stroke="#B35047" x1="-40.484" y1="3907.517" x2="-552.484" y2="3907.517"/>
	<line fill="none" stroke="#B35047" x1="-40.484" y1="3939.517" x2="-552.484" y2="3939.517"/>
	<line fill="none" stroke="#B35047" x1="-40.484" y1="3971.517" x2="-552.484" y2="3971.517"/>
	<line fill="none" stroke="#B35047" x1="-40.484" y1="4003.517" x2="-552.484" y2="4003.517"/>
	<line fill="none" stroke="#B35047" x1="-40.484" y1="4035.517" x2="-552.484" y2="4035.517"/>
	<line fill="none" stroke="#B35047" x1="-40.484" y1="4067.517" x2="-552.484" y2="4067.517"/>
	<line fill="none" stroke="#B35047" x1="-72.482" y1="3587.517" x2="-72.482" y2="4099.517"/>
	<line fill="none" stroke="#B35047" x1="-104.482" y1="3587.517" x2="-104.482" y2="4099.517"/>
	<line fill="none" stroke="#B35047" x1="-136.482" y1="3587.517" x2="-136.482" y2="4099.517"/>
	<line fill="none" stroke="#B35047" x1="-168.482" y1="3587.517" x2="-168.482" y2="4099.517"/>
	<line fill="none" stroke="#B35047" x1="-200.482" y1="3587.517" x2="-200.482" y2="4099.517"/>
	<line fill="none" stroke="#B35047" x1="-232.482" y1="3587.517" x2="-232.482" y2="4099.517"/>
	<line fill="none" stroke="#B35047" x1="-264.482" y1="3587.517" x2="-264.482" y2="4099.517"/>
	<line fill="none" stroke="#B35047" x1="-296.484" y1="3587.517" x2="-296.484" y2="4099.517"/>
	<line fill="none" stroke="#B35047" x1="-328.484" y1="3587.517" x2="-328.484" y2="4099.517"/>
	<line fill="none" stroke="#B35047" x1="-360.484" y1="3587.517" x2="-360.484" y2="4099.517"/>
	<line fill="none" stroke="#B35047" x1="-392.484" y1="3587.517" x2="-392.484" y2="4099.517"/>
	<line fill="none" stroke="#B35047" x1="-424.484" y1="3587.517" x2="-424.484" y2="4099.517"/>
	<line fill="none" stroke="#B35047" x1="-456.484" y1="3587.517" x2="-456.484" y2="4099.517"/>
	<line fill="none" stroke="#B35047" x1="-488.484" y1="3587.517" x2="-488.484" y2="4099.517"/>
	<line fill="none" stroke="#B35047" x1="-520.484" y1="3587.517" x2="-520.484" y2="4099.517"/>
	<rect x="-552.484" y="3587.517" fill="none" stroke="#B35047" width="512" height="512"/>
</g>
<g>
	<path d="M-87.012,3823.572l-345.232-199.319c-5.521-3.188-10.747-4.695-15.391-4.694c-11.384,0.001-19.25,9.068-19.25,24.694
		v398.639c0,15.627,7.864,24.694,19.25,24.694c4.643,0,9.871-1.508,15.391-4.694l345.232-199.319
		C-67.96,3852.572-67.96,3834.572-87.012,3823.572z"/>
</g>
</svg>
