<?xml version="1.0" encoding="utf-8"?>
<!-- Generator: Adobe Illustrator 16.0.4, SVG Export Plug-In . SVG Version: 6.00 Build 0)  -->
<!DOCTYPE svg PUBLIC "-//W3C//DTD SVG 1.1//EN" "http://www.w3.org/Graphics/SVG/1.1/DTD/svg11.dtd">
<svg version="1.1" id="Layer_1" xmlns="http://www.w3.org/2000/svg" xmlns:xlink="http://www.w3.org/1999/xlink" x="0px" y="0px"
	 width="512px" height="512px" viewBox="-552.5 -3036.5 512 512" enable-background="new -552.5 -3036.5 512 512"
	 xml:space="preserve">
<g>
	<line fill="none" stroke="#B35047" x1="-520.5" y1="-3036.5" x2="-520.5" y2="-2524.5"/>
	<line fill="none" stroke="#B35047" x1="-488.5" y1="-3036.5" x2="-488.5" y2="-2524.5"/>
	<line fill="none" stroke="#B35047" x1="-456.5" y1="-3036.5" x2="-456.5" y2="-2524.5"/>
	<line fill="none" stroke="#B35047" x1="-424.5" y1="-3036.5" x2="-424.5" y2="-2524.5"/>
	<line fill="none" stroke="#B35047" x1="-392.5" y1="-3036.5" x2="-392.5" y2="-2524.5"/>
	<line fill="none" stroke="#B35047" x1="-360.5" y1="-3036.5" x2="-360.5" y2="-2524.5"/>
	<line fill="none" stroke="#B35047" x1="-328.5" y1="-3036.5" x2="-328.5" y2="-2524.5"/>
	<line fill="none" stroke="#B35047" x1="-296.5" y1="-3036.5" x2="-296.5" y2="-2524.5"/>
	<line fill="none" stroke="#B35047" x1="-264.5" y1="-3036.5" x2="-264.5" y2="-2524.5"/>
	<line fill="none" stroke="#B35047" x1="-232.5" y1="-3036.5" x2="-232.5" y2="-2524.5"/>
	<line fill="none" stroke="#B35047" x1="-200.5" y1="-3036.5" x2="-200.5" y2="-2524.5"/>
	<line fill="none" stroke="#B35047" x1="-168.5" y1="-3036.5" x2="-168.5" y2="-2524.5"/>
	<line fill="none" stroke="#B35047" x1="-136.5" y1="-3036.5" x2="-136.5" y2="-2524.5"/>
	<line fill="none" stroke="#B35047" x1="-104.5" y1="-3036.5" x2="-104.5" y2="-2524.5"/>
	<line fill="none" stroke="#B35047" x1="-72.5" y1="-3036.5" x2="-72.5" y2="-2524.5"/>
	<line fill="none" stroke="#B35047" x1="-552.5" y1="-3004.5" x2="-40.5" y2="-3004.5"/>
	<line fill="none" stroke="#B35047" x1="-552.5" y1="-2972.5" x2="-40.5" y2="-2972.5"/>
	<line fill="none" stroke="#B35047" x1="-552.5" y1="-2940.5" x2="-40.5" y2="-2940.5"/>
	<line fill="none" stroke="#B35047" x1="-552.5" y1="-2908.5" x2="-40.5" y2="-2908.5"/>
	<line fill="none" stroke="#B35047" x1="-552.5" y1="-2876.5" x2="-40.5" y2="-2876.5"/>
	<line fill="none" stroke="#B35047" x1="-552.5" y1="-2844.5" x2="-40.5" y2="-2844.5"/>
	<line fill="none" stroke="#B35047" x1="-552.5" y1="-2812.5" x2="-40.5" y2="-2812.5"/>
	<line fill="none" stroke="#B35047" x1="-552.5" y1="-2780.5" x2="-40.5" y2="-2780.5"/>
	<line fill="none" stroke="#B35047" x1="-552.5" y1="-2748.5" x2="-40.5" y2="-2748.5"/>
	<line fill="none" stroke="#B35047" x1="-552.5" y1="-2716.5" x2="-40.5" y2="-2716.5"/>
	<line fill="none" stroke="#B35047" x1="-552.5" y1="-2684.5" x2="-40.5" y2="-2684.5"/>
	<line fill="none" stroke="#B35047" x1="-552.5" y1="-2652.5" x2="-40.5" y2="-2652.5"/>
	<line fill="none" stroke="#B35047" x1="-552.5" y1="-2620.5" x2="-40.5" y2="-2620.5"/>
	<line fill="none" stroke="#B35047" x1="-552.5" y1="-2588.5" x2="-40.5" y2="-2588.5"/>
	<line fill="none" stroke="#B35047" x1="-552.5" y1="-2556.5" x2="-40.5" y2="-2556.5"/>
	<rect x="-552.5" y="-3036.5" fill="none" stroke="#B35047" width="512" height="512"/>
</g>
<path fill="#231F20" d="M-91.999-2800h-184.004v-184.002c0.001-11.045-8.953-19.998-19.998-19.998c-11.044,0-19.999,8.955-19.999,20
	v184h-184.001c-11.047,0-20,8.954-19.999,20c-0.001,11.045,8.952,19.998,19.998,19.998l184.002-0.001v184.005
	c0,11.047,8.954,20,20,19.998c11.045,0.002,19.998-8.951,19.998-19.998v-184.005h184.005c11.045,0.001,19.997-8.953,19.997-19.998
	C-72-2791.045-80.954-2800-91.999-2800z"/>
</svg>
