<?xml version="1.0" encoding="utf-8"?>
<!-- Generator: Adobe Illustrator 16.0.4, SVG Export Plug-In . SVG Version: 6.00 Build 0)  -->
<!DOCTYPE svg PUBLIC "-//W3C//DTD SVG 1.1//EN" "http://www.w3.org/Graphics/SVG/1.1/DTD/svg11.dtd">
<svg version="1.1" id="Layer_1" xmlns="http://www.w3.org/2000/svg" xmlns:xlink="http://www.w3.org/1999/xlink" x="0px" y="0px"
	 width="511.999px" height="512px" viewBox="551.5 -1380.5 511.999 512" enable-background="new 551.5 -1380.5 511.999 512"
	 xml:space="preserve">
<g>
	<line fill="none" stroke="#B35047" x1="583.562" y1="-1380.437" x2="583.562" y2="-868.437"/>
	<line fill="none" stroke="#B35047" x1="615.562" y1="-1380.437" x2="615.562" y2="-868.437"/>
	<line fill="none" stroke="#B35047" x1="647.562" y1="-1380.437" x2="647.562" y2="-868.437"/>
	<line fill="none" stroke="#B35047" x1="679.562" y1="-1380.437" x2="679.562" y2="-868.437"/>
	<line fill="none" stroke="#B35047" x1="711.562" y1="-1380.437" x2="711.562" y2="-868.437"/>
	<line fill="none" stroke="#B35047" x1="743.562" y1="-1380.437" x2="743.562" y2="-868.437"/>
	<line fill="none" stroke="#B35047" x1="775.562" y1="-1380.437" x2="775.562" y2="-868.437"/>
	<line fill="none" stroke="#B35047" x1="807.562" y1="-1380.437" x2="807.562" y2="-868.437"/>
	<line fill="none" stroke="#B35047" x1="839.562" y1="-1380.437" x2="839.562" y2="-868.437"/>
	<line fill="none" stroke="#B35047" x1="871.562" y1="-1380.437" x2="871.562" y2="-868.437"/>
	<line fill="none" stroke="#B35047" x1="903.562" y1="-1380.437" x2="903.562" y2="-868.437"/>
	<line fill="none" stroke="#B35047" x1="935.562" y1="-1380.437" x2="935.562" y2="-868.437"/>
	<line fill="none" stroke="#B35047" x1="967.562" y1="-1380.437" x2="967.562" y2="-868.437"/>
	<line fill="none" stroke="#B35047" x1="999.562" y1="-1380.437" x2="999.562" y2="-868.437"/>
	<line fill="none" stroke="#B35047" x1="1031.562" y1="-1380.437" x2="1031.562" y2="-868.437"/>
	<line fill="none" stroke="#B35047" x1="551.562" y1="-1348.437" x2="1063.562" y2="-1348.437"/>
	<line fill="none" stroke="#B35047" x1="551.562" y1="-1316.437" x2="1063.562" y2="-1316.437"/>
	<line fill="none" stroke="#B35047" x1="551.562" y1="-1284.437" x2="1063.562" y2="-1284.437"/>
	<line fill="none" stroke="#B35047" x1="551.562" y1="-1252.437" x2="1063.562" y2="-1252.437"/>
	<line fill="none" stroke="#B35047" x1="551.562" y1="-1220.437" x2="1063.562" y2="-1220.437"/>
	<line fill="none" stroke="#B35047" x1="551.562" y1="-1188.437" x2="1063.562" y2="-1188.437"/>
	<line fill="none" stroke="#B35047" x1="551.562" y1="-1156.437" x2="1063.562" y2="-1156.437"/>
	<line fill="none" stroke="#B35047" x1="551.562" y1="-1124.437" x2="1063.562" y2="-1124.437"/>
	<line fill="none" stroke="#B35047" x1="551.562" y1="-1092.437" x2="1063.562" y2="-1092.437"/>
	<line fill="none" stroke="#B35047" x1="551.562" y1="-1060.437" x2="1063.562" y2="-1060.437"/>
	<line fill="none" stroke="#B35047" x1="551.562" y1="-1028.437" x2="1063.562" y2="-1028.437"/>
	<line fill="none" stroke="#B35047" x1="551.562" y1="-996.437" x2="1063.562" y2="-996.437"/>
	<line fill="none" stroke="#B35047" x1="551.562" y1="-964.437" x2="1063.562" y2="-964.437"/>
	<line fill="none" stroke="#B35047" x1="551.562" y1="-932.437" x2="1063.562" y2="-932.437"/>
	<line fill="none" stroke="#B35047" x1="551.562" y1="-900.437" x2="1063.562" y2="-900.437"/>
	<rect x="551.562" y="-1380.437" fill="none" stroke="#B35047" width="512" height="512"/>
</g>
<g>
	<path fill="#231F20" d="M1014.461-1228.252c-0.849-0.109-1.705-0.185-2.583-0.185h-44.32v-46.774
		c0.003-0.105-0.008-0.211-0.007-0.317c0.002-0.106,0.018-0.208,0.018-0.315c0-0.239-0.027-0.471-0.037-0.708
		c-0.012-0.318-0.021-0.635-0.047-0.953c-0.033-0.388-0.084-0.77-0.138-1.151c-0.037-0.267-0.073-0.533-0.121-0.798
		c-0.075-0.41-0.169-0.812-0.269-1.212c-0.06-0.24-0.115-0.479-0.185-0.718c-0.117-0.406-0.253-0.804-0.396-1.199
		c-0.082-0.231-0.161-0.462-0.252-0.69c-0.159-0.394-0.334-0.777-0.518-1.158c-0.104-0.219-0.203-0.44-0.314-0.656
		c-0.212-0.401-0.44-0.787-0.676-1.172c-0.109-0.179-0.211-0.362-0.328-0.539c-0.318-0.486-0.662-0.955-1.021-1.41
		c-0.049-0.062-0.091-0.126-0.141-0.188c-0.494-0.612-1.024-1.194-1.586-1.744l-52.002-52.441c-1.848-1.848-3.974-3.243-6.233-4.216
		c-0.061-0.025-0.112-0.055-0.172-0.08c-0.487-0.205-0.983-0.378-1.481-0.542c-0.131-0.043-0.256-0.095-0.39-0.136
		c-0.463-0.142-0.935-0.254-1.406-0.361c-0.173-0.04-0.342-0.091-0.517-0.126c-0.494-0.099-0.994-0.167-1.494-0.228
		c-0.155-0.02-0.309-0.051-0.465-0.067c-0.662-0.066-1.326-0.102-1.989-0.102h-75.835h-24h-128c-0.877,0-1.734,0.076-2.581,0.185
		c-9.823,1.269-17.419,9.645-17.419,19.815v100h-43.678c-0.877,0-1.734,0.076-2.582,0.185c-9.822,1.269-17.418,9.645-17.418,19.815
		v160c0,11.047,8.955,20,20,20h43.684v108c0,11.047,8.955,20,20,20h192h24h64.003c6.905,0,12.991-3.498,16.585-8.818
		c0.051-0.073,0.092-0.153,0.141-0.229c0.306-0.461,0.6-0.93,0.861-1.418c0.023-0.041,0.04-0.086,0.062-0.127
		c1.497-2.806,2.352-6.004,2.352-9.404c0,0,0,0,0-0.002v-108h44.312c6.904,0,12.991-3.498,16.584-8.818
		c0.052-0.074,0.093-0.154,0.143-0.229c0.306-0.461,0.599-0.931,0.86-1.418c0.023-0.041,0.041-0.087,0.062-0.128
		c1.497-2.805,2.351-6.004,2.351-9.403c0,0,0,0,0-0.002v-160C1031.878-1218.607,1024.285-1226.983,1014.461-1228.252z
		 M687.558-1308.436h108h24h55.817v32.593c0,0.69,0.035,1.373,0.104,2.045c1.024,10.084,9.54,17.955,19.896,17.955h32.183v27.406
		h-107.68h-0.32h-23.68h-0.32h-108V-1308.436z M927.565-940.437h-44.003h-24h-172v-163.999h172h24h44.003V-940.437z
		 M991.878-1068.437h-24.312v-55.999c0-10.171-7.595-18.547-17.418-19.815c-0.847-0.109-1.704-0.186-2.582-0.186h-64.003h-24h-192
		c-0.877,0-1.734,0.076-2.581,0.186c-9.823,1.269-17.419,9.645-17.419,19.814v56h-23.684v-119.999h171.999h24h172V-1068.437z"/>
	<path fill="#231F20" d="M731.562-1076.437c-11.046,0-20,8.954-20,20s8.954,20,20,20h152c11.046,0,20-8.954,20-20s-8.954-20-20-20
		H731.562z"/>
	<path fill="#231F20" d="M883.562-1008.437h-152c-11.046,0-20,8.954-20,20s8.954,20,20,20h152c11.046,0,20-8.954,20-20
		S894.608-1008.437,883.562-1008.437z"/>
</g>
</svg>
