<?xml version="1.0" encoding="utf-8"?>
<!-- Generator: Adobe Illustrator 16.0.4, SVG Export Plug-In . SVG Version: 6.00 Build 0)  -->
<!DOCTYPE svg PUBLIC "-//W3C//DTD SVG 1.1//EN" "http://www.w3.org/Graphics/SVG/1.1/DTD/svg11.dtd">
<svg version="1.1" id="Layer_1" xmlns="http://www.w3.org/2000/svg" xmlns:xlink="http://www.w3.org/1999/xlink" x="0px" y="0px"
	 width="512px" height="512px" viewBox="1103.5 -1932.5 512 512" enable-background="new 1103.5 -1932.5 512 512"
	 xml:space="preserve">
<g>
	<line fill="none" stroke="#B35047" x1="1135.516" y1="-1932.484" x2="1135.516" y2="-1420.484"/>
	<line fill="none" stroke="#B35047" x1="1167.516" y1="-1932.484" x2="1167.516" y2="-1420.484"/>
	<line fill="none" stroke="#B35047" x1="1199.516" y1="-1932.484" x2="1199.516" y2="-1420.484"/>
	<line fill="none" stroke="#B35047" x1="1231.516" y1="-1932.484" x2="1231.516" y2="-1420.484"/>
	<line fill="none" stroke="#B35047" x1="1263.516" y1="-1932.484" x2="1263.516" y2="-1420.484"/>
	<line fill="none" stroke="#B35047" x1="1295.516" y1="-1932.484" x2="1295.516" y2="-1420.484"/>
	<line fill="none" stroke="#B35047" x1="1327.516" y1="-1932.484" x2="1327.516" y2="-1420.484"/>
	<line fill="none" stroke="#B35047" x1="1359.516" y1="-1932.484" x2="1359.516" y2="-1420.484"/>
	<line fill="none" stroke="#B35047" x1="1391.516" y1="-1932.484" x2="1391.516" y2="-1420.484"/>
	<line fill="none" stroke="#B35047" x1="1423.516" y1="-1932.484" x2="1423.516" y2="-1420.484"/>
	<line fill="none" stroke="#B35047" x1="1455.516" y1="-1932.484" x2="1455.516" y2="-1420.484"/>
	<line fill="none" stroke="#B35047" x1="1487.516" y1="-1932.484" x2="1487.516" y2="-1420.484"/>
	<line fill="none" stroke="#B35047" x1="1519.516" y1="-1932.484" x2="1519.516" y2="-1420.484"/>
	<line fill="none" stroke="#B35047" x1="1551.516" y1="-1932.484" x2="1551.516" y2="-1420.484"/>
	<line fill="none" stroke="#B35047" x1="1583.516" y1="-1932.484" x2="1583.516" y2="-1420.484"/>
	<line fill="none" stroke="#B35047" x1="1103.516" y1="-1900.484" x2="1615.516" y2="-1900.484"/>
	<line fill="none" stroke="#B35047" x1="1103.516" y1="-1868.484" x2="1615.516" y2="-1868.484"/>
	<line fill="none" stroke="#B35047" x1="1103.516" y1="-1836.484" x2="1615.516" y2="-1836.484"/>
	<line fill="none" stroke="#B35047" x1="1103.516" y1="-1804.484" x2="1615.516" y2="-1804.484"/>
	<line fill="none" stroke="#B35047" x1="1103.516" y1="-1772.484" x2="1615.516" y2="-1772.484"/>
	<line fill="none" stroke="#B35047" x1="1103.516" y1="-1740.484" x2="1615.516" y2="-1740.484"/>
	<line fill="none" stroke="#B35047" x1="1103.516" y1="-1708.484" x2="1615.516" y2="-1708.484"/>
	<line fill="none" stroke="#B35047" x1="1103.516" y1="-1676.484" x2="1615.516" y2="-1676.484"/>
	<line fill="none" stroke="#B35047" x1="1103.516" y1="-1644.484" x2="1615.516" y2="-1644.484"/>
	<line fill="none" stroke="#B35047" x1="1103.516" y1="-1612.484" x2="1615.516" y2="-1612.484"/>
	<line fill="none" stroke="#B35047" x1="1103.516" y1="-1580.484" x2="1615.516" y2="-1580.484"/>
	<line fill="none" stroke="#B35047" x1="1103.516" y1="-1548.484" x2="1615.516" y2="-1548.484"/>
	<line fill="none" stroke="#B35047" x1="1103.516" y1="-1516.484" x2="1615.516" y2="-1516.484"/>
	<line fill="none" stroke="#B35047" x1="1103.516" y1="-1484.484" x2="1615.516" y2="-1484.484"/>
	<line fill="none" stroke="#B35047" x1="1103.516" y1="-1452.484" x2="1615.516" y2="-1452.484"/>
	<rect x="1103.516" y="-1932.484" fill="none" stroke="#B35047" width="512" height="512"/>
</g>
<path d="M1443.248-1716.631c-0.207-0.031-0.417-0.051-0.633-0.051h-238.741l85.753-85.752c7.811-7.811,7.811-20.475-0.001-28.285
	c-7.81-7.812-20.474-7.812-28.284,0l-119.867,119.866c-0.479,0.478-0.934,0.979-1.362,1.503c-0.164,0.201-0.942,1.241-1.162,1.569
	c-0.18,0.27-0.848,1.385-1.004,1.676c-0.154,0.29-0.712,1.468-0.838,1.772c-0.018,0.043-0.234,0.634-0.324,0.887
	c-0.115,0.318-0.237,0.633-0.336,0.959c-0.093,0.306-0.409,1.565-0.475,1.894c-0.074,0.374-0.261,1.659-0.287,1.931
	c-0.131,1.321-0.131,2.65,0,3.971c0.022,0.224,0.206,1.516,0.29,1.937c0.056,0.278,0.37,1.544,0.479,1.904
	c0.079,0.262,0.518,1.496,0.664,1.85c0.096,0.229,0.649,1.414,0.844,1.776c0.104,0.193,0.223,0.375,0.333,0.563
	c0.218,0.376,0.922,1.444,1.042,1.612c0.26,0.362,2.131,2.537,2.145,2.549l119.859,119.86c7.81,7.809,20.474,7.809,28.285,0
	c7.81-7.812,7.811-20.474,0-28.285l-85.758-85.757h235.647c57.26,0.042,103.844,46.562,103.994,103.797
	c0,0.042-0.006,0.082-0.006,0.124v47.938c-0.002,11.047,8.953,20.001,20,20c11.045-0.001,20-8.955,19.998-19.999l0.002-47.785h0.01
	C1583.516-1650.904,1521.059-1714.613,1443.248-1716.631z"/>
</svg>
