<?xml version="1.0" encoding="utf-8"?>
<!-- Generator: Adobe Illustrator 16.0.4, SVG Export Plug-In . SVG Version: 6.00 Build 0)  -->
<!DOCTYPE svg PUBLIC "-//W3C//DTD SVG 1.1//EN" "http://www.w3.org/Graphics/SVG/1.1/DTD/svg11.dtd">
<svg version="1.1" id="Layer_1" xmlns="http://www.w3.org/2000/svg" xmlns:xlink="http://www.w3.org/1999/xlink" x="0px" y="0px"
	 width="512px" height="512px" viewBox="1103.499 -1380.5 512 512" enable-background="new 1103.499 -1380.5 512 512"
	 xml:space="preserve">
<g>
	<line fill="none" stroke="#B35047" x1="1135.53" y1="-1380.468" x2="1135.53" y2="-868.468"/>
	<line fill="none" stroke="#B35047" x1="1167.53" y1="-1380.468" x2="1167.53" y2="-868.468"/>
	<line fill="none" stroke="#B35047" x1="1199.53" y1="-1380.468" x2="1199.53" y2="-868.468"/>
	<line fill="none" stroke="#B35047" x1="1231.53" y1="-1380.468" x2="1231.53" y2="-868.468"/>
	<line fill="none" stroke="#B35047" x1="1263.53" y1="-1380.468" x2="1263.53" y2="-868.468"/>
	<line fill="none" stroke="#B35047" x1="1295.53" y1="-1380.468" x2="1295.53" y2="-868.468"/>
	<line fill="none" stroke="#B35047" x1="1327.53" y1="-1380.468" x2="1327.53" y2="-868.468"/>
	<line fill="none" stroke="#B35047" x1="1359.53" y1="-1380.468" x2="1359.53" y2="-868.468"/>
	<line fill="none" stroke="#B35047" x1="1391.53" y1="-1380.468" x2="1391.53" y2="-868.468"/>
	<line fill="none" stroke="#B35047" x1="1423.53" y1="-1380.468" x2="1423.53" y2="-868.468"/>
	<line fill="none" stroke="#B35047" x1="1455.53" y1="-1380.468" x2="1455.53" y2="-868.468"/>
	<line fill="none" stroke="#B35047" x1="1487.53" y1="-1380.468" x2="1487.53" y2="-868.468"/>
	<line fill="none" stroke="#B35047" x1="1519.53" y1="-1380.468" x2="1519.53" y2="-868.468"/>
	<line fill="none" stroke="#B35047" x1="1551.53" y1="-1380.468" x2="1551.53" y2="-868.468"/>
	<line fill="none" stroke="#B35047" x1="1583.53" y1="-1380.468" x2="1583.53" y2="-868.468"/>
	<line fill="none" stroke="#B35047" x1="1103.53" y1="-1348.468" x2="1615.53" y2="-1348.468"/>
	<line fill="none" stroke="#B35047" x1="1103.53" y1="-1316.468" x2="1615.53" y2="-1316.468"/>
	<line fill="none" stroke="#B35047" x1="1103.53" y1="-1284.468" x2="1615.53" y2="-1284.468"/>
	<line fill="none" stroke="#B35047" x1="1103.53" y1="-1252.468" x2="1615.53" y2="-1252.468"/>
	<line fill="none" stroke="#B35047" x1="1103.53" y1="-1220.468" x2="1615.53" y2="-1220.468"/>
	<line fill="none" stroke="#B35047" x1="1103.53" y1="-1188.468" x2="1615.53" y2="-1188.468"/>
	<line fill="none" stroke="#B35047" x1="1103.53" y1="-1156.468" x2="1615.53" y2="-1156.468"/>
	<line fill="none" stroke="#B35047" x1="1103.53" y1="-1124.468" x2="1615.53" y2="-1124.468"/>
	<line fill="none" stroke="#B35047" x1="1103.53" y1="-1092.468" x2="1615.53" y2="-1092.468"/>
	<line fill="none" stroke="#B35047" x1="1103.53" y1="-1060.468" x2="1615.53" y2="-1060.468"/>
	<line fill="none" stroke="#B35047" x1="1103.53" y1="-1028.468" x2="1615.53" y2="-1028.468"/>
	<line fill="none" stroke="#B35047" x1="1103.53" y1="-996.468" x2="1615.53" y2="-996.468"/>
	<line fill="none" stroke="#B35047" x1="1103.53" y1="-964.468" x2="1615.53" y2="-964.468"/>
	<line fill="none" stroke="#B35047" x1="1103.53" y1="-932.468" x2="1615.53" y2="-932.468"/>
	<line fill="none" stroke="#B35047" x1="1103.53" y1="-900.468" x2="1615.53" y2="-900.468"/>
	<rect x="1103.53" y="-1380.468" fill="none" stroke="#B35047" width="512" height="512"/>
</g>
<g>
	<path fill="#231F20" d="M1231.546-947.976c0,26.51-21.486,48-48,48c-26.51,0-48-21.49-48-48c0-26.508,21.49-48,48-48
		S1231.546-974.484,1231.546-947.976z M1358.509-921.324c-0.009-0.086-0.021-0.172-0.025-0.26c-0.027-0.338-0.062-0.67-0.107-1.002
		c-5.291-52.822-28.933-100.23-64.447-135.768l0,0c-35.537-35.527-82.953-59.176-135.782-64.467
		c-0.332-0.045-0.665-0.08-1.003-0.107c-0.087-0.008-0.174-0.02-0.26-0.027c-0.127-0.012-0.25-0.012-0.371-0.004
		c-0.32-0.016-0.639-0.049-0.961-0.049c-11.049,0-20,8.954-20,20c0,10.291,7.771,18.758,17.768,19.869
		c0.021,0.002,0.033,0.018,0.053,0.02c42.41,4.049,81.757,22.512,112.271,53.021l0,0c30.518,30.518,48.982,69.869,53.035,112.287
		c0.002,0.02,0.018,0.035,0.021,0.053c1.111,9.994,9.578,17.768,19.868,17.768c11.046,0,20-8.95,20-20
		c0-0.321-0.033-0.641-0.049-0.961C1358.52-921.074,1358.52-921.197,1358.509-921.324z M1470.843-921.275
		c-0.002-0.045-0.009-0.093-0.012-0.138c-0.02-0.272-0.029-0.551-0.062-0.819c-5.486-83.908-41.779-159.402-97.665-215.308
		l0.001-0.001c-55.906-55.894-131.405-92.192-215.322-97.68c-0.271-0.03-0.547-0.042-0.821-0.062
		c-0.046-0.004-0.091-0.008-0.136-0.011c-0.01-0.001-0.021,0.003-0.027,0.002c-0.418-0.026-0.832-0.062-1.256-0.062
		c-11.046,0-20,8.953-20,20c0,10.518,8.123,19.119,18.437,19.921c0.023,0.004,0.039,0.019,0.064,0.021
		c33.438,2.043,65.893,9.646,96.703,22.68c35.236,14.904,66.89,36.246,94.083,63.437l0,0c27.197,27.198,48.545,58.855,63.451,94.102
		c13.032,30.812,20.637,63.266,22.681,96.703c0.002,0.026,0.018,0.04,0.021,0.065c0.802,10.312,9.401,18.435,19.922,18.435
		c11.045,0,20-8.951,20-20c0-0.425-0.037-0.839-0.063-1.257C1470.841-921.257,1470.845-921.265,1470.843-921.275z M1583.062-920.222
		c-0.001-0.047,0.004-0.082,0.002-0.131c-5.171-115.602-54.157-219.802-130.743-296.398v-0.001
		c-76.6-76.595-180.805-125.587-296.414-130.759c-0.048-0.002-0.084,0.003-0.131,0.002c-0.088-0.002-0.174-0.015-0.262-0.015
		c-11.049,0-20,8.955-20,20c0,10.494,8.084,19.082,18.358,19.918c0.092,0.021,0.178,0.043,0.283,0.048
		c48.52,2.157,95.593,12.77,140.188,31.63c48.57,20.545,92.203,49.964,129.684,87.438l0,0c37.48,37.482,66.905,81.12,87.454,129.699
		c18.859,44.595,29.473,91.668,31.63,140.188c0.005,0.104,0.026,0.19,0.048,0.281c0.835,10.276,9.424,18.36,19.917,18.36
		c11.046,0,20-8.953,20-20C1583.076-920.048,1583.064-920.134,1583.062-920.222z"/>
</g>
</svg>
