<?xml version="1.0" encoding="utf-8"?>
<!-- Generator: Adobe Illustrator 16.0.4, SVG Export Plug-In . SVG Version: 6.00 Build 0)  -->
<!DOCTYPE svg PUBLIC "-//W3C//DTD SVG 1.1//EN" "http://www.w3.org/Graphics/SVG/1.1/DTD/svg11.dtd">
<svg version="1.1" id="Layer_1" xmlns="http://www.w3.org/2000/svg" xmlns:xlink="http://www.w3.org/1999/xlink" x="0px" y="0px"
	 width="512px" height="512px" viewBox="-552.5 -1380.5 512 512" enable-background="new -552.5 -1380.5 512 512"
	 xml:space="preserve">
<g>
	<line fill="none" stroke="#B35047" x1="-520.5" y1="-1380.5" x2="-520.5" y2="-868.5"/>
	<line fill="none" stroke="#B35047" x1="-488.5" y1="-1380.5" x2="-488.5" y2="-868.5"/>
	<line fill="none" stroke="#B35047" x1="-456.5" y1="-1380.5" x2="-456.5" y2="-868.5"/>
	<line fill="none" stroke="#B35047" x1="-424.5" y1="-1380.5" x2="-424.5" y2="-868.5"/>
	<line fill="none" stroke="#B35047" x1="-392.5" y1="-1380.5" x2="-392.5" y2="-868.5"/>
	<line fill="none" stroke="#B35047" x1="-360.5" y1="-1380.5" x2="-360.5" y2="-868.5"/>
	<line fill="none" stroke="#B35047" x1="-328.5" y1="-1380.5" x2="-328.5" y2="-868.5"/>
	<line fill="none" stroke="#B35047" x1="-296.5" y1="-1380.5" x2="-296.5" y2="-868.5"/>
	<line fill="none" stroke="#B35047" x1="-264.5" y1="-1380.5" x2="-264.5" y2="-868.5"/>
	<line fill="none" stroke="#B35047" x1="-232.5" y1="-1380.5" x2="-232.5" y2="-868.5"/>
	<line fill="none" stroke="#B35047" x1="-200.5" y1="-1380.5" x2="-200.5" y2="-868.5"/>
	<line fill="none" stroke="#B35047" x1="-168.501" y1="-1380.5" x2="-168.501" y2="-868.5"/>
	<line fill="none" stroke="#B35047" x1="-136.501" y1="-1380.5" x2="-136.501" y2="-868.5"/>
	<line fill="none" stroke="#B35047" x1="-104.501" y1="-1380.5" x2="-104.501" y2="-868.5"/>
	<line fill="none" stroke="#B35047" x1="-72.501" y1="-1380.5" x2="-72.501" y2="-868.5"/>
	<line fill="none" stroke="#B35047" x1="-552.5" y1="-1348.5" x2="-40.501" y2="-1348.5"/>
	<line fill="none" stroke="#B35047" x1="-552.5" y1="-1316.5" x2="-40.501" y2="-1316.5"/>
	<line fill="none" stroke="#B35047" x1="-552.5" y1="-1284.5" x2="-40.501" y2="-1284.5"/>
	<line fill="none" stroke="#B35047" x1="-552.5" y1="-1252.5" x2="-40.501" y2="-1252.5"/>
	<line fill="none" stroke="#B35047" x1="-552.5" y1="-1220.5" x2="-40.501" y2="-1220.5"/>
	<line fill="none" stroke="#B35047" x1="-552.5" y1="-1188.5" x2="-40.501" y2="-1188.5"/>
	<line fill="none" stroke="#B35047" x1="-552.5" y1="-1156.5" x2="-40.501" y2="-1156.5"/>
	<line fill="none" stroke="#B35047" x1="-552.5" y1="-1124.5" x2="-40.501" y2="-1124.5"/>
	<line fill="none" stroke="#B35047" x1="-552.5" y1="-1092.5" x2="-40.501" y2="-1092.5"/>
	<line fill="none" stroke="#B35047" x1="-552.5" y1="-1060.5" x2="-40.501" y2="-1060.5"/>
	<line fill="none" stroke="#B35047" x1="-552.5" y1="-1028.5" x2="-40.501" y2="-1028.5"/>
	<line fill="none" stroke="#B35047" x1="-552.5" y1="-996.5" x2="-40.501" y2="-996.5"/>
	<line fill="none" stroke="#B35047" x1="-552.5" y1="-964.5" x2="-40.501" y2="-964.5"/>
	<line fill="none" stroke="#B35047" x1="-552.5" y1="-932.5" x2="-40.501" y2="-932.5"/>
	<line fill="none" stroke="#B35047" x1="-552.5" y1="-900.5" x2="-40.501" y2="-900.5"/>
	<rect x="-552.5" y="-1380.5" fill="none" stroke="#B35047" width="511.999" height="512"/>
</g>
<path d="M-104.501-920.578V-1200.5c0-11.045-8.955-20-20-20h-89.329c-11.047,0-20,8.957-20,20.002s8.955,20,20,20h69.329V-940.5
	H-448.5v-239.998h68.665c11.046,0,20-8.955,20-20s-8.954-20-20-20.002h-89.33c-11.046,0-20,8.957-20,20.002
	c0,1.743,0.246,3.424,0.665,5.037V-920.5c0,11.047,8.955,20,20,20h344.003c11.045,0,20-8.955,20-20
	C-104.497-920.526-104.501-920.552-104.501-920.578z"/>
<path fill="#231F20" d="M-219.689-1280.417l-62.226-62.225c-4.02-4.021-9.325-5.956-14.593-5.837c-0.806-0.017-1.611,0-2.414,0.08
	c-0.279,0.027-0.549,0.08-0.825,0.119c-0.371,0.052-0.742,0.096-1.109,0.169c-0.328,0.065-0.645,0.155-0.966,0.236
	c-0.311,0.078-0.623,0.146-0.93,0.239c-0.32,0.098-0.63,0.218-0.943,0.33c-0.302,0.108-0.605,0.207-0.902,0.33
	c-0.299,0.124-0.585,0.27-0.877,0.407c-0.299,0.141-0.6,0.273-0.893,0.43c-0.29,0.155-0.566,0.332-0.847,0.5
	c-0.277,0.166-0.558,0.322-0.828,0.503c-0.334,0.224-0.65,0.471-0.97,0.713c-0.198,0.151-0.404,0.288-0.598,0.447
	c-0.524,0.429-1.027,0.883-1.504,1.363l-62.199,62.195c-7.811,7.811-7.809,20.475,0.001,28.286c7.811,7.81,20.475,7.81,28.284,0
	l28.082-28.083v219.713c0,11.047,8.956,20,20.001,20c11.046,0,20-8.955,20-20v-220.601l28.971,28.971
	c7.811,7.812,20.474,7.81,28.284,0C-211.877-1259.942-211.877-1272.606-219.689-1280.417z"/>
</svg>
