<?xml version="1.0" encoding="utf-8"?>
<!-- Generator: Adobe Illustrator 16.0.4, SVG Export Plug-In . SVG Version: 6.00 Build 0)  -->
<!DOCTYPE svg PUBLIC "-//W3C//DTD SVG 1.1//EN" "http://www.w3.org/Graphics/SVG/1.1/DTD/svg11.dtd">
<svg version="1.1" id="Layer_1" xmlns="http://www.w3.org/2000/svg" xmlns:xlink="http://www.w3.org/1999/xlink" x="0px" y="0px"
	 width="512px" height="512px" viewBox="-1104.5 4711.822 512 512" enable-background="new -1104.5 4711.822 512 512"
	 xml:space="preserve">
<g>
	<line fill="none" stroke="#B35047" x1="-1072.484" y1="4711.838" x2="-1072.484" y2="5223.838"/>
	<line fill="none" stroke="#B35047" x1="-1040.484" y1="4711.838" x2="-1040.484" y2="5223.838"/>
	<line fill="none" stroke="#B35047" x1="-1008.484" y1="4711.838" x2="-1008.484" y2="5223.838"/>
	<line fill="none" stroke="#B35047" x1="-976.484" y1="4711.838" x2="-976.484" y2="5223.838"/>
	<line fill="none" stroke="#B35047" x1="-944.484" y1="4711.838" x2="-944.484" y2="5223.838"/>
	<line fill="none" stroke="#B35047" x1="-912.484" y1="4711.838" x2="-912.484" y2="5223.838"/>
	<line fill="none" stroke="#B35047" x1="-880.484" y1="4711.838" x2="-880.484" y2="5223.838"/>
	<line fill="none" stroke="#B35047" x1="-848.484" y1="4711.838" x2="-848.484" y2="5223.838"/>
	<line fill="none" stroke="#B35047" x1="-816.484" y1="4711.838" x2="-816.484" y2="5223.838"/>
	<line fill="none" stroke="#B35047" x1="-784.484" y1="4711.838" x2="-784.484" y2="5223.838"/>
	<line fill="none" stroke="#B35047" x1="-752.484" y1="4711.838" x2="-752.484" y2="5223.838"/>
	<line fill="none" stroke="#B35047" x1="-720.484" y1="4711.838" x2="-720.484" y2="5223.838"/>
	<line fill="none" stroke="#B35047" x1="-688.484" y1="4711.838" x2="-688.484" y2="5223.838"/>
	<line fill="none" stroke="#B35047" x1="-656.484" y1="4711.838" x2="-656.484" y2="5223.838"/>
	<line fill="none" stroke="#B35047" x1="-624.484" y1="4711.838" x2="-624.484" y2="5223.838"/>
	<line fill="none" stroke="#B35047" x1="-1104.484" y1="4743.838" x2="-592.484" y2="4743.838"/>
	<line fill="none" stroke="#B35047" x1="-1104.484" y1="4775.838" x2="-592.484" y2="4775.838"/>
	<line fill="none" stroke="#B35047" x1="-1104.484" y1="4807.838" x2="-592.484" y2="4807.838"/>
	<line fill="none" stroke="#B35047" x1="-1104.484" y1="4839.838" x2="-592.484" y2="4839.838"/>
	<line fill="none" stroke="#B35047" x1="-1104.484" y1="4871.838" x2="-592.484" y2="4871.838"/>
	<line fill="none" stroke="#B35047" x1="-1104.484" y1="4903.838" x2="-592.484" y2="4903.838"/>
	<line fill="none" stroke="#B35047" x1="-1104.484" y1="4935.838" x2="-592.484" y2="4935.838"/>
	<line fill="none" stroke="#B35047" x1="-1104.484" y1="4967.838" x2="-592.484" y2="4967.838"/>
	<line fill="none" stroke="#B35047" x1="-1104.484" y1="4999.838" x2="-592.484" y2="4999.838"/>
	<line fill="none" stroke="#B35047" x1="-1104.484" y1="5031.838" x2="-592.484" y2="5031.838"/>
	<line fill="none" stroke="#B35047" x1="-1104.484" y1="5063.838" x2="-592.484" y2="5063.838"/>
	<line fill="none" stroke="#B35047" x1="-1104.484" y1="5095.838" x2="-592.484" y2="5095.838"/>
	<line fill="none" stroke="#B35047" x1="-1104.484" y1="5127.838" x2="-592.484" y2="5127.838"/>
	<line fill="none" stroke="#B35047" x1="-1104.484" y1="5159.838" x2="-592.484" y2="5159.838"/>
	<line fill="none" stroke="#B35047" x1="-1104.484" y1="5191.838" x2="-592.484" y2="5191.838"/>
	<rect x="-1104.484" y="4711.838" fill="none" stroke="#B35047" width="512" height="512"/>
</g>
<g>
	<path d="M-772.482,5011.994c-0.098,0.044-0.18,0.098-0.258,0.152c-6.922,3.146-11.744,10.104-11.744,18.201
		c0,11.047,8.955,20,20,20c3.01,0,5.854-0.684,8.416-1.875c0.074-0.032,0.14-0.053,0.217-0.088
		c9.447-4.312,18.14-10.318,25.672-17.85c16.635-16.635,25.793-38.738,25.79-62.236c-0.003-23.492-9.163-45.588-25.79-62.215
		c-7.666-7.666-16.537-13.754-26.184-18.082c-0.007-0.004-0.012-0.005-0.02-0.008c-2.479-1.101-5.215-1.725-8.102-1.725
		c-11.045,0-20,8.955-20,20c0,7.899,4.591,14.707,11.238,17.957c0.079,0.071,0.172,0.133,0.283,0.182
		c5.346,2.367,10.262,5.722,14.5,9.961c9.073,9.072,14.07,21.125,14.074,33.936c0,12.812-4.998,24.867-14.076,33.945
		C-762.576,5006.361-767.324,5009.64-772.482,5011.994z"/>
	<path d="M-673.611,4849.516c-23.912-23.912-53.973-39.794-86.602-46.121c-0.178-0.039-0.356-0.073-0.536-0.107
		c-0.03-0.006-0.062-0.013-0.093-0.019c-0.253-0.048-0.488-0.081-0.711-0.104c-0.959-0.141-1.934-0.238-2.932-0.238
		c-11.045,0-20,8.955-20,20c0,9.512,6.646,17.455,15.542,19.484c0.176,0.064,0.364,0.122,0.581,0.163
		c24.35,4.634,47.613,16.374,66.467,35.226c49.986,49.986,50.027,130.992-0.001,181.02c-18.842,18.842-42.076,30.57-66.394,35.213
		c-0.042,0.008-0.072,0.023-0.112,0.033c-9.169,1.822-16.083,9.908-16.083,19.611c0,11.047,8.955,20,20,20
		c1.388,0,2.742-0.143,4.051-0.411c0.047-0.009,0.086-0.009,0.135-0.019c32.66-6.313,62.748-22.203,86.688-46.143
		C-608.107,5021.6-608.107,4915.018-673.611,4849.516z"/>
	<path d="M-861.506,4771.58c-6.385,0-12.058,3.004-15.72,7.662l-25.495,30.823v-0.037l-61.07,73.833h-88.693
		c-7.316,0-13.697,3.941-17.184,9.805c-0.133,0.223-0.279,0.435-0.402,0.662c-0.07,0.129-0.124,0.268-0.191,0.397
		c-0.229,0.444-0.455,0.889-0.65,1.351c-0.056,0.131-0.096,0.27-0.147,0.402c-0.91,2.286-1.425,4.772-1.425,7.383v128l0,0l0,0
		c0,11.047,8.955,20,20,20h88.693l61.07,73.833v-0.108l25.528,30.861c3.663,4.634,9.321,7.617,15.687,7.617c11.047,0,20-8.955,20-20
		V4791.58C-841.506,4780.535-850.461,4771.58-861.506,4771.58z M-881.506,5088.416l-53.354-64.556h-0.085l-9.916-11.999h-5.001
		h-47.016h-35.607v-88h35.607h47.016h5.001l63.354-76.626V5088.416z"/>
</g>
</svg>
