<?xml version="1.0" encoding="utf-8"?>
<!-- Generator: Adobe Illustrator 16.0.4, SVG Export Plug-In . SVG Version: 6.00 Build 0)  -->
<!DOCTYPE svg PUBLIC "-//W3C//DTD SVG 1.1//EN" "http://www.w3.org/Graphics/SVG/1.1/DTD/svg11.dtd">
<svg version="1.1" id="Layer_1" xmlns="http://www.w3.org/2000/svg" xmlns:xlink="http://www.w3.org/1999/xlink" x="0px" y="0px"
	 width="512px" height="512px" viewBox="-1104.5 1931.5 512 512" enable-background="new -1104.5 1931.5 512 512"
	 xml:space="preserve">
<g>
	<line fill="none" stroke="#B35047" x1="-1072.484" y1="1931.517" x2="-1072.484" y2="2443.518"/>
	<line fill="none" stroke="#B35047" x1="-1040.484" y1="1931.517" x2="-1040.484" y2="2443.518"/>
	<line fill="none" stroke="#B35047" x1="-1008.484" y1="1931.517" x2="-1008.484" y2="2443.518"/>
	<line fill="none" stroke="#B35047" x1="-976.484" y1="1931.517" x2="-976.484" y2="2443.518"/>
	<line fill="none" stroke="#B35047" x1="-944.484" y1="1931.517" x2="-944.484" y2="2443.518"/>
	<line fill="none" stroke="#B35047" x1="-912.484" y1="1931.517" x2="-912.484" y2="2443.518"/>
	<line fill="none" stroke="#B35047" x1="-880.484" y1="1931.517" x2="-880.484" y2="2443.518"/>
	<line fill="none" stroke="#B35047" x1="-848.484" y1="1931.517" x2="-848.484" y2="2443.518"/>
	<line fill="none" stroke="#B35047" x1="-816.484" y1="1931.517" x2="-816.484" y2="2443.518"/>
	<line fill="none" stroke="#B35047" x1="-784.484" y1="1931.517" x2="-784.484" y2="2443.518"/>
	<line fill="none" stroke="#B35047" x1="-752.484" y1="1931.517" x2="-752.484" y2="2443.518"/>
	<line fill="none" stroke="#B35047" x1="-720.484" y1="1931.517" x2="-720.484" y2="2443.518"/>
	<line fill="none" stroke="#B35047" x1="-688.484" y1="1931.517" x2="-688.484" y2="2443.518"/>
	<line fill="none" stroke="#B35047" x1="-656.484" y1="1931.517" x2="-656.484" y2="2443.518"/>
	<line fill="none" stroke="#B35047" x1="-624.484" y1="1931.517" x2="-624.484" y2="2443.518"/>
	<line fill="none" stroke="#B35047" x1="-1104.484" y1="1963.515" x2="-592.484" y2="1963.515"/>
	<line fill="none" stroke="#B35047" x1="-1104.484" y1="1995.515" x2="-592.484" y2="1995.515"/>
	<line fill="none" stroke="#B35047" x1="-1104.484" y1="2027.515" x2="-592.484" y2="2027.515"/>
	<line fill="none" stroke="#B35047" x1="-1104.484" y1="2059.515" x2="-592.484" y2="2059.515"/>
	<line fill="none" stroke="#B35047" x1="-1104.484" y1="2091.515" x2="-592.484" y2="2091.515"/>
	<line fill="none" stroke="#B35047" x1="-1104.484" y1="2123.515" x2="-592.484" y2="2123.515"/>
	<line fill="none" stroke="#B35047" x1="-1104.484" y1="2155.515" x2="-592.484" y2="2155.515"/>
	<line fill="none" stroke="#B35047" x1="-1104.484" y1="2187.517" x2="-592.484" y2="2187.517"/>
	<line fill="none" stroke="#B35047" x1="-1104.484" y1="2219.518" x2="-592.484" y2="2219.518"/>
	<line fill="none" stroke="#B35047" x1="-1104.484" y1="2251.518" x2="-592.484" y2="2251.518"/>
	<line fill="none" stroke="#B35047" x1="-1104.484" y1="2283.518" x2="-592.484" y2="2283.518"/>
	<line fill="none" stroke="#B35047" x1="-1104.484" y1="2315.518" x2="-592.484" y2="2315.518"/>
	<line fill="none" stroke="#B35047" x1="-1104.484" y1="2347.518" x2="-592.484" y2="2347.518"/>
	<line fill="none" stroke="#B35047" x1="-1104.484" y1="2379.518" x2="-592.484" y2="2379.518"/>
	<line fill="none" stroke="#B35047" x1="-1104.484" y1="2411.518" x2="-592.484" y2="2411.518"/>
	<rect x="-1104.484" y="1931.517" fill="none" stroke="#B35047" width="512" height="512.001"/>
</g>
<path d="M-627.338,2348.15c0.104-0.279,0.194-0.564,0.293-0.846c0.15-0.434,0.304-0.867,0.441-1.305
	c0.117-0.373,0.222-0.75,0.33-1.125c0.106-0.367,0.216-0.732,0.312-1.102c0.102-0.383,0.189-0.77,0.281-1.154
	c0.09-0.383,0.183-0.764,0.264-1.146c0.073-0.346,0.136-0.693,0.201-1.041c0.084-0.445,0.166-0.889,0.238-1.334
	c0.045-0.283,0.082-0.568,0.122-0.852c0.074-0.529,0.145-1.059,0.202-1.59c0.021-0.211,0.04-0.426,0.06-0.637
	c0.059-0.615,0.106-1.23,0.141-1.848c0.009-0.152,0.015-0.303,0.021-0.453c0.031-0.68,0.049-1.359,0.052-2.041
	c0-0.057,0.004-0.113,0.004-0.17c0-0.064-0.005-0.129-0.005-0.195c-0.003-0.684-0.021-1.367-0.052-2.051
	c-0.007-0.148-0.015-0.297-0.022-0.445c-0.035-0.623-0.083-1.246-0.142-1.869c-0.021-0.217-0.042-0.432-0.064-0.646
	c-0.058-0.525-0.125-1.049-0.2-1.572c-0.044-0.314-0.09-0.629-0.141-0.941c-0.065-0.4-0.138-0.799-0.214-1.197
	c-0.081-0.434-0.166-0.865-0.259-1.297c-0.058-0.262-0.12-0.523-0.182-0.785c-0.132-0.564-0.271-1.125-0.423-1.68
	c-0.035-0.127-0.072-0.252-0.107-0.377c-5.69-20.191-24.232-34.998-46.244-34.998c-1.533,0-3.048,0.08-4.544,0.221l-132.288-229.131
	c10.54-14.849,12.15-35.065,2.45-51.866c-6.298-10.908-16.229-18.406-27.382-21.862c-0.031-0.01-0.062-0.018-0.093-0.027
	c-0.697-0.215-1.399-0.415-2.105-0.598c-0.148-0.038-0.298-0.071-0.447-0.108c-0.604-0.15-1.211-0.293-1.821-0.42
	c-0.192-0.041-0.387-0.074-0.58-0.112c-0.584-0.114-1.169-0.222-1.757-0.313c-0.192-0.03-0.388-0.056-0.581-0.084
	c-0.604-0.087-1.208-0.166-1.815-0.23c-0.175-0.019-0.35-0.033-0.524-0.05c-0.635-0.06-1.27-0.109-1.907-0.145
	c-0.16-0.009-0.321-0.016-0.482-0.022c-0.647-0.029-1.297-0.047-1.946-0.05c-0.083,0-0.164-0.006-0.246-0.006
	c-0.095,0-0.188,0.007-0.282,0.007c-0.605,0.004-1.21,0.02-1.815,0.046c-0.247,0.011-0.493,0.023-0.739,0.037
	c-0.496,0.03-0.993,0.068-1.489,0.113c-0.361,0.032-0.721,0.067-1.08,0.107c-0.348,0.04-0.696,0.085-1.045,0.133
	c-0.507,0.068-1.013,0.143-1.516,0.226c-0.176,0.03-0.352,0.062-0.527,0.095c-22.485,4.014-39.561,23.651-39.561,47.291
	c0,10.378,3.301,19.979,8.895,27.835l-132.288,229.132c-1.477-0.137-2.97-0.217-4.481-0.217c-26.539,0-48.055,21.516-48.055,48.055
	c0,26.541,21.516,48.055,48.055,48.055c19.4,0,36.104-11.502,43.693-28.055l264.601-0.002c0.069,0.152,0.146,0.303,0.218,0.455
	c0.113,0.24,0.228,0.479,0.345,0.717c0.237,0.484,0.483,0.965,0.738,1.441c0.107,0.201,0.216,0.4,0.325,0.6
	c0.157,0.283,0.302,0.57,0.465,0.854c0.142,0.244,0.295,0.479,0.44,0.721c0.061,0.1,0.122,0.199,0.185,0.301
	c13.543,22.186,42.383,29.639,65.02,16.568c9.432-5.445,16.312-13.607,20.239-22.926c0.027-0.066,0.052-0.133,0.079-0.199
	C-627.822,2349.414-627.571,2348.785-627.338,2348.15z M-985.293,2303.641l132.271-229.102c0.212,0.021,0.425,0.032,0.638,0.049
	c0.334,0.028,0.667,0.056,1.002,0.076c0.326,0.02,0.653,0.033,0.98,0.046c0.561,0.023,1.122,0.038,1.684,0.042
	c0.073,0.001,0.146,0.006,0.219,0.006c0.084,0,0.167-0.006,0.251-0.007c0.718-0.002,1.437-0.02,2.155-0.054
	c0.044-0.003,0.088-0.005,0.131-0.007c0.688-0.035,1.375-0.084,2.062-0.148l132.298,229.149c-1.74,2.447-3.257,5.061-4.521,7.818
	h-264.613C-982.009,2308.734-983.537,2306.102-985.293,2303.641z"/>
</svg>
