<?xml version="1.0" encoding="utf-8"?>
<!-- Generator: Adobe Illustrator 16.0.4, SVG Export Plug-In . SVG Version: 6.00 Build 0)  -->
<!DOCTYPE svg PUBLIC "-//W3C//DTD SVG 1.1//EN" "http://www.w3.org/Graphics/SVG/1.1/DTD/svg11.dtd">
<svg version="1.1" id="Layer_1" xmlns="http://www.w3.org/2000/svg" xmlns:xlink="http://www.w3.org/1999/xlink" x="0px" y="0px"
	 width="512px" height="512px" viewBox="-552.5 -828.5 512 512" enable-background="new -552.5 -828.5 512 512"
	 xml:space="preserve">
<g>
	<line fill="none" stroke="#B35047" x1="-520.5" y1="-828.5" x2="-520.5" y2="-316.498"/>
	<line fill="none" stroke="#B35047" x1="-488.5" y1="-828.5" x2="-488.5" y2="-316.498"/>
	<line fill="none" stroke="#B35047" x1="-456.5" y1="-828.5" x2="-456.5" y2="-316.498"/>
	<line fill="none" stroke="#B35047" x1="-424.5" y1="-828.5" x2="-424.5" y2="-316.498"/>
	<line fill="none" stroke="#B35047" x1="-392.5" y1="-828.5" x2="-392.5" y2="-316.498"/>
	<line fill="none" stroke="#B35047" x1="-360.5" y1="-828.5" x2="-360.5" y2="-316.498"/>
	<line fill="none" stroke="#B35047" x1="-328.5" y1="-828.5" x2="-328.5" y2="-316.498"/>
	<line fill="none" stroke="#B35047" x1="-296.5" y1="-828.5" x2="-296.5" y2="-316.498"/>
	<line fill="none" stroke="#B35047" x1="-264.5" y1="-828.5" x2="-264.5" y2="-316.498"/>
	<line fill="none" stroke="#B35047" x1="-232.5" y1="-828.5" x2="-232.5" y2="-316.498"/>
	<line fill="none" stroke="#B35047" x1="-200.5" y1="-828.5" x2="-200.5" y2="-316.498"/>
	<line fill="none" stroke="#B35047" x1="-168.5" y1="-828.5" x2="-168.5" y2="-316.498"/>
	<line fill="none" stroke="#B35047" x1="-136.5" y1="-828.5" x2="-136.5" y2="-316.498"/>
	<line fill="none" stroke="#B35047" x1="-104.5" y1="-828.5" x2="-104.5" y2="-316.498"/>
	<line fill="none" stroke="#B35047" x1="-72.5" y1="-828.5" x2="-72.5" y2="-316.498"/>
	<line fill="none" stroke="#B35047" x1="-552.5" y1="-796.5" x2="-40.5" y2="-796.5"/>
	<line fill="none" stroke="#B35047" x1="-552.5" y1="-764.498" x2="-40.5" y2="-764.498"/>
	<line fill="none" stroke="#B35047" x1="-552.5" y1="-732.498" x2="-40.5" y2="-732.498"/>
	<line fill="none" stroke="#B35047" x1="-552.5" y1="-700.498" x2="-40.5" y2="-700.498"/>
	<line fill="none" stroke="#B35047" x1="-552.5" y1="-668.498" x2="-40.5" y2="-668.498"/>
	<line fill="none" stroke="#B35047" x1="-552.5" y1="-636.498" x2="-40.5" y2="-636.498"/>
	<line fill="none" stroke="#B35047" x1="-552.5" y1="-604.498" x2="-40.5" y2="-604.498"/>
	<line fill="none" stroke="#B35047" x1="-552.5" y1="-572.498" x2="-40.5" y2="-572.498"/>
	<line fill="none" stroke="#B35047" x1="-552.5" y1="-540.498" x2="-40.5" y2="-540.498"/>
	<line fill="none" stroke="#B35047" x1="-552.5" y1="-508.498" x2="-40.5" y2="-508.498"/>
	<line fill="none" stroke="#B35047" x1="-552.5" y1="-476.498" x2="-40.5" y2="-476.498"/>
	<line fill="none" stroke="#B35047" x1="-552.5" y1="-444.498" x2="-40.5" y2="-444.498"/>
	<line fill="none" stroke="#B35047" x1="-552.5" y1="-412.498" x2="-40.5" y2="-412.498"/>
	<line fill="none" stroke="#B35047" x1="-552.5" y1="-380.498" x2="-40.5" y2="-380.498"/>
	<line fill="none" stroke="#B35047" x1="-552.5" y1="-348.498" x2="-40.5" y2="-348.498"/>
	<rect x="-552.5" y="-828.5" fill="none" stroke="#B35047" width="512" height="512.002"/>
</g>
<g>
	<path fill="#231F20" d="M-296.5-796.5c-123.712,0-224,100.289-224,224.002c0,123.711,100.288,224,224,224s224-100.289,224-224
		C-72.5-696.21-172.788-796.5-296.5-796.5z M-166.393-442.39c-34.754,34.752-80.959,53.893-130.107,53.893
		s-95.354-19.141-130.107-53.893c-34.754-34.754-53.893-80.959-53.893-130.107s19.139-95.354,53.893-130.107
		c34.754-34.752,80.959-53.893,130.107-53.893s95.354,19.139,130.107,53.893c34.752,34.754,53.893,80.959,53.893,130.107
		S-131.641-477.144-166.393-442.39z"/>
	<path fill="#231F20" d="M-188.5-590h-87.998v-122.498c0-11.047-8.956-20-20-20c-11.047,0-20.002,8.953-20.002,20v142.5
		c0,6.848,3.445,12.885,8.691,16.49c0.045,0.029,0.084,0.064,0.127,0.094c0.436,0.295,0.893,0.562,1.352,0.82
		c0.102,0.059,0.195,0.125,0.297,0.182c0.279,0.15,0.573,0.275,0.859,0.414c0.297,0.145,0.586,0.299,0.891,0.43
		c0.061,0.023,0.125,0.043,0.188,0.066c2.344,0.965,4.905,1.504,7.598,1.504h108c11.045,0,20-8.955,20-20
		C-168.5-581.042-177.454-590-188.5-590z"/>
</g>
</svg>
