<?xml version="1.0" encoding="utf-8"?>
<!-- Generator: Adobe Illustrator 16.0.4, SVG Export Plug-In . SVG Version: 6.00 Build 0)  -->
<!DOCTYPE svg PUBLIC "-//W3C//DTD SVG 1.1//EN" "http://www.w3.org/Graphics/SVG/1.1/DTD/svg11.dtd">
<svg version="1.1" id="Layer_1" xmlns="http://www.w3.org/2000/svg" xmlns:xlink="http://www.w3.org/1999/xlink" x="0px" y="0px"
	 width="512px" height="512px" viewBox="-0.5 -828.5 512 512" enable-background="new -0.5 -828.5 512 512" xml:space="preserve">
<g>
	<line fill="none" stroke="#B35047" x1="31.5" y1="-828.5" x2="31.5" y2="-316.498"/>
	<line fill="none" stroke="#B35047" x1="63.5" y1="-828.5" x2="63.5" y2="-316.498"/>
	<line fill="none" stroke="#B35047" x1="95.5" y1="-828.5" x2="95.5" y2="-316.498"/>
	<line fill="none" stroke="#B35047" x1="127.5" y1="-828.5" x2="127.5" y2="-316.498"/>
	<line fill="none" stroke="#B35047" x1="159.5" y1="-828.5" x2="159.5" y2="-316.498"/>
	<line fill="none" stroke="#B35047" x1="191.5" y1="-828.5" x2="191.5" y2="-316.498"/>
	<line fill="none" stroke="#B35047" x1="223.5" y1="-828.5" x2="223.5" y2="-316.498"/>
	<line fill="none" stroke="#B35047" x1="255.5" y1="-828.5" x2="255.5" y2="-316.498"/>
	<line fill="none" stroke="#B35047" x1="287.5" y1="-828.5" x2="287.5" y2="-316.498"/>
	<line fill="none" stroke="#B35047" x1="319.5" y1="-828.5" x2="319.5" y2="-316.498"/>
	<line fill="none" stroke="#B35047" x1="351.5" y1="-828.5" x2="351.5" y2="-316.498"/>
	<line fill="none" stroke="#B35047" x1="383.5" y1="-828.5" x2="383.5" y2="-316.498"/>
	<line fill="none" stroke="#B35047" x1="415.5" y1="-828.5" x2="415.5" y2="-316.498"/>
	<line fill="none" stroke="#B35047" x1="447.5" y1="-828.5" x2="447.5" y2="-316.498"/>
	<line fill="none" stroke="#B35047" x1="479.5" y1="-828.5" x2="479.5" y2="-316.498"/>
	<line fill="none" stroke="#B35047" x1="-0.5" y1="-796.5" x2="511.5" y2="-796.5"/>
	<line fill="none" stroke="#B35047" x1="-0.5" y1="-764.498" x2="511.5" y2="-764.498"/>
	<line fill="none" stroke="#B35047" x1="-0.5" y1="-732.498" x2="511.5" y2="-732.498"/>
	<line fill="none" stroke="#B35047" x1="-0.5" y1="-700.498" x2="511.5" y2="-700.498"/>
	<line fill="none" stroke="#B35047" x1="-0.5" y1="-668.498" x2="511.5" y2="-668.498"/>
	<line fill="none" stroke="#B35047" x1="-0.5" y1="-636.498" x2="511.5" y2="-636.498"/>
	<line fill="none" stroke="#B35047" x1="-0.5" y1="-604.498" x2="511.5" y2="-604.498"/>
	<line fill="none" stroke="#B35047" x1="-0.5" y1="-572.498" x2="511.5" y2="-572.498"/>
	<line fill="none" stroke="#B35047" x1="-0.5" y1="-540.498" x2="511.5" y2="-540.498"/>
	<line fill="none" stroke="#B35047" x1="-0.5" y1="-508.498" x2="511.5" y2="-508.498"/>
	<line fill="none" stroke="#B35047" x1="-0.5" y1="-476.498" x2="511.5" y2="-476.498"/>
	<line fill="none" stroke="#B35047" x1="-0.5" y1="-444.498" x2="511.5" y2="-444.498"/>
	<line fill="none" stroke="#B35047" x1="-0.5" y1="-412.498" x2="511.5" y2="-412.498"/>
	<line fill="none" stroke="#B35047" x1="-0.5" y1="-380.498" x2="511.5" y2="-380.498"/>
	<line fill="none" stroke="#B35047" x1="-0.5" y1="-348.498" x2="511.5" y2="-348.498"/>
	<rect x="-0.5" y="-828.5" fill="none" stroke="#B35047" width="512" height="512.002"/>
</g>
<path d="M287.5-558.171c0,17.672-14.327,32-32,32s-32-14.328-32-32c0-10.135,4.716-19.162,12.067-25.025v-96.709
	c-0.002-11.046,8.953-20.001,20-20c11.045,0,20,8.953,20,20l-0.002,96.813C282.841-577.226,287.5-568.246,287.5-558.171z"/>
<path d="M409.05-697.019l19.45-19.45c7.811-7.811,7.811-20.475,0-28.284s-20.475-7.812-28.285-0.001l-20.927,20.928
	c-29.546-21.876-65.088-36.106-103.711-39.782l0.095-24.891h7.828c11.046,0.001,20-8.954,20-19.999
	c-0.001-11.045-8.955-20.001-20-20l-56-0.001c-11.047,0-20,8.957-20,20.002c-0.002,11.045,8.953,20,19.999,20h8.174l-0.094,24.897
	C130.093-753.512,47.594-664.663,47.594-556.533c0,114.895,93.14,208.033,208.032,208.033c114.895,0,208.034-93.139,208.034-208.033
	C463.66-610.689,442.961-660.005,409.05-697.019z M374.444-437.714C342.707-405.978,300.51-388.5,255.626-388.5
	c-44.883,0-87.079-17.479-118.816-49.215c-31.737-31.738-49.216-73.936-49.216-118.818c0-44.884,17.479-87.08,49.216-118.817
	s73.934-49.216,118.816-49.216c44.884,0,87.081,17.479,118.818,49.216s49.216,73.934,49.216,118.817
	C423.66-511.65,406.182-469.453,374.444-437.714z"/>
</svg>
