<?xml version="1.0" encoding="utf-8"?>
<!-- Generator: Adobe Illustrator 16.0.4, SVG Export Plug-In . SVG Version: 6.00 Build 0)  -->
<!DOCTYPE svg PUBLIC "-//W3C//DTD SVG 1.1//EN" "http://www.w3.org/Graphics/SVG/1.1/DTD/svg11.dtd">
<svg version="1.1" id="Layer_1" xmlns="http://www.w3.org/2000/svg" xmlns:xlink="http://www.w3.org/1999/xlink" x="0px" y="0px"
	 width="512px" height="512px" viewBox="-552.5 5288.484 512 512" enable-background="new -552.5 5288.484 512 512"
	 xml:space="preserve">
<g>
	<line fill="none" stroke="#B35047" x1="-520.484" y1="5288.5" x2="-520.484" y2="5800.5"/>
	<line fill="none" stroke="#B35047" x1="-488.484" y1="5288.5" x2="-488.484" y2="5800.5"/>
	<line fill="none" stroke="#B35047" x1="-456.484" y1="5288.5" x2="-456.484" y2="5800.5"/>
	<line fill="none" stroke="#B35047" x1="-424.484" y1="5288.5" x2="-424.484" y2="5800.5"/>
	<line fill="none" stroke="#B35047" x1="-392.484" y1="5288.5" x2="-392.484" y2="5800.5"/>
	<line fill="none" stroke="#B35047" x1="-360.484" y1="5288.5" x2="-360.484" y2="5800.5"/>
	<line fill="none" stroke="#B35047" x1="-328.484" y1="5288.5" x2="-328.484" y2="5800.5"/>
	<line fill="none" stroke="#B35047" x1="-296.484" y1="5288.5" x2="-296.484" y2="5800.5"/>
	<line fill="none" stroke="#B35047" x1="-264.484" y1="5288.5" x2="-264.484" y2="5800.5"/>
	<line fill="none" stroke="#B35047" x1="-232.484" y1="5288.5" x2="-232.484" y2="5800.5"/>
	<line fill="none" stroke="#B35047" x1="-200.484" y1="5288.5" x2="-200.484" y2="5800.5"/>
	<line fill="none" stroke="#B35047" x1="-168.484" y1="5288.5" x2="-168.484" y2="5800.5"/>
	<line fill="none" stroke="#B35047" x1="-136.484" y1="5288.5" x2="-136.484" y2="5800.5"/>
	<line fill="none" stroke="#B35047" x1="-104.484" y1="5288.5" x2="-104.484" y2="5800.5"/>
	<line fill="none" stroke="#B35047" x1="-72.484" y1="5288.5" x2="-72.484" y2="5800.5"/>
	<line fill="none" stroke="#B35047" x1="-552.484" y1="5320.5" x2="-40.484" y2="5320.5"/>
	<line fill="none" stroke="#B35047" x1="-552.484" y1="5352.5" x2="-40.484" y2="5352.5"/>
	<line fill="none" stroke="#B35047" x1="-552.484" y1="5384.5" x2="-40.484" y2="5384.5"/>
	<line fill="none" stroke="#B35047" x1="-552.484" y1="5416.5" x2="-40.484" y2="5416.5"/>
	<line fill="none" stroke="#B35047" x1="-552.484" y1="5448.5" x2="-40.484" y2="5448.5"/>
	<line fill="none" stroke="#B35047" x1="-552.484" y1="5480.5" x2="-40.484" y2="5480.5"/>
	<line fill="none" stroke="#B35047" x1="-552.484" y1="5512.5" x2="-40.484" y2="5512.5"/>
	<line fill="none" stroke="#B35047" x1="-552.484" y1="5544.5" x2="-40.484" y2="5544.5"/>
	<line fill="none" stroke="#B35047" x1="-552.484" y1="5576.5" x2="-40.484" y2="5576.5"/>
	<line fill="none" stroke="#B35047" x1="-552.484" y1="5608.5" x2="-40.484" y2="5608.5"/>
	<line fill="none" stroke="#B35047" x1="-552.484" y1="5640.5" x2="-40.484" y2="5640.5"/>
	<line fill="none" stroke="#B35047" x1="-552.484" y1="5672.5" x2="-40.484" y2="5672.5"/>
	<line fill="none" stroke="#B35047" x1="-552.484" y1="5704.5" x2="-40.484" y2="5704.5"/>
	<line fill="none" stroke="#B35047" x1="-552.484" y1="5736.5" x2="-40.484" y2="5736.5"/>
	<line fill="none" stroke="#B35047" x1="-552.484" y1="5768.5" x2="-40.484" y2="5768.5"/>
	<rect x="-552.484" y="5288.5" fill="none" stroke="#B35047" width="512" height="512"/>
</g>
<g>
	<path d="M-104.484,5746.249V5512.5c0-0.994-0.097-1.963-0.236-2.917c-0.055-0.372-0.095-0.749-0.17-1.113
		c-0.761-3.72-2.568-7.05-5.082-9.704c-0.126-0.133-0.24-0.277-0.37-0.407c-0.248-0.247-0.517-0.472-0.776-0.706
		c-0.215-0.193-0.42-0.4-0.644-0.585c-0.145-0.12-0.304-0.223-0.452-0.338c-1.253-0.977-2.622-1.808-4.088-2.467
		c-0.372-0.167-0.752-0.316-1.135-0.461c-2.194-0.828-4.562-1.302-7.046-1.302h-276.092l0.001-27.925
		c0-57.388,46.688-104.075,104.075-104.075c43.019,0,80.017,26.237,95.849,63.548c0.006,0.014,0.015,0.022,0.021,0.036
		c2.989,7.283,10.142,12.416,18.502,12.416c11.046,0,20-8.953,20-20c0-2.355-0.429-4.605-1.176-6.705
		c-0.091-0.347-0.21-0.719-0.391-1.146c-21.833-51.791-73.07-88.148-132.806-88.148c-79.564,0-144.065,64.497-144.075,144.06v0.003
		v27.938H-468c-10.355,0-18.873,7.871-19.896,17.955c-0.068,0.672-0.104,1.354-0.104,2.045v231.666
		c-0.309,1.397-0.484,2.844-0.484,4.334c0,11.047,8.955,20,20,20h344.135c11.046,0,20-8.955,20-20
		C-104.35,5747.738-104.401,5746.988-104.484,5746.249z M-448,5532.5h303.516v196H-448V5532.5z"/>
	<path d="M-264.484,5609.494c0-17.673-14.327-32-32-32s-32,14.327-32,32c0,10.134,4.716,19.161,12.067,25.024v28.988
		c-0.002,11.046,8.953,20,20,20c11.045-0.002,20-8.956,19.998-20l0.001-29.093C-269.143,5628.547-264.484,5619.566-264.484,5609.494
		z"/>
</g>
</svg>
