<?xml version="1.0" encoding="utf-8"?>
<!-- Generated by IcoMoon.io -->
<!DOCTYPE svg PUBLIC "-//W3C//DTD SVG 1.1//EN" "http://www.w3.org/Graphics/SVG/1.1/DTD/svg11.dtd">
<svg version="1.1" xmlns="http://www.w3.org/2000/svg" xmlns:xlink="http://www.w3.org/1999/xlink" width="32" height="32" viewBox="0 0 32 32">
<path d="M4.254 17.252h20.478l-6.705 6.706c-0.488 0.488-0.488 1.28 0 1.768s1.28 0.488 1.768 0l8.838-8.838c0-0 0.001-0.001 0.001-0.001 0.152-0.153 0.257-0.335 0.315-0.528 0.001-0.004 0.002-0.007 0.003-0.011 0.010-0.035 0.019-0.070 0.026-0.106 0.003-0.018 0.005-0.037 0.008-0.055 0.003-0.021 0.007-0.043 0.009-0.064 0.002-0.020 0.002-0.039 0.003-0.059s0.003-0.041 0.003-0.061-0.002-0.041-0.003-0.061c-0.001-0.020-0.001-0.039-0.003-0.059-0.002-0.021-0.006-0.043-0.009-0.064-0.003-0.018-0.004-0.037-0.008-0.055-0.007-0.036-0.016-0.071-0.026-0.106-0.001-0.004-0.002-0.007-0.003-0.011-0.057-0.193-0.162-0.376-0.315-0.528-0-0-0.001-0.001-0.001-0.001l-8.838-8.838c-0.488-0.488-1.28-0.488-1.768 0s-0.488 1.28 0 1.768l6.705 6.706h-20.478c-0.69 0-1.25 0.56-1.25 1.25s0.56 1.25 1.25 1.25z" fill="#000000"></path>
</svg>
