<?xml version="1.0" encoding="utf-8"?>
<!-- Generated by IcoMoon.io -->
<!DOCTYPE svg PUBLIC "-//W3C//DTD SVG 1.1//EN" "http://www.w3.org/Graphics/SVG/1.1/DTD/svg11.dtd">
<svg version="1.1" xmlns="http://www.w3.org/2000/svg" xmlns:xlink="http://www.w3.org/1999/xlink" width="32" height="32" viewBox="0 0 32 32">
<path d="M13.634 11.867l-7.366-7.366h2.482c0.691 0 1.25-0.56 1.25-1.25s-0.56-1.25-1.25-1.25l-5.5-0c-0.004 0-0.007 0.001-0.011 0.001-0.037 0-0.075 0.002-0.112 0.006-0.020 0.002-0.039 0.006-0.059 0.009-0.021 0.003-0.042 0.005-0.062 0.009-0.022 0.004-0.043 0.010-0.065 0.016-0.018 0.005-0.036 0.009-0.054 0.014-0.021 0.006-0.041 0.014-0.062 0.022-0.018 0.006-0.036 0.012-0.054 0.020-0.019 0.008-0.038 0.017-0.057 0.026s-0.036 0.017-0.054 0.026c-0.018 0.010-0.036 0.021-0.054 0.032s-0.034 0.020-0.051 0.031c-0.020 0.014-0.039 0.029-0.059 0.043-0.013 0.010-0.027 0.019-0.040 0.030-0.064 0.052-0.123 0.111-0.175 0.175-0.010 0.013-0.019 0.026-0.029 0.039-0.015 0.020-0.030 0.039-0.044 0.060-0.011 0.016-0.020 0.033-0.030 0.050-0.011 0.018-0.022 0.036-0.033 0.055-0.009 0.017-0.017 0.035-0.025 0.053-0.009 0.019-0.019 0.038-0.027 0.058-0.007 0.017-0.013 0.035-0.019 0.052-0.008 0.021-0.016 0.042-0.022 0.063-0.005 0.018-0.009 0.036-0.014 0.053-0.006 0.022-0.012 0.043-0.016 0.065-0.004 0.021-0.007 0.042-0.010 0.063-0.003 0.019-0.006 0.038-0.008 0.057-0.004 0.041-0.006 0.082-0.006 0.123v5.5c-0 0.691 0.56 1.25 1.25 1.25s1.25-0.56 1.25-1.25v-2.482l7.367 7.367c0.488 0.488 1.28 0.488 1.768 0s0.488-1.28 0-1.768z" fill="#000000"></path>
<path d="M29.994 3.127c-0.002-0.019-0.006-0.038-0.008-0.057-0.003-0.021-0.006-0.042-0.010-0.063s-0.010-0.043-0.016-0.065c-0.005-0.018-0.008-0.036-0.014-0.053-0.006-0.022-0.014-0.042-0.022-0.063-0.006-0.017-0.012-0.035-0.019-0.052-0.008-0.020-0.018-0.039-0.027-0.058-0.008-0.018-0.016-0.035-0.025-0.052-0.010-0.019-0.021-0.037-0.033-0.055-0.010-0.017-0.019-0.034-0.030-0.050-0.014-0.021-0.029-0.040-0.044-0.060-0.010-0.013-0.019-0.026-0.029-0.039-0.052-0.064-0.111-0.123-0.175-0.175-0.013-0.011-0.026-0.020-0.040-0.030-0.019-0.015-0.038-0.030-0.059-0.043-0.017-0.011-0.034-0.021-0.051-0.031s-0.035-0.022-0.054-0.032c-0.018-0.009-0.036-0.017-0.054-0.026s-0.038-0.018-0.057-0.026c-0.018-0.007-0.035-0.013-0.053-0.020-0.021-0.007-0.041-0.015-0.062-0.022-0.018-0.005-0.036-0.009-0.054-0.014-0.021-0.006-0.043-0.011-0.065-0.016-0.021-0.004-0.041-0.006-0.062-0.009-0.020-0.003-0.039-0.006-0.059-0.009-0.037-0.004-0.075-0.005-0.112-0.006-0.004 0-0.007-0.001-0.011-0.001l-5.5 0c-0.69-0-1.25 0.56-1.25 1.25s0.56 1.25 1.25 1.25h2.482l-7.366 7.366c-0.488 0.488-0.488 1.28 0 1.768s1.28 0.488 1.768 0l7.366-7.366v2.482c-0 0.69 0.56 1.25 1.25 1.25s1.25-0.56 1.25-1.25v-5.5c-0-0.041-0.002-0.082-0.006-0.123z" fill="#000000"></path>
<path d="M28.874 29.994c0.019-0.002 0.038-0.006 0.057-0.008 0.021-0.003 0.042-0.006 0.064-0.010s0.043-0.010 0.065-0.016c0.018-0.005 0.036-0.008 0.053-0.014 0.021-0.006 0.042-0.014 0.063-0.022 0.017-0.006 0.035-0.012 0.052-0.019 0.020-0.008 0.039-0.018 0.058-0.027 0.017-0.008 0.035-0.016 0.052-0.025 0.019-0.010 0.037-0.021 0.055-0.033 0.017-0.010 0.034-0.019 0.050-0.030 0.020-0.014 0.040-0.029 0.060-0.044 0.013-0.010 0.026-0.019 0.039-0.029 0.064-0.052 0.123-0.111 0.175-0.175 0.011-0.013 0.020-0.026 0.030-0.040 0.015-0.019 0.030-0.038 0.043-0.059 0.011-0.017 0.021-0.034 0.031-0.051s0.022-0.035 0.032-0.054c0.009-0.018 0.017-0.036 0.026-0.054s0.018-0.038 0.026-0.057c0.007-0.018 0.013-0.035 0.020-0.053 0.007-0.021 0.015-0.041 0.022-0.062 0.005-0.018 0.009-0.036 0.014-0.054 0.006-0.021 0.012-0.043 0.016-0.065 0.004-0.021 0.006-0.041 0.009-0.062 0.003-0.020 0.006-0.039 0.009-0.059 0.004-0.037 0.005-0.075 0.006-0.112 0-0.004 0.001-0.007 0.001-0.011l-0-5.5c0-0.69-0.56-1.25-1.25-1.25s-1.25 0.56-1.25 1.25v2.482l-7.366-7.366c-0.488-0.488-1.28-0.488-1.768 0s-0.488 1.28 0 1.768l7.366 7.366h-2.482c-0.69-0-1.25 0.56-1.25 1.25s0.56 1.25 1.25 1.25h5.5c0.041-0 0.082-0.002 0.123-0.006z" fill="#000000"></path>
<path d="M2.006 28.873c0.002 0.019 0.006 0.038 0.008 0.057 0.003 0.021 0.006 0.042 0.010 0.064s0.010 0.043 0.016 0.065c0.005 0.018 0.008 0.036 0.014 0.053 0.006 0.021 0.014 0.042 0.022 0.063 0.006 0.017 0.012 0.035 0.019 0.052 0.008 0.020 0.018 0.039 0.027 0.058 0.008 0.018 0.016 0.035 0.025 0.052 0.010 0.019 0.022 0.037 0.033 0.055 0.010 0.017 0.019 0.034 0.030 0.050 0.014 0.020 0.029 0.040 0.044 0.060 0.010 0.013 0.019 0.026 0.029 0.039 0.052 0.064 0.111 0.123 0.175 0.175 0.013 0.011 0.026 0.020 0.040 0.030 0.019 0.015 0.038 0.030 0.059 0.043 0.017 0.011 0.034 0.021 0.051 0.031s0.035 0.022 0.054 0.032c0.018 0.009 0.036 0.017 0.054 0.026s0.038 0.018 0.057 0.026c0.018 0.007 0.035 0.013 0.053 0.020 0.021 0.007 0.041 0.015 0.062 0.022 0.018 0.005 0.036 0.009 0.054 0.014 0.022 0.006 0.043 0.012 0.065 0.016 0.021 0.004 0.041 0.006 0.062 0.009 0.019 0.003 0.039 0.006 0.059 0.008 0.037 0.004 0.075 0.005 0.112 0.006 0.004 0 0.007 0 0.011 0l5.5-0c0.69 0 1.25-0.56 1.25-1.25s-0.56-1.25-1.25-1.25h-2.482l7.366-7.366c0.488-0.488 0.488-1.28 0-1.768s-1.28-0.488-1.768 0l-7.366 7.366v-2.482c0-0.69-0.56-1.25-1.25-1.25s-1.25 0.56-1.25 1.25v5.5c0 0.041 0.002 0.082 0.006 0.123z" fill="#000000"></path>
</svg>
