<?xml version="1.0" encoding="utf-8"?>
<!-- Generated by IcoMoon.io -->
<!DOCTYPE svg PUBLIC "-//W3C//DTD SVG 1.1//EN" "http://www.w3.org/Graphics/SVG/1.1/DTD/svg11.dtd">
<svg version="1.1" xmlns="http://www.w3.org/2000/svg" xmlns:xlink="http://www.w3.org/1999/xlink" width="32" height="32" viewBox="0 0 32 32">
<g>
	<line stroke-width="1" x1="" y1="" x2="" y2="" stroke="#449FDB" opacity=""></line>
</g>
	<path d="M28 4.993c-0.004-1.654-1.345-2.993-3-2.993h-19.75c-0.055 0-0.108 0.005-0.161 0.012-0.614 0.079-1.089 0.603-1.089 1.238v25.5c0 0.69 0.56 1.25 1.25 1.25h19.75c1.645 0 2.98-1.324 2.999-2.965h0.001v-22.042l-0-0zM13.952 12.979l-0.338-0.338c-0.244-0.244-0.564-0.366-0.884-0.366s-0.64 0.122-0.884 0.366l-0.341 0.341v-8.482h2.447v8.479zM25.5 24.534v2.39l-0.001 0.082c-0.003 0.272-0.227 0.494-0.499 0.494h-18.5v-23h2.505v11.5c0 0.004 0.001 0.007 0.001 0.011 0 0.037 0.002 0.075 0.006 0.112 0.002 0.020 0.006 0.040 0.009 0.059s0.005 0.041 0.009 0.061c0.004 0.022 0.010 0.044 0.016 0.065 0.005 0.018 0.008 0.036 0.014 0.053 0.007 0.021 0.014 0.042 0.022 0.062 0.006 0.018 0.012 0.035 0.019 0.053 0.008 0.020 0.018 0.038 0.027 0.057 0.009 0.018 0.016 0.036 0.026 0.053 0.010 0.019 0.021 0.036 0.032 0.054 0.010 0.017 0.020 0.034 0.031 0.051 0.014 0.020 0.029 0.040 0.044 0.059 0.010 0.013 0.019 0.026 0.029 0.039 0.053 0.064 0.111 0.123 0.175 0.175 0.013 0.010 0.026 0.019 0.039 0.029 0.020 0.015 0.039 0.030 0.059 0.044 0.017 0.011 0.034 0.021 0.051 0.031 0.018 0.011 0.036 0.022 0.054 0.032s0.036 0.017 0.053 0.026c0.019 0.009 0.038 0.019 0.057 0.027 0.017 0.007 0.035 0.013 0.053 0.019 0.021 0.008 0.041 0.015 0.062 0.022 0.018 0.005 0.036 0.009 0.053 0.014 0.022 0.006 0.043 0.012 0.065 0.016 0.020 0.004 0.041 0.006 0.061 0.009s0.039 0.007 0.059 0.009c0.037 0.004 0.075 0.005 0.112 0.006 0.004 0 0.007 0.001 0.011 0.001s0.007-0.001 0.011-0.001c0.037-0 0.075-0.002 0.112-0.006 0.020-0.002 0.040-0.006 0.059-0.009s0.041-0.005 0.061-0.009c0.022-0.004 0.044-0.010 0.065-0.016 0.018-0.005 0.036-0.008 0.053-0.014 0.021-0.006 0.042-0.014 0.063-0.022 0.018-0.006 0.036-0.012 0.053-0.019 0.020-0.008 0.038-0.018 0.057-0.027 0.018-0.008 0.036-0.016 0.053-0.026 0.019-0.010 0.036-0.021 0.054-0.032s0.034-0.020 0.051-0.031c0.021-0.014 0.040-0.029 0.059-0.044 0.013-0.010 0.026-0.019 0.039-0.029 0.032-0.026 0.063-0.054 0.093-0.084l1.59-1.59 1.499 1.499c0.229 0.284 0.58 0.466 0.973 0.466 0.483 0 0.901-0.274 1.109-0.674 0.003-0.005 0.005-0.010 0.007-0.015 0.014-0.029 0.028-0.058 0.041-0.088 0.010-0.025 0.019-0.050 0.028-0.076 0.003-0.010 0.007-0.020 0.011-0.030 0.045-0.143 0.063-0.292 0.055-0.441v-11.434h8.548c0.275 0 0.499 0.224 0.5 0.499l0 0.11v19.425z" fill="#000000"></path>
</svg>
