<?xml version="1.0" encoding="utf-8"?>
<!-- Generated by IcoMoon.io -->
<!DOCTYPE svg PUBLIC "-//W3C//DTD SVG 1.1//EN" "http://www.w3.org/Graphics/SVG/1.1/DTD/svg11.dtd">
<svg version="1.1" xmlns="http://www.w3.org/2000/svg" xmlns:xlink="http://www.w3.org/1999/xlink" width="32" height="32" viewBox="0 0 32 32">
<g>
	<line stroke-width="1" x1="" y1="" x2="" y2="" stroke="#449FDB" opacity=""></line>
</g>
	<path d="M16.001 2.032c-7.732 0-14 6.268-14 14 0 5.529 3.205 10.308 7.858 12.584l1.854-7.265 8.64 0.004 1.813 7.25c4.641-2.28 7.835-7.053 7.835-12.572 0-7.732-6.268-14-14-14zM14.69 8.867v-0.021h0.001c0.021-0.569 0.474-0.97 1.031-0.97h0.54c0.571 0 1.061 0.477 1.061 1.065 0 0.021-0.002 0.041-0.003 0.062v1.048h-2.629v-1.145c0-0.007-0.001-0.013-0.001-0.019s0.001-0.013 0.001-0.019zM11.768 10.922h8.338l1.299 1.291h-10.936l1.299-1.291zM24.279 19.582c0 0.588-0.3 0.481-0.87 0.481s-0.884 0.107-0.884-0.481v-3.887h-1.579l-0.61 4.789h-8.606l-0.443-2.105-3.561-3.99 3.507-0.022-0.914-1.274h11.386l-0.491 0.853h2.032c0.571 0 1.033 0.3 1.033 0.888v4.749h0v0z" fill="#000000"></path>
</svg>
