<?xml version="1.0" encoding="utf-8"?>
<!-- Generated by IcoMoon.io -->
<!DOCTYPE svg PUBLIC "-//W3C//DTD SVG 1.1//EN" "http://www.w3.org/Graphics/SVG/1.1/DTD/svg11.dtd">
<svg version="1.1" xmlns="http://www.w3.org/2000/svg" xmlns:xlink="http://www.w3.org/1999/xlink" width="32" height="32" viewBox="0 0 32 32">
<g>
	<line stroke-width="1" x1="" y1="" x2="" y2="" stroke="#449FDB" opacity=""></line>
</g>
	<path d="M18 16.896c0 1.105-0.895 2-2 2s-2-0.895-2-2c0-0.633 0.295-1.198 0.754-1.564v-6.044c-0-0.69 0.56-1.25 1.25-1.25s1.25 0.56 1.25 1.25l-0 6.051c0.455 0.367 0.746 0.928 0.746 1.558z" fill="#000000"></path>
	<path d="M25.597 8.218l1.216-1.216c0.488-0.488 0.488-1.28 0-1.768s-1.28-0.488-1.768-0l-1.308 1.308c-1.847-1.367-4.068-2.257-6.482-2.486l0.006-1.556h0.489c0.69 0 1.25-0.56 1.25-1.25s-0.56-1.25-1.25-1.25l-3.5-0c-0.69 0-1.25 0.56-1.25 1.25s0.56 1.25 1.25 1.25h0.511l-0.006 1.556c-6.593 0.63-11.749 6.184-11.749 12.942 0 7.181 5.821 13.002 13.002 13.002s13.002-5.821 13.002-13.002c0-3.385-1.294-6.467-3.413-8.78zM23.434 24.424c-1.984 1.983-4.621 3.076-7.426 3.076s-5.442-1.092-7.426-3.076c-1.984-1.984-3.076-4.621-3.076-7.426s1.092-5.442 3.076-7.426 4.621-3.076 7.426-3.076c2.805 0 5.443 1.092 7.426 3.076s3.076 4.621 3.076 7.426c0 2.805-1.092 5.442-3.076 7.426z" fill="#000000"></path>
</svg>
