<?xml version="1.0" encoding="utf-8"?>
<!-- Generated by IcoMoon.io -->
<!DOCTYPE svg PUBLIC "-//W3C//DTD SVG 1.1//EN" "http://www.w3.org/Graphics/SVG/1.1/DTD/svg11.dtd">
<svg version="1.1" xmlns="http://www.w3.org/2000/svg" xmlns:xlink="http://www.w3.org/1999/xlink" width="32" height="32" viewBox="0 0 32 32">
<path fill="#000000" d="M16 19.495c-0.69 0-1.25-0.56-1.25-1.25v-6.5c0-0.69 0.56-1.25 1.25-1.25v0c0.69 0 1.25 0.56 1.25 1.25v6.5c0 0.69-0.56 1.25-1.25 1.25v0z"></path>
<path fill="#000000" d="M16 23.245c-0.69 0-1.25-0.56-1.25-1.25v0c0-0.69 0.56-1.25 1.25-1.25v0c0.69 0 1.25 0.56 1.25 1.25v0c0 0.69-0.56 1.25-1.25 1.25v0z"></path>
<path fill="#000000" d="M16.004 6.619l10.627 18.407h-21.255l10.627-18.407zM16.004 2.891c-0.453 0-0.906 0.298-1.25 0.893l-12.457 21.577c-0.688 1.191-0.125 2.165 1.25 2.165h24.915c1.375 0 1.938-0.974 1.25-2.165l-12.457-21.577c-0.344-0.595-0.797-0.893-1.25-0.893v0z"></path>
</svg>
