<?xml version="1.0" encoding="utf-8"?>
<!-- Generated by IcoMoon.io -->
<!DOCTYPE svg PUBLIC "-//W3C//DTD SVG 1.1//EN" "http://www.w3.org/Graphics/SVG/1.1/DTD/svg11.dtd">
<svg version="1.1" xmlns="http://www.w3.org/2000/svg" xmlns:xlink="http://www.w3.org/1999/xlink" width="32" height="32" viewBox="0 0 32 32">
<path fill="#000000" d="M29.964 9.121c-0.003-0.023-0.006-0.047-0.011-0.070-0.032-0.154-0.092-0.297-0.174-0.424-0.005-0.007-0.009-0.015-0.014-0.023-0.011-0.016-0.023-0.031-0.035-0.047s-0.024-0.034-0.037-0.049c-0.006-0.007-0.013-0.014-0.019-0.021-0.229-0.265-0.567-0.434-0.945-0.434h-25.5c-0.647 0-1.18 0.492-1.244 1.122-0.004 0.042-0.006 0.085-0.006 0.128v11.5c0 0.604 0.429 1.108 0.998 1.225 0.081 0.017 0.166 0.025 0.252 0.025h7.522c0.69 0 1.25-0.56 1.25-1.25s-0.56-1.25-1.25-1.25h-6.272v-9h23v9h-6.272c-0.69 0-1.25 0.56-1.25 1.25s0.56 1.25 1.25 1.25h7.522c0.647 0 1.18-0.492 1.244-1.122 0.004-0.042 0.006-0.085 0.006-0.128v-11.5c0-0.062-0.006-0.123-0.015-0.182z"></path>
<path fill="#000000" d="M19.991 23.311l-4.213-3.535c-0.353-0.296-0.82-0.363-1.225-0.218-0.008 0.002-0.015 0.005-0.022 0.008-0.009 0.003-0.018 0.007-0.027 0.011-0.402 0.15-0.716 0.501-0.796 0.953l-0.955 5.416c-0.12 0.68 0.334 1.328 1.014 1.448 0.208 0.037 0.414 0.019 0.602-0.042l0.001 0.001 1.488-0.542 0.861 2.364c0.236 0.649 0.954 0.983 1.602 0.747s0.983-0.953 0.747-1.602l-0.861-2.364 1.426-0.52c0.194-0.073 0.371-0.195 0.514-0.365 0.444-0.529 0.375-1.317-0.154-1.761z"></path>
</svg>
