<?xml version="1.0" encoding="utf-8"?>
<!-- Generated by IcoMoon.io -->
<!DOCTYPE svg PUBLIC "-//W3C//DTD SVG 1.1//EN" "http://www.w3.org/Graphics/SVG/1.1/DTD/svg11.dtd">
<svg version="1.1" xmlns="http://www.w3.org/2000/svg" xmlns:xlink="http://www.w3.org/1999/xlink" width="32" height="32" viewBox="0 0 32 32">
<path fill="#000000" d="M27.755 17.238c0.011-0.015 0.023-0.030 0.034-0.046 0.013-0.019 0.024-0.039 0.036-0.059 0.009-0.015 0.019-0.030 0.027-0.046 0.011-0.020 0.020-0.040 0.029-0.060 0.008-0.017 0.016-0.033 0.023-0.051 0.008-0.019 0.015-0.039 0.022-0.059s0.014-0.037 0.020-0.057c0.006-0.020 0.010-0.039 0.015-0.059s0.011-0.040 0.015-0.060c0.005-0.023 0.007-0.045 0.010-0.068 0.003-0.018 0.006-0.035 0.008-0.053 0.008-0.082 0.008-0.165 0-0.247-0.002-0.018-0.005-0.036-0.008-0.055-0.003-0.022-0.006-0.044-0.010-0.066s-0.010-0.041-0.015-0.062c-0.005-0.019-0.009-0.038-0.015-0.057-0.006-0.020-0.014-0.040-0.021-0.060-0.007-0.019-0.013-0.037-0.020-0.056s-0.017-0.037-0.025-0.055c-0.009-0.019-0.017-0.038-0.027-0.056s-0.020-0.034-0.030-0.052c-0.011-0.018-0.021-0.036-0.032-0.053-0.013-0.019-0.027-0.038-0.041-0.056-0.011-0.014-0.020-0.028-0.031-0.042-0.026-0.032-0.054-0.063-0.084-0.092l-5.724-5.739 5.725-5.74c0.004-0.004 0.008-0.009 0.012-0.013 0.025-0.025 0.048-0.051 0.071-0.078 0.013-0.016 0.025-0.033 0.037-0.050s0.024-0.032 0.036-0.049c0.013-0.019 0.024-0.039 0.035-0.058 0.009-0.015 0.019-0.031 0.027-0.047 0.011-0.020 0.019-0.040 0.029-0.060 0.008-0.017 0.017-0.034 0.024-0.051 0.008-0.019 0.015-0.039 0.022-0.059s0.014-0.037 0.020-0.057c0.006-0.020 0.010-0.039 0.015-0.059s0.011-0.039 0.014-0.059c0.005-0.023 0.007-0.046 0.011-0.069 0.002-0.018 0.006-0.035 0.008-0.052 0.008-0.082 0.008-0.165 0-0.247-0.002-0.018-0.005-0.036-0.008-0.055-0.003-0.022-0.006-0.044-0.010-0.066-0.004-0.021-0.010-0.041-0.015-0.062-0.005-0.019-0.009-0.038-0.015-0.057s-0.014-0.039-0.020-0.059c-0.007-0.019-0.013-0.038-0.021-0.057s-0.016-0.035-0.024-0.053c-0.009-0.020-0.018-0.039-0.028-0.058-0.009-0.016-0.019-0.032-0.028-0.047-0.011-0.019-0.022-0.039-0.035-0.058-0.011-0.017-0.023-0.032-0.035-0.048s-0.024-0.034-0.038-0.050c-0.020-0.025-0.042-0.048-0.064-0.071-0.006-0.007-0.012-0.014-0.018-0.020s-0.014-0.012-0.021-0.019c-0.023-0.022-0.046-0.043-0.070-0.064-0.016-0.013-0.033-0.025-0.049-0.037s-0.032-0.025-0.049-0.036c-0.018-0.012-0.037-0.023-0.056-0.034-0.016-0.010-0.032-0.020-0.049-0.029-0.018-0.010-0.037-0.018-0.056-0.027s-0.036-0.018-0.055-0.026c-0.018-0.007-0.036-0.013-0.054-0.020-0.021-0.007-0.041-0.015-0.062-0.022-0.017-0.005-0.035-0.009-0.053-0.014-0.022-0.006-0.044-0.012-0.066-0.016-0.019-0.004-0.039-0.006-0.058-0.009-0.021-0.003-0.042-0.007-0.063-0.009-0.033-0.003-0.067-0.004-0.1-0.005-0.008-0-0.015-0.001-0.023-0.001h-21.5c-0.604 0-1.108 0.429-1.225 0.998-0.017 0.081-0.025 0.166-0.025 0.252v25.5c0 0.69 0.56 1.25 1.25 1.25s1.25-0.56 1.25-1.25v-11.003h20.249c0.041 0 0.083-0.002 0.124-0.006 0.017-0.002 0.034-0.005 0.052-0.007 0.023-0.003 0.046-0.006 0.069-0.011 0.020-0.004 0.040-0.010 0.059-0.015s0.040-0.009 0.059-0.015c0.019-0.006 0.038-0.013 0.057-0.020s0.040-0.014 0.059-0.022c0.017-0.007 0.034-0.016 0.051-0.024 0.020-0.009 0.040-0.018 0.060-0.029 0.016-0.009 0.031-0.018 0.046-0.027 0.020-0.012 0.040-0.023 0.059-0.036 0.016-0.011 0.031-0.023 0.047-0.034 0.017-0.013 0.035-0.025 0.051-0.038 0.024-0.020 0.047-0.041 0.069-0.063 0.007-0.007 0.015-0.013 0.022-0.020s0.012-0.014 0.019-0.021c0.022-0.023 0.043-0.046 0.063-0.070 0.014-0.017 0.026-0.035 0.039-0.052zM6.5 4.5h17.238l-4.366 4.378c-0.041 0.032-0.082 0.066-0.12 0.104-0.246 0.246-0.368 0.569-0.366 0.892-0.002 0.323 0.12 0.646 0.366 0.892 0.038 0.038 0.079 0.072 0.12 0.104l4.366 4.377h-17.238v-10.747z"></path>
</svg>
