<?xml version="1.0" encoding="utf-8"?>
<!-- Generated by IcoMoon.io -->
<!DOCTYPE svg PUBLIC "-//W3C//DTD SVG 1.1//EN" "http://www.w3.org/Graphics/SVG/1.1/DTD/svg11.dtd">
<svg version="1.1" xmlns="http://www.w3.org/2000/svg" xmlns:xlink="http://www.w3.org/1999/xlink" width="32" height="32" viewBox="0 0 32 32">
<path fill="#000000" d="M16 4.5c3.072 0 5.96 1.196 8.132 3.368s3.368 5.060 3.368 8.132c0 3.072-1.196 5.96-3.368 8.132s-5.060 3.368-8.132 3.368c-3.072 0-5.96-1.196-8.132-3.368s-3.368-5.060-3.368-8.132c0-3.072 1.196-5.96 3.368-8.132s5.060-3.368 8.132-3.368zM16 2c-7.732 0-14 6.268-14 14s6.268 14 14 14 14-6.268 14-14-6.268-14-14-14v0z"></path>
<path fill="#000000" d="M23.936 16.027c0.001-0.050 0-0.101-0.005-0.151-0.002-0.018-0.005-0.036-0.008-0.053-0.003-0.023-0.006-0.045-0.010-0.068-0.004-0.021-0.010-0.040-0.015-0.061s-0.009-0.039-0.015-0.058c-0.006-0.020-0.013-0.039-0.020-0.058s-0.013-0.039-0.021-0.057c-0.007-0.018-0.016-0.035-0.024-0.053-0.009-0.020-0.018-0.039-0.028-0.058-0.009-0.017-0.019-0.033-0.029-0.049-0.011-0.019-0.022-0.038-0.034-0.056s-0.026-0.036-0.039-0.053c-0.011-0.015-0.022-0.030-0.034-0.045-0.026-0.032-0.054-0.063-0.083-0.092l-3.889-3.889c-0.488-0.488-1.28-0.488-1.768 0s-0.488 1.28 0 1.768l1.755 1.755h-10.482c-0.69 0-1.25 0.56-1.25 1.25s0.56 1.25 1.25 1.25h10.538l-1.811 1.811c-0.488 0.488-0.488 1.28 0 1.768s1.28 0.488 1.768 0l3.889-3.889c0.251-0.251 0.372-0.583 0.365-0.912z"></path>
</svg>
