<?xml version="1.0" encoding="utf-8"?>
<!-- Generated by IcoMoon.io -->
<!DOCTYPE svg PUBLIC "-//W3C//DTD SVG 1.1//EN" "http://www.w3.org/Graphics/SVG/1.1/DTD/svg11.dtd">
<svg version="1.1" xmlns="http://www.w3.org/2000/svg" xmlns:xlink="http://www.w3.org/1999/xlink" width="32" height="32" viewBox="0 0 32 32">
<path fill="#000000" d="M8.003 27.033c0 1.657-1.343 3-3 3s-3-1.343-3-3c0-1.657 1.343-3 3-3s3 1.343 3 3zM15.938 28.698c-0.001-0.005-0.001-0.011-0.002-0.016-0.002-0.021-0.004-0.042-0.007-0.063-0.331-3.301-1.808-6.264-4.028-8.486v0c-2.221-2.22-5.185-3.698-8.486-4.029-0.021-0.003-0.042-0.005-0.063-0.007-0.005-0-0.011-0.001-0.016-0.002-0.008-0.001-0.016-0.001-0.023-0-0.020-0.001-0.040-0.003-0.060-0.003-0.691 0-1.25 0.56-1.25 1.25 0 0.643 0.486 1.172 1.111 1.242 0.001 0 0.002 0.001 0.003 0.001 2.651 0.253 5.11 1.407 7.017 3.314v0c1.907 1.907 3.061 4.367 3.315 7.018 0 0.001 0.001 0.002 0.001 0.003 0.069 0.625 0.599 1.111 1.242 1.111 0.69 0 1.25-0.559 1.25-1.25 0-0.020-0.002-0.040-0.003-0.060 0-0.008 0-0.015-0.001-0.023zM22.959 28.702c-0-0.003-0.001-0.006-0.001-0.009-0.001-0.017-0.002-0.034-0.004-0.051-0.343-5.244-2.611-9.963-6.104-13.457l0-0c-3.494-3.493-8.213-5.762-13.458-6.105-0.017-0.002-0.034-0.003-0.051-0.004-0.003-0-0.006-0.001-0.009-0.001-0.001-0-0.001 0-0.002 0-0.026-0.002-0.052-0.004-0.079-0.004-0.69 0-1.25 0.56-1.25 1.25 0 0.657 0.508 1.195 1.152 1.245 0.001 0 0.002 0.001 0.004 0.001 2.090 0.128 4.118 0.603 6.044 1.418 2.202 0.931 4.181 2.265 5.88 3.965v0c1.7 1.7 3.034 3.678 3.966 5.881 0.814 1.926 1.29 3.954 1.418 6.044 0 0.002 0.001 0.003 0.001 0.004 0.050 0.645 0.588 1.152 1.245 1.152 0.69 0 1.25-0.559 1.25-1.25 0-0.027-0.002-0.052-0.004-0.079-0-0.001 0-0.001 0-0.002zM29.973 28.767c-0-0.003 0-0.005 0-0.008-0.323-7.225-3.385-13.738-8.171-18.525v-0c-4.788-4.787-11.3-7.849-18.526-8.172-0.003-0-0.005 0-0.008 0-0.006-0-0.011-0.001-0.016-0.001-0.691 0-1.25 0.56-1.25 1.25 0 0.656 0.505 1.193 1.147 1.245 0.006 0.001 0.011 0.003 0.018 0.003 3.032 0.135 5.975 0.798 8.762 1.977 3.036 1.284 5.763 3.123 8.105 5.465v0c2.343 2.343 4.182 5.070 5.466 8.106 1.179 2.787 1.842 5.729 1.977 8.762 0 0.006 0.002 0.012 0.003 0.018 0.052 0.642 0.589 1.148 1.245 1.148 0.69 0 1.25-0.56 1.25-1.25 0-0.005-0.001-0.011-0.001-0.016z"></path>
</svg>
