<?xml version="1.0" encoding="utf-8"?>
<!-- Generated by IcoMoon.io -->
<!DOCTYPE svg PUBLIC "-//W3C//DTD SVG 1.1//EN" "http://www.w3.org/Graphics/SVG/1.1/DTD/svg11.dtd">
<svg version="1.1" xmlns="http://www.w3.org/2000/svg" xmlns:xlink="http://www.w3.org/1999/xlink" width="32" height="32" viewBox="0 0 32 32">
<g>
</g>
	<path d="M16 2c-7.732 0-14 6.268-14 14s6.268 14 14 14 14-6.268 14-14-6.268-14-14-14zM24.132 24.132c-2.172 2.172-5.060 3.368-8.132 3.368-3.072 0-5.96-1.196-8.132-3.368-2.172-2.172-3.368-5.060-3.368-8.132 0-3.072 1.196-5.96 3.368-8.132 2.172-2.172 5.060-3.368 8.132-3.368 3.072 0 5.96 1.196 8.132 3.368 2.172 2.172 3.368 5.060 3.368 8.132 0 3.072-1.196 5.96-3.368 8.132zM20.773 17.977c0.488 0.488 0.488 1.28 0 1.768l-3.889 3.889c-0.029 0.029-0.060 0.057-0.092 0.083-0.015 0.012-0.030 0.022-0.045 0.034-0.018 0.013-0.035 0.027-0.053 0.039-0.018 0.012-0.037 0.023-0.056 0.034-0.016 0.010-0.032 0.020-0.049 0.029-0.019 0.010-0.039 0.019-0.058 0.028-0.017 0.008-0.035 0.017-0.053 0.024-0.019 0.008-0.038 0.014-0.057 0.021-0.019 0.007-0.038 0.014-0.058 0.020-0.019 0.006-0.039 0.010-0.058 0.015-0.020 0.005-0.040 0.011-0.061 0.015-0.022 0.004-0.045 0.007-0.067 0.010-0.018 0.003-0.035 0.006-0.053 0.008-0.050 0.005-0.1 0.006-0.151 0.005-0.329 0.007-0.661-0.113-0.912-0.365l-3.889-3.889c-0.488-0.488-0.488-1.28 0-1.768 0.488-0.488 1.28-0.488 1.768-0l1.811 1.811v-10.538c0-0.69 0.56-1.25 1.25-1.25 0.69 0 1.25 0.56 1.25 1.25v10.482l1.755-1.755c0.488-0.488 1.28-0.488 1.768 0z" fill="#000000"></path>
</svg>
