<?xml version="1.0" encoding="utf-8"?>
<!-- Generated by IcoMoon.io -->
<!DOCTYPE svg PUBLIC "-//W3C//DTD SVG 1.1//EN" "http://www.w3.org/Graphics/SVG/1.1/DTD/svg11.dtd">
<svg version="1.1" xmlns="http://www.w3.org/2000/svg" xmlns:xlink="http://www.w3.org/1999/xlink" width="32" height="32" viewBox="0 0 32 32">
<g>
</g>
	<path d="M16.238 17.343c1.33 0 2.619-0.26 3.833-0.773 0.209-0.088 0.413-0.183 0.614-0.285v-0.215c0-1.345-2.782-2.572-3.526-2.691-0.231-0.037-0.236-0.673-0.236-0.673s0.68-0.673 0.828-1.577c0.398 0 0.644-0.962 0.246-1.3 0.017-0.356 0.512-2.796-1.996-2.796-2.508 0-2.013 2.44-1.996 2.796-0.398 0.338-0.152 1.3 0.246 1.3 0.148 0.905 0.828 1.577 0.828 1.577s-0.005 0.636-0.236 0.673c-0.737 0.117-3.467 1.319-3.525 2.648 0.351 0.203 0.714 0.384 1.091 0.543 1.213 0.513 2.503 0.773 3.833 0.773z" fill="#000000"></path>
	<path d="M25 4.531c0.275 0 0.499 0.224 0.5 0.499l0 0.11v21.815l-0.001 0.082c-0.003 0.272-0.227 0.494-0.499 0.494h-18.5v-23h18.5zM25 2.031h-19.75c-0.055 0-0.108 0.005-0.161 0.012-0.614 0.079-1.089 0.603-1.089 1.238v25.5c0 0.69 0.56 1.25 1.25 1.25h19.75c1.645 0 2.98-1.324 2.999-2.965h0.001v-22.042l-0-0c-0.004-1.654-1.345-2.993-3-2.993v0z" fill="#000000"></path>
	<path d="M22.384 25.406h-12.759c-0.345 0-0.625-0.28-0.625-0.625s0.28-0.625 0.625-0.625h12.759c0.345 0 0.625 0.28 0.625 0.625s-0.28 0.625-0.625 0.625z" fill="#000000"></path>
	<path d="M22.384 22.656h-12.759c-0.345 0-0.625-0.28-0.625-0.625s0.28-0.625 0.625-0.625h12.759c0.345 0 0.625 0.28 0.625 0.625s-0.28 0.625-0.625 0.625z" fill="#000000"></path>
	<path d="M22.384 19.906h-12.759c-0.345 0-0.625-0.28-0.625-0.625s0.28-0.625 0.625-0.625h12.759c0.345 0 0.625 0.28 0.625 0.625s-0.28 0.625-0.625 0.625z" fill="#000000"></path>
</svg>
