<?xml version="1.0" encoding="utf-8"?>
<!-- Generated by IcoMoon.io -->
<!DOCTYPE svg PUBLIC "-//W3C//DTD SVG 1.1//EN" "http://www.w3.org/Graphics/SVG/1.1/DTD/svg11.dtd">
<svg version="1.1" xmlns="http://www.w3.org/2000/svg" xmlns:xlink="http://www.w3.org/1999/xlink" width="32" height="32" viewBox="0 0 32 32">
<path fill="#000000" d="M16.001 8.179c1.578 0 3.231 0.407 4.915 1.209 1.432 0.683 2.887 1.649 4.324 2.872 1.675 1.425 2.946 2.878 3.645 3.741-0.697 0.861-1.965 2.311-3.644 3.74-1.438 1.223-2.892 2.189-4.324 2.872-1.684 0.802-3.337 1.209-4.915 1.209s-3.231-0.407-4.915-1.209c-1.432-0.682-2.887-1.649-4.324-2.872-1.678-1.428-2.947-2.879-3.644-3.74 0.699-0.863 1.97-2.315 3.644-3.741 1.437-1.223 2.892-2.19 4.324-2.872 1.684-0.802 3.337-1.209 4.915-1.209zM16.001 5.679c-8.545 0-15.24 9.257-15.521 9.65l-0.479 0.672 0.479 0.671c0.281 0.394 6.976 9.65 15.521 9.65 8.544 0 15.24-9.256 15.521-9.65l0.479-0.671-0.479-0.672c-0.281-0.394-6.977-9.65-15.521-9.65v0z"></path>
<path fill="#000000" d="M21.716 16.001c0 3.157-2.559 5.715-5.715 5.715s-5.715-2.559-5.715-5.715c0-3.156 2.559-5.715 5.715-5.715s5.715 2.559 5.715 5.715z"></path>
</svg>
